<?xml version="1.0" encoding="UTF-8" standalone="no"?>
<svg
   height="145.106862pt"
   version="1.1"
   viewBox="0 0 243.779528 145.106862"
   width="243.779528pt"
   id="svg280"
   sodipodi:docname="exp_line.svg"
   inkscape:version="1.1 (c68e22c387, 2021-05-23)"
   xmlns:inkscape="http://www.inkscape.org/namespaces/inkscape"
   xmlns:sodipodi="http://sodipodi.sourceforge.net/DTD/sodipodi-0.dtd"
   xmlns="http://www.w3.org/2000/svg"
   xmlns:svg="http://www.w3.org/2000/svg"
   xmlns:rdf="http://www.w3.org/1999/02/22-rdf-syntax-ns#"
   xmlns:cc="http://creativecommons.org/ns#"
   xmlns:dc="http://purl.org/dc/elements/1.1/">
  <sodipodi:namedview
     id="namedview282"
     pagecolor="#ffffff"
     bordercolor="#999999"
     borderopacity="1"
     inkscape:pageshadow="0"
     inkscape:pageopacity="0"
     inkscape:pagecheckerboard="0"
     inkscape:document-units="pt"
     showgrid="false"
     inkscape:zoom="3.2549903"
     inkscape:cx="162.36607"
     inkscape:cy="70.507122"
     inkscape:window-width="2560"
     inkscape:window-height="1377"
     inkscape:window-x="-8"
     inkscape:window-y="-8"
     inkscape:window-maximized="1"
     inkscape:current-layer="line2d_9" />
  <metadata
     id="metadata2">
    <rdf:RDF>
      <cc:Work>
        <dc:type
           rdf:resource="http://purl.org/dc/dcmitype/StillImage" />
        <dc:date>2021-11-12T12:33:35.939656</dc:date>
        <dc:format>image/svg+xml</dc:format>
        <dc:creator>
          <cc:Agent>
            <dc:title>Matplotlib v3.4.2, https://matplotlib.org/</dc:title>
          </cc:Agent>
        </dc:creator>
      </cc:Work>
    </rdf:RDF>
  </metadata>
  <defs
     id="defs6">
    <style
       type="text/css"
       id="style4">*{stroke-linecap:butt;stroke-linejoin:round;}</style>
    <clipPath
       id="pcf0fee79e2-1">
      <rect
         height="98.696014"
         width="193.49428"
         x="39.485249"
         y="10.8"
         id="rect275-6" />
    </clipPath>
  </defs>
  <g
     id="figure_1">
    <g
       id="axes_1">
      <g
         id="line2d_9"
         transform="translate(40.517483,141.11173)">
        <g
           id="line2d_9-5"
           style="stroke-linecap:butt;stroke-linejoin:round"
           transform="translate(-59.823496,-138.42711)">
          <path
             clip-path="url(#pcf0fee79e2-1)"
             d="m 48.280442,61.380093 0.999454,-2.110573 0.999454,-6.543796 0.999453,-2.715209 0.999454,0.216293 0.999454,1.503206 0.999454,-1.73763 0.999454,1.457545 0.999454,3.300223 0.999454,1.786566 0.999454,2.390514 0.999454,1.534563 0.999454,1.170396 0.999454,0.402699 0.999454,2.123586 0.999454,1.214078 0.999454,2.755768 1.998907,3.526293 0.999454,1.302212 2.998362,4.640648 0.999454,2.090752 0.999454,2.619019 0.999454,3.570391 0.999454,4.101101 0.999454,3.026746 3.997815,9.590666 0.999454,1.78009 0.999454,0.63359 0.999454,-0.21618 0.999454,-1.25055 0.999454,-2.61345 0.999454,-3.26797 0.999454,-4.581186 2.998362,-17.920606 2.998361,-21.608369 0.999454,-6.891547 0.999454,-5.140862 0.999454,-3.544125 0.999454,-2.853792 0.999454,-1.216215 0.999454,0.171951 0.999454,2.229814 0.999458,3.052905 0.99945,3.686717 3.99782,17.338661 0.99945,2.329657 0.99945,1.368384 0.99946,-0.601349 0.99945,-2.567965 0.99945,-4.47518 1.99891,-11.914261 1.99891,-14.39851 0.99945,-6.062662 0.99946,-5.186503 0.99945,-2.804449 0.99946,-0.786005 0.99945,0.67391 0.99945,3.799514 0.99946,5.040083 1.99891,14.49091 1.9989,14.783843 0.99946,5.817544 0.99945,3.823903 0.99946,2.0172 0.99945,-0.174976 0.99945,-1.96128 0.99946,-3.644421 0.99945,-4.11863 1.99891,-9.186664 0.99945,-2.810634 0.99946,-1.962088 0.99945,0.52059 0.99945,1.321575 0.99946,2.562009 0.99945,3.0654 0.99946,2.631785 0.99945,2.145269 0.99945,0.392033 0.99946,-1.094123 0.99945,-2.73102 0.99946,-4.082241 2.99836,-14.094869 0.99945,-2.99788 0.99946,-1.025513 0.99945,0.891413 0.99945,2.804246 1.99891,10.825226 0.99946,5.539507 0.99945,4.397355 0.99945,2.819781 0.99946,0.960908 0.99945,-1.334632 0.99946,-2.83042 1.9989,-8.255083 0.99946,-3.574799 0.99945,-2.719825 0.99945,-0.604567 0.99946,1.139608 0.99945,2.388699 1.99891,5.895722 0.99945,2.245134 0.99946,1.235994 0.99945,-0.88017 0.99946,-1.547169 0.99945,-1.830396 0.99945,-2.272296 0.99946,-1.297612 0.99945,-0.228821 0.99946,1.087862 0.99945,2.17599 1.99891,5.363623 0.99945,1.819659 0.99946,0.687792 0.99945,-1.43405 0.99945,-2.630197 1.99891,-7.599042 0.99946,-2.979255 0.99945,-1.66438 0.99945,-0.02235 0.99946,1.951133 0.99945,2.836331 1.99891,6.798941 0.99945,2.17356 0.99946,0.918513 0.99945,-1.816999 0.99945,-2.56773 0.99946,-3.397687 0.99945,-2.964299 0.99946,-1.661814 0.99945,0.0067 0.99945,1.204716 0.99946,2.246039 0.99945,2.537659 0.99946,1.939617 0.99945,-0.0028 0.99945,0.222274 0.99946,-0.689873 0.99945,-1.57183 0.99946,-0.592993 0.99945,-1.001162 0.99945,0.946685 1.99891,2.672381 0.99945,1.710464 0.99946,1.454786 0.99945,-1.178656 0.99946,-2.013763 0.99945,-2.432636 0.99945,-2.831467 0.99946,-1.451976 0.99945,-0.383882 v 0"
             style="fill:none;stroke:#1f77b4;stroke-width:1.5;stroke-linecap:square"
             id="path222-1" />
        </g>
      </g>
    </g>
  </g>
  <defs
     id="defs278">
    <clipPath
       id="pcf0fee79e2">
      <rect
         height="98.696017"
         width="193.49428"
         x="39.485247"
         y="10.8"
         id="rect275" />
    </clipPath>
  </defs>
</svg>
