<?xml version="1.0" encoding="utf-8" standalone="no"?>
<!DOCTYPE svg PUBLIC "-//W3C//DTD SVG 1.1//EN"
  "http://www.w3.org/Graphics/SVG/1.1/DTD/svg11.dtd">
<svg height="186.874045pt" version="1.1" viewBox="0 0 302.362205 186.874045" width="302.362205pt" xmlns="http://www.w3.org/2000/svg" xmlns:xlink="http://www.w3.org/1999/xlink">
 <metadata>
  <rdf:RDF xmlns:cc="http://creativecommons.org/ns#" xmlns:dc="http://purl.org/dc/elements/1.1/" xmlns:rdf="http://www.w3.org/1999/02/22-rdf-syntax-ns#">
   <cc:Work>
    <dc:type rdf:resource="http://purl.org/dc/dcmitype/StillImage"/>
    <dc:date>2021-06-22T17:11:02.173088</dc:date>
    <dc:format>image/svg+xml</dc:format>
    <dc:creator>
     <cc:Agent>
      <dc:title>Matplotlib v3.4.2, https://matplotlib.org/</dc:title>
     </cc:Agent>
    </dc:creator>
   </cc:Work>
  </rdf:RDF>
 </metadata>
 <defs>
  <style type="text/css">*{stroke-linecap:butt;stroke-linejoin:round;}</style>
 </defs>
 <g id="figure_1">
  <g id="patch_1">
   <path d="M 0 186.874045 
L 302.362205 186.874045 
L 302.362205 0 
L 0 0 
z
" style="fill:none;"/>
  </g>
  <g id="axes_1">
   <g id="patch_2">
    <path d="M 52.062064 144.995837 
L 285.709214 144.995837 
L 285.709214 10.8 
L 52.062064 10.8 
z
" style="fill:#ffffff;"/>
   </g>
   <g id="matplotlib.axis_1">
    <g id="xtick_1">
     <g id="line2d_1">
      <defs>
       <path d="M 0 0 
L 0 -3.5 
" id="mf897639596" style="stroke:#000000;stroke-width:0.8;"/>
      </defs>
      <g>
       <use style="stroke:#000000;stroke-width:0.8;" x="63.856977" xlink:href="#mf897639596" y="144.995837"/>
      </g>
     </g>
     <g id="text_1">
      <!-- $\mathdefault{0}$ -->
      <g transform="translate(60.930482 156.798017)scale(0.12 -0.12)">
       <defs>
        <path d="M 2688 2038 
C 2688 2430 2682 3099 2413 3613 
C 2176 4063 1798 4224 1466 4224 
C 1158 4224 768 4082 525 3620 
C 269 3137 243 2539 243 2038 
C 243 1671 250 1112 448 623 
C 723 -39 1216 -128 1466 -128 
C 1760 -128 2208 -7 2470 604 
C 2662 1048 2688 1568 2688 2038 
z
M 1466 -26 
C 1056 -26 813 328 723 816 
C 653 1196 653 1749 653 2109 
C 653 2604 653 3015 736 3407 
C 858 3954 1216 4121 1466 4121 
C 1728 4121 2067 3947 2189 3420 
C 2272 3054 2278 2623 2278 2109 
C 2278 1691 2278 1176 2202 797 
C 2067 96 1690 -26 1466 -26 
z
" id="CMR17-30" transform="scale(0.015625)"/>
       </defs>
       <use transform="scale(0.996264)" xlink:href="#CMR17-30"/>
      </g>
     </g>
    </g>
    <g id="xtick_2">
     <g id="line2d_2">
      <g>
       <use style="stroke:#000000;stroke-width:0.8;" x="91.588507" xlink:href="#mf897639596" y="144.995837"/>
      </g>
     </g>
     <g id="text_2">
      <!-- $\mathdefault{2}$ -->
      <g transform="translate(88.662012 156.798017)scale(0.12 -0.12)">
       <defs>
        <path d="M 2669 990 
L 2554 990 
C 2490 537 2438 460 2413 422 
C 2381 371 1920 371 1830 371 
L 602 371 
C 832 620 1280 1073 1824 1596 
C 2214 1966 2669 2400 2669 3033 
C 2669 3788 2067 4224 1395 4224 
C 691 4224 262 3603 262 3027 
C 262 2777 448 2745 525 2745 
C 589 2745 781 2783 781 3007 
C 781 3206 614 3264 525 3264 
C 486 3264 448 3257 422 3244 
C 544 3788 915 4057 1306 4057 
C 1862 4057 2227 3616 2227 3033 
C 2227 2477 1901 1998 1536 1583 
L 262 147 
L 262 0 
L 2515 0 
L 2669 990 
z
" id="CMR17-32" transform="scale(0.015625)"/>
       </defs>
       <use transform="scale(0.996264)" xlink:href="#CMR17-32"/>
      </g>
     </g>
    </g>
    <g id="xtick_3">
     <g id="line2d_3">
      <g>
       <use style="stroke:#000000;stroke-width:0.8;" x="119.320036" xlink:href="#mf897639596" y="144.995837"/>
      </g>
     </g>
     <g id="text_3">
      <!-- $\mathdefault{4}$ -->
      <g transform="translate(116.393541 156.798017)scale(0.12 -0.12)">
       <defs>
        <path d="M 2150 4147 
C 2150 4281 2144 4288 2029 4288 
L 128 1254 
L 128 1088 
L 1779 1088 
L 1779 460 
C 1779 230 1766 166 1318 166 
L 1197 166 
L 1197 0 
C 1402 12 1747 12 1965 12 
C 2182 12 2528 12 2733 0 
L 2733 166 
L 2611 166 
C 2163 166 2150 230 2150 460 
L 2150 1088 
L 2803 1088 
L 2803 1254 
L 2150 1254 
L 2150 4147 
z
M 1798 3723 
L 1798 1254 
L 256 1254 
L 1798 3723 
z
" id="CMR17-34" transform="scale(0.015625)"/>
       </defs>
       <use transform="scale(0.996264)" xlink:href="#CMR17-34"/>
      </g>
     </g>
    </g>
    <g id="xtick_4">
     <g id="line2d_4">
      <g>
       <use style="stroke:#000000;stroke-width:0.8;" x="147.051566" xlink:href="#mf897639596" y="144.995837"/>
      </g>
     </g>
     <g id="text_4">
      <!-- $\mathdefault{6}$ -->
      <g transform="translate(144.125071 156.798017)scale(0.12 -0.12)">
       <defs>
        <path d="M 678 2198 
C 678 3712 1395 4076 1811 4076 
C 1946 4076 2272 4049 2400 3782 
C 2298 3782 2106 3782 2106 3558 
C 2106 3385 2246 3328 2336 3328 
C 2394 3328 2566 3353 2566 3571 
C 2566 3987 2246 4224 1805 4224 
C 1043 4224 243 3411 243 2011 
C 243 257 966 -128 1478 -128 
C 2099 -128 2688 431 2688 1295 
C 2688 2101 2170 2688 1517 2688 
C 1126 2688 838 2430 678 1979 
L 678 2198 
z
M 1478 25 
C 691 25 691 1212 691 1450 
C 691 1914 909 2585 1504 2585 
C 1613 2585 1926 2585 2138 2140 
C 2253 1889 2253 1624 2253 1302 
C 2253 954 2253 696 2118 438 
C 1978 173 1773 25 1478 25 
z
" id="CMR17-36" transform="scale(0.015625)"/>
       </defs>
       <use transform="scale(0.996264)" xlink:href="#CMR17-36"/>
      </g>
     </g>
    </g>
    <g id="xtick_5">
     <g id="line2d_5">
      <g>
       <use style="stroke:#000000;stroke-width:0.8;" x="174.783096" xlink:href="#mf897639596" y="144.995837"/>
      </g>
     </g>
     <g id="text_5">
      <!-- $\mathdefault{8}$ -->
      <g transform="translate(171.856601 156.798017)scale(0.12 -0.12)">
       <defs>
        <path d="M 1741 2289 
C 2144 2494 2554 2803 2554 3298 
C 2554 3884 1990 4224 1472 4224 
C 890 4224 378 3800 378 3215 
C 378 3054 416 2777 666 2533 
C 730 2469 998 2276 1171 2154 
C 883 2006 211 1652 211 945 
C 211 282 838 -128 1459 -128 
C 2144 -128 2720 366 2720 1022 
C 2720 1607 2330 1877 2074 2051 
L 1741 2289 
z
M 902 2855 
C 851 2887 595 3086 595 3388 
C 595 3781 998 4076 1459 4076 
C 1965 4076 2336 3716 2336 3298 
C 2336 2700 1670 2359 1638 2359 
C 1632 2359 1626 2359 1574 2398 
L 902 2855 
z
M 2080 1536 
C 2176 1466 2483 1253 2483 861 
C 2483 385 2010 25 1472 25 
C 890 25 448 443 448 951 
C 448 1459 838 1884 1280 2083 
L 2080 1536 
z
" id="CMR17-38" transform="scale(0.015625)"/>
       </defs>
       <use transform="scale(0.996264)" xlink:href="#CMR17-38"/>
      </g>
     </g>
    </g>
    <g id="xtick_6">
     <g id="line2d_6">
      <g>
       <use style="stroke:#000000;stroke-width:0.8;" x="202.514625" xlink:href="#mf897639596" y="144.995837"/>
      </g>
     </g>
     <g id="text_6">
      <!-- $\mathdefault{10}$ -->
      <g transform="translate(196.661635 156.798017)scale(0.12 -0.12)">
       <defs>
        <path d="M 1702 4083 
C 1702 4217 1696 4224 1606 4224 
C 1357 3927 979 3833 621 3820 
C 602 3820 570 3820 563 3808 
C 557 3795 557 3782 557 3648 
C 755 3648 1088 3686 1344 3839 
L 1344 467 
C 1344 243 1331 166 781 166 
L 589 166 
L 589 0 
C 896 6 1216 12 1523 12 
C 1830 12 2150 6 2458 0 
L 2458 166 
L 2266 166 
C 1715 166 1702 236 1702 467 
L 1702 4083 
z
" id="CMR17-31" transform="scale(0.015625)"/>
       </defs>
       <use transform="scale(0.996264)" xlink:href="#CMR17-31"/>
       <use transform="translate(45.690477 0)scale(0.996264)" xlink:href="#CMR17-30"/>
      </g>
     </g>
    </g>
    <g id="xtick_7">
     <g id="line2d_7">
      <g>
       <use style="stroke:#000000;stroke-width:0.8;" x="230.246155" xlink:href="#mf897639596" y="144.995837"/>
      </g>
     </g>
     <g id="text_7">
      <!-- $\mathdefault{12}$ -->
      <g transform="translate(224.393165 156.798017)scale(0.12 -0.12)">
       <use transform="scale(0.996264)" xlink:href="#CMR17-31"/>
       <use transform="translate(45.690477 0)scale(0.996264)" xlink:href="#CMR17-32"/>
      </g>
     </g>
    </g>
    <g id="xtick_8">
     <g id="line2d_8">
      <g>
       <use style="stroke:#000000;stroke-width:0.8;" x="257.977685" xlink:href="#mf897639596" y="144.995837"/>
      </g>
     </g>
     <g id="text_8">
      <!-- $\mathdefault{14}$ -->
      <g transform="translate(252.124695 156.798017)scale(0.12 -0.12)">
       <use transform="scale(0.996264)" xlink:href="#CMR17-31"/>
       <use transform="translate(45.690477 0)scale(0.996264)" xlink:href="#CMR17-34"/>
      </g>
     </g>
    </g>
    <g id="xtick_9">
     <g id="line2d_9">
      <g>
       <use style="stroke:#000000;stroke-width:0.8;" x="285.709214" xlink:href="#mf897639596" y="144.995837"/>
      </g>
     </g>
     <g id="text_9">
      <!-- $\mathdefault{16}$ -->
      <g transform="translate(279.856224 156.798017)scale(0.12 -0.12)">
       <use transform="scale(0.996264)" xlink:href="#CMR17-31"/>
       <use transform="translate(45.690477 0)scale(0.996264)" xlink:href="#CMR17-36"/>
      </g>
     </g>
    </g>
    <g id="text_10">
     <!-- radial distance ($\mathrm{\mu m}$) -->
     <g transform="translate(112.195981 172.836187)scale(0.13 -0.13)">
      <defs>
       <path d="M 960 1517 
C 960 2134 1222 2713 1702 2713 
C 1747 2713 1792 2707 1837 2687 
C 1837 2687 1696 2642 1696 2475 
C 1696 2321 1818 2257 1914 2257 
C 1990 2257 2131 2302 2131 2482 
C 2131 2687 1926 2816 1709 2816 
C 1222 2816 1011 2340 947 2115 
L 941 2115 
L 941 2816 
L 198 2745 
L 198 2578 
C 576 2578 634 2540 634 2231 
L 634 443 
C 634 198 608 166 198 166 
L 198 0 
C 352 12 646 12 813 12 
C 998 12 1325 12 1498 0 
L 1498 166 
C 1037 166 960 166 960 455 
L 960 1517 
z
" id="CMR17-72" transform="scale(0.015625)"/>
       <path d="M 2304 1656 
C 2304 2048 2304 2275 2035 2534 
C 1798 2751 1523 2816 1306 2816 
C 800 2816 435 2408 435 1977 
C 435 1740 627 1728 666 1728 
C 749 1728 896 1779 896 1958 
C 896 2118 774 2188 666 2188 
C 640 2188 608 2182 589 2176 
C 723 2594 1069 2713 1293 2713 
C 1613 2713 1965 2421 1965 1875 
L 1965 1632 
C 1587 1619 1133 1568 774 1373 
C 371 1147 256 822 256 576 
C 256 77 832 -64 1171 -64 
C 1523 -64 1850 135 1990 505 
C 2003 219 2182 -39 2464 -39 
C 2598 -39 2938 51 2938 563 
L 2938 926 
L 2822 926 
L 2822 557 
C 2822 161 2650 109 2566 109 
C 2304 109 2304 446 2304 732 
L 2304 1656 
z
M 1965 887 
C 1965 323 1568 38 1216 38 
C 896 38 646 278 646 576 
C 646 771 730 1114 1101 1322 
C 1408 1497 1760 1523 1965 1536 
L 1965 887 
z
" id="CMR17-61" transform="scale(0.015625)"/>
       <path d="M 1869 4345 
L 1869 4179 
C 2246 4179 2304 4141 2304 3843 
L 2304 2371 
C 2278 2403 2016 2816 1498 2816 
C 845 2816 211 2228 211 1376 
C 211 529 806 -64 1434 -64 
C 1978 -64 2259 361 2291 406 
L 2291 -64 
L 3066 -13 
L 3066 154 
C 2688 154 2630 193 2630 503 
L 2630 4416 
L 1869 4345 
z
M 2291 762 
C 2291 568 2176 393 2029 264 
C 1811 70 1594 38 1472 38 
C 1286 38 621 135 621 1369 
C 621 2636 1363 2713 1530 2713 
C 1824 2713 2061 2545 2208 2313 
C 2291 2177 2291 2157 2291 2041 
L 2291 762 
z
" id="CMR17-64" transform="scale(0.015625)"/>
       <path d="M 992 3961 
C 992 4102 877 4224 730 4224 
C 589 4224 467 4108 467 3961 
C 467 3820 582 3699 730 3699 
C 870 3699 992 3814 992 3961 
z
M 243 2745 
L 243 2579 
C 602 2579 653 2540 653 2231 
L 653 443 
C 653 198 627 166 218 166 
L 218 0 
C 371 12 646 12 806 12 
C 960 12 1222 12 1370 0 
L 1370 166 
C 992 166 979 205 979 436 
L 979 2816 
L 243 2745 
z
" id="CMR17-69" transform="scale(0.015625)"/>
       <path d="M 979 4416 
L 218 4345 
L 218 4179 
C 595 4179 653 4141 653 3835 
L 653 439 
C 653 198 627 166 218 166 
L 218 0 
C 371 12 653 12 813 12 
C 979 12 1261 12 1414 0 
L 1414 166 
C 1005 166 979 191 979 439 
L 979 4416 
z
" id="CMR17-6c" transform="scale(0.015625)"/>
       <path d="M 1978 2688 
C 1978 2803 1971 2809 1933 2809 
C 1907 2809 1901 2803 1824 2707 
C 1805 2681 1747 2617 1728 2592 
C 1523 2809 1235 2816 1126 2816 
C 416 2816 160 2444 160 2073 
C 160 1497 813 1363 998 1324 
C 1402 1241 1542 1216 1677 1100 
C 1760 1024 1901 883 1901 652 
C 1901 384 1747 38 1158 38 
C 602 38 403 460 288 1024 
C 269 1113 269 1120 218 1120 
C 166 1120 160 1113 160 985 
L 160 64 
C 160 -52 166 -58 205 -58 
C 237 -58 243 -52 275 0 
C 314 57 410 211 448 275 
C 576 102 800 -64 1158 -64 
C 1792 -64 2131 281 2131 780 
C 2131 1107 1958 1280 1875 1356 
C 1683 1555 1459 1600 1190 1651 
C 838 1728 390 1817 390 2208 
C 390 2374 480 2726 1126 2726 
C 1811 2726 1850 2086 1862 1881 
C 1869 1849 1901 1843 1920 1843 
C 1978 1843 1978 1862 1978 1971 
L 1978 2688 
z
" id="CMR17-73" transform="scale(0.015625)"/>
       <path d="M 966 2585 
L 1862 2585 
L 1862 2752 
L 966 2752 
L 966 3968 
L 851 3968 
C 838 3292 614 2700 70 2687 
L 70 2585 
L 627 2585 
L 627 778 
C 627 655 627 -64 1370 -64 
C 1747 -64 1965 308 1965 784 
L 1965 1151 
L 1850 1151 
L 1850 790 
C 1850 347 1677 51 1408 51 
C 1222 51 966 179 966 765 
L 966 2585 
z
" id="CMR17-74" transform="scale(0.015625)"/>
       <path d="M 2656 1954 
C 2656 2282 2592 2816 1837 2816 
C 1331 2816 1069 2424 973 2166 
L 966 2166 
L 966 2816 
L 211 2745 
L 211 2578 
C 589 2578 646 2540 646 2231 
L 646 443 
C 646 198 621 166 211 166 
L 211 0 
C 365 12 646 12 813 12 
C 979 12 1267 12 1421 0 
L 1421 166 
C 1011 166 986 192 986 443 
L 986 1678 
C 986 2269 1344 2713 1792 2713 
C 2266 2713 2317 2289 2317 1980 
L 2317 443 
C 2317 198 2291 166 1882 166 
L 1882 0 
C 2035 12 2317 12 2483 12 
C 2650 12 2938 12 3091 0 
L 3091 166 
C 2682 166 2656 192 2656 443 
L 2656 1954 
z
" id="CMR17-6e" transform="scale(0.015625)"/>
       <path d="M 2234 2240 
C 2112 2240 1933 2240 1933 2015 
C 1933 1836 2080 1785 2163 1785 
C 2208 1785 2394 1804 2394 2028 
C 2394 2476 1958 2816 1466 2816 
C 787 2816 211 2201 211 1379 
C 211 521 813 -64 1466 -64 
C 2259 -64 2458 676 2458 747 
C 2458 773 2451 792 2406 792 
C 2362 792 2355 786 2330 702 
C 2163 180 1798 51 1523 51 
C 1114 51 621 431 621 1385 
C 621 2358 1094 2700 1472 2700 
C 1722 2700 2093 2582 2234 2240 
z
" id="CMR17-63" transform="scale(0.015625)"/>
       <path d="M 2438 1503 
C 2464 1529 2464 1542 2464 1606 
C 2464 2251 2118 2816 1389 2816 
C 710 2816 173 2175 173 1394 
C 173 554 781 -64 1459 -64 
C 2176 -64 2458 619 2458 755 
C 2458 800 2419 800 2406 800 
C 2362 800 2355 787 2330 709 
C 2189 270 1837 51 1504 51 
C 1229 51 954 206 781 490 
C 582 819 582 1200 582 1503 
L 2438 1503 
z
M 589 1600 
C 634 2511 1126 2713 1382 2713 
C 1818 2713 2112 2308 2118 1600 
L 589 1600 
z
" id="CMR17-65" transform="scale(0.015625)"/>
       <path d="M 1958 -1562 
C 1958 -1556 1958 -1543 1939 -1524 
C 1645 -1223 858 -403 858 1596 
C 858 3595 1632 4408 1946 4729 
C 1946 4735 1958 4748 1958 4767 
C 1958 4787 1939 4800 1914 4800 
C 1843 4800 1299 4325 986 3620 
C 666 2909 576 2218 576 1603 
C 576 1141 621 360 1005 -467 
C 1312 -1133 1837 -1600 1914 -1600 
C 1946 -1600 1958 -1588 1958 -1562 
z
" id="CMR17-28" transform="scale(0.015625)"/>
       <path d="M 922 140 
C 1082 -7 1318 -64 1536 -64 
C 1946 -64 2227 210 2374 408 
C 2438 70 2707 -64 2931 -64 
C 3123 -64 3277 51 3392 281 
C 3494 498 3584 887 3584 913 
C 3584 944 3558 970 3520 970 
C 3462 970 3456 938 3430 842 
C 3334 466 3213 64 2950 64 
C 2765 64 2752 229 2752 357 
C 2752 504 2810 734 2854 925 
L 3034 1615 
C 3059 1736 3130 2023 3162 2138 
C 3200 2291 3270 2566 3270 2591 
C 3270 2687 3194 2752 3098 2752 
C 3040 2752 2906 2726 2854 2534 
L 2406 759 
C 2374 632 2374 619 2291 517 
C 2214 408 1965 64 1562 64 
C 1203 64 1088 325 1088 625 
C 1088 811 1146 1034 1171 1143 
L 1459 2292 
C 1491 2413 1542 2617 1542 2656 
C 1542 2758 1459 2816 1376 2816 
C 1318 2816 1178 2796 1126 2592 
L 198 -1085 
C 192 -1116 179 -1154 179 -1191 
C 179 -1287 256 -1351 352 -1351 
C 538 -1351 576 -1204 621 -1029 
L 922 140 
z
" id="CMMI12-16" transform="scale(0.015625)"/>
       <path d="M 4326 1954 
C 4326 2276 4269 2816 3507 2816 
C 3072 2816 2771 2520 2656 2173 
L 2650 2173 
C 2573 2700 2195 2816 1837 2816 
C 1331 2816 1069 2424 973 2166 
L 966 2166 
L 966 2816 
L 211 2745 
L 211 2578 
C 589 2578 646 2540 646 2231 
L 646 443 
C 646 198 621 166 211 166 
L 211 0 
C 365 12 646 12 813 12 
C 979 12 1267 12 1421 0 
L 1421 166 
C 1011 166 986 192 986 443 
L 986 1678 
C 986 2269 1344 2713 1792 2713 
C 2266 2713 2317 2289 2317 1980 
L 2317 443 
C 2317 198 2291 166 1882 166 
L 1882 0 
C 2035 12 2317 12 2483 12 
C 2650 12 2938 12 3091 0 
L 3091 166 
C 2682 166 2656 192 2656 443 
L 2656 1678 
C 2656 2269 3014 2713 3462 2713 
C 3936 2713 3987 2289 3987 1980 
L 3987 443 
C 3987 198 3962 166 3552 166 
L 3552 0 
C 3706 12 3987 12 4154 12 
C 4320 12 4608 12 4762 0 
L 4762 166 
C 4352 166 4326 192 4326 443 
L 4326 1954 
z
" id="CMR17-6d" transform="scale(0.015625)"/>
       <path d="M 1683 1596 
C 1683 2057 1638 2839 1254 3665 
C 947 4332 422 4800 346 4800 
C 326 4800 301 4793 301 4761 
C 301 4748 307 4742 314 4729 
C 621 4408 1402 3595 1402 1603 
C 1402 -396 627 -1210 314 -1530 
C 307 -1543 301 -1549 301 -1562 
C 301 -1594 326 -1600 346 -1600 
C 416 -1600 960 -1127 1274 -422 
C 1594 289 1683 981 1683 1596 
z
" id="CMR17-29" transform="scale(0.015625)"/>
      </defs>
      <use transform="scale(0.996264)" xlink:href="#CMR17-72"/>
      <use transform="translate(35.280768 0)scale(0.996264)" xlink:href="#CMR17-61"/>
      <use transform="translate(80.971245 0)scale(0.996264)" xlink:href="#CMR17-64"/>
      <use transform="translate(131.866615 0)scale(0.996264)" xlink:href="#CMR17-69"/>
      <use transform="translate(156.737673 0)scale(0.996264)" xlink:href="#CMR17-61"/>
      <use transform="translate(202.42815 0)scale(0.996264)" xlink:href="#CMR17-6c"/>
      <use transform="translate(257.375175 0)scale(0.996264)" xlink:href="#CMR17-64"/>
      <use transform="translate(308.270545 0)scale(0.996264)" xlink:href="#CMR17-69"/>
      <use transform="translate(333.141603 0)scale(0.996264)" xlink:href="#CMR17-73"/>
      <use transform="translate(368.942941 0)scale(0.996264)" xlink:href="#CMR17-74"/>
      <use transform="translate(404.223709 0)scale(0.996264)" xlink:href="#CMR17-61"/>
      <use transform="translate(449.914186 0)scale(0.996264)" xlink:href="#CMR17-6e"/>
      <use transform="translate(500.809556 0)scale(0.996264)" xlink:href="#CMR17-63"/>
      <use transform="translate(541.295216 0)scale(0.996264)" xlink:href="#CMR17-65"/>
      <use transform="translate(611.856843 0)scale(0.996264)" xlink:href="#CMR17-28"/>
      <use transform="translate(647.137611 0)scale(0.996264)" xlink:href="#CMMI12-16"/>
      <use transform="translate(705.829032 0)scale(0.996264)" xlink:href="#CMR17-6d"/>
      <use transform="translate(782.748622 0)scale(0.996264)" xlink:href="#CMR17-29"/>
     </g>
    </g>
   </g>
   <g id="matplotlib.axis_2">
    <g id="ytick_1">
     <g id="line2d_10">
      <defs>
       <path d="M 0 0 
L 3.5 0 
" id="m189bb48034" style="stroke:#000000;stroke-width:0.8;"/>
      </defs>
      <g>
       <use style="stroke:#000000;stroke-width:0.8;" x="52.062064" xlink:href="#m189bb48034" y="142.127577"/>
      </g>
     </g>
     <g id="text_11">
      <!-- $\mathdefault{0.00}$ -->
      <g transform="translate(27.751432 146.278667)scale(0.12 -0.12)">
       <defs>
        <path d="M 1178 307 
C 1178 492 1024 620 870 620 
C 685 620 557 467 557 313 
C 557 128 710 0 864 0 
C 1050 0 1178 153 1178 307 
z
" id="CMMI12-3a" transform="scale(0.015625)"/>
       </defs>
       <use transform="scale(0.996264)" xlink:href="#CMR17-30"/>
       <use transform="translate(45.690477 0)scale(0.996264)" xlink:href="#CMMI12-3a"/>
       <use transform="translate(72.787654 0)scale(0.996264)" xlink:href="#CMR17-30"/>
       <use transform="translate(118.478131 0)scale(0.996264)" xlink:href="#CMR17-30"/>
      </g>
     </g>
    </g>
    <g id="ytick_2">
     <g id="line2d_11">
      <g>
       <use style="stroke:#000000;stroke-width:0.8;" x="52.062064" xlink:href="#m189bb48034" y="124.471024"/>
      </g>
     </g>
     <g id="text_12">
      <!-- $\mathdefault{0.25}$ -->
      <g transform="translate(27.751432 128.622114)scale(0.12 -0.12)">
       <defs>
        <path d="M 730 3750 
C 794 3724 1056 3641 1325 3641 
C 1920 3641 2246 3961 2432 4140 
C 2432 4191 2432 4224 2394 4224 
C 2387 4224 2374 4224 2323 4198 
C 2099 4102 1837 4032 1517 4032 
C 1325 4032 1037 4055 723 4191 
C 653 4224 640 4224 634 4224 
C 602 4224 595 4217 595 4090 
L 595 2231 
C 595 2113 595 2080 659 2080 
C 691 2080 704 2093 736 2139 
C 941 2435 1222 2560 1542 2560 
C 1766 2560 2246 2415 2246 1293 
C 2246 1087 2246 716 2054 422 
C 1894 159 1645 25 1370 25 
C 947 25 518 319 403 812 
C 429 806 480 793 506 793 
C 589 793 749 838 749 1036 
C 749 1209 627 1280 506 1280 
C 358 1280 262 1190 262 1011 
C 262 454 704 -128 1382 -128 
C 2042 -128 2669 441 2669 1267 
C 2669 2054 2170 2662 1549 2662 
C 1222 2662 947 2540 730 2304 
L 730 3750 
z
" id="CMR17-35" transform="scale(0.015625)"/>
       </defs>
       <use transform="scale(0.996264)" xlink:href="#CMR17-30"/>
       <use transform="translate(45.690477 0)scale(0.996264)" xlink:href="#CMMI12-3a"/>
       <use transform="translate(72.787654 0)scale(0.996264)" xlink:href="#CMR17-32"/>
       <use transform="translate(118.478131 0)scale(0.996264)" xlink:href="#CMR17-35"/>
      </g>
     </g>
    </g>
    <g id="ytick_3">
     <g id="line2d_12">
      <g>
       <use style="stroke:#000000;stroke-width:0.8;" x="52.062064" xlink:href="#m189bb48034" y="106.814471"/>
      </g>
     </g>
     <g id="text_13">
      <!-- $\mathdefault{0.50}$ -->
      <g transform="translate(27.751432 110.965561)scale(0.12 -0.12)">
       <use transform="scale(0.996264)" xlink:href="#CMR17-30"/>
       <use transform="translate(45.690477 0)scale(0.996264)" xlink:href="#CMMI12-3a"/>
       <use transform="translate(72.787654 0)scale(0.996264)" xlink:href="#CMR17-35"/>
       <use transform="translate(118.478131 0)scale(0.996264)" xlink:href="#CMR17-30"/>
      </g>
     </g>
    </g>
    <g id="ytick_4">
     <g id="line2d_13">
      <g>
       <use style="stroke:#000000;stroke-width:0.8;" x="52.062064" xlink:href="#m189bb48034" y="89.157917"/>
      </g>
     </g>
     <g id="text_14">
      <!-- $\mathdefault{0.75}$ -->
      <g transform="translate(27.751432 93.309007)scale(0.12 -0.12)">
       <defs>
        <path d="M 2886 3955 
L 2886 4096 
L 1382 4096 
C 634 4096 621 4166 595 4288 
L 480 4288 
L 294 3104 
L 410 3104 
C 429 3226 474 3552 550 3673 
C 589 3724 1062 3724 1171 3724 
L 2579 3724 
L 1869 2670 
C 1395 1961 1069 1003 1069 166 
C 1069 89 1069 -128 1299 -128 
C 1530 -128 1530 89 1530 172 
L 1530 466 
C 1530 1514 1709 2204 2003 2644 
L 2886 3955 
z
" id="CMR17-37" transform="scale(0.015625)"/>
       </defs>
       <use transform="scale(0.996264)" xlink:href="#CMR17-30"/>
       <use transform="translate(45.690477 0)scale(0.996264)" xlink:href="#CMMI12-3a"/>
       <use transform="translate(72.787654 0)scale(0.996264)" xlink:href="#CMR17-37"/>
       <use transform="translate(118.478131 0)scale(0.996264)" xlink:href="#CMR17-35"/>
      </g>
     </g>
    </g>
    <g id="ytick_5">
     <g id="line2d_14">
      <g>
       <use style="stroke:#000000;stroke-width:0.8;" x="52.062064" xlink:href="#m189bb48034" y="71.501364"/>
      </g>
     </g>
     <g id="text_15">
      <!-- $\mathdefault{1.00}$ -->
      <g transform="translate(27.751432 75.652454)scale(0.12 -0.12)">
       <use transform="scale(0.996264)" xlink:href="#CMR17-31"/>
       <use transform="translate(45.690477 0)scale(0.996264)" xlink:href="#CMMI12-3a"/>
       <use transform="translate(72.787654 0)scale(0.996264)" xlink:href="#CMR17-30"/>
       <use transform="translate(118.478131 0)scale(0.996264)" xlink:href="#CMR17-30"/>
      </g>
     </g>
    </g>
    <g id="ytick_6">
     <g id="line2d_15">
      <g>
       <use style="stroke:#000000;stroke-width:0.8;" x="52.062064" xlink:href="#m189bb48034" y="53.844811"/>
      </g>
     </g>
     <g id="text_16">
      <!-- $\mathdefault{1.25}$ -->
      <g transform="translate(27.751432 57.995901)scale(0.12 -0.12)">
       <use transform="scale(0.996264)" xlink:href="#CMR17-31"/>
       <use transform="translate(45.690477 0)scale(0.996264)" xlink:href="#CMMI12-3a"/>
       <use transform="translate(72.787654 0)scale(0.996264)" xlink:href="#CMR17-32"/>
       <use transform="translate(118.478131 0)scale(0.996264)" xlink:href="#CMR17-35"/>
      </g>
     </g>
    </g>
    <g id="ytick_7">
     <g id="line2d_16">
      <g>
       <use style="stroke:#000000;stroke-width:0.8;" x="52.062064" xlink:href="#m189bb48034" y="36.188258"/>
      </g>
     </g>
     <g id="text_17">
      <!-- $\mathdefault{1.50}$ -->
      <g transform="translate(27.751432 40.339347)scale(0.12 -0.12)">
       <use transform="scale(0.996264)" xlink:href="#CMR17-31"/>
       <use transform="translate(45.690477 0)scale(0.996264)" xlink:href="#CMMI12-3a"/>
       <use transform="translate(72.787654 0)scale(0.996264)" xlink:href="#CMR17-35"/>
       <use transform="translate(118.478131 0)scale(0.996264)" xlink:href="#CMR17-30"/>
      </g>
     </g>
    </g>
    <g id="ytick_8">
     <g id="line2d_17">
      <g>
       <use style="stroke:#000000;stroke-width:0.8;" x="52.062064" xlink:href="#m189bb48034" y="18.531704"/>
      </g>
     </g>
     <g id="text_18">
      <!-- $\mathdefault{1.75}$ -->
      <g transform="translate(27.751432 22.682794)scale(0.12 -0.12)">
       <use transform="scale(0.996264)" xlink:href="#CMR17-31"/>
       <use transform="translate(45.690477 0)scale(0.996264)" xlink:href="#CMMI12-3a"/>
       <use transform="translate(72.787654 0)scale(0.996264)" xlink:href="#CMR17-37"/>
       <use transform="translate(118.478131 0)scale(0.996264)" xlink:href="#CMR17-35"/>
      </g>
     </g>
    </g>
    <g id="text_19">
     <!-- $I/I_0$ -->
     <g transform="translate(20.513574 89.499949)rotate(-90)scale(0.13 -0.13)">
      <defs>
       <path d="M 2355 3879 
C 2413 4102 2426 4166 2893 4166 
C 3034 4166 3085 4166 3085 4287 
C 3085 4352 3014 4352 2995 4352 
C 2880 4352 2739 4339 2624 4339 
L 1837 4339 
C 1709 4339 1562 4352 1434 4352 
C 1382 4352 1312 4352 1312 4230 
C 1312 4166 1363 4166 1491 4166 
C 1888 4166 1888 4115 1888 4045 
C 1888 4000 1875 3962 1862 3905 
L 998 472 
C 941 249 928 185 461 185 
C 320 185 262 185 262 64 
C 262 0 326 0 358 0 
C 474 0 614 12 730 12 
L 1517 12 
C 1645 12 1786 0 1914 0 
C 1965 0 2042 0 2042 115 
C 2042 185 2003 185 1862 185 
C 1466 185 1466 236 1466 312 
C 1466 325 1466 357 1491 459 
L 2355 3879 
z
" id="CMMI12-49" transform="scale(0.015625)"/>
       <path d="M 2746 4563 
C 2746 4569 2784 4665 2784 4678 
C 2784 4755 2720 4800 2669 4800 
C 2637 4800 2579 4800 2528 4659 
L 384 -1364 
C 384 -1370 346 -1466 346 -1479 
C 346 -1556 410 -1600 461 -1600 
C 499 -1600 557 -1594 602 -1460 
L 2746 4563 
z
" id="CMMI12-3d" transform="scale(0.015625)"/>
      </defs>
      <use transform="scale(0.996264)" xlink:href="#CMMI12-49"/>
      <use transform="translate(50.856514 0)scale(0.996264)" xlink:href="#CMMI12-3d"/>
      <use transform="translate(99.631433 0)scale(0.996264)" xlink:href="#CMMI12-49"/>
      <use transform="translate(142.655608 -14.943915)scale(0.697382)" xlink:href="#CMR17-30"/>
     </g>
    </g>
   </g>
   <g id="line2d_18">
    <path clip-path="url(#p4bdcb45b3d)" d="M 63.856977 111.77659 
L 64.598795 112.251518 
L 65.340614 113.448113 
L 66.824251 116.613379 
L 67.566069 118.599643 
L 68.307888 120.213171 
L 69.049706 121.298331 
L 69.791524 121.622004 
L 70.533343 120.940312 
L 71.275161 119.125786 
L 72.01698 116.203876 
L 72.758798 111.966322 
L 73.500616 106.076178 
L 74.984253 92.013228 
L 77.951527 60.530408 
L 78.693345 54.533616 
L 79.435164 49.604104 
L 80.176982 46.596096 
L 80.918801 45.534303 
L 81.660619 46.462513 
L 82.402437 49.625741 
L 83.144256 55.107374 
L 83.886074 62.068934 
L 84.627893 70.189545 
L 86.11153 90.109762 
L 87.595166 110.932006 
L 89.078803 127.79431 
L 89.820622 133.629985 
L 90.56244 137.358417 
L 91.304259 138.896026 
L 92.046077 138.049109 
L 92.787895 134.906576 
L 93.529714 130.0119 
L 94.271532 123.309306 
L 95.755169 106.51745 
L 97.238806 90.034196 
L 97.980624 83.296437 
L 98.722443 78.089035 
L 99.464261 74.8878 
L 100.20608 73.985941 
L 100.947898 75.558987 
L 101.689716 79.443767 
L 102.431535 85.095365 
L 103.915172 100.442894 
L 105.398808 117.343286 
L 106.140627 124.139791 
L 106.882445 129.080078 
L 107.624264 131.65985 
L 108.366082 131.435203 
L 109.107901 128.181655 
L 109.849719 121.980141 
L 110.591537 113.299921 
L 111.333356 102.767583 
L 114.300629 55.617865 
L 115.042448 47.300541 
L 115.784266 42.002396 
L 116.526085 39.809561 
L 117.267903 40.96723 
L 118.009722 45.281388 
L 118.75154 52.089848 
L 121.718814 85.175321 
L 122.460632 89.610983 
L 123.202451 90.870683 
L 123.944269 88.552927 
L 124.686087 82.632281 
L 125.427906 73.782098 
L 126.911543 50.441708 
L 128.395179 28.097046 
L 129.136998 20.755469 
L 129.878816 16.899811 
L 130.620635 17.24441 
L 131.362453 21.771065 
L 132.104272 29.942228 
L 133.587908 53.229427 
L 135.071545 76.067453 
L 135.813364 84.281635 
L 136.555182 88.948135 
L 137.297 89.735916 
L 138.038819 87.021921 
L 138.780637 81.458356 
L 140.264274 67.192994 
L 141.006093 61.306769 
L 141.747911 57.774642 
L 142.489729 57.471944 
L 143.231548 60.588609 
L 143.973366 66.560164 
L 146.198822 90.747881 
L 146.94064 96.13951 
L 147.682458 98.026714 
L 148.424277 95.890134 
L 149.166095 89.860123 
L 149.907914 81.114962 
L 152.133369 51.260819 
L 152.875187 45.506624 
L 153.617006 43.684472 
L 154.358824 45.798836 
L 155.100643 51.606892 
L 157.326098 75.401264 
L 158.067916 80.429585 
L 158.809735 82.248891 
L 159.551553 80.638977 
L 160.293371 76.193886 
L 161.777008 64.136182 
L 162.518827 59.658384 
L 163.260645 58.069047 
L 164.002464 59.808706 
L 164.744282 64.731594 
L 166.969737 86.223293 
L 167.711556 90.261343 
L 168.453374 90.611961 
L 169.195193 86.995271 
L 169.937011 80.029321 
L 171.420648 61.780461 
L 172.162466 54.338373 
L 172.904285 50.247835 
L 173.646103 50.115452 
L 174.387921 53.954621 
L 175.12974 60.678639 
L 176.613377 75.980203 
L 177.355195 81.249297 
L 178.097014 83.277582 
L 178.838832 81.868413 
L 179.58065 77.756229 
L 181.064287 67.082603 
L 181.806106 63.822064 
L 182.547924 63.285764 
L 183.289742 65.78664 
L 185.515198 80.428475 
L 186.257016 82.625399 
L 186.998835 81.536548 
L 187.740653 77.277842 
L 189.966108 57.890024 
L 190.707927 54.914536 
L 191.449745 55.682719 
L 192.191563 60.156756 
L 194.417019 81.558872 
L 195.158837 85.278876 
L 195.900656 85.305773 
L 196.642474 81.695687 
L 198.867929 63.305708 
L 199.609748 60.326134 
L 200.351566 60.676416 
L 201.093385 63.899092 
L 202.577021 73.959951 
L 203.31884 77.387 
L 204.060658 78.252849 
L 204.802477 76.450294 
L 207.027932 65.257033 
L 207.76975 64.338512 
L 208.511569 66.144601 
L 209.253387 70.175511 
L 209.995206 75.041448 
L 210.737024 79.066986 
L 211.478842 80.826831 
L 212.220661 79.49598 
L 212.962479 75.344136 
L 214.446116 63.877943 
L 215.187934 60.003688 
L 215.929753 59.385025 
L 216.671571 62.189421 
L 217.41339 67.602475 
L 218.897027 79.545414 
L 219.638845 82.360822 
L 220.380663 81.7598 
L 221.122482 77.962993 
L 222.606119 66.625736 
L 223.347937 62.755707 
L 224.089756 61.717937 
L 224.831574 63.755274 
L 225.573392 67.931536 
L 226.315211 72.751225 
L 227.057029 76.508803 
L 227.798848 78.02008 
L 228.540666 76.908131 
L 229.282484 73.853849 
L 230.024303 70.149441 
L 230.766121 67.318072 
L 231.50794 66.414278 
L 232.249758 67.75115 
L 234.475213 76.380079 
L 235.217032 76.51659 
L 235.95885 74.468393 
L 237.442487 67.026808 
L 238.184305 64.613443 
L 238.926124 64.617609 
L 239.667942 67.181614 
L 241.151579 75.961428 
L 241.893398 79.013703 
L 242.635216 79.394267 
L 243.377034 76.818296 
L 245.60249 63.491201 
L 246.344308 62.447694 
L 247.086127 64.506007 
L 247.827945 68.763888 
L 248.569763 73.814542 
L 249.311582 77.827456 
L 250.0534 79.382496 
L 250.795219 78.001022 
L 251.537037 74.351759 
L 252.278855 69.840689 
L 253.020674 66.139341 
L 253.762492 64.584173 
L 254.504311 65.60738 
L 255.246129 68.679639 
L 255.987948 72.415191 
L 256.729766 75.35574 
L 257.471584 76.438662 
L 258.213403 75.387641 
L 260.438858 67.968189 
L 261.180676 67.813569 
L 261.922495 69.356609 
L 263.406132 74.091191 
L 264.14795 75.007587 
L 264.889769 74.111651 
L 267.115224 67.334954 
L 267.857042 67.302215 
L 268.598861 69.177857 
L 270.082497 75.288053 
L 270.824316 76.785134 
L 271.566134 76.125598 
L 272.307953 73.374839 
L 273.79159 66.324803 
L 274.533408 65.02096 
L 275.275226 66.182908 
L 276.017045 69.38249 
L 276.758863 73.608874 
L 277.500682 76.961151 
L 278.2425 77.978864 
L 278.984319 76.506629 
L 279.726137 73.152656 
L 280.467955 68.890335 
L 281.209774 65.672986 
L 281.951592 64.91474 
L 282.693411 66.666396 
L 284.177047 74.063168 
L 284.918866 76.676944 
L 285.660684 76.974512 
L 286.402503 75.026436 
L 287.88614 68.603608 
L 288.627958 66.778633 
L 289.369776 67.003685 
L 290.111595 68.947597 
L 290.853413 71.866768 
L 291.595232 74.157026 
L 292.33705 75.108556 
L 293.078868 74.404155 
L 294.562505 70.241068 
L 295.304324 68.845728 
L 296.046142 69.1614 
L 297.529779 71.969249 
L 298.271597 73.312496 
L 299.013416 73.712436 
L 299.755234 73.338409 
L 299.755234 73.338409 
" style="fill:none;stroke:#1f77b4;stroke-linecap:square;stroke-width:1.5;"/>
   </g>
   <g id="line2d_19">
    <path clip-path="url(#p4bdcb45b3d)" d="M 63.856977 103.089705 
L 65.340614 113.515156 
L 66.824251 116.380498 
L 67.566069 117.226645 
L 68.307888 119.362524 
L 69.049706 117.907635 
L 69.791524 115.975231 
L 70.533343 113.65313 
L 72.01698 107.011223 
L 74.242435 88.129967 
L 76.46789 72.616984 
L 77.209709 64.923012 
L 78.693345 58.567055 
L 80.176982 55.41223 
L 80.918801 55.342394 
L 81.660619 56.933373 
L 82.402437 55.386443 
L 83.144256 59.196645 
L 83.886074 67.572892 
L 86.11153 97.052045 
L 87.595166 108.104784 
L 89.078803 121.92604 
L 89.820622 126.772053 
L 90.56244 129.504116 
L 91.304259 128.749079 
L 92.046077 125.881308 
L 94.271532 111.195714 
L 95.755169 97.690676 
L 97.238806 83.447815 
L 97.980624 77.599267 
L 98.722443 73.797828 
L 99.464261 72.187193 
L 100.20608 71.890204 
L 100.947898 74.085495 
L 101.689716 78.300795 
L 103.173353 88.878545 
L 104.65699 103.575132 
L 105.398808 111.441748 
L 106.140627 117.910599 
L 106.882445 122.000767 
L 107.624264 124.086088 
L 108.366082 124.164981 
L 109.107901 120.048639 
L 109.849719 113.903954 
L 110.591537 106.262403 
L 111.333356 96.92813 
L 114.300629 54.200352 
L 115.042448 49.057297 
L 115.784266 45.508272 
L 116.526085 43.421715 
L 117.267903 44.445847 
L 118.009722 48.427793 
L 118.75154 55.016251 
L 120.976995 78.684854 
L 121.718814 84.665348 
L 122.460632 88.643324 
L 123.202451 90.149594 
L 123.944269 88.021213 
L 124.686087 82.185009 
L 125.427906 72.631912 
L 127.653361 39.715124 
L 128.395179 30.87129 
L 129.136998 23.523534 
L 129.878816 19.227718 
L 130.620635 19.560668 
L 131.362453 23.451575 
L 132.104272 30.010564 
L 133.587908 50.651364 
L 134.329727 62.051888 
L 135.071545 71.721357 
L 135.813364 79.608116 
L 136.555182 84.137436 
L 137.297 84.960237 
L 138.038819 83.021041 
L 138.780637 79.037933 
L 140.264274 68.184982 
L 141.006093 62.706363 
L 141.747911 59.04557 
L 142.489729 58.759343 
L 143.231548 61.742122 
L 143.973366 67.041036 
L 146.198822 88.66731 
L 146.94064 93.546947 
L 147.682458 96.111048 
L 148.424277 95.419774 
L 149.166095 90.196766 
L 149.907914 82.819873 
L 152.133369 56.410058 
L 152.875187 51.129465 
L 153.617006 48.404541 
L 154.358824 48.408067 
L 155.100643 52.683216 
L 157.326098 71.471714 
L 158.067916 75.688646 
L 158.809735 77.176782 
L 159.551553 75.560929 
L 160.293371 72.139924 
L 161.777008 63.145099 
L 162.518827 59.696491 
L 163.260645 58.67459 
L 164.002464 60.481649 
L 164.744282 64.892998 
L 166.969737 84.196106 
L 167.711556 88.34545 
L 168.453374 88.869923 
L 169.195193 86.762202 
L 169.937011 81.150163 
L 172.162466 58.676727 
L 172.904285 54.673974 
L 173.646103 53.018689 
L 174.387921 55.125485 
L 175.12974 59.505629 
L 175.871558 64.611967 
L 176.613377 70.502526 
L 177.355195 74.967891 
L 178.097014 77.715537 
L 178.838832 77.746548 
L 179.58065 75.421111 
L 181.064287 67.671574 
L 181.806106 65.680981 
L 182.547924 66.065243 
L 183.289742 68.771314 
L 184.031561 72.897372 
L 184.773379 77.80716 
L 185.515198 80.857407 
L 186.257016 82.43577 
L 186.998835 81.511436 
L 187.740653 77.426087 
L 189.966108 60.168253 
L 190.707927 57.003435 
L 191.449745 56.926765 
L 192.191563 60.107748 
L 192.933382 65.344762 
L 194.417019 77.286555 
L 195.158837 80.90567 
L 195.900656 81.923868 
L 196.642474 80.153857 
L 197.384292 76.883455 
L 198.126111 72.873681 
L 198.867929 69.500134 
L 199.609748 67.240018 
L 200.351566 67.258402 
L 201.093385 69.118379 
L 201.835203 71.783149 
L 202.577021 73.892072 
L 203.31884 74.76909 
L 204.060658 73.811264 
L 204.802477 71.589304 
L 206.286113 65.658311 
L 207.027932 64.305574 
L 207.76975 65.131834 
L 208.511569 67.613976 
L 210.737024 80.028193 
L 211.478842 81.372146 
L 212.220661 79.992702 
L 212.962479 76.243402 
L 215.187934 63.318766 
L 215.929753 62.697667 
L 216.671571 63.911363 
L 217.41339 67.250097 
L 218.897027 74.973405 
L 219.638845 77.74343 
L 220.380663 78.17748 
L 221.122482 76.96371 
L 222.606119 71.881251 
L 223.347937 69.918985 
L 224.089756 69.793408 
L 224.831574 71.145708 
L 226.315211 74.284847 
L 227.057029 74.154498 
L 227.798848 73.184855 
L 229.282484 69.154234 
L 230.024303 67.486087 
L 230.766121 67.32407 
L 231.50794 69.024269 
L 232.249758 71.36326 
L 232.991577 74.624338 
L 233.733395 77.025067 
L 234.475213 77.965683 
L 235.217032 76.591353 
L 237.442487 66.117651 
L 238.184305 64.124401 
L 238.926124 64.351888 
L 239.667942 66.437383 
L 240.409761 69.343113 
L 241.151579 73.181806 
L 241.893398 75.271025 
L 242.635216 75.946726 
L 243.377034 74.496791 
L 244.118853 72.093334 
L 244.860671 69.140901 
L 245.60249 67.333612 
L 246.344308 66.722296 
L 247.086127 66.764105 
L 249.311582 70.334671 
L 250.795219 69.635299 
L 251.537037 68.166562 
L 252.278855 67.428922 
L 253.020674 67.38354 
L 255.246129 71.662372 
L 255.987948 72.370637 
L 256.729766 71.165329 
L 258.955221 65.595331 
L 259.69704 64.851208 
L 260.438858 66.114492 
L 261.180676 68.410168 
L 261.922495 71.242594 
L 262.664313 73.549667 
L 263.406132 74.77634 
L 264.14795 74.164474 
L 265.631587 68.267631 
L 266.373405 65.575732 
L 267.115224 64.183757 
L 267.857042 65.714277 
L 268.598861 67.934016 
L 269.340679 70.892488 
L 270.082497 72.93317 
L 270.824316 73.793252 
L 271.566134 73.752372 
L 272.307953 71.599292 
L 273.049771 70.099424 
L 273.79159 68.13203 
L 274.533408 67.829868 
L 275.275226 67.867923 
L 276.017045 68.89749 
L 276.758863 70.519592 
L 277.500682 70.498537 
L 278.2425 71.594619 
L 278.984319 70.817175 
L 279.726137 70.386177 
L 280.467955 70.213993 
L 281.209774 68.808543 
L 281.951592 69.838451 
L 282.693411 69.050051 
L 283.435229 70.701915 
L 284.177047 70.527964 
L 284.918866 69.951308 
L 285.660684 68.789833 
L 286.402503 66.768386 
L 287.144321 67.212473 
L 287.88614 67.841737 
L 289.369776 71.255679 
L 290.111595 71.883046 
L 290.853413 73.005498 
L 291.595232 70.783551 
L 292.33705 69.323905 
L 293.820687 67.666436 
L 294.562505 68.004678 
L 295.304324 69.081983 
L 296.046142 72.180163 
L 296.787961 76.636875 
L 297.529779 77.649719 
L 298.271597 77.015793 
L 299.013416 73.627951 
L 299.755234 64.719147 
L 299.755234 64.719147 
" style="fill:none;stroke:#ff7f0e;stroke-linecap:square;stroke-width:1.5;"/>
   </g>
   <g id="patch_3">
    <path d="M 52.062064 144.995837 
L 52.062064 10.8 
" style="fill:none;stroke:#000000;stroke-linecap:square;stroke-linejoin:miter;stroke-width:0.8;"/>
   </g>
   <g id="patch_4">
    <path d="M 285.709214 144.995837 
L 285.709214 10.8 
" style="fill:none;stroke:#000000;stroke-linecap:square;stroke-linejoin:miter;stroke-width:0.8;"/>
   </g>
   <g id="patch_5">
    <path d="M 52.062064 144.995837 
L 285.709214 144.995837 
" style="fill:none;stroke:#000000;stroke-linecap:square;stroke-linejoin:miter;stroke-width:0.8;"/>
   </g>
   <g id="patch_6">
    <path d="M 52.062064 10.8 
L 285.709214 10.8 
" style="fill:none;stroke:#000000;stroke-linecap:square;stroke-linejoin:miter;stroke-width:0.8;"/>
   </g>
   <g id="legend_1">
    <g id="line2d_20">
     <path d="M 197.899628 23.3 
L 217.899628 23.3 
" style="fill:none;stroke:#1f77b4;stroke-linecap:square;stroke-width:1.5;"/>
    </g>
    <g id="line2d_21"/>
    <g id="text_20">
     <!-- Theory -->
     <g transform="translate(225.899628 26.8)scale(0.1 -0.1)">
      <defs>
       <path d="M 3981 4332 
L 288 4332 
L 179 2924 
L 294 2924 
C 378 3981 467 4166 1453 4166 
C 1568 4166 1754 4166 1805 4159 
C 1926 4140 1926 4064 1926 3917 
L 1926 465 
C 1926 236 1907 166 1376 166 
L 1197 166 
L 1197 0 
C 1504 6 1824 12 2138 12 
C 2451 12 2771 6 3078 0 
L 3078 166 
L 2899 166 
C 2368 166 2349 236 2349 465 
L 2349 3917 
C 2349 4057 2349 4134 2464 4159 
C 2515 4166 2701 4166 2816 4166 
C 3795 4166 3891 3981 3974 2924 
L 4090 2924 
L 3981 4332 
z
" id="CMR17-54" transform="scale(0.015625)"/>
       <path d="M 2656 1954 
C 2656 2282 2592 2816 1837 2816 
C 1312 2816 1056 2392 979 2179 
L 973 2179 
L 973 4416 
L 211 4345 
L 211 4179 
C 589 4179 646 4141 646 3843 
L 646 443 
C 646 198 621 166 211 166 
L 211 0 
C 365 12 646 12 813 12 
C 979 12 1267 12 1421 0 
L 1421 166 
C 1011 166 986 192 986 443 
L 986 1678 
C 986 2269 1344 2713 1792 2713 
C 2266 2713 2317 2289 2317 1980 
L 2317 443 
C 2317 198 2291 166 1882 166 
L 1882 0 
C 2035 12 2317 12 2483 12 
C 2650 12 2938 12 3091 0 
L 3091 166 
C 2682 166 2656 192 2656 443 
L 2656 1954 
z
" id="CMR17-68" transform="scale(0.015625)"/>
       <path d="M 2758 1356 
C 2758 2176 2163 2816 1466 2816 
C 768 2816 173 2176 173 1356 
C 173 550 768 -64 1466 -64 
C 2163 -64 2758 550 2758 1356 
z
M 1466 51 
C 1165 51 909 230 762 480 
C 602 768 582 1126 582 1408 
C 582 1676 595 2009 762 2297 
C 890 2508 1139 2713 1466 2713 
C 1754 2713 1997 2553 2150 2329 
C 2349 2028 2349 1606 2349 1408 
C 2349 1158 2336 774 2163 467 
C 1984 172 1709 51 1466 51 
z
" id="CMR17-6f" transform="scale(0.015625)"/>
       <path d="M 2496 2183 
C 2656 2579 2944 2585 3034 2585 
L 3034 2752 
C 2912 2745 2752 2739 2630 2739 
C 2496 2739 2285 2739 2157 2752 
L 2157 2585 
C 2400 2566 2406 2384 2406 2332 
C 2406 2268 2394 2235 2362 2158 
L 1664 409 
L 902 2300 
C 870 2378 870 2423 870 2430 
C 870 2572 1018 2585 1171 2585 
L 1171 2752 
C 1018 2739 742 2739 582 2739 
C 410 2739 205 2739 64 2752 
L 64 2585 
C 410 2585 448 2553 531 2345 
L 1485 -31 
C 1197 -795 1030 -1242 627 -1242 
C 557 -1242 397 -1223 282 -1106 
C 429 -1093 493 -1002 493 -892 
C 493 -782 416 -685 288 -685 
C 147 -685 77 -782 77 -899 
C 77 -1158 339 -1344 627 -1344 
C 998 -1344 1229 -983 1357 -659 
L 2496 2183 
z
" id="CMR17-79" transform="scale(0.015625)"/>
      </defs>
      <use transform="scale(0.996264)" xlink:href="#CMR17-54"/>
      <use transform="translate(66.509881 0)scale(0.996264)" xlink:href="#CMR17-68"/>
      <use transform="translate(117.40525 0)scale(0.996264)" xlink:href="#CMR17-65"/>
      <use transform="translate(157.890911 0)scale(0.996264)" xlink:href="#CMR17-6f"/>
      <use transform="translate(203.581388 0)scale(0.996264)" xlink:href="#CMR17-72"/>
      <use transform="translate(238.862156 0)scale(0.996264)" xlink:href="#CMR17-79"/>
     </g>
    </g>
    <g id="line2d_22">
     <path d="M 197.899628 37.237178 
L 217.899628 37.237178 
" style="fill:none;stroke:#ff7f0e;stroke-linecap:square;stroke-width:1.5;"/>
    </g>
    <g id="line2d_23"/>
    <g id="text_21">
     <!-- Experiment -->
     <g transform="translate(225.899628 40.737178)scale(0.1 -0.1)">
      <defs>
       <path d="M 3885 1614 
L 3770 1614 
C 3629 676 3546 166 2419 166 
L 1530 166 
C 1274 166 1261 198 1261 415 
L 1261 2176 
L 1862 2176 
C 2464 2176 2522 1959 2522 1429 
L 2637 1429 
L 2637 3086 
L 2522 3086 
C 2522 2558 2464 2342 1862 2342 
L 1261 2342 
L 1261 3924 
C 1261 4141 1274 4172 1530 4172 
L 2406 4172 
C 3398 4172 3514 3778 3603 2933 
L 3718 2933 
L 3565 4339 
L 326 4339 
L 326 4172 
C 768 4172 838 4172 838 3886 
L 838 453 
C 838 166 768 166 326 166 
L 326 0 
L 3654 0 
L 3885 1614 
z
" id="CMR17-45" transform="scale(0.015625)"/>
       <path d="M 1664 1491 
C 1856 1740 2074 2022 2253 2233 
C 2464 2476 2707 2579 2989 2585 
L 2989 2752 
C 2880 2745 2656 2739 2541 2739 
C 2368 2739 2170 2739 2022 2752 
L 2022 2585 
C 2112 2572 2163 2508 2163 2419 
C 2163 2304 2099 2233 2067 2188 
L 1594 1587 
L 1030 2323 
C 973 2393 973 2406 973 2438 
C 973 2515 1037 2579 1146 2585 
L 1146 2752 
C 992 2739 717 2739 557 2739 
C 384 2739 179 2739 38 2752 
L 38 2585 
C 384 2585 461 2560 614 2368 
L 1350 1414 
C 1363 1401 1395 1363 1395 1344 
C 1395 1318 838 633 768 544 
C 480 198 179 172 6 166 
L 6 0 
C 115 6 339 12 454 12 
C 582 12 864 12 979 0 
L 979 166 
C 941 172 838 185 838 332 
C 838 448 890 518 947 595 
L 1478 1248 
L 2035 524 
C 2086 454 2163 358 2163 313 
C 2163 224 2086 172 1984 166 
L 1984 0 
C 2138 12 2413 12 2573 12 
C 2746 12 2950 12 3091 0 
L 3091 166 
C 2771 166 2675 179 2522 377 
L 1664 1491 
z
" id="CMR17-78" transform="scale(0.015625)"/>
       <path d="M 1408 -1114 
C 998 -1114 973 -1088 973 -834 
L 973 380 
C 1158 109 1427 -64 1766 -64 
C 2406 -64 3053 503 3053 1382 
C 3053 2196 2496 2816 1837 2816 
C 1453 2816 1139 2603 960 2345 
L 960 2816 
L 198 2745 
L 198 2577 
C 576 2577 634 2539 634 2228 
L 634 -834 
C 634 -1081 608 -1114 198 -1114 
L 198 -1280 
C 352 -1268 634 -1268 800 -1268 
C 966 -1268 1254 -1268 1408 -1280 
L 1408 -1114 
z
M 973 2015 
C 973 2106 973 2241 1222 2481 
C 1254 2506 1472 2700 1792 2700 
C 2259 2700 2643 2112 2643 1376 
C 2643 639 2234 38 1728 38 
C 1498 38 1248 148 1056 451 
C 973 594 973 632 973 736 
L 973 2015 
z
" id="CMR17-70" transform="scale(0.015625)"/>
      </defs>
      <use transform="scale(0.996264)" xlink:href="#CMR17-45"/>
      <use transform="translate(62.586301 0)scale(0.996264)" xlink:href="#CMR17-78"/>
      <use transform="translate(110.879216 0)scale(0.996264)" xlink:href="#CMR17-70"/>
      <use transform="translate(164.377025 0)scale(0.996264)" xlink:href="#CMR17-65"/>
      <use transform="translate(204.862685 0)scale(0.996264)" xlink:href="#CMR17-72"/>
      <use transform="translate(240.143453 0)scale(0.996264)" xlink:href="#CMR17-69"/>
      <use transform="translate(265.014512 0)scale(0.996264)" xlink:href="#CMR17-6d"/>
      <use transform="translate(341.934101 0)scale(0.996264)" xlink:href="#CMR17-65"/>
      <use transform="translate(382.419762 0)scale(0.996264)" xlink:href="#CMR17-6e"/>
      <use transform="translate(430.712678 0)scale(0.996264)" xlink:href="#CMR17-74"/>
     </g>
    </g>
   </g>
  </g>
 </g>
 <defs>
  <clipPath id="p4bdcb45b3d">
   <rect height="134.195837" width="233.64715" x="52.062064" y="10.8"/>
  </clipPath>
 </defs>
</svg>
