<?xml version="1.0" encoding="utf-8" standalone="no"?>
<!DOCTYPE svg PUBLIC "-//W3C//DTD SVG 1.1//EN"
  "http://www.w3.org/Graphics/SVG/1.1/DTD/svg11.dtd">
<!-- Created with matplotlib (https://matplotlib.org/) -->
<svg height="283.464567pt" version="1.1" viewBox="0 0 453.543307 283.464567" width="453.543307pt" xmlns="http://www.w3.org/2000/svg" xmlns:xlink="http://www.w3.org/1999/xlink">
 <metadata>
  <rdf:RDF xmlns:cc="http://creativecommons.org/ns#" xmlns:dc="http://purl.org/dc/elements/1.1/" xmlns:rdf="http://www.w3.org/1999/02/22-rdf-syntax-ns#">
   <cc:Work>
    <dc:type rdf:resource="http://purl.org/dc/dcmitype/StillImage"/>
    <dc:date>2021-06-30T17:46:58.979185</dc:date>
    <dc:format>image/svg+xml</dc:format>
    <dc:creator>
     <cc:Agent>
      <dc:title>Matplotlib v3.3.2, https://matplotlib.org/</dc:title>
     </cc:Agent>
    </dc:creator>
   </cc:Work>
  </rdf:RDF>
 </metadata>
 <defs>
  <style type="text/css">*{stroke-linecap:butt;stroke-linejoin:round;}</style>
 </defs>
 <g id="figure_1">
  <g id="patch_1">
   <path d="M 0 283.464567 
L 453.543307 283.464567 
L 453.543307 0 
L 0 0 
z
" style="fill:none;"/>
  </g>
  <g id="axes_1">
   <g id="patch_2">
    <path d="M 46.147918 109.749831 
L 147.9809 109.749831 
L 147.9809 19.474739 
L 46.147918 19.474739 
z
" style="fill:#ffffff;"/>
   </g>
   <g id="matplotlib.axis_1">
    <g id="xtick_1">
     <g id="line2d_1">
      <defs>
       <path d="M 0 0 
L 0 -3.5 
" id="m025ef3a750" style="stroke:#000000;stroke-width:0.8;"/>
      </defs>
      <g>
       <use style="stroke:#000000;stroke-width:0.8;" x="65.775345" xlink:href="#m025ef3a750" y="109.749831"/>
      </g>
     </g>
     <g id="text_1">
      <!-- $\mathdefault{−50}$ -->
      <g transform="translate(56.919638 120.16833)scale(0.1 -0.1)">
       <defs>
        <path d="M 65.90625 23 
C 67.59375 23 69.40625 23 69.40625 25 
C 69.40625 27 67.59375 27 65.90625 27 
L 11.796875 27 
C 10.09375 27 8.296875 27 8.296875 25 
C 8.296875 23 10.09375 23 11.796875 23 
z
" id="CMSY10-0"/>
        <path d="M 11.40625 58.59375 
C 12.40625 58.1875 16.5 56.890625 20.703125 56.890625 
C 30 56.890625 35.09375 61.890625 38 64.6875 
C 38 65.484375 38 66 37.40625 66 
C 37.296875 66 37.09375 66 36.296875 65.59375 
C 32.796875 64.09375 28.703125 63 23.703125 63 
C 20.703125 63 16.203125 63.359375 11.296875 65.484375 
C 10.203125 66 10 66 9.90625 66 
C 9.40625 66 9.296875 65.890625 9.296875 63.90625 
L 9.296875 34.859375 
C 9.296875 33.015625 9.296875 32.5 10.296875 32.5 
C 10.796875 32.5 11 32.703125 11.5 33.421875 
C 14.703125 38.046875 19.09375 40 24.09375 40 
C 27.59375 40 35.09375 37.734375 35.09375 20.203125 
C 35.09375 16.984375 35.09375 11.1875 32.09375 6.59375 
C 29.59375 2.484375 25.703125 0.390625 21.40625 0.390625 
C 14.796875 0.390625 8.09375 4.984375 6.296875 12.6875 
C 6.703125 12.59375 7.5 12.390625 7.90625 12.390625 
C 9.203125 12.390625 11.703125 13.09375 11.703125 16.1875 
C 11.703125 18.890625 9.796875 20 7.90625 20 
C 5.59375 20 4.09375 18.59375 4.09375 15.796875 
C 4.09375 7.09375 11 -2 21.59375 -2 
C 31.90625 -2 41.703125 6.890625 41.703125 19.796875 
C 41.703125 32.09375 33.90625 41.59375 24.203125 41.59375 
C 19.09375 41.59375 14.796875 39.6875 11.40625 36 
z
" id="CMR17-53"/>
        <path d="M 42 31.84375 
C 42 37.96875 41.90625 48.421875 37.703125 56.453125 
C 34 63.484375 28.09375 66 22.90625 66 
C 18.09375 66 12 63.78125 8.203125 56.5625 
C 4.203125 49.015625 3.796875 39.671875 3.796875 31.84375 
C 3.796875 26.109375 3.90625 17.375 7 9.734375 
C 11.296875 -0.609375 19 -2 22.90625 -2 
C 27.5 -2 34.5 -0.109375 38.59375 9.4375 
C 41.59375 16.375 42 24.5 42 31.84375 
z
M 22.90625 -0.40625 
C 16.5 -0.40625 12.703125 5.125 11.296875 12.75 
C 10.203125 18.6875 10.203125 27.328125 10.203125 32.953125 
C 10.203125 40.6875 10.203125 47.109375 11.5 53.234375 
C 13.40625 61.78125 19 64.390625 22.90625 64.390625 
C 27 64.390625 32.296875 61.671875 34.203125 53.4375 
C 35.5 47.71875 35.59375 40.984375 35.59375 32.953125 
C 35.59375 26.421875 35.59375 18.375 34.40625 12.453125 
C 32.296875 1.5 26.40625 -0.40625 22.90625 -0.40625 
z
" id="CMR17-48"/>
       </defs>
       <use transform="scale(0.996264)" xlink:href="#CMSY10-0"/>
       <use transform="translate(77.487468 0)scale(0.996264)" xlink:href="#CMR17-53"/>
       <use transform="translate(123.177945 0)scale(0.996264)" xlink:href="#CMR17-48"/>
      </g>
     </g>
    </g>
    <g id="xtick_2">
     <g id="line2d_2">
      <g>
       <use style="stroke:#000000;stroke-width:0.8;" x="99.366178" xlink:href="#m025ef3a750" y="109.749831"/>
      </g>
     </g>
     <g id="text_2">
      <!-- $\mathdefault{0}$ -->
      <g transform="translate(96.87551 120.16833)scale(0.1 -0.1)">
       <use transform="scale(0.996264)" xlink:href="#CMR17-48"/>
      </g>
     </g>
    </g>
    <g id="xtick_3">
     <g id="line2d_3">
      <g>
       <use style="stroke:#000000;stroke-width:0.8;" x="132.95701" xlink:href="#m025ef3a750" y="109.749831"/>
      </g>
     </g>
     <g id="text_3">
      <!-- $\mathdefault{50}$ -->
      <g transform="translate(127.975675 120.16833)scale(0.1 -0.1)">
       <use transform="scale(0.996264)" xlink:href="#CMR17-53"/>
       <use transform="translate(45.690477 0)scale(0.996264)" xlink:href="#CMR17-48"/>
      </g>
     </g>
    </g>
    <g id="text_4">
     <!-- $w_i$ -->
     <g transform="translate(91.438921 134.407688)scale(0.12 -0.12)">
      <defs>
       <path d="M 34.40625 6.078125 
C 36.59375 0.09375 42.796875 -1 46.59375 -1 
C 54.203125 -1 58.703125 5.578125 61.5 12.46875 
C 63.796875 18.25 67.5 31.421875 67.5 37.3125 
C 67.5 43.390625 64.40625 44 63.5 44 
C 61.09375 44 58.90625 41.59375 58.90625 39.59375 
C 58.90625 38.40625 59.59375 37.703125 60.09375 37.3125 
C 61 36.40625 63.59375 33.71875 63.59375 28.53125 
C 63.59375 25.140625 60.796875 15.75 58.703125 11.0625 
C 55.90625 4.984375 52.203125 1 47 1 
C 41.40625 1 39.59375 5.1875 39.59375 9.765625 
C 39.59375 12.65625 40.5 16.15625 40.90625 17.84375 
L 45.09375 34.609375 
C 45.59375 36.609375 46.5 40.09375 46.5 40.484375 
C 46.5 41.984375 45.296875 43 43.796875 43 
C 40.90625 43 40.203125 40.484375 39.59375 38.09375 
C 38.59375 34.203125 34.40625 17.34375 34 15.15625 
C 33.59375 13.453125 33.59375 12.359375 33.59375 10.171875 
C 33.59375 7.78125 30.40625 3.984375 30.296875 3.78125 
C 29.203125 2.6875 27.59375 1 24.5 1 
C 16.59375 1 16.59375 8.46875 16.59375 10.171875 
C 16.59375 13.359375 17.296875 17.75 21.796875 29.625 
C 23 32.71875 23.5 34.015625 23.5 36.015625 
C 23.5 40.203125 20.5 44 15.59375 44 
C 6.40625 44 2.703125 29.53125 2.703125 28.71875 
C 2.703125 28.328125 3.09375 27.828125 3.796875 27.828125 
C 4.703125 27.828125 4.796875 28.234375 5.203125 29.625 
C 7.703125 38.40625 11.59375 41.984375 15.296875 41.984375 
C 16.296875 41.984375 17.90625 41.890625 17.90625 38.703125 
C 17.90625 38.203125 17.90625 36.109375 16.203125 31.71875 
C 11.5 19.25 10.5 15.15625 10.5 11.375 
C 10.5 0.890625 19.09375 -1 24.203125 -1 
C 25.90625 -1 30.40625 -1 34.40625 6.078125 
z
" id="CMMI12-119"/>
       <path d="M 28.296875 14.265625 
C 28.296875 14.765625 27.90625 15.15625 27.296875 15.15625 
C 26.40625 15.15625 26.296875 14.859375 25.796875 13.15625 
C 23.203125 4.078125 19.09375 1 15.796875 1 
C 14.59375 1 13.203125 1.296875 13.203125 4.28125 
C 13.203125 6.984375 14.40625 9.96875 15.5 12.96875 
L 22.5 31.515625 
C 22.796875 32.3125 23.5 34.109375 23.5 36.015625 
C 23.5 40.203125 20.5 44 15.59375 44 
C 6.40625 44 2.703125 29.53125 2.703125 28.71875 
C 2.703125 28.328125 3.09375 27.828125 3.796875 27.828125 
C 4.703125 27.828125 4.796875 28.234375 5.203125 29.625 
C 7.59375 38 11.40625 41.984375 15.296875 41.984375 
C 16.203125 41.984375 17.90625 41.890625 17.90625 38.703125 
C 17.90625 36.109375 16.59375 32.8125 15.796875 30.625 
L 8.796875 12.0625 
C 8.203125 10.46875 7.59375 8.875 7.59375 7.078125 
C 7.59375 2.59375 10.703125 -1 15.5 -1 
C 24.703125 -1 28.296875 13.5625 28.296875 14.265625 
z
M 27.5 62.6875 
C 27.5 64.1875 26.296875 66 24.09375 66 
C 21.796875 66 19.203125 63.796875 19.203125 61.1875 
C 19.203125 58.6875 21.296875 57.890625 22.5 57.890625 
C 25.203125 57.890625 27.5 60.484375 27.5 62.6875 
z
" id="CMMI12-105"/>
      </defs>
      <use transform="scale(0.996264)" xlink:href="#CMMI12-119"/>
      <use transform="translate(69.73199 -14.943915)scale(0.697382)" xlink:href="#CMMI12-105"/>
     </g>
    </g>
   </g>
   <g id="matplotlib.axis_2">
    <g id="ytick_1">
     <g id="line2d_4">
      <defs>
       <path d="M 0 0 
L 3.5 0 
" id="m76f1ad209d" style="stroke:#000000;stroke-width:0.8;"/>
      </defs>
      <g>
       <use style="stroke:#000000;stroke-width:0.8;" x="46.147918" xlink:href="#m76f1ad209d" y="77.029011"/>
      </g>
     </g>
     <g id="text_5">
      <!-- $\mathdefault{0.005}$ -->
      <g transform="translate(19.955168 80.48826)scale(0.1 -0.1)">
       <defs>
        <path d="M 18.40625 4.796875 
C 18.40625 7.6875 16 9.6875 13.59375 9.6875 
C 10.703125 9.6875 8.703125 7.296875 8.703125 4.890625 
C 8.703125 2 11.09375 0 13.5 0 
C 16.40625 0 18.40625 2.390625 18.40625 4.796875 
z
" id="CMMI12-58"/>
       </defs>
       <use transform="scale(0.996264)" xlink:href="#CMR17-48"/>
       <use transform="translate(45.690477 0)scale(0.996264)" xlink:href="#CMMI12-58"/>
       <use transform="translate(72.787654 0)scale(0.996264)" xlink:href="#CMR17-48"/>
       <use transform="translate(118.478131 0)scale(0.996264)" xlink:href="#CMR17-48"/>
       <use transform="translate(164.168608 0)scale(0.996264)" xlink:href="#CMR17-53"/>
      </g>
     </g>
    </g>
    <g id="ytick_2">
     <g id="line2d_5">
      <g>
       <use style="stroke:#000000;stroke-width:0.8;" x="46.147918" xlink:href="#m76f1ad209d" y="41.93623"/>
      </g>
     </g>
     <g id="text_6">
      <!-- $\mathdefault{0.010}$ -->
      <g transform="translate(19.955168 45.395479)scale(0.1 -0.1)">
       <defs>
        <path d="M 26.59375 63.796875 
C 26.59375 65.890625 26.5 66 25.09375 66 
C 21.203125 61.359375 15.296875 59.890625 9.703125 59.6875 
C 9.40625 59.6875 8.90625 59.6875 8.796875 59.5 
C 8.703125 59.296875 8.703125 59.09375 8.703125 57 
C 11.796875 57 17 57.59375 21 59.984375 
L 21 7.296875 
C 21 3.796875 20.796875 2.59375 12.203125 2.59375 
L 9.203125 2.59375 
L 9.203125 0 
C 14 0.09375 19 0.1875 23.796875 0.1875 
C 28.59375 0.1875 33.59375 0.09375 38.40625 0 
L 38.40625 2.59375 
L 35.40625 2.59375 
C 26.796875 2.59375 26.59375 3.6875 26.59375 7.296875 
z
" id="CMR17-49"/>
       </defs>
       <use transform="scale(0.996264)" xlink:href="#CMR17-48"/>
       <use transform="translate(45.690477 0)scale(0.996264)" xlink:href="#CMMI12-58"/>
       <use transform="translate(72.787654 0)scale(0.996264)" xlink:href="#CMR17-48"/>
       <use transform="translate(118.478131 0)scale(0.996264)" xlink:href="#CMR17-49"/>
       <use transform="translate(164.168608 0)scale(0.996264)" xlink:href="#CMR17-48"/>
      </g>
     </g>
    </g>
    <g id="text_7">
     <!-- $P(w_i)$ -->
     <g transform="translate(12.966376 79.624714)rotate(-90)scale(0.12 -0.12)">
      <defs>
       <path d="M 29.59375 31.59375 
L 46.40625 31.59375 
C 60.203125 31.59375 74 41.765625 74 53.125 
C 74 60.90625 67.40625 68 54.796875 68 
L 23.90625 68 
C 22 68 21.09375 68 21.09375 66.09375 
C 21.09375 65.09375 22 65.09375 23.5 65.09375 
C 29.59375 65.09375 29.59375 64.296875 29.59375 63.203125 
C 29.59375 63 29.59375 62.40625 29.203125 60.90625 
L 15.703125 7.359375 
C 14.796875 3.890625 14.59375 2.890625 7.59375 2.890625 
C 5.703125 2.890625 4.703125 2.890625 4.703125 1.09375 
C 4.703125 0 5.59375 0 6.203125 0 
C 8.09375 0 10.09375 0.1875 12 0.1875 
L 23.703125 0.1875 
C 25.59375 0.1875 27.703125 0 29.59375 0 
C 30.40625 0 31.5 0 31.5 1.890625 
C 31.5 2.890625 30.59375 2.890625 29.09375 2.890625 
C 23.09375 2.890625 23 3.59375 23 4.578125 
C 23 5.078125 23.09375 5.765625 23.203125 6.265625 
z
M 36.796875 61.203125 
C 37.703125 64.890625 38.09375 65.09375 42 65.09375 
L 51.90625 65.09375 
C 59.40625 65.09375 65.59375 62.703125 65.59375 55.21875 
C 65.59375 52.640625 64.296875 44.15625 59.703125 39.578125 
C 58 37.78125 53.203125 34 44.09375 34 
L 30 34 
z
" id="CMMI12-80"/>
       <path d="M 30.59375 -24.40625 
C 30.59375 -24.3125 30.59375 -24.109375 30.296875 -23.8125 
C 25.703125 -19.109375 13.40625 -6.296875 13.40625 24.9375 
C 13.40625 56.171875 25.5 68.875 30.40625 73.890625 
C 30.40625 73.984375 30.59375 74.1875 30.59375 74.484375 
C 30.59375 74.796875 30.296875 75 29.90625 75 
C 28.796875 75 20.296875 67.578125 15.40625 56.5625 
C 10.40625 45.453125 9 34.65625 9 25.046875 
C 9 17.828125 9.703125 5.625 15.703125 -7.296875 
C 20.5 -17.703125 28.703125 -25 29.90625 -25 
C 30.40625 -25 30.59375 -24.8125 30.59375 -24.40625 
z
" id="CMR17-40"/>
       <path d="M 26.296875 24.9375 
C 26.296875 32.140625 25.59375 44.359375 19.59375 57.265625 
C 14.796875 67.6875 6.59375 75 5.40625 75 
C 5.09375 75 4.703125 74.890625 4.703125 74.390625 
C 4.703125 74.1875 4.796875 74.09375 4.90625 73.890625 
C 9.703125 68.875 21.90625 56.171875 21.90625 25.046875 
C 21.90625 -6.1875 9.796875 -18.90625 4.90625 -23.90625 
C 4.796875 -24.109375 4.703125 -24.203125 4.703125 -24.40625 
C 4.703125 -24.90625 5.09375 -25 5.40625 -25 
C 6.5 -25 15 -17.609375 19.90625 -6.59375 
C 24.90625 4.515625 26.296875 15.328125 26.296875 24.9375 
z
" id="CMR17-41"/>
      </defs>
      <use transform="scale(0.996264)" xlink:href="#CMMI12-80"/>
      <use transform="translate(76.425821 0)scale(0.996264)" xlink:href="#CMR17-40"/>
      <use transform="translate(111.706589 0)scale(0.996264)" xlink:href="#CMMI12-119"/>
      <use transform="translate(181.438578 -14.943915)scale(0.697382)" xlink:href="#CMMI12-105"/>
      <use transform="translate(205.231617 0)scale(0.996264)" xlink:href="#CMR17-41"/>
     </g>
    </g>
   </g>
   <g id="line2d_6">
    <defs>
     <path d="M 0 3 
C 0.795609 3 1.55874 2.683901 2.12132 2.12132 
C 2.683901 1.55874 3 0.795609 3 0 
C 3 -0.795609 2.683901 -1.55874 2.12132 -2.12132 
C 1.55874 -2.683901 0.795609 -3 0 -3 
C -0.795609 -3 -1.55874 -2.683901 -2.12132 -2.12132 
C -2.683901 -1.55874 -3 -0.795609 -3 0 
C -3 0.795609 -2.683901 1.55874 -2.12132 2.12132 
C -1.55874 2.683901 -0.795609 3 0 3 
z
" id="m63d2946afa" style="stroke:#000000;stroke-width:1.5;"/>
    </defs>
    <g clip-path="url(#p388665100b)">
     <use style="fill:#1f77b4;stroke:#000000;stroke-width:1.5;" x="50.77669" xlink:href="#m63d2946afa" y="102.953777"/>
     <use style="fill:#1f77b4;stroke:#000000;stroke-width:1.5;" x="61.062849" xlink:href="#m63d2946afa" y="93.785763"/>
     <use style="fill:#1f77b4;stroke:#000000;stroke-width:1.5;" x="71.349009" xlink:href="#m63d2946afa" y="57.113708"/>
     <use style="fill:#1f77b4;stroke:#000000;stroke-width:1.5;" x="81.635169" xlink:href="#m63d2946afa" y="52.529701"/>
     <use style="fill:#1f77b4;stroke:#000000;stroke-width:1.5;" x="91.921329" xlink:href="#m63d2946afa" y="29.609666"/>
     <use style="fill:#1f77b4;stroke:#000000;stroke-width:1.5;" x="102.207489" xlink:href="#m63d2946afa" y="52.529701"/>
     <use style="fill:#1f77b4;stroke:#000000;stroke-width:1.5;" x="112.493649" xlink:href="#m63d2946afa" y="43.361687"/>
     <use style="fill:#1f77b4;stroke:#000000;stroke-width:1.5;" x="122.779809" xlink:href="#m63d2946afa" y="47.945694"/>
     <use style="fill:#1f77b4;stroke:#000000;stroke-width:1.5;" x="133.065968" xlink:href="#m63d2946afa" y="93.785763"/>
     <use style="fill:#1f77b4;stroke:#000000;stroke-width:1.5;" x="143.352128" xlink:href="#m63d2946afa" y="89.201756"/>
    </g>
   </g>
   <g id="line2d_7">
    <path clip-path="url(#p388665100b)" d="M 50.77669 105.646418 
L 52.815388 104.094226 
L 54.854086 102.261187 
L 56.892785 100.120614 
L 58.931483 97.649249 
L 60.970181 94.828945 
L 63.101548 91.495242 
L 65.325582 87.594194 
L 67.734953 82.89498 
L 70.32966 77.326791 
L 73.29504 70.421508 
L 77.372436 60.310005 
L 83.488531 45.153714 
L 86.175906 39.100226 
L 88.399941 34.622233 
L 90.253303 31.360447 
L 91.921329 28.851241 
L 93.404019 26.997143 
L 94.79404 25.605018 
L 96.091394 24.623773 
L 97.296079 23.997407 
L 98.408096 23.668049 
L 99.520114 23.58038 
L 100.632131 23.735119 
L 101.744148 24.130998 
L 102.856166 24.764773 
L 104.060851 25.713784 
L 105.358205 27.030807 
L 106.748226 28.765301 
L 108.323584 31.108706 
L 110.084278 34.158893 
L 112.030308 37.991479 
L 114.347011 43.068805 
L 117.31239 50.14838 
L 128.895904 78.422596 
L 131.583279 84.081399 
L 133.99265 88.663338 
L 136.309352 92.599666 
L 138.533387 95.937749 
L 140.664753 98.738157 
L 142.79612 101.164836 
L 143.352128 101.739204 
L 143.352128 101.739204 
" style="fill:none;stroke:#000000;stroke-linecap:square;stroke-width:1.5;"/>
   </g>
   <g id="patch_3">
    <path d="M 46.147918 109.749831 
L 46.147918 19.474739 
" style="fill:none;stroke:#000000;stroke-linecap:square;stroke-linejoin:miter;stroke-width:0.8;"/>
   </g>
   <g id="patch_4">
    <path d="M 147.9809 109.749831 
L 147.9809 19.474739 
" style="fill:none;stroke:#000000;stroke-linecap:square;stroke-linejoin:miter;stroke-width:0.8;"/>
   </g>
   <g id="patch_5">
    <path d="M 46.147918 109.749831 
L 147.9809 109.749831 
" style="fill:none;stroke:#000000;stroke-linecap:square;stroke-linejoin:miter;stroke-width:0.8;"/>
   </g>
   <g id="patch_6">
    <path d="M 46.147918 19.474739 
L 147.9809 19.474739 
" style="fill:none;stroke:#000000;stroke-linecap:square;stroke-linejoin:miter;stroke-width:0.8;"/>
   </g>
   <g id="text_8">
    <!-- $\tau = 10^{-3}~ \mathrm{ s, } ~N = 10^2$   -->
    <g transform="translate(45.478339 13.474739)scale(0.12 -0.12)">
     <defs>
      <path d="M 28.703125 37.59375 
L 45.296875 37.59375 
C 46.59375 37.59375 49.90625 37.59375 49.90625 40.796875 
C 49.90625 43 48 43 46.203125 43 
L 18.703125 43 
C 16.40625 43 13 43 8.40625 38.09375 
C 5.796875 35.203125 2.59375 29.9375 2.59375 29.34375 
C 2.59375 28.734375 3.09375 28.546875 3.703125 28.546875 
C 4.40625 28.546875 4.5 28.84375 5 29.4375 
C 10.203125 37.59375 15.40625 37.59375 17.90625 37.59375 
L 26.203125 37.59375 
L 15.796875 3.484375 
C 15.296875 1.984375 15.296875 1.78125 15.296875 1.484375 
C 15.296875 0.390625 16 -1 18 -1 
C 21.09375 -1 21.59375 1.6875 21.90625 3.1875 
z
" id="CMMI12-28"/>
      <path d="M 64.296875 32 
C 65.796875 32 67.296875 32 67.296875 33.6875 
C 67.296875 35.5 65.59375 35.5 63.90625 35.5 
L 8 35.5 
C 6.296875 35.5 4.59375 35.5 4.59375 33.6875 
C 4.59375 32 6.09375 32 7.59375 32 
z
M 63.90625 14.484375 
C 65.59375 14.484375 67.296875 14.484375 67.296875 16.296875 
C 67.296875 18 65.796875 18 64.296875 18 
L 7.59375 18 
C 6.09375 18 4.59375 18 4.59375 16.296875 
C 4.59375 14.484375 6.296875 14.484375 8 14.484375 
z
" id="CMR17-61"/>
      <path d="M 22.09375 34 
C 31 34 34.90625 26.140625 34.90625 17.09375 
C 34.90625 5.03125 28.5 0.390625 22.703125 0.390625 
C 17.40625 0.390625 8.796875 3.015625 6.09375 10.796875 
C 6.59375 10.59375 7.09375 10.59375 7.59375 10.59375 
C 10 10.59375 11.796875 12.1875 11.796875 14.796875 
C 11.796875 17.6875 9.59375 19 7.59375 19 
C 5.90625 19 3.296875 18.1875 3.296875 14.484375 
C 3.296875 5.234375 12.296875 -2 22.90625 -2 
C 34 -2 42.5 6.75 42.5 16.984375 
C 42.5 26.84375 34.5 34 25 35.09375 
C 32.59375 36.671875 39.90625 43.375 39.90625 52.390625 
C 39.90625 60.25 32 66 23 66 
C 13.90625 66 5.90625 60.34375 5.90625 52.296875 
C 5.90625 48.796875 8.5 48.1875 9.796875 48.1875 
C 11.90625 48.1875 13.703125 49.484375 13.703125 52.09375 
C 13.703125 54.6875 11.90625 56 9.796875 56 
C 9.40625 56 8.90625 56 8.5 55.796875 
C 11.40625 62.484375 19.296875 63.6875 22.796875 63.6875 
C 26.296875 63.6875 32.90625 61.96875 32.90625 52.296875 
C 32.90625 49.484375 32.5 44.546875 29.09375 40.21875 
C 26.09375 36.390625 22.703125 36.1875 19.40625 35.890625 
C 18.90625 35.890625 16.59375 35.6875 16.203125 35.6875 
C 15.5 35.59375 15.09375 35.5 15.09375 34.796875 
C 15.09375 34.09375 15.203125 34 17.203125 34 
z
" id="CMR17-51"/>
      <path d="M 30.90625 42 
C 30.90625 43.796875 30.796875 43.890625 30.203125 43.890625 
C 29.796875 43.890625 29.703125 43.796875 28.5 42.296875 
C 28.203125 41.890625 27.296875 40.890625 27 40.5 
C 23.796875 43.890625 19.296875 44 17.59375 44 
C 6.5 44 2.5 38.1875 2.5 32.390625 
C 2.5 23.390625 12.703125 21.296875 15.59375 20.6875 
C 21.90625 19.390625 24.09375 19 26.203125 17.1875 
C 27.5 16 29.703125 13.796875 29.703125 10.1875 
C 29.703125 6 27.296875 0.59375 18.09375 0.59375 
C 9.40625 0.59375 6.296875 7.1875 4.5 16 
C 4.203125 17.390625 4.203125 17.5 3.40625 17.5 
C 2.59375 17.5 2.5 17.390625 2.5 15.390625 
L 2.5 1 
C 2.5 -0.8125 2.59375 -0.90625 3.203125 -0.90625 
C 3.703125 -0.90625 3.796875 -0.8125 4.296875 0 
C 4.90625 0.890625 6.40625 3.296875 7 4.296875 
C 9 1.59375 12.5 -1 18.09375 -1 
C 28 -1 33.296875 4.390625 33.296875 12.1875 
C 33.296875 17.296875 30.59375 20 29.296875 21.1875 
C 26.296875 24.296875 22.796875 25 18.59375 25.796875 
C 13.09375 27 6.09375 28.390625 6.09375 34.5 
C 6.09375 37.09375 7.5 42.59375 17.59375 42.59375 
C 28.296875 42.59375 28.90625 32.59375 29.09375 29.390625 
C 29.203125 28.890625 29.703125 28.796875 30 28.796875 
C 30.90625 28.796875 30.90625 29.09375 30.90625 30.796875 
z
" id="CMR17-115"/>
      <path d="M 19.5 -0.40625 
C 19.5 5.390625 17.59375 9.6875 13.5 9.6875 
C 10.296875 9.6875 8.703125 7.09375 8.703125 4.890625 
C 8.703125 2.6875 10.203125 0 13.59375 0 
C 14.90625 0 16 0.390625 16.90625 1.296875 
C 17.09375 1.5 17.203125 1.5 17.296875 1.5 
C 17.5 1.5 17.5 0.09375 17.5 -0.40625 
C 17.5 -3.640625 16.90625 -10.03125 11.09375 -16.421875 
C 10 -17.609375 10 -17.8125 10 -18 
C 10 -18.5 10.5 -19 11 -19 
C 11.796875 -19 19.5 -11.703125 19.5 -0.40625 
z
" id="CMMI12-59"/>
      <path d="M 74 57.53125 
C 75.09375 61.8125 76.703125 64.796875 84.296875 65.09375 
C 84.59375 65.09375 85.796875 65.1875 85.796875 66.890625 
C 85.796875 68 84.90625 68 84.5 68 
C 82.5 68 77.40625 67.796875 75.40625 67.796875 
L 70.59375 67.796875 
C 69.203125 67.796875 67.40625 68 66 68 
C 65.40625 68 64.203125 68 64.203125 66.09375 
C 64.203125 65.09375 65 65.09375 65.703125 65.09375 
C 71.703125 64.890625 72.09375 62.609375 72.09375 60.8125 
C 72.09375 59.921875 72 59.625 71.703125 58.21875 
L 60.40625 13.34375 
L 39 66.296875 
C 38.296875 67.890625 38.203125 68 36 68 
L 23.796875 68 
C 21.796875 68 20.90625 68 20.90625 66.09375 
C 20.90625 65.09375 21.59375 65.09375 23.5 65.09375 
C 24 65.09375 29.90625 65.09375 29.90625 64.203125 
C 29.90625 64 29.703125 63.203125 29.59375 62.90625 
L 16.296875 10.15625 
C 15.09375 5.28125 12.703125 3.1875 6.09375 2.890625 
C 5.59375 2.890625 4.59375 2.796875 4.59375 1 
C 4.59375 0 5.59375 0 5.90625 0 
C 7.90625 0 13 0.1875 15 0.1875 
L 19.796875 0.1875 
C 21.203125 0.1875 22.90625 0 24.296875 0 
C 25 0 26.09375 0 26.09375 1.890625 
C 26.09375 2.796875 25.09375 2.890625 24.703125 2.890625 
C 21.40625 2.984375 18.203125 3.59375 18.203125 7.171875 
C 18.203125 7.96875 18.40625 8.859375 18.59375 9.65625 
L 32.09375 62.90625 
C 32.703125 61.90625 32.703125 61.703125 33.09375 60.8125 
L 56.90625 1.796875 
C 57.40625 0.59375 57.59375 0 58.5 0 
C 59.5 0 59.59375 0.296875 60 2 
z
" id="CMMI12-78"/>
      <path d="M 41.703125 15.46875 
L 39.90625 15.46875 
C 38.90625 8.390625 38.09375 7.1875 37.703125 6.59375 
C 37.203125 5.796875 30 5.796875 28.59375 5.796875 
L 9.40625 5.796875 
C 13 9.6875 20 16.765625 28.5 24.9375 
C 34.59375 30.71875 41.703125 37.5 41.703125 47.390625 
C 41.703125 59.1875 32.296875 66 21.796875 66 
C 10.796875 66 4.09375 56.296875 4.09375 47.296875 
C 4.09375 43.390625 7 42.890625 8.203125 42.890625 
C 9.203125 42.890625 12.203125 43.484375 12.203125 46.984375 
C 12.203125 50.09375 9.59375 51 8.203125 51 
C 7.59375 51 7 50.890625 6.59375 50.6875 
C 8.5 59.1875 14.296875 63.390625 20.40625 63.390625 
C 29.09375 63.390625 34.796875 56.5 34.796875 47.390625 
C 34.796875 38.703125 29.703125 31.21875 24 24.734375 
L 4.09375 2.296875 
L 4.09375 0 
L 39.296875 0 
z
" id="CMR17-50"/>
     </defs>
     <use transform="scale(0.996264)" xlink:href="#CMMI12-28"/>
     <use transform="translate(81.165174 0)scale(0.996264)" xlink:href="#CMR17-61"/>
     <use transform="translate(180.553971 0)scale(0.996264)" xlink:href="#CMR17-49"/>
     <use transform="translate(226.244448 0)scale(0.996264)" xlink:href="#CMR17-48"/>
     <use transform="translate(271.934925 36.153639)scale(0.697382)" xlink:href="#CMSY10-0"/>
     <use transform="translate(326.175919 36.153639)scale(0.697382)" xlink:href="#CMR17-51"/>
     <use transform="translate(388.733199 0)scale(0.996264)" xlink:href="#CMR17-115"/>
     <use transform="translate(424.534537 0)scale(0.996264)" xlink:href="#CMMI12-59"/>
     <use transform="translate(481.70768 0)scale(0.996264)" xlink:href="#CMMI12-78"/>
     <use transform="translate(597.903461 0)scale(0.996264)" xlink:href="#CMR17-61"/>
     <use transform="translate(697.292259 0)scale(0.996264)" xlink:href="#CMR17-49"/>
     <use transform="translate(742.982736 0)scale(0.996264)" xlink:href="#CMR17-48"/>
     <use transform="translate(788.673213 36.153639)scale(0.697382)" xlink:href="#CMR17-50"/>
    </g>
   </g>
  </g>
  <g id="axes_2">
   <g id="patch_7">
    <path d="M 195.155868 109.749831 
L 296.98885 109.749831 
L 296.98885 19.474739 
L 195.155868 19.474739 
z
" style="fill:#ffffff;"/>
   </g>
   <g id="matplotlib.axis_3">
    <g id="xtick_4">
     <g id="line2d_8">
      <g>
       <use style="stroke:#000000;stroke-width:0.8;" x="239.149472" xlink:href="#m025ef3a750" y="109.749831"/>
      </g>
     </g>
     <g id="text_9">
      <!-- $\mathdefault{0}$ -->
      <g transform="translate(236.658805 120.16833)scale(0.1 -0.1)">
       <use transform="scale(0.996264)" xlink:href="#CMR17-48"/>
      </g>
     </g>
    </g>
    <g id="xtick_5">
     <g id="line2d_9">
      <g>
       <use style="stroke:#000000;stroke-width:0.8;" x="289.655391" xlink:href="#m025ef3a750" y="109.749831"/>
      </g>
     </g>
     <g id="text_10">
      <!-- $\mathdefault{100}$ -->
      <g transform="translate(282.183388 120.16833)scale(0.1 -0.1)">
       <use transform="scale(0.996264)" xlink:href="#CMR17-49"/>
       <use transform="translate(45.690477 0)scale(0.996264)" xlink:href="#CMR17-48"/>
       <use transform="translate(91.380954 0)scale(0.996264)" xlink:href="#CMR17-48"/>
      </g>
     </g>
    </g>
    <g id="text_11">
     <!-- $w_i$ -->
     <g transform="translate(240.446871 134.407688)scale(0.12 -0.12)">
      <use transform="scale(0.996264)" xlink:href="#CMMI12-119"/>
      <use transform="translate(69.73199 -14.943915)scale(0.697382)" xlink:href="#CMMI12-105"/>
     </g>
    </g>
   </g>
   <g id="matplotlib.axis_4">
    <g id="ytick_3">
     <g id="line2d_10">
      <g>
       <use style="stroke:#000000;stroke-width:0.8;" x="195.155868" xlink:href="#m76f1ad209d" y="105.966746"/>
      </g>
     </g>
     <g id="text_12">
      <!-- $\mathdefault{0.000}$ -->
      <g transform="translate(168.963118 109.425995)scale(0.1 -0.1)">
       <use transform="scale(0.996264)" xlink:href="#CMR17-48"/>
       <use transform="translate(45.690477 0)scale(0.996264)" xlink:href="#CMMI12-58"/>
       <use transform="translate(72.787654 0)scale(0.996264)" xlink:href="#CMR17-48"/>
       <use transform="translate(118.478131 0)scale(0.996264)" xlink:href="#CMR17-48"/>
       <use transform="translate(164.168608 0)scale(0.996264)" xlink:href="#CMR17-48"/>
      </g>
     </g>
    </g>
    <g id="ytick_4">
     <g id="line2d_11">
      <g>
       <use style="stroke:#000000;stroke-width:0.8;" x="195.155868" xlink:href="#m76f1ad209d" y="73.313426"/>
      </g>
     </g>
     <g id="text_13">
      <!-- $\mathdefault{0.005}$ -->
      <g transform="translate(168.963118 76.772675)scale(0.1 -0.1)">
       <use transform="scale(0.996264)" xlink:href="#CMR17-48"/>
       <use transform="translate(45.690477 0)scale(0.996264)" xlink:href="#CMMI12-58"/>
       <use transform="translate(72.787654 0)scale(0.996264)" xlink:href="#CMR17-48"/>
       <use transform="translate(118.478131 0)scale(0.996264)" xlink:href="#CMR17-48"/>
       <use transform="translate(164.168608 0)scale(0.996264)" xlink:href="#CMR17-53"/>
      </g>
     </g>
    </g>
    <g id="ytick_5">
     <g id="line2d_12">
      <g>
       <use style="stroke:#000000;stroke-width:0.8;" x="195.155868" xlink:href="#m76f1ad209d" y="40.660107"/>
      </g>
     </g>
     <g id="text_14">
      <!-- $\mathdefault{0.010}$ -->
      <g transform="translate(168.963118 44.119356)scale(0.1 -0.1)">
       <use transform="scale(0.996264)" xlink:href="#CMR17-48"/>
       <use transform="translate(45.690477 0)scale(0.996264)" xlink:href="#CMMI12-58"/>
       <use transform="translate(72.787654 0)scale(0.996264)" xlink:href="#CMR17-48"/>
       <use transform="translate(118.478131 0)scale(0.996264)" xlink:href="#CMR17-49"/>
       <use transform="translate(164.168608 0)scale(0.996264)" xlink:href="#CMR17-48"/>
      </g>
     </g>
    </g>
    <g id="text_15">
     <!-- $P(w_i)$ -->
     <g transform="translate(161.974326 79.624714)rotate(-90)scale(0.12 -0.12)">
      <use transform="scale(0.996264)" xlink:href="#CMMI12-80"/>
      <use transform="translate(76.425821 0)scale(0.996264)" xlink:href="#CMR17-40"/>
      <use transform="translate(111.706589 0)scale(0.996264)" xlink:href="#CMMI12-119"/>
      <use transform="translate(181.438578 -14.943915)scale(0.697382)" xlink:href="#CMMI12-105"/>
      <use transform="translate(205.231617 0)scale(0.996264)" xlink:href="#CMR17-41"/>
     </g>
    </g>
   </g>
   <g id="line2d_13">
    <g clip-path="url(#p8342cb3bd0)">
     <use style="fill:#1f77b4;stroke:#000000;stroke-width:1.5;" x="199.784639" xlink:href="#m63d2946afa" y="102.439473"/>
     <use style="fill:#1f77b4;stroke:#000000;stroke-width:1.5;" x="210.070799" xlink:href="#m63d2946afa" y="89.933689"/>
     <use style="fill:#1f77b4;stroke:#000000;stroke-width:1.5;" x="220.356959" xlink:href="#m63d2946afa" y="56.905591"/>
     <use style="fill:#1f77b4;stroke:#000000;stroke-width:1.5;" x="230.643119" xlink:href="#m63d2946afa" y="34.138649"/>
     <use style="fill:#1f77b4;stroke:#000000;stroke-width:1.5;" x="240.929279" xlink:href="#m63d2946afa" y="28.366749"/>
     <use style="fill:#1f77b4;stroke:#000000;stroke-width:1.5;" x="251.215439" xlink:href="#m63d2946afa" y="45.041128"/>
     <use style="fill:#1f77b4;stroke:#000000;stroke-width:1.5;" x="261.501599" xlink:href="#m63d2946afa" y="79.351871"/>
     <use style="fill:#1f77b4;stroke:#000000;stroke-width:1.5;" x="271.787759" xlink:href="#m63d2946afa" y="96.02625"/>
     <use style="fill:#1f77b4;stroke:#000000;stroke-width:1.5;" x="282.073918" xlink:href="#m63d2946afa" y="101.798151"/>
     <use style="fill:#1f77b4;stroke:#000000;stroke-width:1.5;" x="292.360078" xlink:href="#m63d2946afa" y="105.004762"/>
    </g>
   </g>
   <g id="line2d_14">
    <path clip-path="url(#p8342cb3bd0)" d="M 199.784639 102.015442 
L 201.545334 100.813223 
L 203.213359 99.412427 
L 204.881385 97.721304 
L 206.549411 95.706371 
L 208.217437 93.337555 
L 209.978131 90.426405 
L 211.738825 87.075197 
L 213.592187 83.06671 
L 215.630886 78.105087 
L 217.85492 72.094024 
L 220.634964 63.88813 
L 229.067761 38.460638 
L 230.921123 33.817595 
L 232.496481 30.424824 
L 233.886503 27.931991 
L 235.091188 26.195351 
L 236.203205 24.96807 
L 237.222555 24.175541 
L 238.149236 23.739504 
L 238.983249 23.582555 
L 239.817262 23.650078 
L 240.651275 23.941522 
L 241.577956 24.525018 
L 242.504637 25.376127 
L 243.523986 26.611235 
L 244.728671 28.454668 
L 246.026025 30.871371 
L 247.508715 34.123999 
L 249.269409 38.562741 
L 251.400775 44.577004 
L 254.551491 54.214864 
L 259.740905 70.081092 
L 262.242944 77.001622 
L 264.466978 82.512547 
L 266.505676 86.964463 
L 268.359039 90.494234 
L 270.119733 93.395995 
L 271.880427 95.876921 
L 273.641121 97.966044 
L 275.401815 99.699243 
L 277.162509 101.116284 
L 279.015871 102.311546 
L 280.961901 103.290035 
L 283.000599 104.065961 
L 285.317302 104.70375 
L 288.004677 105.201117 
L 291.248061 105.563765 
L 292.360078 105.646418 
L 292.360078 105.646418 
" style="fill:none;stroke:#000000;stroke-linecap:square;stroke-width:1.5;"/>
   </g>
   <g id="patch_8">
    <path d="M 195.155868 109.749831 
L 195.155868 19.474739 
" style="fill:none;stroke:#000000;stroke-linecap:square;stroke-linejoin:miter;stroke-width:0.8;"/>
   </g>
   <g id="patch_9">
    <path d="M 296.98885 109.749831 
L 296.98885 19.474739 
" style="fill:none;stroke:#000000;stroke-linecap:square;stroke-linejoin:miter;stroke-width:0.8;"/>
   </g>
   <g id="patch_10">
    <path d="M 195.155868 109.749831 
L 296.98885 109.749831 
" style="fill:none;stroke:#000000;stroke-linecap:square;stroke-linejoin:miter;stroke-width:0.8;"/>
   </g>
   <g id="patch_11">
    <path d="M 195.155868 19.474739 
L 296.98885 19.474739 
" style="fill:none;stroke:#000000;stroke-linecap:square;stroke-linejoin:miter;stroke-width:0.8;"/>
   </g>
   <g id="text_16">
    <!-- $\tau = 10^{-3} ~\mathrm{ s, }~ N = 10^3$   -->
    <g transform="translate(194.486289 13.474739)scale(0.12 -0.12)">
     <use transform="scale(0.996264)" xlink:href="#CMMI12-28"/>
     <use transform="translate(81.165174 0)scale(0.996264)" xlink:href="#CMR17-61"/>
     <use transform="translate(180.553971 0)scale(0.996264)" xlink:href="#CMR17-49"/>
     <use transform="translate(226.244448 0)scale(0.996264)" xlink:href="#CMR17-48"/>
     <use transform="translate(271.934925 36.153639)scale(0.697382)" xlink:href="#CMSY10-0"/>
     <use transform="translate(326.175919 36.153639)scale(0.697382)" xlink:href="#CMR17-51"/>
     <use transform="translate(388.733199 0)scale(0.996264)" xlink:href="#CMR17-115"/>
     <use transform="translate(424.534537 0)scale(0.996264)" xlink:href="#CMMI12-59"/>
     <use transform="translate(481.70768 0)scale(0.996264)" xlink:href="#CMMI12-78"/>
     <use transform="translate(597.903461 0)scale(0.996264)" xlink:href="#CMR17-61"/>
     <use transform="translate(697.292259 0)scale(0.996264)" xlink:href="#CMR17-49"/>
     <use transform="translate(742.982736 0)scale(0.996264)" xlink:href="#CMR17-48"/>
     <use transform="translate(788.673213 36.153639)scale(0.697382)" xlink:href="#CMR17-51"/>
    </g>
   </g>
  </g>
  <g id="axes_3">
   <g id="patch_12">
    <path d="M 344.163817 109.749831 
L 445.9968 109.749831 
L 445.9968 19.474739 
L 344.163817 19.474739 
z
" style="fill:#ffffff;"/>
   </g>
   <g id="matplotlib.axis_5">
    <g id="xtick_6">
     <g id="line2d_15">
      <g>
       <use style="stroke:#000000;stroke-width:0.8;" x="346.367939" xlink:href="#m025ef3a750" y="109.749831"/>
      </g>
     </g>
     <g id="text_17">
      <!-- $\mathdefault{−100}$ -->
      <g transform="translate(335.021564 120.16833)scale(0.1 -0.1)">
       <use transform="scale(0.996264)" xlink:href="#CMSY10-0"/>
       <use transform="translate(77.487468 0)scale(0.996264)" xlink:href="#CMR17-49"/>
       <use transform="translate(123.177945 0)scale(0.996264)" xlink:href="#CMR17-48"/>
       <use transform="translate(168.868422 0)scale(0.996264)" xlink:href="#CMR17-48"/>
      </g>
     </g>
    </g>
    <g id="xtick_7">
     <g id="line2d_16">
      <g>
       <use style="stroke:#000000;stroke-width:0.8;" x="394.249015" xlink:href="#m025ef3a750" y="109.749831"/>
      </g>
     </g>
     <g id="text_18">
      <!-- $\mathdefault{0}$ -->
      <g transform="translate(391.758348 120.16833)scale(0.1 -0.1)">
       <use transform="scale(0.996264)" xlink:href="#CMR17-48"/>
      </g>
     </g>
    </g>
    <g id="xtick_8">
     <g id="line2d_17">
      <g>
       <use style="stroke:#000000;stroke-width:0.8;" x="442.130092" xlink:href="#m025ef3a750" y="109.749831"/>
      </g>
     </g>
     <g id="text_19">
      <!-- $\mathdefault{100}$ -->
      <g transform="translate(434.658089 120.16833)scale(0.1 -0.1)">
       <use transform="scale(0.996264)" xlink:href="#CMR17-49"/>
       <use transform="translate(45.690477 0)scale(0.996264)" xlink:href="#CMR17-48"/>
       <use transform="translate(91.380954 0)scale(0.996264)" xlink:href="#CMR17-48"/>
      </g>
     </g>
    </g>
    <g id="text_20">
     <!-- $w_i$ -->
     <g transform="translate(389.454821 134.407688)scale(0.12 -0.12)">
      <use transform="scale(0.996264)" xlink:href="#CMMI12-119"/>
      <use transform="translate(69.73199 -14.943915)scale(0.697382)" xlink:href="#CMMI12-105"/>
     </g>
    </g>
   </g>
   <g id="matplotlib.axis_6">
    <g id="ytick_6">
     <g id="line2d_18">
      <g>
       <use style="stroke:#000000;stroke-width:0.8;" x="344.163817" xlink:href="#m76f1ad209d" y="106.299119"/>
      </g>
     </g>
     <g id="text_21">
      <!-- $\mathdefault{0.000}$ -->
      <g transform="translate(317.971068 109.758368)scale(0.1 -0.1)">
       <use transform="scale(0.996264)" xlink:href="#CMR17-48"/>
       <use transform="translate(45.690477 0)scale(0.996264)" xlink:href="#CMMI12-58"/>
       <use transform="translate(72.787654 0)scale(0.996264)" xlink:href="#CMR17-48"/>
       <use transform="translate(118.478131 0)scale(0.996264)" xlink:href="#CMR17-48"/>
       <use transform="translate(164.168608 0)scale(0.996264)" xlink:href="#CMR17-48"/>
      </g>
     </g>
    </g>
    <g id="ytick_7">
     <g id="line2d_19">
      <g>
       <use style="stroke:#000000;stroke-width:0.8;" x="344.163817" xlink:href="#m76f1ad209d" y="73.514092"/>
      </g>
     </g>
     <g id="text_22">
      <!-- $\mathdefault{0.005}$ -->
      <g transform="translate(317.971068 76.973341)scale(0.1 -0.1)">
       <use transform="scale(0.996264)" xlink:href="#CMR17-48"/>
       <use transform="translate(45.690477 0)scale(0.996264)" xlink:href="#CMMI12-58"/>
       <use transform="translate(72.787654 0)scale(0.996264)" xlink:href="#CMR17-48"/>
       <use transform="translate(118.478131 0)scale(0.996264)" xlink:href="#CMR17-48"/>
       <use transform="translate(164.168608 0)scale(0.996264)" xlink:href="#CMR17-53"/>
      </g>
     </g>
    </g>
    <g id="ytick_8">
     <g id="line2d_20">
      <g>
       <use style="stroke:#000000;stroke-width:0.8;" x="344.163817" xlink:href="#m76f1ad209d" y="40.729065"/>
      </g>
     </g>
     <g id="text_23">
      <!-- $\mathdefault{0.010}$ -->
      <g transform="translate(317.971068 44.188314)scale(0.1 -0.1)">
       <use transform="scale(0.996264)" xlink:href="#CMR17-48"/>
       <use transform="translate(45.690477 0)scale(0.996264)" xlink:href="#CMMI12-58"/>
       <use transform="translate(72.787654 0)scale(0.996264)" xlink:href="#CMR17-48"/>
       <use transform="translate(118.478131 0)scale(0.996264)" xlink:href="#CMR17-49"/>
       <use transform="translate(164.168608 0)scale(0.996264)" xlink:href="#CMR17-48"/>
      </g>
     </g>
    </g>
    <g id="text_24">
     <!-- $P(w_i)$ -->
     <g transform="translate(310.982276 79.624714)rotate(-90)scale(0.12 -0.12)">
      <use transform="scale(0.996264)" xlink:href="#CMMI12-80"/>
      <use transform="translate(76.425821 0)scale(0.996264)" xlink:href="#CMR17-40"/>
      <use transform="translate(111.706589 0)scale(0.996264)" xlink:href="#CMMI12-119"/>
      <use transform="translate(181.438578 -14.943915)scale(0.697382)" xlink:href="#CMMI12-105"/>
      <use transform="translate(205.231617 0)scale(0.996264)" xlink:href="#CMR17-41"/>
     </g>
    </g>
   </g>
   <g id="line2d_21">
    <g clip-path="url(#pf0a1ec90bf)">
     <use style="fill:#1f77b4;stroke:#000000;stroke-width:1.5;" x="348.792589" xlink:href="#m63d2946afa" y="105.413975"/>
     <use style="fill:#1f77b4;stroke:#000000;stroke-width:1.5;" x="359.078749" xlink:href="#m63d2946afa" y="100.103108"/>
     <use style="fill:#1f77b4;stroke:#000000;stroke-width:1.5;" x="369.364909" xlink:href="#m63d2946afa" y="84.872518"/>
     <use style="fill:#1f77b4;stroke:#000000;stroke-width:1.5;" x="379.651069" xlink:href="#m63d2946afa" y="53.709327"/>
     <use style="fill:#1f77b4;stroke:#000000;stroke-width:1.5;" x="389.937229" xlink:href="#m63d2946afa" y="28.314837"/>
     <use style="fill:#1f77b4;stroke:#000000;stroke-width:1.5;" x="400.223389" xlink:href="#m63d2946afa" y="29.993559"/>
     <use style="fill:#1f77b4;stroke:#000000;stroke-width:1.5;" x="410.509549" xlink:href="#m63d2946afa" y="60.088472"/>
     <use style="fill:#1f77b4;stroke:#000000;stroke-width:1.5;" x="420.795708" xlink:href="#m63d2946afa" y="87.558473"/>
     <use style="fill:#1f77b4;stroke:#000000;stroke-width:1.5;" x="431.081868" xlink:href="#m63d2946afa" y="102.148097"/>
     <use style="fill:#1f77b4;stroke:#000000;stroke-width:1.5;" x="441.368028" xlink:href="#m63d2946afa" y="105.566586"/>
    </g>
   </g>
   <g id="line2d_22">
    <path clip-path="url(#pf0a1ec90bf)" d="M 348.792589 105.386063 
L 351.292376 104.820575 
L 353.440341 104.110081 
L 355.356844 103.24469 
L 357.134471 102.197992 
L 358.810254 100.952698 
L 360.430486 99.47027 
L 362.032201 97.69851 
L 363.633916 95.587602 
L 365.254149 93.076112 
L 366.920673 90.072236 
L 368.661265 86.462199 
L 370.503701 82.113062 
L 372.512789 76.779294 
L 374.799631 70.047894 
L 377.743824 60.633732 
L 383.789605 41.136843 
L 385.807951 35.483592 
L 387.455959 31.498015 
L 388.863246 28.649093 
L 390.094623 26.633951 
L 391.187122 25.252344 
L 392.159262 24.362269 
L 393.048075 23.837938 
L 393.872078 23.60378 
L 394.659048 23.608477 
L 395.446018 23.83624 
L 396.270022 24.311753 
L 397.158835 25.091665 
L 398.130975 26.252651 
L 399.214216 27.908354 
L 400.427075 30.18526 
L 401.815846 33.288883 
L 403.426819 37.460244 
L 405.389615 43.194678 
L 408.120863 51.929784 
L 414.305521 71.89543 
L 416.684948 78.70356 
L 418.749587 83.960714 
L 420.647573 88.204464 
L 422.434458 91.671687 
L 424.156533 94.538963 
L 425.832316 96.905953 
L 427.489582 98.867944 
L 429.146848 100.490136 
L 430.83189 101.83212 
L 432.58174 102.942897 
L 434.433434 103.854888 
L 436.451781 104.598364 
L 438.710847 105.189422 
L 441.349511 105.64393 
L 441.368028 105.646418 
L 441.368028 105.646418 
" style="fill:none;stroke:#000000;stroke-linecap:square;stroke-width:1.5;"/>
   </g>
   <g id="patch_13">
    <path d="M 344.163817 109.749831 
L 344.163817 19.474739 
" style="fill:none;stroke:#000000;stroke-linecap:square;stroke-linejoin:miter;stroke-width:0.8;"/>
   </g>
   <g id="patch_14">
    <path d="M 445.9968 109.749831 
L 445.9968 19.474739 
" style="fill:none;stroke:#000000;stroke-linecap:square;stroke-linejoin:miter;stroke-width:0.8;"/>
   </g>
   <g id="patch_15">
    <path d="M 344.163817 109.749831 
L 445.9968 109.749831 
" style="fill:none;stroke:#000000;stroke-linecap:square;stroke-linejoin:miter;stroke-width:0.8;"/>
   </g>
   <g id="patch_16">
    <path d="M 344.163817 19.474739 
L 445.9968 19.474739 
" style="fill:none;stroke:#000000;stroke-linecap:square;stroke-linejoin:miter;stroke-width:0.8;"/>
   </g>
   <g id="text_25">
    <!-- $\tau = 10^{-3} ~ \mathrm{ s, }~ N = 10^4$   -->
    <g transform="translate(343.494238 13.474739)scale(0.12 -0.12)">
     <defs>
      <path d="M 33.59375 64.796875 
C 33.59375 66.890625 33.5 67 31.703125 67 
L 2 19.59375 
L 2 17 
L 27.796875 17 
L 27.796875 7.1875 
C 27.796875 3.59375 27.59375 2.59375 20.59375 2.59375 
L 18.703125 2.59375 
L 18.703125 0 
C 21.90625 0.1875 27.296875 0.1875 30.703125 0.1875 
C 34.09375 0.1875 39.5 0.1875 42.703125 0 
L 42.703125 2.59375 
L 40.796875 2.59375 
C 33.796875 2.59375 33.59375 3.59375 33.59375 7.1875 
L 33.59375 17 
L 43.796875 17 
L 43.796875 19.59375 
L 33.59375 19.59375 
z
M 28.09375 58.171875 
L 28.09375 19.59375 
L 4 19.59375 
z
" id="CMR17-52"/>
     </defs>
     <use transform="scale(0.996264)" xlink:href="#CMMI12-28"/>
     <use transform="translate(81.165174 0)scale(0.996264)" xlink:href="#CMR17-61"/>
     <use transform="translate(180.553971 0)scale(0.996264)" xlink:href="#CMR17-49"/>
     <use transform="translate(226.244448 0)scale(0.996264)" xlink:href="#CMR17-48"/>
     <use transform="translate(271.934925 36.153639)scale(0.697382)" xlink:href="#CMSY10-0"/>
     <use transform="translate(326.175919 36.153639)scale(0.697382)" xlink:href="#CMR17-51"/>
     <use transform="translate(388.733199 0)scale(0.996264)" xlink:href="#CMR17-115"/>
     <use transform="translate(424.534537 0)scale(0.996264)" xlink:href="#CMMI12-59"/>
     <use transform="translate(481.70768 0)scale(0.996264)" xlink:href="#CMMI12-78"/>
     <use transform="translate(597.903461 0)scale(0.996264)" xlink:href="#CMR17-61"/>
     <use transform="translate(697.292259 0)scale(0.996264)" xlink:href="#CMR17-49"/>
     <use transform="translate(742.982736 0)scale(0.996264)" xlink:href="#CMR17-48"/>
     <use transform="translate(788.673213 36.153639)scale(0.697382)" xlink:href="#CMR17-52"/>
    </g>
   </g>
  </g>
  <g id="axes_4">
   <g id="patch_17">
    <path d="M 46.147918 252.482115 
L 147.9809 252.482115 
L 147.9809 162.207022 
L 46.147918 162.207022 
z
" style="fill:#ffffff;"/>
   </g>
   <g id="matplotlib.axis_7">
    <g id="xtick_9">
     <g id="line2d_23">
      <g>
       <use style="stroke:#000000;stroke-width:0.8;" x="53.012242" xlink:href="#m025ef3a750" y="252.482115"/>
      </g>
     </g>
     <g id="text_26">
      <!-- $\mathdefault{−2}$ -->
      <g transform="translate(46.647203 262.900613)scale(0.1 -0.1)">
       <use transform="scale(0.996264)" xlink:href="#CMSY10-0"/>
       <use transform="translate(77.487468 0)scale(0.996264)" xlink:href="#CMR17-50"/>
      </g>
     </g>
    </g>
    <g id="xtick_10">
     <g id="line2d_24">
      <g>
       <use style="stroke:#000000;stroke-width:0.8;" x="100.242071" xlink:href="#m025ef3a750" y="252.482115"/>
      </g>
     </g>
     <g id="text_27">
      <!-- $\mathdefault{0}$ -->
      <g transform="translate(97.751403 262.900613)scale(0.1 -0.1)">
       <use transform="scale(0.996264)" xlink:href="#CMR17-48"/>
      </g>
     </g>
    </g>
    <g id="xtick_11">
     <g id="line2d_25">
      <g>
       <use style="stroke:#000000;stroke-width:0.8;" x="147.471899" xlink:href="#m025ef3a750" y="252.482115"/>
      </g>
     </g>
     <g id="text_28">
      <!-- $\mathdefault{2}$ -->
      <g transform="translate(144.981232 262.900613)scale(0.1 -0.1)">
       <use transform="scale(0.996264)" xlink:href="#CMR17-50"/>
      </g>
     </g>
    </g>
    <g id="text_29">
     <!-- $w_i$ -->
     <g transform="translate(91.438921 277.139971)scale(0.12 -0.12)">
      <use transform="scale(0.996264)" xlink:href="#CMMI12-119"/>
      <use transform="translate(69.73199 -14.943915)scale(0.697382)" xlink:href="#CMMI12-105"/>
     </g>
    </g>
   </g>
   <g id="matplotlib.axis_8">
    <g id="ytick_9">
     <g id="line2d_26">
      <g>
       <use style="stroke:#000000;stroke-width:0.8;" x="46.147918" xlink:href="#m76f1ad209d" y="215.795975"/>
      </g>
     </g>
     <g id="text_30">
      <!-- $\mathdefault{0.2}$ -->
      <g transform="translate(29.917839 219.255224)scale(0.1 -0.1)">
       <use transform="scale(0.996264)" xlink:href="#CMR17-48"/>
       <use transform="translate(45.690477 0)scale(0.996264)" xlink:href="#CMMI12-58"/>
       <use transform="translate(72.787654 0)scale(0.996264)" xlink:href="#CMR17-50"/>
      </g>
     </g>
    </g>
    <g id="ytick_10">
     <g id="line2d_27">
      <g>
       <use style="stroke:#000000;stroke-width:0.8;" x="46.147918" xlink:href="#m76f1ad209d" y="173.894773"/>
      </g>
     </g>
     <g id="text_31">
      <!-- $\mathdefault{0.4}$ -->
      <g transform="translate(29.917839 177.354022)scale(0.1 -0.1)">
       <use transform="scale(0.996264)" xlink:href="#CMR17-48"/>
       <use transform="translate(45.690477 0)scale(0.996264)" xlink:href="#CMMI12-58"/>
       <use transform="translate(72.787654 0)scale(0.996264)" xlink:href="#CMR17-52"/>
      </g>
     </g>
    </g>
    <g id="text_32">
     <!-- $P(w_i)$ -->
     <g transform="translate(22.929047 222.356997)rotate(-90)scale(0.12 -0.12)">
      <use transform="scale(0.996264)" xlink:href="#CMMI12-80"/>
      <use transform="translate(76.425821 0)scale(0.996264)" xlink:href="#CMR17-40"/>
      <use transform="translate(111.706589 0)scale(0.996264)" xlink:href="#CMMI12-119"/>
      <use transform="translate(181.438578 -14.943915)scale(0.697382)" xlink:href="#CMMI12-105"/>
      <use transform="translate(205.231617 0)scale(0.996264)" xlink:href="#CMR17-41"/>
     </g>
    </g>
   </g>
   <g id="line2d_28">
    <g clip-path="url(#p101e84e077)">
     <use style="fill:#1f77b4;stroke:#000000;stroke-width:1.5;" x="50.77669" xlink:href="#m63d2946afa" y="243.267691"/>
     <use style="fill:#1f77b4;stroke:#000000;stroke-width:1.5;" x="61.062849" xlink:href="#m63d2946afa" y="233.648034"/>
     <use style="fill:#1f77b4;stroke:#000000;stroke-width:1.5;" x="71.349009" xlink:href="#m63d2946afa" y="204.789063"/>
     <use style="fill:#1f77b4;stroke:#000000;stroke-width:1.5;" x="81.635169" xlink:href="#m63d2946afa" y="190.359578"/>
     <use style="fill:#1f77b4;stroke:#000000;stroke-width:1.5;" x="91.921329" xlink:href="#m63d2946afa" y="166.310436"/>
     <use style="fill:#1f77b4;stroke:#000000;stroke-width:1.5;" x="102.207489" xlink:href="#m63d2946afa" y="209.598892"/>
     <use style="fill:#1f77b4;stroke:#000000;stroke-width:1.5;" x="112.493649" xlink:href="#m63d2946afa" y="204.789063"/>
     <use style="fill:#1f77b4;stroke:#000000;stroke-width:1.5;" x="122.779809" xlink:href="#m63d2946afa" y="224.028377"/>
     <use style="fill:#1f77b4;stroke:#000000;stroke-width:1.5;" x="133.065968" xlink:href="#m63d2946afa" y="190.359578"/>
     <use style="fill:#1f77b4;stroke:#000000;stroke-width:1.5;" x="143.352128" xlink:href="#m63d2946afa" y="228.838206"/>
    </g>
   </g>
   <g id="line2d_29">
    <path clip-path="url(#p101e84e077)" d="M 50.77669 248.378701 
L 53.000724 246.396775 
L 55.224759 244.114328 
L 57.448793 241.515045 
L 59.765496 238.459484 
L 62.174867 234.902102 
L 64.676906 230.807956 
L 67.456949 225.813508 
L 70.607664 219.665317 
L 74.592393 211.360333 
L 83.117859 193.439768 
L 85.897902 188.196643 
L 88.214605 184.283354 
L 90.253303 181.268689 
L 92.013997 179.038873 
L 93.682023 177.27986 
L 95.164713 176.026092 
L 96.554734 175.129081 
L 97.852088 174.543326 
L 99.149441 174.205788 
L 100.354127 174.117312 
L 101.558812 174.246199 
L 102.763498 174.591443 
L 104.060851 175.202089 
L 105.358205 176.055031 
L 106.748226 177.229072 
L 108.323584 178.870114 
L 109.99161 180.944428 
L 111.844972 183.620002 
L 113.88367 186.960567 
L 116.293041 191.355365 
L 119.258421 197.261168 
L 123.799158 206.878718 
L 129.822585 219.556343 
L 133.158637 226.059433 
L 136.031348 231.190739 
L 138.626055 235.391739 
L 141.128094 239.025599 
L 143.352128 241.905089 
L 143.352128 241.905089 
" style="fill:none;stroke:#000000;stroke-linecap:square;stroke-width:1.5;"/>
   </g>
   <g id="patch_18">
    <path d="M 46.147918 252.482115 
L 46.147918 162.207022 
" style="fill:none;stroke:#000000;stroke-linecap:square;stroke-linejoin:miter;stroke-width:0.8;"/>
   </g>
   <g id="patch_19">
    <path d="M 147.9809 252.482115 
L 147.9809 162.207022 
" style="fill:none;stroke:#000000;stroke-linecap:square;stroke-linejoin:miter;stroke-width:0.8;"/>
   </g>
   <g id="patch_20">
    <path d="M 46.147918 252.482115 
L 147.9809 252.482115 
" style="fill:none;stroke:#000000;stroke-linecap:square;stroke-linejoin:miter;stroke-width:0.8;"/>
   </g>
   <g id="patch_21">
    <path d="M 46.147918 162.207022 
L 147.9809 162.207022 
" style="fill:none;stroke:#000000;stroke-linecap:square;stroke-linejoin:miter;stroke-width:0.8;"/>
   </g>
   <g id="text_33">
    <!-- $\tau = 1 ~ \mathrm{ s, }~ N = 10^2$   -->
    <g transform="translate(54.064244 156.207022)scale(0.12 -0.12)">
     <use transform="scale(0.996264)" xlink:href="#CMMI12-28"/>
     <use transform="translate(81.165174 0)scale(0.996264)" xlink:href="#CMR17-61"/>
     <use transform="translate(180.553971 0)scale(0.996264)" xlink:href="#CMR17-49"/>
     <use transform="translate(256.320415 0)scale(0.996264)" xlink:href="#CMR17-115"/>
     <use transform="translate(292.121752 0)scale(0.996264)" xlink:href="#CMMI12-59"/>
     <use transform="translate(349.294896 0)scale(0.996264)" xlink:href="#CMMI12-78"/>
     <use transform="translate(465.490677 0)scale(0.996264)" xlink:href="#CMR17-61"/>
     <use transform="translate(564.879474 0)scale(0.996264)" xlink:href="#CMR17-49"/>
     <use transform="translate(610.569951 0)scale(0.996264)" xlink:href="#CMR17-48"/>
     <use transform="translate(656.260428 36.153639)scale(0.697382)" xlink:href="#CMR17-50"/>
    </g>
   </g>
  </g>
  <g id="axes_5">
   <g id="patch_22">
    <path d="M 195.155868 252.482115 
L 296.98885 252.482115 
L 296.98885 162.207022 
L 195.155868 162.207022 
z
" style="fill:#ffffff;"/>
   </g>
   <g id="matplotlib.axis_9">
    <g id="xtick_12">
     <g id="line2d_30">
      <g>
       <use style="stroke:#000000;stroke-width:0.8;" x="209.951118" xlink:href="#m025ef3a750" y="252.482115"/>
      </g>
     </g>
     <g id="text_34">
      <!-- $\mathdefault{−2.5}$ -->
      <g transform="translate(199.711707 262.900613)scale(0.1 -0.1)">
       <use transform="scale(0.996264)" xlink:href="#CMSY10-0"/>
       <use transform="translate(77.487468 0)scale(0.996264)" xlink:href="#CMR17-50"/>
       <use transform="translate(123.177945 0)scale(0.996264)" xlink:href="#CMMI12-58"/>
       <use transform="translate(150.275122 0)scale(0.996264)" xlink:href="#CMR17-53"/>
      </g>
     </g>
    </g>
    <g id="xtick_13">
     <g id="line2d_31">
      <g>
       <use style="stroke:#000000;stroke-width:0.8;" x="250.021934" xlink:href="#m025ef3a750" y="252.482115"/>
      </g>
     </g>
     <g id="text_35">
      <!-- $\mathdefault{0.0}$ -->
      <g transform="translate(243.656895 262.900613)scale(0.1 -0.1)">
       <use transform="scale(0.996264)" xlink:href="#CMR17-48"/>
       <use transform="translate(45.690477 0)scale(0.996264)" xlink:href="#CMMI12-58"/>
       <use transform="translate(72.787654 0)scale(0.996264)" xlink:href="#CMR17-48"/>
      </g>
     </g>
    </g>
    <g id="xtick_14">
     <g id="line2d_32">
      <g>
       <use style="stroke:#000000;stroke-width:0.8;" x="290.092751" xlink:href="#m025ef3a750" y="252.482115"/>
      </g>
     </g>
     <g id="text_36">
      <!-- $\mathdefault{2.5}$ -->
      <g transform="translate(283.727711 262.900613)scale(0.1 -0.1)">
       <use transform="scale(0.996264)" xlink:href="#CMR17-50"/>
       <use transform="translate(45.690477 0)scale(0.996264)" xlink:href="#CMMI12-58"/>
       <use transform="translate(72.787654 0)scale(0.996264)" xlink:href="#CMR17-53"/>
      </g>
     </g>
    </g>
    <g id="text_37">
     <!-- $w_i$ -->
     <g transform="translate(240.446871 277.139971)scale(0.12 -0.12)">
      <use transform="scale(0.996264)" xlink:href="#CMMI12-119"/>
      <use transform="translate(69.73199 -14.943915)scale(0.697382)" xlink:href="#CMMI12-105"/>
     </g>
    </g>
   </g>
   <g id="matplotlib.axis_10">
    <g id="ytick_11">
     <g id="line2d_33">
      <g>
       <use style="stroke:#000000;stroke-width:0.8;" x="195.155868" xlink:href="#m76f1ad209d" y="248.987101"/>
      </g>
     </g>
     <g id="text_38">
      <!-- $\mathdefault{0.0}$ -->
      <g transform="translate(178.925789 252.44635)scale(0.1 -0.1)">
       <use transform="scale(0.996264)" xlink:href="#CMR17-48"/>
       <use transform="translate(45.690477 0)scale(0.996264)" xlink:href="#CMMI12-58"/>
       <use transform="translate(72.787654 0)scale(0.996264)" xlink:href="#CMR17-48"/>
      </g>
     </g>
    </g>
    <g id="ytick_12">
     <g id="line2d_34">
      <g>
       <use style="stroke:#000000;stroke-width:0.8;" x="195.155868" xlink:href="#m76f1ad209d" y="207.539157"/>
      </g>
     </g>
     <g id="text_39">
      <!-- $\mathdefault{0.2}$ -->
      <g transform="translate(178.925789 210.998406)scale(0.1 -0.1)">
       <use transform="scale(0.996264)" xlink:href="#CMR17-48"/>
       <use transform="translate(45.690477 0)scale(0.996264)" xlink:href="#CMMI12-58"/>
       <use transform="translate(72.787654 0)scale(0.996264)" xlink:href="#CMR17-50"/>
      </g>
     </g>
    </g>
    <g id="ytick_13">
     <g id="line2d_35">
      <g>
       <use style="stroke:#000000;stroke-width:0.8;" x="195.155868" xlink:href="#m76f1ad209d" y="166.091214"/>
      </g>
     </g>
     <g id="text_40">
      <!-- $\mathdefault{0.4}$ -->
      <g transform="translate(178.925789 169.550463)scale(0.1 -0.1)">
       <use transform="scale(0.996264)" xlink:href="#CMR17-48"/>
       <use transform="translate(45.690477 0)scale(0.996264)" xlink:href="#CMMI12-58"/>
       <use transform="translate(72.787654 0)scale(0.996264)" xlink:href="#CMR17-52"/>
      </g>
     </g>
    </g>
    <g id="text_41">
     <!-- $P(w_i)$ -->
     <g transform="translate(171.936997 222.356997)rotate(-90)scale(0.12 -0.12)">
      <use transform="scale(0.996264)" xlink:href="#CMMI12-80"/>
      <use transform="translate(76.425821 0)scale(0.996264)" xlink:href="#CMR17-40"/>
      <use transform="translate(111.706589 0)scale(0.996264)" xlink:href="#CMMI12-119"/>
      <use transform="translate(181.438578 -14.943915)scale(0.697382)" xlink:href="#CMMI12-105"/>
      <use transform="translate(205.231617 0)scale(0.996264)" xlink:href="#CMR17-41"/>
     </g>
    </g>
   </g>
   <g id="line2d_36">
    <g clip-path="url(#p5787b2c3cc)">
     <use style="fill:#1f77b4;stroke:#000000;stroke-width:1.5;" x="199.784639" xlink:href="#m63d2946afa" y="248.018312"/>
     <use style="fill:#1f77b4;stroke:#000000;stroke-width:1.5;" x="210.070799" xlink:href="#m63d2946afa" y="245.111945"/>
     <use style="fill:#1f77b4;stroke:#000000;stroke-width:1.5;" x="220.356959" xlink:href="#m63d2946afa" y="231.225971"/>
     <use style="fill:#1f77b4;stroke:#000000;stroke-width:1.5;" x="230.643119" xlink:href="#m63d2946afa" y="211.527263"/>
     <use style="fill:#1f77b4;stroke:#000000;stroke-width:1.5;" x="240.929279" xlink:href="#m63d2946afa" y="176.650862"/>
     <use style="fill:#1f77b4;stroke:#000000;stroke-width:1.5;" x="251.215439" xlink:href="#m63d2946afa" y="167.608832"/>
     <use style="fill:#1f77b4;stroke:#000000;stroke-width:1.5;" x="261.501599" xlink:href="#m63d2946afa" y="185.047033"/>
     <use style="fill:#1f77b4;stroke:#000000;stroke-width:1.5;" x="271.787759" xlink:href="#m63d2946afa" y="219.600504"/>
     <use style="fill:#1f77b4;stroke:#000000;stroke-width:1.5;" x="282.073918" xlink:href="#m63d2946afa" y="236.392845"/>
     <use style="fill:#1f77b4;stroke:#000000;stroke-width:1.5;" x="292.360078" xlink:href="#m63d2946afa" y="245.757804"/>
    </g>
   </g>
   <g id="line2d_37">
    <path clip-path="url(#p5787b2c3cc)" d="M 199.784639 248.378701 
L 202.842687 247.900705 
L 205.344726 247.287889 
L 207.476092 246.547154 
L 209.422123 245.644051 
L 211.275485 244.53627 
L 213.036179 243.217499 
L 214.704205 241.691102 
L 216.372231 239.860265 
L 218.040257 237.692983 
L 219.708282 235.161596 
L 221.468976 232.071541 
L 223.322339 228.340856 
L 225.268369 223.898639 
L 227.399735 218.45042 
L 229.809106 211.657375 
L 233.05249 201.782189 
L 238.519908 185.07822 
L 240.651275 179.298216 
L 242.411969 175.122882 
L 243.894658 172.136028 
L 245.192012 169.980157 
L 246.396697 168.398303 
L 247.416046 167.395895 
L 248.342727 166.76289 
L 249.269409 166.401487 
L 250.103422 166.311484 
L 250.937434 166.445169 
L 251.771447 166.801457 
L 252.698129 167.454844 
L 253.717478 168.47899 
L 254.829495 169.947011 
L 256.03418 171.926884 
L 257.424202 174.673284 
L 258.99956 178.313221 
L 260.852922 183.186754 
L 263.262293 190.210129 
L 268.451707 206.300343 
L 271.602422 215.58745 
L 274.011793 222.013525 
L 276.14316 227.076059 
L 278.08919 231.141513 
L 279.942552 234.50968 
L 281.703246 237.264739 
L 283.46394 239.609355 
L 285.224634 241.575 
L 286.985328 243.1989 
L 288.746022 244.521238 
L 290.599384 245.632219 
L 292.360078 246.46198 
L 292.360078 246.46198 
" style="fill:none;stroke:#000000;stroke-linecap:square;stroke-width:1.5;"/>
   </g>
   <g id="patch_23">
    <path d="M 195.155868 252.482115 
L 195.155868 162.207022 
" style="fill:none;stroke:#000000;stroke-linecap:square;stroke-linejoin:miter;stroke-width:0.8;"/>
   </g>
   <g id="patch_24">
    <path d="M 296.98885 252.482115 
L 296.98885 162.207022 
" style="fill:none;stroke:#000000;stroke-linecap:square;stroke-linejoin:miter;stroke-width:0.8;"/>
   </g>
   <g id="patch_25">
    <path d="M 195.155868 252.482115 
L 296.98885 252.482115 
" style="fill:none;stroke:#000000;stroke-linecap:square;stroke-linejoin:miter;stroke-width:0.8;"/>
   </g>
   <g id="patch_26">
    <path d="M 195.155868 162.207022 
L 296.98885 162.207022 
" style="fill:none;stroke:#000000;stroke-linecap:square;stroke-linejoin:miter;stroke-width:0.8;"/>
   </g>
   <g id="text_42">
    <!-- $\tau = 1 ~  \mathrm{ s, } ~N = 10^3$   -->
    <g transform="translate(203.072194 156.207022)scale(0.12 -0.12)">
     <use transform="scale(0.996264)" xlink:href="#CMMI12-28"/>
     <use transform="translate(81.165174 0)scale(0.996264)" xlink:href="#CMR17-61"/>
     <use transform="translate(180.553971 0)scale(0.996264)" xlink:href="#CMR17-49"/>
     <use transform="translate(256.320415 0)scale(0.996264)" xlink:href="#CMR17-115"/>
     <use transform="translate(292.121752 0)scale(0.996264)" xlink:href="#CMMI12-59"/>
     <use transform="translate(349.294896 0)scale(0.996264)" xlink:href="#CMMI12-78"/>
     <use transform="translate(465.490677 0)scale(0.996264)" xlink:href="#CMR17-61"/>
     <use transform="translate(564.879474 0)scale(0.996264)" xlink:href="#CMR17-49"/>
     <use transform="translate(610.569951 0)scale(0.996264)" xlink:href="#CMR17-48"/>
     <use transform="translate(656.260428 36.153639)scale(0.697382)" xlink:href="#CMR17-51"/>
    </g>
   </g>
  </g>
  <g id="axes_6">
   <g id="patch_27">
    <path d="M 344.163817 252.482115 
L 445.9968 252.482115 
L 445.9968 162.207022 
L 344.163817 162.207022 
z
" style="fill:#ffffff;"/>
   </g>
   <g id="matplotlib.axis_11">
    <g id="xtick_15">
     <g id="line2d_38">
      <g>
       <use style="stroke:#000000;stroke-width:0.8;" x="360.828877" xlink:href="#m025ef3a750" y="252.482115"/>
      </g>
     </g>
     <g id="text_43">
      <!-- $\mathdefault{−2.5}$ -->
      <g transform="translate(350.589466 262.900613)scale(0.1 -0.1)">
       <use transform="scale(0.996264)" xlink:href="#CMSY10-0"/>
       <use transform="translate(77.487468 0)scale(0.996264)" xlink:href="#CMR17-50"/>
       <use transform="translate(123.177945 0)scale(0.996264)" xlink:href="#CMMI12-58"/>
       <use transform="translate(150.275122 0)scale(0.996264)" xlink:href="#CMR17-53"/>
      </g>
     </g>
    </g>
    <g id="xtick_16">
     <g id="line2d_39">
      <g>
       <use style="stroke:#000000;stroke-width:0.8;" x="395.665412" xlink:href="#m025ef3a750" y="252.482115"/>
      </g>
     </g>
     <g id="text_44">
      <!-- $\mathdefault{0.0}$ -->
      <g transform="translate(389.300373 262.900613)scale(0.1 -0.1)">
       <use transform="scale(0.996264)" xlink:href="#CMR17-48"/>
       <use transform="translate(45.690477 0)scale(0.996264)" xlink:href="#CMMI12-58"/>
       <use transform="translate(72.787654 0)scale(0.996264)" xlink:href="#CMR17-48"/>
      </g>
     </g>
    </g>
    <g id="xtick_17">
     <g id="line2d_40">
      <g>
       <use style="stroke:#000000;stroke-width:0.8;" x="430.501947" xlink:href="#m025ef3a750" y="252.482115"/>
      </g>
     </g>
     <g id="text_45">
      <!-- $\mathdefault{2.5}$ -->
      <g transform="translate(424.136907 262.900613)scale(0.1 -0.1)">
       <use transform="scale(0.996264)" xlink:href="#CMR17-50"/>
       <use transform="translate(45.690477 0)scale(0.996264)" xlink:href="#CMMI12-58"/>
       <use transform="translate(72.787654 0)scale(0.996264)" xlink:href="#CMR17-53"/>
      </g>
     </g>
    </g>
    <g id="text_46">
     <!-- $w_i$ -->
     <g transform="translate(389.454821 277.139971)scale(0.12 -0.12)">
      <use transform="scale(0.996264)" xlink:href="#CMMI12-119"/>
      <use transform="translate(69.73199 -14.943915)scale(0.697382)" xlink:href="#CMMI12-105"/>
     </g>
    </g>
   </g>
   <g id="matplotlib.axis_12">
    <g id="ytick_14">
     <g id="line2d_41">
      <g>
       <use style="stroke:#000000;stroke-width:0.8;" x="344.163817" xlink:href="#m76f1ad209d" y="248.666233"/>
      </g>
     </g>
     <g id="text_47">
      <!-- $\mathdefault{0.0}$ -->
      <g transform="translate(327.933738 252.125482)scale(0.1 -0.1)">
       <use transform="scale(0.996264)" xlink:href="#CMR17-48"/>
       <use transform="translate(45.690477 0)scale(0.996264)" xlink:href="#CMMI12-58"/>
       <use transform="translate(72.787654 0)scale(0.996264)" xlink:href="#CMR17-48"/>
      </g>
     </g>
    </g>
    <g id="ytick_15">
     <g id="line2d_42">
      <g>
       <use style="stroke:#000000;stroke-width:0.8;" x="344.163817" xlink:href="#m76f1ad209d" y="207.379158"/>
      </g>
     </g>
     <g id="text_48">
      <!-- $\mathdefault{0.2}$ -->
      <g transform="translate(327.933738 210.838407)scale(0.1 -0.1)">
       <use transform="scale(0.996264)" xlink:href="#CMR17-48"/>
       <use transform="translate(45.690477 0)scale(0.996264)" xlink:href="#CMMI12-58"/>
       <use transform="translate(72.787654 0)scale(0.996264)" xlink:href="#CMR17-50"/>
      </g>
     </g>
    </g>
    <g id="ytick_16">
     <g id="line2d_43">
      <g>
       <use style="stroke:#000000;stroke-width:0.8;" x="344.163817" xlink:href="#m76f1ad209d" y="166.092083"/>
      </g>
     </g>
     <g id="text_49">
      <!-- $\mathdefault{0.4}$ -->
      <g transform="translate(327.933738 169.551332)scale(0.1 -0.1)">
       <use transform="scale(0.996264)" xlink:href="#CMR17-48"/>
       <use transform="translate(45.690477 0)scale(0.996264)" xlink:href="#CMMI12-58"/>
       <use transform="translate(72.787654 0)scale(0.996264)" xlink:href="#CMR17-52"/>
      </g>
     </g>
    </g>
    <g id="text_50">
     <!-- $P(w_i)$ -->
     <g transform="translate(320.944946 222.356997)rotate(-90)scale(0.12 -0.12)">
      <use transform="scale(0.996264)" xlink:href="#CMMI12-80"/>
      <use transform="translate(76.425821 0)scale(0.996264)" xlink:href="#CMR17-40"/>
      <use transform="translate(111.706589 0)scale(0.996264)" xlink:href="#CMMI12-119"/>
      <use transform="translate(181.438578 -14.943915)scale(0.697382)" xlink:href="#CMMI12-105"/>
      <use transform="translate(205.231617 0)scale(0.996264)" xlink:href="#CMR17-41"/>
     </g>
    </g>
   </g>
   <g id="line2d_44">
    <g clip-path="url(#p9a83b4a8e4)">
     <use style="fill:#1f77b4;stroke:#000000;stroke-width:1.5;" x="348.792589" xlink:href="#m63d2946afa" y="248.218782"/>
     <use style="fill:#1f77b4;stroke:#000000;stroke-width:1.5;" x="359.078749" xlink:href="#m63d2946afa" y="245.450177"/>
     <use style="fill:#1f77b4;stroke:#000000;stroke-width:1.5;" x="369.364909" xlink:href="#m63d2946afa" y="234.403723"/>
     <use style="fill:#1f77b4;stroke:#000000;stroke-width:1.5;" x="379.651069" xlink:href="#m63d2946afa" y="203.977034"/>
     <use style="fill:#1f77b4;stroke:#000000;stroke-width:1.5;" x="389.937229" xlink:href="#m63d2946afa" y="176.151157"/>
     <use style="fill:#1f77b4;stroke:#000000;stroke-width:1.5;" x="400.223389" xlink:href="#m63d2946afa" y="173.298655"/>
     <use style="fill:#1f77b4;stroke:#000000;stroke-width:1.5;" x="410.509549" xlink:href="#m63d2946afa" y="200.481321"/>
     <use style="fill:#1f77b4;stroke:#000000;stroke-width:1.5;" x="420.795708" xlink:href="#m63d2946afa" y="231.746981"/>
     <use style="fill:#1f77b4;stroke:#000000;stroke-width:1.5;" x="431.081868" xlink:href="#m63d2946afa" y="245.254417"/>
     <use style="fill:#1f77b4;stroke:#000000;stroke-width:1.5;" x="441.368028" xlink:href="#m63d2946afa" y="248.023022"/>
    </g>
   </g>
   <g id="line2d_45">
    <path clip-path="url(#p9a83b4a8e4)" d="M 348.792589 248.378701 
L 352.199706 248.031053 
L 354.801336 247.548729 
L 356.95856 246.927589 
L 358.847288 246.155884 
L 360.569363 245.212982 
L 362.180337 244.076553 
L 363.726501 242.710887 
L 365.235632 241.077563 
L 366.735504 239.12221 
L 368.253893 236.770222 
L 369.809316 233.941144 
L 371.429548 230.518553 
L 373.133106 226.38599 
L 374.975542 221.31506 
L 377.040181 214.956812 
L 379.577001 206.376715 
L 386.956002 180.923041 
L 388.687335 176.015597 
L 390.131657 172.555024 
L 391.372292 170.127726 
L 392.464791 168.454447 
L 393.427672 167.365541 
L 394.28871 166.711388 
L 395.066421 166.386487 
L 395.79784 166.314153 
L 396.520001 166.465166 
L 397.269937 166.854596 
L 398.075424 167.532991 
L 398.964237 168.586171 
L 399.954893 170.121409 
L 401.075168 172.288606 
L 402.352837 175.268734 
L 403.84345 179.339477 
L 405.65811 184.982889 
L 408.130122 193.465785 
L 414.499949 215.630564 
L 416.703465 222.319424 
L 418.638485 227.507505 
L 420.42537 231.679707 
L 422.110411 235.063896 
L 423.730643 237.830838 
L 425.304583 240.090413 
L 426.869265 241.954849 
L 428.433946 243.479753 
L 430.035661 244.734246 
L 431.711444 245.764562 
L 433.498329 246.600778 
L 435.461125 247.271089 
L 437.701674 247.796117 
L 440.38663 248.188619 
L 441.368028 248.286188 
L 441.368028 248.286188 
" style="fill:none;stroke:#000000;stroke-linecap:square;stroke-width:1.5;"/>
   </g>
   <g id="patch_28">
    <path d="M 344.163817 252.482115 
L 344.163817 162.207022 
" style="fill:none;stroke:#000000;stroke-linecap:square;stroke-linejoin:miter;stroke-width:0.8;"/>
   </g>
   <g id="patch_29">
    <path d="M 445.9968 252.482115 
L 445.9968 162.207022 
" style="fill:none;stroke:#000000;stroke-linecap:square;stroke-linejoin:miter;stroke-width:0.8;"/>
   </g>
   <g id="patch_30">
    <path d="M 344.163817 252.482115 
L 445.9968 252.482115 
" style="fill:none;stroke:#000000;stroke-linecap:square;stroke-linejoin:miter;stroke-width:0.8;"/>
   </g>
   <g id="patch_31">
    <path d="M 344.163817 162.207022 
L 445.9968 162.207022 
" style="fill:none;stroke:#000000;stroke-linecap:square;stroke-linejoin:miter;stroke-width:0.8;"/>
   </g>
   <g id="text_51">
    <!-- $\tau = 1 ~\mathrm{ s, }~ N = 10^4$   -->
    <g transform="translate(352.080144 156.207022)scale(0.12 -0.12)">
     <use transform="scale(0.996264)" xlink:href="#CMMI12-28"/>
     <use transform="translate(81.165174 0)scale(0.996264)" xlink:href="#CMR17-61"/>
     <use transform="translate(180.553971 0)scale(0.996264)" xlink:href="#CMR17-49"/>
     <use transform="translate(256.320415 0)scale(0.996264)" xlink:href="#CMR17-115"/>
     <use transform="translate(292.121752 0)scale(0.996264)" xlink:href="#CMMI12-59"/>
     <use transform="translate(349.294896 0)scale(0.996264)" xlink:href="#CMMI12-78"/>
     <use transform="translate(465.490677 0)scale(0.996264)" xlink:href="#CMR17-61"/>
     <use transform="translate(564.879474 0)scale(0.996264)" xlink:href="#CMR17-49"/>
     <use transform="translate(610.569951 0)scale(0.996264)" xlink:href="#CMR17-48"/>
     <use transform="translate(656.260428 36.153639)scale(0.697382)" xlink:href="#CMR17-52"/>
    </g>
   </g>
  </g>
 </g>
 <defs>
  <clipPath id="p388665100b">
   <rect height="90.275092" width="101.832983" x="46.147918" y="19.474739"/>
  </clipPath>
  <clipPath id="p8342cb3bd0">
   <rect height="90.275092" width="101.832983" x="195.155868" y="19.474739"/>
  </clipPath>
  <clipPath id="pf0a1ec90bf">
   <rect height="90.275092" width="101.832983" x="344.163817" y="19.474739"/>
  </clipPath>
  <clipPath id="p101e84e077">
   <rect height="90.275092" width="101.832983" x="46.147918" y="162.207022"/>
  </clipPath>
  <clipPath id="p5787b2c3cc">
   <rect height="90.275092" width="101.832983" x="195.155868" y="162.207022"/>
  </clipPath>
  <clipPath id="p9a83b4a8e4">
   <rect height="90.275092" width="101.832983" x="344.163817" y="162.207022"/>
  </clipPath>
 </defs>
</svg>
