<?xml version="1.0" encoding="utf-8" standalone="no"?>
<!DOCTYPE svg PUBLIC "-//W3C//DTD SVG 1.1//EN"
  "http://www.w3.org/Graphics/SVG/1.1/DTD/svg11.dtd">
<!-- Created with matplotlib (https://matplotlib.org/) -->
<svg height="288pt" version="1.1" viewBox="0 0 432 288" width="432pt" xmlns="http://www.w3.org/2000/svg" xmlns:xlink="http://www.w3.org/1999/xlink">
 <metadata>
  <rdf:RDF xmlns:cc="http://creativecommons.org/ns#" xmlns:dc="http://purl.org/dc/elements/1.1/" xmlns:rdf="http://www.w3.org/1999/02/22-rdf-syntax-ns#">
   <cc:Work>
    <dc:type rdf:resource="http://purl.org/dc/dcmitype/StillImage"/>
    <dc:date>2021-06-30T17:45:26.730002</dc:date>
    <dc:format>image/svg+xml</dc:format>
    <dc:creator>
     <cc:Agent>
      <dc:title>Matplotlib v3.3.2, https://matplotlib.org/</dc:title>
     </cc:Agent>
    </dc:creator>
   </cc:Work>
  </rdf:RDF>
 </metadata>
 <defs>
  <style type="text/css">*{stroke-linecap:butt;stroke-linejoin:round;}</style>
 </defs>
 <g id="figure_1">
  <g id="patch_1">
   <path d="M 0 288 
L 432 288 
L 432 0 
L 0 0 
z
" style="fill:none;"/>
  </g>
  <g id="axes_1">
   <g id="patch_2">
    <path d="M 52.947918 111.617548 
L 140.042888 111.617548 
L 140.042888 26.274739 
L 52.947918 26.274739 
z
" style="fill:#ffffff;"/>
   </g>
   <g id="matplotlib.axis_1">
    <g id="xtick_1">
     <g id="line2d_1">
      <defs>
       <path d="M 0 0 
L 0 -3.5 
" id="m5cdf1f1746" style="stroke:#000000;stroke-width:0.8;"/>
      </defs>
      <g>
       <use style="stroke:#000000;stroke-width:0.8;" x="80.682312" xlink:href="#m5cdf1f1746" y="111.617548"/>
      </g>
     </g>
     <g id="text_1">
      <!-- $\mathdefault{0}$ -->
      <g transform="translate(78.191644 122.036046)scale(0.1 -0.1)">
       <defs>
        <path d="M 42 31.84375 
C 42 37.96875 41.90625 48.421875 37.703125 56.453125 
C 34 63.484375 28.09375 66 22.90625 66 
C 18.09375 66 12 63.78125 8.203125 56.5625 
C 4.203125 49.015625 3.796875 39.671875 3.796875 31.84375 
C 3.796875 26.109375 3.90625 17.375 7 9.734375 
C 11.296875 -0.609375 19 -2 22.90625 -2 
C 27.5 -2 34.5 -0.109375 38.59375 9.4375 
C 41.59375 16.375 42 24.5 42 31.84375 
z
M 22.90625 -0.40625 
C 16.5 -0.40625 12.703125 5.125 11.296875 12.75 
C 10.203125 18.6875 10.203125 27.328125 10.203125 32.953125 
C 10.203125 40.6875 10.203125 47.109375 11.5 53.234375 
C 13.40625 61.78125 19 64.390625 22.90625 64.390625 
C 27 64.390625 32.296875 61.671875 34.203125 53.4375 
C 35.5 47.71875 35.59375 40.984375 35.59375 32.953125 
C 35.59375 26.421875 35.59375 18.375 34.40625 12.453125 
C 32.296875 1.5 26.40625 -0.40625 22.90625 -0.40625 
z
" id="CMR17-48"/>
       </defs>
       <use transform="scale(0.996264)" xlink:href="#CMR17-48"/>
      </g>
     </g>
    </g>
    <g id="xtick_2">
     <g id="line2d_2">
      <g>
       <use style="stroke:#000000;stroke-width:0.8;" x="128.173075" xlink:href="#m5cdf1f1746" y="111.617548"/>
      </g>
     </g>
     <g id="text_2">
      <!-- $\mathdefault{100}$ -->
      <g transform="translate(120.701072 122.036046)scale(0.1 -0.1)">
       <defs>
        <path d="M 26.59375 63.796875 
C 26.59375 65.890625 26.5 66 25.09375 66 
C 21.203125 61.359375 15.296875 59.890625 9.703125 59.6875 
C 9.40625 59.6875 8.90625 59.6875 8.796875 59.5 
C 8.703125 59.296875 8.703125 59.09375 8.703125 57 
C 11.796875 57 17 57.59375 21 59.984375 
L 21 7.296875 
C 21 3.796875 20.796875 2.59375 12.203125 2.59375 
L 9.203125 2.59375 
L 9.203125 0 
C 14 0.09375 19 0.1875 23.796875 0.1875 
C 28.59375 0.1875 33.59375 0.09375 38.40625 0 
L 38.40625 2.59375 
L 35.40625 2.59375 
C 26.796875 2.59375 26.59375 3.6875 26.59375 7.296875 
z
" id="CMR17-49"/>
       </defs>
       <use transform="scale(0.996264)" xlink:href="#CMR17-49"/>
       <use transform="translate(45.690477 0)scale(0.996264)" xlink:href="#CMR17-48"/>
       <use transform="translate(91.380954 0)scale(0.996264)" xlink:href="#CMR17-48"/>
      </g>
     </g>
    </g>
    <g id="text_3">
     <!-- $w_i$ -->
     <g transform="translate(90.869915 136.275404)scale(0.12 -0.12)">
      <defs>
       <path d="M 34.40625 6.078125 
C 36.59375 0.09375 42.796875 -1 46.59375 -1 
C 54.203125 -1 58.703125 5.578125 61.5 12.46875 
C 63.796875 18.25 67.5 31.421875 67.5 37.3125 
C 67.5 43.390625 64.40625 44 63.5 44 
C 61.09375 44 58.90625 41.59375 58.90625 39.59375 
C 58.90625 38.40625 59.59375 37.703125 60.09375 37.3125 
C 61 36.40625 63.59375 33.71875 63.59375 28.53125 
C 63.59375 25.140625 60.796875 15.75 58.703125 11.0625 
C 55.90625 4.984375 52.203125 1 47 1 
C 41.40625 1 39.59375 5.1875 39.59375 9.765625 
C 39.59375 12.65625 40.5 16.15625 40.90625 17.84375 
L 45.09375 34.609375 
C 45.59375 36.609375 46.5 40.09375 46.5 40.484375 
C 46.5 41.984375 45.296875 43 43.796875 43 
C 40.90625 43 40.203125 40.484375 39.59375 38.09375 
C 38.59375 34.203125 34.40625 17.34375 34 15.15625 
C 33.59375 13.453125 33.59375 12.359375 33.59375 10.171875 
C 33.59375 7.78125 30.40625 3.984375 30.296875 3.78125 
C 29.203125 2.6875 27.59375 1 24.5 1 
C 16.59375 1 16.59375 8.46875 16.59375 10.171875 
C 16.59375 13.359375 17.296875 17.75 21.796875 29.625 
C 23 32.71875 23.5 34.015625 23.5 36.015625 
C 23.5 40.203125 20.5 44 15.59375 44 
C 6.40625 44 2.703125 29.53125 2.703125 28.71875 
C 2.703125 28.328125 3.09375 27.828125 3.796875 27.828125 
C 4.703125 27.828125 4.796875 28.234375 5.203125 29.625 
C 7.703125 38.40625 11.59375 41.984375 15.296875 41.984375 
C 16.296875 41.984375 17.90625 41.890625 17.90625 38.703125 
C 17.90625 38.203125 17.90625 36.109375 16.203125 31.71875 
C 11.5 19.25 10.5 15.15625 10.5 11.375 
C 10.5 0.890625 19.09375 -1 24.203125 -1 
C 25.90625 -1 30.40625 -1 34.40625 6.078125 
z
" id="CMMI12-119"/>
       <path d="M 28.296875 14.265625 
C 28.296875 14.765625 27.90625 15.15625 27.296875 15.15625 
C 26.40625 15.15625 26.296875 14.859375 25.796875 13.15625 
C 23.203125 4.078125 19.09375 1 15.796875 1 
C 14.59375 1 13.203125 1.296875 13.203125 4.28125 
C 13.203125 6.984375 14.40625 9.96875 15.5 12.96875 
L 22.5 31.515625 
C 22.796875 32.3125 23.5 34.109375 23.5 36.015625 
C 23.5 40.203125 20.5 44 15.59375 44 
C 6.40625 44 2.703125 29.53125 2.703125 28.71875 
C 2.703125 28.328125 3.09375 27.828125 3.796875 27.828125 
C 4.703125 27.828125 4.796875 28.234375 5.203125 29.625 
C 7.59375 38 11.40625 41.984375 15.296875 41.984375 
C 16.203125 41.984375 17.90625 41.890625 17.90625 38.703125 
C 17.90625 36.109375 16.59375 32.8125 15.796875 30.625 
L 8.796875 12.0625 
C 8.203125 10.46875 7.59375 8.875 7.59375 7.078125 
C 7.59375 2.59375 10.703125 -1 15.5 -1 
C 24.703125 -1 28.296875 13.5625 28.296875 14.265625 
z
M 27.5 62.6875 
C 27.5 64.1875 26.296875 66 24.09375 66 
C 21.796875 66 19.203125 63.796875 19.203125 61.1875 
C 19.203125 58.6875 21.296875 57.890625 22.5 57.890625 
C 25.203125 57.890625 27.5 60.484375 27.5 62.6875 
z
" id="CMMI12-105"/>
      </defs>
      <use transform="scale(0.996264)" xlink:href="#CMMI12-119"/>
      <use transform="translate(69.73199 -14.943915)scale(0.697382)" xlink:href="#CMMI12-105"/>
     </g>
    </g>
   </g>
   <g id="matplotlib.axis_2">
    <g id="ytick_1">
     <g id="line2d_3">
      <defs>
       <path d="M 0 0 
L 3.5 0 
" id="m9b7ca65026" style="stroke:#000000;stroke-width:0.8;"/>
      </defs>
      <g>
       <use style="stroke:#000000;stroke-width:0.8;" x="52.947918" xlink:href="#m9b7ca65026" y="107.738329"/>
      </g>
     </g>
     <g id="text_4">
      <!-- $\mathdefault{0.000}$ -->
      <g transform="translate(26.755168 111.197578)scale(0.1 -0.1)">
       <defs>
        <path d="M 18.40625 4.796875 
C 18.40625 7.6875 16 9.6875 13.59375 9.6875 
C 10.703125 9.6875 8.703125 7.296875 8.703125 4.890625 
C 8.703125 2 11.09375 0 13.5 0 
C 16.40625 0 18.40625 2.390625 18.40625 4.796875 
z
" id="CMMI12-58"/>
       </defs>
       <use transform="scale(0.996264)" xlink:href="#CMR17-48"/>
       <use transform="translate(45.690477 0)scale(0.996264)" xlink:href="#CMMI12-58"/>
       <use transform="translate(72.787654 0)scale(0.996264)" xlink:href="#CMR17-48"/>
       <use transform="translate(118.478131 0)scale(0.996264)" xlink:href="#CMR17-48"/>
       <use transform="translate(164.168608 0)scale(0.996264)" xlink:href="#CMR17-48"/>
      </g>
     </g>
    </g>
    <g id="ytick_2">
     <g id="line2d_4">
      <g>
       <use style="stroke:#000000;stroke-width:0.8;" x="52.947918" xlink:href="#m9b7ca65026" y="77.796264"/>
      </g>
     </g>
     <g id="text_5">
      <!-- $\mathdefault{0.005}$ -->
      <g transform="translate(26.755168 81.255513)scale(0.1 -0.1)">
       <defs>
        <path d="M 11.40625 58.59375 
C 12.40625 58.1875 16.5 56.890625 20.703125 56.890625 
C 30 56.890625 35.09375 61.890625 38 64.6875 
C 38 65.484375 38 66 37.40625 66 
C 37.296875 66 37.09375 66 36.296875 65.59375 
C 32.796875 64.09375 28.703125 63 23.703125 63 
C 20.703125 63 16.203125 63.359375 11.296875 65.484375 
C 10.203125 66 10 66 9.90625 66 
C 9.40625 66 9.296875 65.890625 9.296875 63.90625 
L 9.296875 34.859375 
C 9.296875 33.015625 9.296875 32.5 10.296875 32.5 
C 10.796875 32.5 11 32.703125 11.5 33.421875 
C 14.703125 38.046875 19.09375 40 24.09375 40 
C 27.59375 40 35.09375 37.734375 35.09375 20.203125 
C 35.09375 16.984375 35.09375 11.1875 32.09375 6.59375 
C 29.59375 2.484375 25.703125 0.390625 21.40625 0.390625 
C 14.796875 0.390625 8.09375 4.984375 6.296875 12.6875 
C 6.703125 12.59375 7.5 12.390625 7.90625 12.390625 
C 9.203125 12.390625 11.703125 13.09375 11.703125 16.1875 
C 11.703125 18.890625 9.796875 20 7.90625 20 
C 5.59375 20 4.09375 18.59375 4.09375 15.796875 
C 4.09375 7.09375 11 -2 21.59375 -2 
C 31.90625 -2 41.703125 6.890625 41.703125 19.796875 
C 41.703125 32.09375 33.90625 41.59375 24.203125 41.59375 
C 19.09375 41.59375 14.796875 39.6875 11.40625 36 
z
" id="CMR17-53"/>
       </defs>
       <use transform="scale(0.996264)" xlink:href="#CMR17-48"/>
       <use transform="translate(45.690477 0)scale(0.996264)" xlink:href="#CMMI12-58"/>
       <use transform="translate(72.787654 0)scale(0.996264)" xlink:href="#CMR17-48"/>
       <use transform="translate(118.478131 0)scale(0.996264)" xlink:href="#CMR17-48"/>
       <use transform="translate(164.168608 0)scale(0.996264)" xlink:href="#CMR17-53"/>
      </g>
     </g>
    </g>
    <g id="ytick_3">
     <g id="line2d_5">
      <g>
       <use style="stroke:#000000;stroke-width:0.8;" x="52.947918" xlink:href="#m9b7ca65026" y="47.854199"/>
      </g>
     </g>
     <g id="text_6">
      <!-- $\mathdefault{0.010}$ -->
      <g transform="translate(26.755168 51.313448)scale(0.1 -0.1)">
       <use transform="scale(0.996264)" xlink:href="#CMR17-48"/>
       <use transform="translate(45.690477 0)scale(0.996264)" xlink:href="#CMMI12-58"/>
       <use transform="translate(72.787654 0)scale(0.996264)" xlink:href="#CMR17-48"/>
       <use transform="translate(118.478131 0)scale(0.996264)" xlink:href="#CMR17-49"/>
       <use transform="translate(164.168608 0)scale(0.996264)" xlink:href="#CMR17-48"/>
      </g>
     </g>
    </g>
    <g id="text_7">
     <!-- $P(w_i)$ -->
     <g transform="translate(19.766376 83.958572)rotate(-90)scale(0.12 -0.12)">
      <defs>
       <path d="M 29.59375 31.59375 
L 46.40625 31.59375 
C 60.203125 31.59375 74 41.765625 74 53.125 
C 74 60.90625 67.40625 68 54.796875 68 
L 23.90625 68 
C 22 68 21.09375 68 21.09375 66.09375 
C 21.09375 65.09375 22 65.09375 23.5 65.09375 
C 29.59375 65.09375 29.59375 64.296875 29.59375 63.203125 
C 29.59375 63 29.59375 62.40625 29.203125 60.90625 
L 15.703125 7.359375 
C 14.796875 3.890625 14.59375 2.890625 7.59375 2.890625 
C 5.703125 2.890625 4.703125 2.890625 4.703125 1.09375 
C 4.703125 0 5.59375 0 6.203125 0 
C 8.09375 0 10.09375 0.1875 12 0.1875 
L 23.703125 0.1875 
C 25.59375 0.1875 27.703125 0 29.59375 0 
C 30.40625 0 31.5 0 31.5 1.890625 
C 31.5 2.890625 30.59375 2.890625 29.09375 2.890625 
C 23.09375 2.890625 23 3.59375 23 4.578125 
C 23 5.078125 23.09375 5.765625 23.203125 6.265625 
z
M 36.796875 61.203125 
C 37.703125 64.890625 38.09375 65.09375 42 65.09375 
L 51.90625 65.09375 
C 59.40625 65.09375 65.59375 62.703125 65.59375 55.21875 
C 65.59375 52.640625 64.296875 44.15625 59.703125 39.578125 
C 58 37.78125 53.203125 34 44.09375 34 
L 30 34 
z
" id="CMMI12-80"/>
       <path d="M 30.59375 -24.40625 
C 30.59375 -24.3125 30.59375 -24.109375 30.296875 -23.8125 
C 25.703125 -19.109375 13.40625 -6.296875 13.40625 24.9375 
C 13.40625 56.171875 25.5 68.875 30.40625 73.890625 
C 30.40625 73.984375 30.59375 74.1875 30.59375 74.484375 
C 30.59375 74.796875 30.296875 75 29.90625 75 
C 28.796875 75 20.296875 67.578125 15.40625 56.5625 
C 10.40625 45.453125 9 34.65625 9 25.046875 
C 9 17.828125 9.703125 5.625 15.703125 -7.296875 
C 20.5 -17.703125 28.703125 -25 29.90625 -25 
C 30.40625 -25 30.59375 -24.8125 30.59375 -24.40625 
z
" id="CMR17-40"/>
       <path d="M 26.296875 24.9375 
C 26.296875 32.140625 25.59375 44.359375 19.59375 57.265625 
C 14.796875 67.6875 6.59375 75 5.40625 75 
C 5.09375 75 4.703125 74.890625 4.703125 74.390625 
C 4.703125 74.1875 4.796875 74.09375 4.90625 73.890625 
C 9.703125 68.875 21.90625 56.171875 21.90625 25.046875 
C 21.90625 -6.1875 9.796875 -18.90625 4.90625 -23.90625 
C 4.796875 -24.109375 4.703125 -24.203125 4.703125 -24.40625 
C 4.703125 -24.90625 5.09375 -25 5.40625 -25 
C 6.5 -25 15 -17.609375 19.90625 -6.59375 
C 24.90625 4.515625 26.296875 15.328125 26.296875 24.9375 
z
" id="CMR17-41"/>
      </defs>
      <use transform="scale(0.996264)" xlink:href="#CMMI12-80"/>
      <use transform="translate(76.425821 0)scale(0.996264)" xlink:href="#CMR17-40"/>
      <use transform="translate(111.706589 0)scale(0.996264)" xlink:href="#CMMI12-119"/>
      <use transform="translate(181.438578 -14.943915)scale(0.697382)" xlink:href="#CMMI12-105"/>
      <use transform="translate(205.231617 0)scale(0.996264)" xlink:href="#CMR17-41"/>
     </g>
    </g>
   </g>
   <g id="line2d_6">
    <defs>
     <path d="M 0 3 
C 0.795609 3 1.55874 2.683901 2.12132 2.12132 
C 2.683901 1.55874 3 0.795609 3 0 
C 3 -0.795609 2.683901 -1.55874 2.12132 -2.12132 
C 1.55874 -2.683901 0.795609 -3 0 -3 
C -0.795609 -3 -1.55874 -2.683901 -2.12132 -2.12132 
C -2.683901 -1.55874 -3 -0.795609 -3 0 
C -3 0.795609 -2.683901 1.55874 -2.12132 2.12132 
C -1.55874 2.683901 -0.795609 3 0 3 
z
" id="m25e83021b1" style="stroke:#000000;stroke-width:1.5;"/>
    </defs>
    <g clip-path="url(#pb82db6c7a3)">
     <use style="fill:#1f77b4;stroke:#000000;stroke-width:1.5;" x="56.90678" xlink:href="#m25e83021b1" y="65.713461"/>
     <use style="fill:#1f77b4;stroke:#000000;stroke-width:1.5;" x="65.704252" xlink:href="#m25e83021b1" y="59.248097"/>
     <use style="fill:#1f77b4;stroke:#000000;stroke-width:1.5;" x="74.501723" xlink:href="#m25e83021b1" y="30.153957"/>
     <use style="fill:#1f77b4;stroke:#000000;stroke-width:1.5;" x="83.299195" xlink:href="#m25e83021b1" y="52.782733"/>
     <use style="fill:#1f77b4;stroke:#000000;stroke-width:1.5;" x="92.096667" xlink:href="#m25e83021b1" y="59.248097"/>
     <use style="fill:#1f77b4;stroke:#000000;stroke-width:1.5;" x="100.894139" xlink:href="#m25e83021b1" y="68.946143"/>
     <use style="fill:#1f77b4;stroke:#000000;stroke-width:1.5;" x="109.691611" xlink:href="#m25e83021b1" y="101.272965"/>
     <use style="fill:#1f77b4;stroke:#000000;stroke-width:1.5;" x="118.489082" xlink:href="#m25e83021b1" y="104.505647"/>
     <use style="fill:#1f77b4;stroke:#000000;stroke-width:1.5;" x="127.286554" xlink:href="#m25e83021b1" y="107.738329"/>
     <use style="fill:#1f77b4;stroke:#000000;stroke-width:1.5;" x="136.084026" xlink:href="#m25e83021b1" y="104.505647"/>
    </g>
   </g>
   <g id="line2d_7">
    <path clip-path="url(#pb82db6c7a3)" d="M 56.90678 86.162166 
L 58.888192 81.380623 
L 61.107375 75.431235 
L 63.960609 67.093232 
L 70.538898 47.598742 
L 72.520311 42.563222 
L 74.105441 39.098582 
L 75.452801 36.634765 
L 76.641649 34.87614 
L 77.75124 33.615802 
L 78.702318 32.844287 
L 79.57414 32.39593 
L 80.445961 32.199887 
L 81.238526 32.242329 
L 82.031091 32.494605 
L 82.902913 33.011909 
L 83.853991 33.856697 
L 84.884325 35.090652 
L 85.993916 36.771042 
L 87.26202 39.104262 
L 88.767894 42.383573 
L 90.511537 46.756255 
L 92.730719 52.979037 
L 96.535031 64.460863 
L 100.260087 75.439189 
L 102.717038 81.989683 
L 104.777707 86.882297 
L 106.679863 90.853694 
L 108.502763 94.154057 
L 110.246406 96.856538 
L 111.910793 99.04308 
L 113.575179 100.875085 
L 115.239566 102.387235 
L 116.983209 103.669332 
L 118.806108 104.726256 
L 120.708264 105.57191 
L 122.84819 106.271428 
L 125.225885 106.809573 
L 128.079119 107.219131 
L 131.724918 107.504018 
L 136.084026 107.654566 
L 136.084026 107.654566 
" style="fill:none;stroke:#000000;stroke-linecap:square;stroke-width:1.5;"/>
   </g>
   <g id="patch_3">
    <path d="M 52.947918 111.617548 
L 52.947918 26.274739 
" style="fill:none;stroke:#000000;stroke-linecap:square;stroke-linejoin:miter;stroke-width:0.8;"/>
   </g>
   <g id="patch_4">
    <path d="M 140.042888 111.617548 
L 140.042888 26.274739 
" style="fill:none;stroke:#000000;stroke-linecap:square;stroke-linejoin:miter;stroke-width:0.8;"/>
   </g>
   <g id="patch_5">
    <path d="M 52.947918 111.617548 
L 140.042888 111.617548 
" style="fill:none;stroke:#000000;stroke-linecap:square;stroke-linejoin:miter;stroke-width:0.8;"/>
   </g>
   <g id="patch_6">
    <path d="M 52.947918 26.274739 
L 140.042888 26.274739 
" style="fill:none;stroke:#000000;stroke-linecap:square;stroke-linejoin:miter;stroke-width:0.8;"/>
   </g>
   <g id="text_8">
    <!-- $\tau = 10^{-3}~ \mathrm{ s, } ~N = 10^2$   -->
    <g transform="translate(44.909333 20.274739)scale(0.12 -0.12)">
     <defs>
      <path d="M 28.703125 37.59375 
L 45.296875 37.59375 
C 46.59375 37.59375 49.90625 37.59375 49.90625 40.796875 
C 49.90625 43 48 43 46.203125 43 
L 18.703125 43 
C 16.40625 43 13 43 8.40625 38.09375 
C 5.796875 35.203125 2.59375 29.9375 2.59375 29.34375 
C 2.59375 28.734375 3.09375 28.546875 3.703125 28.546875 
C 4.40625 28.546875 4.5 28.84375 5 29.4375 
C 10.203125 37.59375 15.40625 37.59375 17.90625 37.59375 
L 26.203125 37.59375 
L 15.796875 3.484375 
C 15.296875 1.984375 15.296875 1.78125 15.296875 1.484375 
C 15.296875 0.390625 16 -1 18 -1 
C 21.09375 -1 21.59375 1.6875 21.90625 3.1875 
z
" id="CMMI12-28"/>
      <path d="M 64.296875 32 
C 65.796875 32 67.296875 32 67.296875 33.6875 
C 67.296875 35.5 65.59375 35.5 63.90625 35.5 
L 8 35.5 
C 6.296875 35.5 4.59375 35.5 4.59375 33.6875 
C 4.59375 32 6.09375 32 7.59375 32 
z
M 63.90625 14.484375 
C 65.59375 14.484375 67.296875 14.484375 67.296875 16.296875 
C 67.296875 18 65.796875 18 64.296875 18 
L 7.59375 18 
C 6.09375 18 4.59375 18 4.59375 16.296875 
C 4.59375 14.484375 6.296875 14.484375 8 14.484375 
z
" id="CMR17-61"/>
      <path d="M 65.90625 23 
C 67.59375 23 69.40625 23 69.40625 25 
C 69.40625 27 67.59375 27 65.90625 27 
L 11.796875 27 
C 10.09375 27 8.296875 27 8.296875 25 
C 8.296875 23 10.09375 23 11.796875 23 
z
" id="CMSY10-0"/>
      <path d="M 22.09375 34 
C 31 34 34.90625 26.140625 34.90625 17.09375 
C 34.90625 5.03125 28.5 0.390625 22.703125 0.390625 
C 17.40625 0.390625 8.796875 3.015625 6.09375 10.796875 
C 6.59375 10.59375 7.09375 10.59375 7.59375 10.59375 
C 10 10.59375 11.796875 12.1875 11.796875 14.796875 
C 11.796875 17.6875 9.59375 19 7.59375 19 
C 5.90625 19 3.296875 18.1875 3.296875 14.484375 
C 3.296875 5.234375 12.296875 -2 22.90625 -2 
C 34 -2 42.5 6.75 42.5 16.984375 
C 42.5 26.84375 34.5 34 25 35.09375 
C 32.59375 36.671875 39.90625 43.375 39.90625 52.390625 
C 39.90625 60.25 32 66 23 66 
C 13.90625 66 5.90625 60.34375 5.90625 52.296875 
C 5.90625 48.796875 8.5 48.1875 9.796875 48.1875 
C 11.90625 48.1875 13.703125 49.484375 13.703125 52.09375 
C 13.703125 54.6875 11.90625 56 9.796875 56 
C 9.40625 56 8.90625 56 8.5 55.796875 
C 11.40625 62.484375 19.296875 63.6875 22.796875 63.6875 
C 26.296875 63.6875 32.90625 61.96875 32.90625 52.296875 
C 32.90625 49.484375 32.5 44.546875 29.09375 40.21875 
C 26.09375 36.390625 22.703125 36.1875 19.40625 35.890625 
C 18.90625 35.890625 16.59375 35.6875 16.203125 35.6875 
C 15.5 35.59375 15.09375 35.5 15.09375 34.796875 
C 15.09375 34.09375 15.203125 34 17.203125 34 
z
" id="CMR17-51"/>
      <path d="M 30.90625 42 
C 30.90625 43.796875 30.796875 43.890625 30.203125 43.890625 
C 29.796875 43.890625 29.703125 43.796875 28.5 42.296875 
C 28.203125 41.890625 27.296875 40.890625 27 40.5 
C 23.796875 43.890625 19.296875 44 17.59375 44 
C 6.5 44 2.5 38.1875 2.5 32.390625 
C 2.5 23.390625 12.703125 21.296875 15.59375 20.6875 
C 21.90625 19.390625 24.09375 19 26.203125 17.1875 
C 27.5 16 29.703125 13.796875 29.703125 10.1875 
C 29.703125 6 27.296875 0.59375 18.09375 0.59375 
C 9.40625 0.59375 6.296875 7.1875 4.5 16 
C 4.203125 17.390625 4.203125 17.5 3.40625 17.5 
C 2.59375 17.5 2.5 17.390625 2.5 15.390625 
L 2.5 1 
C 2.5 -0.8125 2.59375 -0.90625 3.203125 -0.90625 
C 3.703125 -0.90625 3.796875 -0.8125 4.296875 0 
C 4.90625 0.890625 6.40625 3.296875 7 4.296875 
C 9 1.59375 12.5 -1 18.09375 -1 
C 28 -1 33.296875 4.390625 33.296875 12.1875 
C 33.296875 17.296875 30.59375 20 29.296875 21.1875 
C 26.296875 24.296875 22.796875 25 18.59375 25.796875 
C 13.09375 27 6.09375 28.390625 6.09375 34.5 
C 6.09375 37.09375 7.5 42.59375 17.59375 42.59375 
C 28.296875 42.59375 28.90625 32.59375 29.09375 29.390625 
C 29.203125 28.890625 29.703125 28.796875 30 28.796875 
C 30.90625 28.796875 30.90625 29.09375 30.90625 30.796875 
z
" id="CMR17-115"/>
      <path d="M 19.5 -0.40625 
C 19.5 5.390625 17.59375 9.6875 13.5 9.6875 
C 10.296875 9.6875 8.703125 7.09375 8.703125 4.890625 
C 8.703125 2.6875 10.203125 0 13.59375 0 
C 14.90625 0 16 0.390625 16.90625 1.296875 
C 17.09375 1.5 17.203125 1.5 17.296875 1.5 
C 17.5 1.5 17.5 0.09375 17.5 -0.40625 
C 17.5 -3.640625 16.90625 -10.03125 11.09375 -16.421875 
C 10 -17.609375 10 -17.8125 10 -18 
C 10 -18.5 10.5 -19 11 -19 
C 11.796875 -19 19.5 -11.703125 19.5 -0.40625 
z
" id="CMMI12-59"/>
      <path d="M 74 57.53125 
C 75.09375 61.8125 76.703125 64.796875 84.296875 65.09375 
C 84.59375 65.09375 85.796875 65.1875 85.796875 66.890625 
C 85.796875 68 84.90625 68 84.5 68 
C 82.5 68 77.40625 67.796875 75.40625 67.796875 
L 70.59375 67.796875 
C 69.203125 67.796875 67.40625 68 66 68 
C 65.40625 68 64.203125 68 64.203125 66.09375 
C 64.203125 65.09375 65 65.09375 65.703125 65.09375 
C 71.703125 64.890625 72.09375 62.609375 72.09375 60.8125 
C 72.09375 59.921875 72 59.625 71.703125 58.21875 
L 60.40625 13.34375 
L 39 66.296875 
C 38.296875 67.890625 38.203125 68 36 68 
L 23.796875 68 
C 21.796875 68 20.90625 68 20.90625 66.09375 
C 20.90625 65.09375 21.59375 65.09375 23.5 65.09375 
C 24 65.09375 29.90625 65.09375 29.90625 64.203125 
C 29.90625 64 29.703125 63.203125 29.59375 62.90625 
L 16.296875 10.15625 
C 15.09375 5.28125 12.703125 3.1875 6.09375 2.890625 
C 5.59375 2.890625 4.59375 2.796875 4.59375 1 
C 4.59375 0 5.59375 0 5.90625 0 
C 7.90625 0 13 0.1875 15 0.1875 
L 19.796875 0.1875 
C 21.203125 0.1875 22.90625 0 24.296875 0 
C 25 0 26.09375 0 26.09375 1.890625 
C 26.09375 2.796875 25.09375 2.890625 24.703125 2.890625 
C 21.40625 2.984375 18.203125 3.59375 18.203125 7.171875 
C 18.203125 7.96875 18.40625 8.859375 18.59375 9.65625 
L 32.09375 62.90625 
C 32.703125 61.90625 32.703125 61.703125 33.09375 60.8125 
L 56.90625 1.796875 
C 57.40625 0.59375 57.59375 0 58.5 0 
C 59.5 0 59.59375 0.296875 60 2 
z
" id="CMMI12-78"/>
      <path d="M 41.703125 15.46875 
L 39.90625 15.46875 
C 38.90625 8.390625 38.09375 7.1875 37.703125 6.59375 
C 37.203125 5.796875 30 5.796875 28.59375 5.796875 
L 9.40625 5.796875 
C 13 9.6875 20 16.765625 28.5 24.9375 
C 34.59375 30.71875 41.703125 37.5 41.703125 47.390625 
C 41.703125 59.1875 32.296875 66 21.796875 66 
C 10.796875 66 4.09375 56.296875 4.09375 47.296875 
C 4.09375 43.390625 7 42.890625 8.203125 42.890625 
C 9.203125 42.890625 12.203125 43.484375 12.203125 46.984375 
C 12.203125 50.09375 9.59375 51 8.203125 51 
C 7.59375 51 7 50.890625 6.59375 50.6875 
C 8.5 59.1875 14.296875 63.390625 20.40625 63.390625 
C 29.09375 63.390625 34.796875 56.5 34.796875 47.390625 
C 34.796875 38.703125 29.703125 31.21875 24 24.734375 
L 4.09375 2.296875 
L 4.09375 0 
L 39.296875 0 
z
" id="CMR17-50"/>
     </defs>
     <use transform="scale(0.996264)" xlink:href="#CMMI12-28"/>
     <use transform="translate(81.165174 0)scale(0.996264)" xlink:href="#CMR17-61"/>
     <use transform="translate(180.553971 0)scale(0.996264)" xlink:href="#CMR17-49"/>
     <use transform="translate(226.244448 0)scale(0.996264)" xlink:href="#CMR17-48"/>
     <use transform="translate(271.934925 36.153639)scale(0.697382)" xlink:href="#CMSY10-0"/>
     <use transform="translate(326.175919 36.153639)scale(0.697382)" xlink:href="#CMR17-51"/>
     <use transform="translate(388.733199 0)scale(0.996264)" xlink:href="#CMR17-115"/>
     <use transform="translate(424.534537 0)scale(0.996264)" xlink:href="#CMMI12-59"/>
     <use transform="translate(481.70768 0)scale(0.996264)" xlink:href="#CMMI12-78"/>
     <use transform="translate(597.903461 0)scale(0.996264)" xlink:href="#CMR17-61"/>
     <use transform="translate(697.292259 0)scale(0.996264)" xlink:href="#CMR17-49"/>
     <use transform="translate(742.982736 0)scale(0.996264)" xlink:href="#CMR17-48"/>
     <use transform="translate(788.673213 36.153639)scale(0.697382)" xlink:href="#CMR17-50"/>
    </g>
   </g>
  </g>
  <g id="axes_2">
   <g id="patch_7">
    <path d="M 192.990806 111.617548 
L 280.085776 111.617548 
L 280.085776 26.274739 
L 192.990806 26.274739 
z
" style="fill:#ffffff;"/>
   </g>
   <g id="matplotlib.axis_3">
    <g id="xtick_3">
     <g id="line2d_8">
      <g>
       <use style="stroke:#000000;stroke-width:0.8;" x="212.677545" xlink:href="#m5cdf1f1746" y="111.617548"/>
      </g>
     </g>
     <g id="text_9">
      <!-- $\mathdefault{−50}$ -->
      <g transform="translate(203.821838 122.036046)scale(0.1 -0.1)">
       <use transform="scale(0.996264)" xlink:href="#CMSY10-0"/>
       <use transform="translate(77.487468 0)scale(0.996264)" xlink:href="#CMR17-53"/>
       <use transform="translate(123.177945 0)scale(0.996264)" xlink:href="#CMR17-48"/>
      </g>
     </g>
    </g>
    <g id="xtick_4">
     <g id="line2d_9">
      <g>
       <use style="stroke:#000000;stroke-width:0.8;" x="236.01182" xlink:href="#m5cdf1f1746" y="111.617548"/>
      </g>
     </g>
     <g id="text_10">
      <!-- $\mathdefault{0}$ -->
      <g transform="translate(233.521153 122.036046)scale(0.1 -0.1)">
       <use transform="scale(0.996264)" xlink:href="#CMR17-48"/>
      </g>
     </g>
    </g>
    <g id="xtick_5">
     <g id="line2d_10">
      <g>
       <use style="stroke:#000000;stroke-width:0.8;" x="259.346096" xlink:href="#m5cdf1f1746" y="111.617548"/>
      </g>
     </g>
     <g id="text_11">
      <!-- $\mathdefault{50}$ -->
      <g transform="translate(254.364761 122.036046)scale(0.1 -0.1)">
       <use transform="scale(0.996264)" xlink:href="#CMR17-53"/>
       <use transform="translate(45.690477 0)scale(0.996264)" xlink:href="#CMR17-48"/>
      </g>
     </g>
    </g>
    <g id="text_12">
     <!-- $w_i$ -->
     <g transform="translate(230.912803 136.275404)scale(0.12 -0.12)">
      <use transform="scale(0.996264)" xlink:href="#CMMI12-119"/>
      <use transform="translate(69.73199 -14.943915)scale(0.697382)" xlink:href="#CMMI12-105"/>
     </g>
    </g>
   </g>
   <g id="matplotlib.axis_4">
    <g id="ytick_4">
     <g id="line2d_11">
      <g>
       <use style="stroke:#000000;stroke-width:0.8;" x="192.990806" xlink:href="#m9b7ca65026" y="108.999864"/>
      </g>
     </g>
     <g id="text_13">
      <!-- $\mathdefault{0.000}$ -->
      <g transform="translate(166.798056 112.459113)scale(0.1 -0.1)">
       <use transform="scale(0.996264)" xlink:href="#CMR17-48"/>
       <use transform="translate(45.690477 0)scale(0.996264)" xlink:href="#CMMI12-58"/>
       <use transform="translate(72.787654 0)scale(0.996264)" xlink:href="#CMR17-48"/>
       <use transform="translate(118.478131 0)scale(0.996264)" xlink:href="#CMR17-48"/>
       <use transform="translate(164.168608 0)scale(0.996264)" xlink:href="#CMR17-48"/>
      </g>
     </g>
    </g>
    <g id="ytick_5">
     <g id="line2d_12">
      <g>
       <use style="stroke:#000000;stroke-width:0.8;" x="192.990806" xlink:href="#m9b7ca65026" y="79.273437"/>
      </g>
     </g>
     <g id="text_14">
      <!-- $\mathdefault{0.005}$ -->
      <g transform="translate(166.798056 82.732686)scale(0.1 -0.1)">
       <use transform="scale(0.996264)" xlink:href="#CMR17-48"/>
       <use transform="translate(45.690477 0)scale(0.996264)" xlink:href="#CMMI12-58"/>
       <use transform="translate(72.787654 0)scale(0.996264)" xlink:href="#CMR17-48"/>
       <use transform="translate(118.478131 0)scale(0.996264)" xlink:href="#CMR17-48"/>
       <use transform="translate(164.168608 0)scale(0.996264)" xlink:href="#CMR17-53"/>
      </g>
     </g>
    </g>
    <g id="ytick_6">
     <g id="line2d_13">
      <g>
       <use style="stroke:#000000;stroke-width:0.8;" x="192.990806" xlink:href="#m9b7ca65026" y="49.54701"/>
      </g>
     </g>
     <g id="text_15">
      <!-- $\mathdefault{0.010}$ -->
      <g transform="translate(166.798056 53.006259)scale(0.1 -0.1)">
       <use transform="scale(0.996264)" xlink:href="#CMR17-48"/>
       <use transform="translate(45.690477 0)scale(0.996264)" xlink:href="#CMMI12-58"/>
       <use transform="translate(72.787654 0)scale(0.996264)" xlink:href="#CMR17-48"/>
       <use transform="translate(118.478131 0)scale(0.996264)" xlink:href="#CMR17-49"/>
       <use transform="translate(164.168608 0)scale(0.996264)" xlink:href="#CMR17-48"/>
      </g>
     </g>
    </g>
    <g id="text_16">
     <!-- $P(w_i)$ -->
     <g transform="translate(159.809264 83.958572)rotate(-90)scale(0.12 -0.12)">
      <use transform="scale(0.996264)" xlink:href="#CMMI12-80"/>
      <use transform="translate(76.425821 0)scale(0.996264)" xlink:href="#CMR17-40"/>
      <use transform="translate(111.706589 0)scale(0.996264)" xlink:href="#CMMI12-119"/>
      <use transform="translate(181.438578 -14.943915)scale(0.697382)" xlink:href="#CMMI12-105"/>
      <use transform="translate(205.231617 0)scale(0.996264)" xlink:href="#CMR17-41"/>
     </g>
    </g>
   </g>
   <g id="line2d_14">
    <g clip-path="url(#pb45714af00)">
     <use style="fill:#1f77b4;stroke:#000000;stroke-width:1.5;" x="196.949668" xlink:href="#m25e83021b1" y="106.792178"/>
     <use style="fill:#1f77b4;stroke:#000000;stroke-width:1.5;" x="205.74714" xlink:href="#m25e83021b1" y="97.015286"/>
     <use style="fill:#1f77b4;stroke:#000000;stroke-width:1.5;" x="214.544612" xlink:href="#m25e83021b1" y="83.45379"/>
     <use style="fill:#1f77b4;stroke:#000000;stroke-width:1.5;" x="223.342083" xlink:href="#m25e83021b1" y="58.2231"/>
     <use style="fill:#1f77b4;stroke:#000000;stroke-width:1.5;" x="232.139555" xlink:href="#m25e83021b1" y="30.153957"/>
     <use style="fill:#1f77b4;stroke:#000000;stroke-width:1.5;" x="240.937027" xlink:href="#m25e83021b1" y="38.984699"/>
     <use style="fill:#1f77b4;stroke:#000000;stroke-width:1.5;" x="249.734499" xlink:href="#m25e83021b1" y="64.215389"/>
     <use style="fill:#1f77b4;stroke:#000000;stroke-width:1.5;" x="258.531971" xlink:href="#m25e83021b1" y="86.292243"/>
     <use style="fill:#1f77b4;stroke:#000000;stroke-width:1.5;" x="267.329442" xlink:href="#m25e83021b1" y="101.74604"/>
     <use style="fill:#1f77b4;stroke:#000000;stroke-width:1.5;" x="276.126914" xlink:href="#m25e83021b1" y="107.738329"/>
    </g>
   </g>
   <g id="line2d_15">
    <path clip-path="url(#pb45714af00)" d="M 196.949668 106.741615 
L 198.851824 105.849747 
L 200.595467 104.787777 
L 202.259854 103.513589 
L 203.844984 102.026272 
L 205.430114 100.237422 
L 207.015244 98.115992 
L 208.679631 95.502242 
L 210.344017 92.472361 
L 212.166917 88.667151 
L 214.069073 84.166737 
L 216.208998 78.514036 
L 218.824463 70.932168 
L 226.82937 47.195906 
L 228.652269 42.765867 
L 230.158143 39.670183 
L 231.426247 37.530838 
L 232.535838 36.04802 
L 233.566172 35.019003 
L 234.51725 34.379789 
L 235.389072 34.062897 
L 236.181637 34.001114 
L 236.974202 34.155457 
L 237.766767 34.524591 
L 238.638588 35.174874 
L 239.589666 36.168258 
L 240.620001 37.564931 
L 241.808849 39.565055 
L 243.156209 42.289643 
L 244.741339 46.034017 
L 246.643495 51.138771 
L 249.25896 58.867487 
L 255.757993 78.35683 
L 258.056432 84.420873 
L 260.117101 89.241663 
L 262.019257 93.125042 
L 263.7629 96.198621 
L 265.427286 98.710511 
L 267.091673 100.834039 
L 268.756059 102.601216 
L 270.420446 104.049324 
L 272.164089 105.267486 
L 273.986989 106.262951 
L 275.889145 107.051751 
L 276.126914 107.134984 
L 276.126914 107.134984 
" style="fill:none;stroke:#000000;stroke-linecap:square;stroke-width:1.5;"/>
   </g>
   <g id="patch_8">
    <path d="M 192.990806 111.617548 
L 192.990806 26.274739 
" style="fill:none;stroke:#000000;stroke-linecap:square;stroke-linejoin:miter;stroke-width:0.8;"/>
   </g>
   <g id="patch_9">
    <path d="M 280.085776 111.617548 
L 280.085776 26.274739 
" style="fill:none;stroke:#000000;stroke-linecap:square;stroke-linejoin:miter;stroke-width:0.8;"/>
   </g>
   <g id="patch_10">
    <path d="M 192.990806 111.617548 
L 280.085776 111.617548 
" style="fill:none;stroke:#000000;stroke-linecap:square;stroke-linejoin:miter;stroke-width:0.8;"/>
   </g>
   <g id="patch_11">
    <path d="M 192.990806 26.274739 
L 280.085776 26.274739 
" style="fill:none;stroke:#000000;stroke-linecap:square;stroke-linejoin:miter;stroke-width:0.8;"/>
   </g>
   <g id="text_17">
    <!-- $\tau = 10^{-3} ~\mathrm{ s, }~ N = 10^3$   -->
    <g transform="translate(184.952221 20.274739)scale(0.12 -0.12)">
     <use transform="scale(0.996264)" xlink:href="#CMMI12-28"/>
     <use transform="translate(81.165174 0)scale(0.996264)" xlink:href="#CMR17-61"/>
     <use transform="translate(180.553971 0)scale(0.996264)" xlink:href="#CMR17-49"/>
     <use transform="translate(226.244448 0)scale(0.996264)" xlink:href="#CMR17-48"/>
     <use transform="translate(271.934925 36.153639)scale(0.697382)" xlink:href="#CMSY10-0"/>
     <use transform="translate(326.175919 36.153639)scale(0.697382)" xlink:href="#CMR17-51"/>
     <use transform="translate(388.733199 0)scale(0.996264)" xlink:href="#CMR17-115"/>
     <use transform="translate(424.534537 0)scale(0.996264)" xlink:href="#CMMI12-59"/>
     <use transform="translate(481.70768 0)scale(0.996264)" xlink:href="#CMMI12-78"/>
     <use transform="translate(597.903461 0)scale(0.996264)" xlink:href="#CMR17-61"/>
     <use transform="translate(697.292259 0)scale(0.996264)" xlink:href="#CMR17-49"/>
     <use transform="translate(742.982736 0)scale(0.996264)" xlink:href="#CMR17-48"/>
     <use transform="translate(788.673213 36.153639)scale(0.697382)" xlink:href="#CMR17-51"/>
    </g>
   </g>
  </g>
  <g id="axes_3">
   <g id="patch_12">
    <path d="M 333.033694 111.617548 
L 420.128665 111.617548 
L 420.128665 26.274739 
L 333.033694 26.274739 
z
" style="fill:#ffffff;"/>
   </g>
   <g id="matplotlib.axis_5">
    <g id="xtick_6">
     <g id="line2d_16">
      <g>
       <use style="stroke:#000000;stroke-width:0.8;" x="338.675036" xlink:href="#m5cdf1f1746" y="111.617548"/>
      </g>
     </g>
     <g id="text_18">
      <!-- $\mathdefault{−100}$ -->
      <g transform="translate(327.328661 122.036046)scale(0.1 -0.1)">
       <use transform="scale(0.996264)" xlink:href="#CMSY10-0"/>
       <use transform="translate(77.487468 0)scale(0.996264)" xlink:href="#CMR17-49"/>
       <use transform="translate(123.177945 0)scale(0.996264)" xlink:href="#CMR17-48"/>
       <use transform="translate(168.868422 0)scale(0.996264)" xlink:href="#CMR17-48"/>
      </g>
     </g>
    </g>
    <g id="xtick_7">
     <g id="line2d_17">
      <g>
       <use style="stroke:#000000;stroke-width:0.8;" x="376.571229" xlink:href="#m5cdf1f1746" y="111.617548"/>
      </g>
     </g>
     <g id="text_19">
      <!-- $\mathdefault{0}$ -->
      <g transform="translate(374.080561 122.036046)scale(0.1 -0.1)">
       <use transform="scale(0.996264)" xlink:href="#CMR17-48"/>
      </g>
     </g>
    </g>
    <g id="xtick_8">
     <g id="line2d_18">
      <g>
       <use style="stroke:#000000;stroke-width:0.8;" x="414.467421" xlink:href="#m5cdf1f1746" y="111.617548"/>
      </g>
     </g>
     <g id="text_20">
      <!-- $\mathdefault{100}$ -->
      <g transform="translate(406.995419 122.036046)scale(0.1 -0.1)">
       <use transform="scale(0.996264)" xlink:href="#CMR17-49"/>
       <use transform="translate(45.690477 0)scale(0.996264)" xlink:href="#CMR17-48"/>
       <use transform="translate(91.380954 0)scale(0.996264)" xlink:href="#CMR17-48"/>
      </g>
     </g>
    </g>
    <g id="text_21">
     <!-- $w_i$ -->
     <g transform="translate(370.955691 136.275404)scale(0.12 -0.12)">
      <use transform="scale(0.996264)" xlink:href="#CMMI12-119"/>
      <use transform="translate(69.73199 -14.943915)scale(0.697382)" xlink:href="#CMMI12-105"/>
     </g>
    </g>
   </g>
   <g id="matplotlib.axis_6">
    <g id="ytick_7">
     <g id="line2d_19">
      <g>
       <use style="stroke:#000000;stroke-width:0.8;" x="333.033694" xlink:href="#m9b7ca65026" y="108.069977"/>
      </g>
     </g>
     <g id="text_22">
      <!-- $\mathdefault{0.000}$ -->
      <g transform="translate(306.840945 111.529227)scale(0.1 -0.1)">
       <use transform="scale(0.996264)" xlink:href="#CMR17-48"/>
       <use transform="translate(45.690477 0)scale(0.996264)" xlink:href="#CMMI12-58"/>
       <use transform="translate(72.787654 0)scale(0.996264)" xlink:href="#CMR17-48"/>
       <use transform="translate(118.478131 0)scale(0.996264)" xlink:href="#CMR17-48"/>
       <use transform="translate(164.168608 0)scale(0.996264)" xlink:href="#CMR17-48"/>
      </g>
     </g>
    </g>
    <g id="ytick_8">
     <g id="line2d_20">
      <g>
       <use style="stroke:#000000;stroke-width:0.8;" x="333.033694" xlink:href="#m9b7ca65026" y="77.189308"/>
      </g>
     </g>
     <g id="text_23">
      <!-- $\mathdefault{0.005}$ -->
      <g transform="translate(306.840945 80.648557)scale(0.1 -0.1)">
       <use transform="scale(0.996264)" xlink:href="#CMR17-48"/>
       <use transform="translate(45.690477 0)scale(0.996264)" xlink:href="#CMMI12-58"/>
       <use transform="translate(72.787654 0)scale(0.996264)" xlink:href="#CMR17-48"/>
       <use transform="translate(118.478131 0)scale(0.996264)" xlink:href="#CMR17-48"/>
       <use transform="translate(164.168608 0)scale(0.996264)" xlink:href="#CMR17-53"/>
      </g>
     </g>
    </g>
    <g id="ytick_9">
     <g id="line2d_21">
      <g>
       <use style="stroke:#000000;stroke-width:0.8;" x="333.033694" xlink:href="#m9b7ca65026" y="46.308639"/>
      </g>
     </g>
     <g id="text_24">
      <!-- $\mathdefault{0.010}$ -->
      <g transform="translate(306.840945 49.767888)scale(0.1 -0.1)">
       <use transform="scale(0.996264)" xlink:href="#CMR17-48"/>
       <use transform="translate(45.690477 0)scale(0.996264)" xlink:href="#CMMI12-58"/>
       <use transform="translate(72.787654 0)scale(0.996264)" xlink:href="#CMR17-48"/>
       <use transform="translate(118.478131 0)scale(0.996264)" xlink:href="#CMR17-49"/>
       <use transform="translate(164.168608 0)scale(0.996264)" xlink:href="#CMR17-48"/>
      </g>
     </g>
    </g>
    <g id="text_25">
     <!-- $P(w_i)$ -->
     <g transform="translate(299.852153 83.958572)rotate(-90)scale(0.12 -0.12)">
      <use transform="scale(0.996264)" xlink:href="#CMMI12-80"/>
      <use transform="translate(76.425821 0)scale(0.996264)" xlink:href="#CMR17-40"/>
      <use transform="translate(111.706589 0)scale(0.996264)" xlink:href="#CMMI12-119"/>
      <use transform="translate(181.438578 -14.943915)scale(0.697382)" xlink:href="#CMMI12-105"/>
      <use transform="translate(205.231617 0)scale(0.996264)" xlink:href="#CMR17-41"/>
     </g>
    </g>
   </g>
   <g id="line2d_22">
    <g clip-path="url(#paf1929a911)">
     <use style="fill:#1f77b4;stroke:#000000;stroke-width:1.5;" x="336.992556" xlink:href="#m25e83021b1" y="107.564493"/>
     <use style="fill:#1f77b4;stroke:#000000;stroke-width:1.5;" x="345.790028" xlink:href="#m25e83021b1" y="104.398562"/>
     <use style="fill:#1f77b4;stroke:#000000;stroke-width:1.5;" x="354.5875" xlink:href="#m25e83021b1" y="92.133908"/>
     <use style="fill:#1f77b4;stroke:#000000;stroke-width:1.5;" x="363.384972" xlink:href="#m25e83021b1" y="64.624899"/>
     <use style="fill:#1f77b4;stroke:#000000;stroke-width:1.5;" x="372.182443" xlink:href="#m25e83021b1" y="36.92966"/>
     <use style="fill:#1f77b4;stroke:#000000;stroke-width:1.5;" x="380.979915" xlink:href="#m25e83021b1" y="36.610406"/>
     <use style="fill:#1f77b4;stroke:#000000;stroke-width:1.5;" x="389.777387" xlink:href="#m25e83021b1" y="67.152323"/>
     <use style="fill:#1f77b4;stroke:#000000;stroke-width:1.5;" x="398.574859" xlink:href="#m25e83021b1" y="93.065064"/>
     <use style="fill:#1f77b4;stroke:#000000;stroke-width:1.5;" x="407.372331" xlink:href="#m25e83021b1" y="104.664607"/>
     <use style="fill:#1f77b4;stroke:#000000;stroke-width:1.5;" x="416.169802" xlink:href="#m25e83021b1" y="107.511284"/>
    </g>
   </g>
   <g id="line2d_23">
    <path clip-path="url(#paf1929a911)" d="M 336.992556 107.736505 
L 339.795711 107.367413 
L 341.973303 106.863024 
L 343.810399 106.213041 
L 345.433695 105.40536 
L 346.930295 104.412585 
L 348.347709 103.203823 
L 349.725531 101.732554 
L 351.087516 99.947686 
L 352.465338 97.766362 
L 353.874833 95.106088 
L 355.339759 91.850507 
L 356.88387 87.859705 
L 358.554677 82.903377 
L 360.431365 76.610774 
L 362.743572 68.027715 
L 369.181326 43.645148 
L 370.757111 38.80498 
L 372.055747 35.493326 
L 373.16434 33.239816 
L 374.12248 31.763744 
L 374.961843 30.853427 
L 375.706183 30.356686 
L 376.379257 30.163953 
L 377.020657 30.20873 
L 377.669975 30.480761 
L 378.366805 31.023674 
L 379.134901 31.916627 
L 380.005938 33.289386 
L 380.995752 35.287562 
L 382.136019 38.117418 
L 383.474248 42.065173 
L 385.121299 47.662449 
L 387.409751 56.309044 
L 392.810179 76.960219 
L 394.837319 83.684308 
L 396.603148 88.800104 
L 398.226444 92.844942 
L 399.754718 96.076515 
L 401.227562 98.685602 
L 402.660813 100.784933 
L 404.086146 102.486485 
L 405.519398 103.857448 
L 407.00016 104.968281 
L 408.560108 105.860069 
L 410.254671 106.569928 
L 412.163033 107.123281 
L 414.41981 107.53835 
L 416.169802 107.738329 
L 416.169802 107.738329 
" style="fill:none;stroke:#000000;stroke-linecap:square;stroke-width:1.5;"/>
   </g>
   <g id="patch_13">
    <path d="M 333.033694 111.617548 
L 333.033694 26.274739 
" style="fill:none;stroke:#000000;stroke-linecap:square;stroke-linejoin:miter;stroke-width:0.8;"/>
   </g>
   <g id="patch_14">
    <path d="M 420.128665 111.617548 
L 420.128665 26.274739 
" style="fill:none;stroke:#000000;stroke-linecap:square;stroke-linejoin:miter;stroke-width:0.8;"/>
   </g>
   <g id="patch_15">
    <path d="M 333.033694 111.617548 
L 420.128665 111.617548 
" style="fill:none;stroke:#000000;stroke-linecap:square;stroke-linejoin:miter;stroke-width:0.8;"/>
   </g>
   <g id="patch_16">
    <path d="M 333.033694 26.274739 
L 420.128665 26.274739 
" style="fill:none;stroke:#000000;stroke-linecap:square;stroke-linejoin:miter;stroke-width:0.8;"/>
   </g>
   <g id="text_26">
    <!-- $\tau = 10^{-3} ~ \mathrm{ s, }~ N = 10^4$   -->
    <g transform="translate(324.995109 20.274739)scale(0.12 -0.12)">
     <defs>
      <path d="M 33.59375 64.796875 
C 33.59375 66.890625 33.5 67 31.703125 67 
L 2 19.59375 
L 2 17 
L 27.796875 17 
L 27.796875 7.1875 
C 27.796875 3.59375 27.59375 2.59375 20.59375 2.59375 
L 18.703125 2.59375 
L 18.703125 0 
C 21.90625 0.1875 27.296875 0.1875 30.703125 0.1875 
C 34.09375 0.1875 39.5 0.1875 42.703125 0 
L 42.703125 2.59375 
L 40.796875 2.59375 
C 33.796875 2.59375 33.59375 3.59375 33.59375 7.1875 
L 33.59375 17 
L 43.796875 17 
L 43.796875 19.59375 
L 33.59375 19.59375 
z
M 28.09375 58.171875 
L 28.09375 19.59375 
L 4 19.59375 
z
" id="CMR17-52"/>
     </defs>
     <use transform="scale(0.996264)" xlink:href="#CMMI12-28"/>
     <use transform="translate(81.165174 0)scale(0.996264)" xlink:href="#CMR17-61"/>
     <use transform="translate(180.553971 0)scale(0.996264)" xlink:href="#CMR17-49"/>
     <use transform="translate(226.244448 0)scale(0.996264)" xlink:href="#CMR17-48"/>
     <use transform="translate(271.934925 36.153639)scale(0.697382)" xlink:href="#CMSY10-0"/>
     <use transform="translate(326.175919 36.153639)scale(0.697382)" xlink:href="#CMR17-51"/>
     <use transform="translate(388.733199 0)scale(0.996264)" xlink:href="#CMR17-115"/>
     <use transform="translate(424.534537 0)scale(0.996264)" xlink:href="#CMMI12-59"/>
     <use transform="translate(481.70768 0)scale(0.996264)" xlink:href="#CMMI12-78"/>
     <use transform="translate(597.903461 0)scale(0.996264)" xlink:href="#CMR17-61"/>
     <use transform="translate(697.292259 0)scale(0.996264)" xlink:href="#CMR17-49"/>
     <use transform="translate(742.982736 0)scale(0.996264)" xlink:href="#CMR17-48"/>
     <use transform="translate(788.673213 36.153639)scale(0.697382)" xlink:href="#CMR17-52"/>
    </g>
   </g>
  </g>
  <g id="axes_4">
   <g id="patch_17">
    <path d="M 52.947918 250.217548 
L 140.042888 250.217548 
L 140.042888 164.874739 
L 52.947918 164.874739 
z
" style="fill:#ffffff;"/>
   </g>
   <g id="matplotlib.axis_7">
    <g id="xtick_9">
     <g id="line2d_24">
      <g>
       <use style="stroke:#000000;stroke-width:0.8;" x="87.320722" xlink:href="#m5cdf1f1746" y="250.217548"/>
      </g>
     </g>
     <g id="text_27">
      <!-- $\mathdefault{0.0}$ -->
      <g transform="translate(80.955683 260.636046)scale(0.1 -0.1)">
       <use transform="scale(0.996264)" xlink:href="#CMR17-48"/>
       <use transform="translate(45.690477 0)scale(0.996264)" xlink:href="#CMMI12-58"/>
       <use transform="translate(72.787654 0)scale(0.996264)" xlink:href="#CMR17-48"/>
      </g>
     </g>
    </g>
    <g id="xtick_10">
     <g id="line2d_25">
      <g>
       <use style="stroke:#000000;stroke-width:0.8;" x="122.35823" xlink:href="#m5cdf1f1746" y="250.217548"/>
      </g>
     </g>
     <g id="text_28">
      <!-- $\mathdefault{2.5}$ -->
      <g transform="translate(115.993191 260.636046)scale(0.1 -0.1)">
       <use transform="scale(0.996264)" xlink:href="#CMR17-50"/>
       <use transform="translate(45.690477 0)scale(0.996264)" xlink:href="#CMMI12-58"/>
       <use transform="translate(72.787654 0)scale(0.996264)" xlink:href="#CMR17-53"/>
      </g>
     </g>
    </g>
    <g id="text_29">
     <!-- $w_i$ -->
     <g transform="translate(90.869915 274.875404)scale(0.12 -0.12)">
      <use transform="scale(0.996264)" xlink:href="#CMMI12-119"/>
      <use transform="translate(69.73199 -14.943915)scale(0.697382)" xlink:href="#CMMI12-105"/>
     </g>
    </g>
   </g>
   <g id="matplotlib.axis_8">
    <g id="ytick_10">
     <g id="line2d_26">
      <g>
       <use style="stroke:#000000;stroke-width:0.8;" x="52.947918" xlink:href="#m9b7ca65026" y="246.338329"/>
      </g>
     </g>
     <g id="text_30">
      <!-- $\mathdefault{0.0}$ -->
      <g transform="translate(36.717839 249.797578)scale(0.1 -0.1)">
       <use transform="scale(0.996264)" xlink:href="#CMR17-48"/>
       <use transform="translate(45.690477 0)scale(0.996264)" xlink:href="#CMMI12-58"/>
       <use transform="translate(72.787654 0)scale(0.996264)" xlink:href="#CMR17-48"/>
      </g>
     </g>
    </g>
    <g id="ytick_11">
     <g id="line2d_27">
      <g>
       <use style="stroke:#000000;stroke-width:0.8;" x="52.947918" xlink:href="#m9b7ca65026" y="207.443251"/>
      </g>
     </g>
     <g id="text_31">
      <!-- $\mathdefault{0.2}$ -->
      <g transform="translate(36.717839 210.902501)scale(0.1 -0.1)">
       <use transform="scale(0.996264)" xlink:href="#CMR17-48"/>
       <use transform="translate(45.690477 0)scale(0.996264)" xlink:href="#CMMI12-58"/>
       <use transform="translate(72.787654 0)scale(0.996264)" xlink:href="#CMR17-50"/>
      </g>
     </g>
    </g>
    <g id="ytick_12">
     <g id="line2d_28">
      <g>
       <use style="stroke:#000000;stroke-width:0.8;" x="52.947918" xlink:href="#m9b7ca65026" y="168.548174"/>
      </g>
     </g>
     <g id="text_32">
      <!-- $\mathdefault{0.4}$ -->
      <g transform="translate(36.717839 172.007423)scale(0.1 -0.1)">
       <use transform="scale(0.996264)" xlink:href="#CMR17-48"/>
       <use transform="translate(45.690477 0)scale(0.996264)" xlink:href="#CMMI12-58"/>
       <use transform="translate(72.787654 0)scale(0.996264)" xlink:href="#CMR17-52"/>
      </g>
     </g>
    </g>
    <g id="text_33">
     <!-- $P(w_i)$ -->
     <g transform="translate(29.729047 222.558572)rotate(-90)scale(0.12 -0.12)">
      <use transform="scale(0.996264)" xlink:href="#CMMI12-80"/>
      <use transform="translate(76.425821 0)scale(0.996264)" xlink:href="#CMR17-40"/>
      <use transform="translate(111.706589 0)scale(0.996264)" xlink:href="#CMMI12-119"/>
      <use transform="translate(181.438578 -14.943915)scale(0.697382)" xlink:href="#CMMI12-105"/>
      <use transform="translate(205.231617 0)scale(0.996264)" xlink:href="#CMR17-41"/>
     </g>
    </g>
   </g>
   <g id="line2d_29">
    <g clip-path="url(#pc975460d1a)">
     <use style="fill:#1f77b4;stroke:#000000;stroke-width:1.5;" x="56.90678" xlink:href="#m25e83021b1" y="240.142064"/>
     <use style="fill:#1f77b4;stroke:#000000;stroke-width:1.5;" x="65.704252" xlink:href="#m25e83021b1" y="224.651403"/>
     <use style="fill:#1f77b4;stroke:#000000;stroke-width:1.5;" x="74.501723" xlink:href="#m25e83021b1" y="199.866344"/>
     <use style="fill:#1f77b4;stroke:#000000;stroke-width:1.5;" x="83.299195" xlink:href="#m25e83021b1" y="178.179418"/>
     <use style="fill:#1f77b4;stroke:#000000;stroke-width:1.5;" x="92.096667" xlink:href="#m25e83021b1" y="190.571947"/>
     <use style="fill:#1f77b4;stroke:#000000;stroke-width:1.5;" x="100.894139" xlink:href="#m25e83021b1" y="171.983153"/>
     <use style="fill:#1f77b4;stroke:#000000;stroke-width:1.5;" x="109.691611" xlink:href="#m25e83021b1" y="218.455138"/>
     <use style="fill:#1f77b4;stroke:#000000;stroke-width:1.5;" x="118.489082" xlink:href="#m25e83021b1" y="240.142064"/>
     <use style="fill:#1f77b4;stroke:#000000;stroke-width:1.5;" x="127.286554" xlink:href="#m25e83021b1" y="246.338329"/>
     <use style="fill:#1f77b4;stroke:#000000;stroke-width:1.5;" x="136.084026" xlink:href="#m25e83021b1" y="243.240197"/>
    </g>
   </g>
   <g id="line2d_30">
    <path clip-path="url(#pc975460d1a)" d="M 56.90678 238.973598 
L 58.412653 237.093159 
L 59.918527 234.865804 
L 61.503657 232.11765 
L 63.168044 228.764533 
L 64.911687 224.730073 
L 66.813843 219.739247 
L 68.953768 213.465889 
L 71.648489 204.820245 
L 77.98901 184.179219 
L 79.811909 179.126952 
L 81.317783 175.554041 
L 82.665143 172.918539 
L 83.774734 171.197873 
L 84.805069 169.993717 
L 85.67689 169.285713 
L 86.469455 168.896859 
L 87.26202 168.754555 
L 87.975329 168.838457 
L 88.767894 169.16639 
L 89.560459 169.738298 
L 90.43228 170.642619 
L 91.383359 171.94602 
L 92.49295 173.861393 
L 93.761054 176.527955 
L 95.187671 180.062508 
L 96.931314 185.00949 
L 99.229752 192.264905 
L 106.996889 217.380258 
L 109.136815 223.238443 
L 111.038971 227.809129 
L 112.782614 231.442827 
L 114.447001 234.417898 
L 116.032131 236.822599 
L 117.617261 238.838754 
L 119.202391 240.502861 
L 120.787521 241.855428 
L 122.451907 242.98607 
L 124.195551 243.903121 
L 126.097707 244.650029 
L 128.237632 245.244588 
L 130.694584 245.69273 
L 133.785587 246.019933 
L 136.084026 246.155942 
L 136.084026 246.155942 
" style="fill:none;stroke:#000000;stroke-linecap:square;stroke-width:1.5;"/>
   </g>
   <g id="patch_18">
    <path d="M 52.947918 250.217548 
L 52.947918 164.874739 
" style="fill:none;stroke:#000000;stroke-linecap:square;stroke-linejoin:miter;stroke-width:0.8;"/>
   </g>
   <g id="patch_19">
    <path d="M 140.042888 250.217548 
L 140.042888 164.874739 
" style="fill:none;stroke:#000000;stroke-linecap:square;stroke-linejoin:miter;stroke-width:0.8;"/>
   </g>
   <g id="patch_20">
    <path d="M 52.947918 250.217548 
L 140.042888 250.217548 
" style="fill:none;stroke:#000000;stroke-linecap:square;stroke-linejoin:miter;stroke-width:0.8;"/>
   </g>
   <g id="patch_21">
    <path d="M 52.947918 164.874739 
L 140.042888 164.874739 
" style="fill:none;stroke:#000000;stroke-linecap:square;stroke-linejoin:miter;stroke-width:0.8;"/>
   </g>
   <g id="text_34">
    <!-- $\tau = 1 ~ \mathrm{ s, }~ N = 10^2$   -->
    <g transform="translate(53.495238 158.874739)scale(0.12 -0.12)">
     <use transform="scale(0.996264)" xlink:href="#CMMI12-28"/>
     <use transform="translate(81.165174 0)scale(0.996264)" xlink:href="#CMR17-61"/>
     <use transform="translate(180.553971 0)scale(0.996264)" xlink:href="#CMR17-49"/>
     <use transform="translate(256.320415 0)scale(0.996264)" xlink:href="#CMR17-115"/>
     <use transform="translate(292.121752 0)scale(0.996264)" xlink:href="#CMMI12-59"/>
     <use transform="translate(349.294896 0)scale(0.996264)" xlink:href="#CMMI12-78"/>
     <use transform="translate(465.490677 0)scale(0.996264)" xlink:href="#CMR17-61"/>
     <use transform="translate(564.879474 0)scale(0.996264)" xlink:href="#CMR17-49"/>
     <use transform="translate(610.569951 0)scale(0.996264)" xlink:href="#CMR17-48"/>
     <use transform="translate(656.260428 36.153639)scale(0.697382)" xlink:href="#CMR17-50"/>
    </g>
   </g>
  </g>
  <g id="axes_5">
   <g id="patch_22">
    <path d="M 192.990806 250.217548 
L 280.085776 250.217548 
L 280.085776 164.874739 
L 192.990806 164.874739 
z
" style="fill:#ffffff;"/>
   </g>
   <g id="matplotlib.axis_9">
    <g id="xtick_11">
     <g id="line2d_31">
      <g>
       <use style="stroke:#000000;stroke-width:0.8;" x="206.600555" xlink:href="#m5cdf1f1746" y="250.217548"/>
      </g>
     </g>
     <g id="text_35">
      <!-- $\mathdefault{−2.5}$ -->
      <g transform="translate(196.361144 260.636046)scale(0.1 -0.1)">
       <use transform="scale(0.996264)" xlink:href="#CMSY10-0"/>
       <use transform="translate(77.487468 0)scale(0.996264)" xlink:href="#CMR17-50"/>
       <use transform="translate(123.177945 0)scale(0.996264)" xlink:href="#CMMI12-58"/>
       <use transform="translate(150.275122 0)scale(0.996264)" xlink:href="#CMR17-53"/>
      </g>
     </g>
    </g>
    <g id="xtick_12">
     <g id="line2d_32">
      <g>
       <use style="stroke:#000000;stroke-width:0.8;" x="238.840446" xlink:href="#m5cdf1f1746" y="250.217548"/>
      </g>
     </g>
     <g id="text_36">
      <!-- $\mathdefault{0.0}$ -->
      <g transform="translate(232.475407 260.636046)scale(0.1 -0.1)">
       <use transform="scale(0.996264)" xlink:href="#CMR17-48"/>
       <use transform="translate(45.690477 0)scale(0.996264)" xlink:href="#CMMI12-58"/>
       <use transform="translate(72.787654 0)scale(0.996264)" xlink:href="#CMR17-48"/>
      </g>
     </g>
    </g>
    <g id="xtick_13">
     <g id="line2d_33">
      <g>
       <use style="stroke:#000000;stroke-width:0.8;" x="271.080337" xlink:href="#m5cdf1f1746" y="250.217548"/>
      </g>
     </g>
     <g id="text_37">
      <!-- $\mathdefault{2.5}$ -->
      <g transform="translate(264.715298 260.636046)scale(0.1 -0.1)">
       <use transform="scale(0.996264)" xlink:href="#CMR17-50"/>
       <use transform="translate(45.690477 0)scale(0.996264)" xlink:href="#CMMI12-58"/>
       <use transform="translate(72.787654 0)scale(0.996264)" xlink:href="#CMR17-53"/>
      </g>
     </g>
    </g>
    <g id="text_38">
     <!-- $w_i$ -->
     <g transform="translate(230.912803 274.875404)scale(0.12 -0.12)">
      <use transform="scale(0.996264)" xlink:href="#CMMI12-119"/>
      <use transform="translate(69.73199 -14.943915)scale(0.697382)" xlink:href="#CMMI12-105"/>
     </g>
    </g>
   </g>
   <g id="matplotlib.axis_10">
    <g id="ytick_13">
     <g id="line2d_34">
      <g>
       <use style="stroke:#000000;stroke-width:0.8;" x="192.990806" xlink:href="#m9b7ca65026" y="246.73707"/>
      </g>
     </g>
     <g id="text_39">
      <!-- $\mathdefault{0.0}$ -->
      <g transform="translate(176.760727 250.19632)scale(0.1 -0.1)">
       <use transform="scale(0.996264)" xlink:href="#CMR17-48"/>
       <use transform="translate(45.690477 0)scale(0.996264)" xlink:href="#CMMI12-58"/>
       <use transform="translate(72.787654 0)scale(0.996264)" xlink:href="#CMR17-48"/>
      </g>
     </g>
    </g>
    <g id="ytick_14">
     <g id="line2d_35">
      <g>
       <use style="stroke:#000000;stroke-width:0.8;" x="192.990806" xlink:href="#m9b7ca65026" y="207.641984"/>
      </g>
     </g>
     <g id="text_40">
      <!-- $\mathdefault{0.2}$ -->
      <g transform="translate(176.760727 211.101233)scale(0.1 -0.1)">
       <use transform="scale(0.996264)" xlink:href="#CMR17-48"/>
       <use transform="translate(45.690477 0)scale(0.996264)" xlink:href="#CMMI12-58"/>
       <use transform="translate(72.787654 0)scale(0.996264)" xlink:href="#CMR17-50"/>
      </g>
     </g>
    </g>
    <g id="ytick_15">
     <g id="line2d_36">
      <g>
       <use style="stroke:#000000;stroke-width:0.8;" x="192.990806" xlink:href="#m9b7ca65026" y="168.546897"/>
      </g>
     </g>
     <g id="text_41">
      <!-- $\mathdefault{0.4}$ -->
      <g transform="translate(176.760727 172.006146)scale(0.1 -0.1)">
       <use transform="scale(0.996264)" xlink:href="#CMR17-48"/>
       <use transform="translate(45.690477 0)scale(0.996264)" xlink:href="#CMMI12-58"/>
       <use transform="translate(72.787654 0)scale(0.996264)" xlink:href="#CMR17-52"/>
      </g>
     </g>
    </g>
    <g id="text_42">
     <!-- $P(w_i)$ -->
     <g transform="translate(169.771935 222.558572)rotate(-90)scale(0.12 -0.12)">
      <use transform="scale(0.996264)" xlink:href="#CMMI12-80"/>
      <use transform="translate(76.425821 0)scale(0.996264)" xlink:href="#CMR17-40"/>
      <use transform="translate(111.706589 0)scale(0.996264)" xlink:href="#CMMI12-119"/>
      <use transform="translate(181.438578 -14.943915)scale(0.697382)" xlink:href="#CMMI12-105"/>
      <use transform="translate(205.231617 0)scale(0.996264)" xlink:href="#CMR17-41"/>
     </g>
    </g>
   </g>
   <g id="line2d_37">
    <g clip-path="url(#paca5a2e121)">
     <use style="fill:#1f77b4;stroke:#000000;stroke-width:1.5;" x="196.949668" xlink:href="#m25e83021b1" y="245.01782"/>
     <use style="fill:#1f77b4;stroke:#000000;stroke-width:1.5;" x="205.74714" xlink:href="#m25e83021b1" y="242.438945"/>
     <use style="fill:#1f77b4;stroke:#000000;stroke-width:1.5;" x="214.544612" xlink:href="#m25e83021b1" y="233.842693"/>
     <use style="fill:#1f77b4;stroke:#000000;stroke-width:1.5;" x="223.342083" xlink:href="#m25e83021b1" y="208.913564"/>
     <use style="fill:#1f77b4;stroke:#000000;stroke-width:1.5;" x="232.139555" xlink:href="#m25e83021b1" y="179.399767"/>
     <use style="fill:#1f77b4;stroke:#000000;stroke-width:1.5;" x="240.937027" xlink:href="#m25e83021b1" y="174.815099"/>
     <use style="fill:#1f77b4;stroke:#000000;stroke-width:1.5;" x="249.734499" xlink:href="#m25e83021b1" y="190.00181"/>
     <use style="fill:#1f77b4;stroke:#000000;stroke-width:1.5;" x="258.531971" xlink:href="#m25e83021b1" y="218.655982"/>
     <use style="fill:#1f77b4;stroke:#000000;stroke-width:1.5;" x="267.329442" xlink:href="#m25e83021b1" y="242.152403"/>
     <use style="fill:#1f77b4;stroke:#000000;stroke-width:1.5;" x="276.126914" xlink:href="#m25e83021b1" y="245.590904"/>
    </g>
   </g>
   <g id="line2d_38">
    <path clip-path="url(#paca5a2e121)" d="M 196.949668 246.338329 
L 199.802902 245.938727 
L 202.022084 245.412758 
L 203.92424 244.741094 
L 205.667883 243.884918 
L 207.253013 242.853708 
L 208.758887 241.602977 
L 210.185504 240.132035 
L 211.612121 238.343017 
L 213.038738 236.199186 
L 214.544612 233.516292 
L 216.050485 230.374979 
L 217.635615 226.558247 
L 219.379258 221.76354 
L 221.360671 215.616191 
L 223.738366 207.454042 
L 231.029964 181.821464 
L 232.615094 177.33069 
L 233.962455 174.137657 
L 235.151302 171.880176 
L 236.181637 170.393612 
L 237.053458 169.498773 
L 237.846023 168.985161 
L 238.559332 168.772181 
L 239.27264 168.797438 
L 239.985949 169.060699 
L 240.699258 169.559557 
L 241.491823 170.384552 
L 242.363644 171.610328 
L 243.393979 173.466635 
L 244.582826 176.114013 
L 245.930187 179.691294 
L 247.594573 184.801606 
L 249.734499 192.156267 
L 257.105354 218.134307 
L 259.086766 223.997955 
L 260.909666 228.704612 
L 262.574052 232.39817 
L 264.159182 235.387195 
L 265.665056 237.773832 
L 267.170929 239.754473 
L 268.676803 241.371112 
L 270.182676 242.669307 
L 271.767807 243.742493 
L 273.432193 244.601065 
L 275.255093 245.289651 
L 276.126914 245.543915 
L 276.126914 245.543915 
" style="fill:none;stroke:#000000;stroke-linecap:square;stroke-width:1.5;"/>
   </g>
   <g id="patch_23">
    <path d="M 192.990806 250.217548 
L 192.990806 164.874739 
" style="fill:none;stroke:#000000;stroke-linecap:square;stroke-linejoin:miter;stroke-width:0.8;"/>
   </g>
   <g id="patch_24">
    <path d="M 280.085776 250.217548 
L 280.085776 164.874739 
" style="fill:none;stroke:#000000;stroke-linecap:square;stroke-linejoin:miter;stroke-width:0.8;"/>
   </g>
   <g id="patch_25">
    <path d="M 192.990806 250.217548 
L 280.085776 250.217548 
" style="fill:none;stroke:#000000;stroke-linecap:square;stroke-linejoin:miter;stroke-width:0.8;"/>
   </g>
   <g id="patch_26">
    <path d="M 192.990806 164.874739 
L 280.085776 164.874739 
" style="fill:none;stroke:#000000;stroke-linecap:square;stroke-linejoin:miter;stroke-width:0.8;"/>
   </g>
   <g id="text_43">
    <!-- $\tau = 1 ~  \mathrm{ s, } ~N = 10^3$   -->
    <g transform="translate(193.538127 158.874739)scale(0.12 -0.12)">
     <use transform="scale(0.996264)" xlink:href="#CMMI12-28"/>
     <use transform="translate(81.165174 0)scale(0.996264)" xlink:href="#CMR17-61"/>
     <use transform="translate(180.553971 0)scale(0.996264)" xlink:href="#CMR17-49"/>
     <use transform="translate(256.320415 0)scale(0.996264)" xlink:href="#CMR17-115"/>
     <use transform="translate(292.121752 0)scale(0.996264)" xlink:href="#CMMI12-59"/>
     <use transform="translate(349.294896 0)scale(0.996264)" xlink:href="#CMMI12-78"/>
     <use transform="translate(465.490677 0)scale(0.996264)" xlink:href="#CMR17-61"/>
     <use transform="translate(564.879474 0)scale(0.996264)" xlink:href="#CMR17-49"/>
     <use transform="translate(610.569951 0)scale(0.996264)" xlink:href="#CMR17-48"/>
     <use transform="translate(656.260428 36.153639)scale(0.697382)" xlink:href="#CMR17-51"/>
    </g>
   </g>
  </g>
  <g id="axes_6">
   <g id="patch_27">
    <path d="M 333.033694 250.217548 
L 420.128665 250.217548 
L 420.128665 164.874739 
L 333.033694 164.874739 
z
" style="fill:#ffffff;"/>
   </g>
   <g id="matplotlib.axis_11">
    <g id="xtick_14">
     <g id="line2d_39">
      <g>
       <use style="stroke:#000000;stroke-width:0.8;" x="346.040441" xlink:href="#m5cdf1f1746" y="250.217548"/>
      </g>
     </g>
     <g id="text_44">
      <!-- $\mathdefault{−2.5}$ -->
      <g transform="translate(335.80103 260.636046)scale(0.1 -0.1)">
       <use transform="scale(0.996264)" xlink:href="#CMSY10-0"/>
       <use transform="translate(77.487468 0)scale(0.996264)" xlink:href="#CMR17-50"/>
       <use transform="translate(123.177945 0)scale(0.996264)" xlink:href="#CMMI12-58"/>
       <use transform="translate(150.275122 0)scale(0.996264)" xlink:href="#CMR17-53"/>
      </g>
     </g>
    </g>
    <g id="xtick_15">
     <g id="line2d_40">
      <g>
       <use style="stroke:#000000;stroke-width:0.8;" x="374.842847" xlink:href="#m5cdf1f1746" y="250.217548"/>
      </g>
     </g>
     <g id="text_45">
      <!-- $\mathdefault{0.0}$ -->
      <g transform="translate(368.477807 260.636046)scale(0.1 -0.1)">
       <use transform="scale(0.996264)" xlink:href="#CMR17-48"/>
       <use transform="translate(45.690477 0)scale(0.996264)" xlink:href="#CMMI12-58"/>
       <use transform="translate(72.787654 0)scale(0.996264)" xlink:href="#CMR17-48"/>
      </g>
     </g>
    </g>
    <g id="xtick_16">
     <g id="line2d_41">
      <g>
       <use style="stroke:#000000;stroke-width:0.8;" x="403.645252" xlink:href="#m5cdf1f1746" y="250.217548"/>
      </g>
     </g>
     <g id="text_46">
      <!-- $\mathdefault{2.5}$ -->
      <g transform="translate(397.280213 260.636046)scale(0.1 -0.1)">
       <use transform="scale(0.996264)" xlink:href="#CMR17-50"/>
       <use transform="translate(45.690477 0)scale(0.996264)" xlink:href="#CMMI12-58"/>
       <use transform="translate(72.787654 0)scale(0.996264)" xlink:href="#CMR17-53"/>
      </g>
     </g>
    </g>
    <g id="text_47">
     <!-- $w_i$ -->
     <g transform="translate(370.955691 274.875404)scale(0.12 -0.12)">
      <use transform="scale(0.996264)" xlink:href="#CMMI12-119"/>
      <use transform="translate(69.73199 -14.943915)scale(0.697382)" xlink:href="#CMMI12-105"/>
     </g>
    </g>
   </g>
   <g id="matplotlib.axis_12">
    <g id="ytick_16">
     <g id="line2d_42">
      <g>
       <use style="stroke:#000000;stroke-width:0.8;" x="333.033694" xlink:href="#m9b7ca65026" y="246.463171"/>
      </g>
     </g>
     <g id="text_48">
      <!-- $\mathdefault{0.0}$ -->
      <g transform="translate(316.803615 249.922421)scale(0.1 -0.1)">
       <use transform="scale(0.996264)" xlink:href="#CMR17-48"/>
       <use transform="translate(45.690477 0)scale(0.996264)" xlink:href="#CMMI12-58"/>
       <use transform="translate(72.787654 0)scale(0.996264)" xlink:href="#CMR17-48"/>
      </g>
     </g>
    </g>
    <g id="ytick_17">
     <g id="line2d_43">
      <g>
       <use style="stroke:#000000;stroke-width:0.8;" x="333.033694" xlink:href="#m9b7ca65026" y="207.505549"/>
      </g>
     </g>
     <g id="text_49">
      <!-- $\mathdefault{0.2}$ -->
      <g transform="translate(316.803615 210.964798)scale(0.1 -0.1)">
       <use transform="scale(0.996264)" xlink:href="#CMR17-48"/>
       <use transform="translate(45.690477 0)scale(0.996264)" xlink:href="#CMMI12-58"/>
       <use transform="translate(72.787654 0)scale(0.996264)" xlink:href="#CMR17-50"/>
      </g>
     </g>
    </g>
    <g id="ytick_18">
     <g id="line2d_44">
      <g>
       <use style="stroke:#000000;stroke-width:0.8;" x="333.033694" xlink:href="#m9b7ca65026" y="168.547926"/>
      </g>
     </g>
     <g id="text_50">
      <!-- $\mathdefault{0.4}$ -->
      <g transform="translate(316.803615 172.007175)scale(0.1 -0.1)">
       <use transform="scale(0.996264)" xlink:href="#CMR17-48"/>
       <use transform="translate(45.690477 0)scale(0.996264)" xlink:href="#CMMI12-58"/>
       <use transform="translate(72.787654 0)scale(0.996264)" xlink:href="#CMR17-52"/>
      </g>
     </g>
    </g>
    <g id="text_51">
     <!-- $P(w_i)$ -->
     <g transform="translate(309.814823 222.558572)rotate(-90)scale(0.12 -0.12)">
      <use transform="scale(0.996264)" xlink:href="#CMMI12-80"/>
      <use transform="translate(76.425821 0)scale(0.996264)" xlink:href="#CMR17-40"/>
      <use transform="translate(111.706589 0)scale(0.996264)" xlink:href="#CMMI12-119"/>
      <use transform="translate(181.438578 -14.943915)scale(0.697382)" xlink:href="#CMMI12-105"/>
      <use transform="translate(205.231617 0)scale(0.996264)" xlink:href="#CMR17-41"/>
     </g>
    </g>
   </g>
   <g id="line2d_45">
    <g clip-path="url(#pa878a4eaf6)">
     <use style="fill:#1f77b4;stroke:#000000;stroke-width:1.5;" x="336.992556" xlink:href="#m25e83021b1" y="245.901974"/>
     <use style="fill:#1f77b4;stroke:#000000;stroke-width:1.5;" x="345.790028" xlink:href="#m25e83021b1" y="242.534786"/>
     <use style="fill:#1f77b4;stroke:#000000;stroke-width:1.5;" x="354.5875" xlink:href="#m25e83021b1" y="228.912984"/>
     <use style="fill:#1f77b4;stroke:#000000;stroke-width:1.5;" x="363.384972" xlink:href="#m25e83021b1" y="200.342911"/>
     <use style="fill:#1f77b4;stroke:#000000;stroke-width:1.5;" x="372.182443" xlink:href="#m25e83021b1" y="174.655355"/>
     <use style="fill:#1f77b4;stroke:#000000;stroke-width:1.5;" x="380.979915" xlink:href="#m25e83021b1" y="178.711285"/>
     <use style="fill:#1f77b4;stroke:#000000;stroke-width:1.5;" x="389.777387" xlink:href="#m25e83021b1" y="210.75058"/>
     <use style="fill:#1f77b4;stroke:#000000;stroke-width:1.5;" x="398.574859" xlink:href="#m25e83021b1" y="236.667718"/>
     <use style="fill:#1f77b4;stroke:#000000;stroke-width:1.5;" x="407.372331" xlink:href="#m25e83021b1" y="244.856105"/>
     <use style="fill:#1f77b4;stroke:#000000;stroke-width:1.5;" x="416.169802" xlink:href="#m25e83021b1" y="246.208081"/>
    </g>
   </g>
   <g id="line2d_46">
    <path clip-path="url(#pa878a4eaf6)" d="M 336.992556 246.111043 
L 339.637341 245.734051 
L 341.711992 245.219407 
L 343.461984 244.560203 
L 345.021932 243.736575 
L 346.463102 242.72343 
L 347.833005 241.486067 
L 349.171235 239.972153 
L 350.501545 238.123312 
L 351.847693 235.860724 
L 353.225515 233.098251 
L 354.666685 229.694306 
L 356.194959 225.494434 
L 357.857847 220.250602 
L 359.758291 213.485772 
L 362.205113 203.884994 
L 367.18586 184.153399 
L 368.848748 178.590773 
L 370.186977 174.8473 
L 371.319325 172.304567 
L 372.293303 170.633637 
L 373.132665 169.605407 
L 373.869087 169.03103 
L 374.534243 168.781831 
L 375.151887 168.78191 
L 375.77745 169.009231 
L 376.442605 169.499517 
L 377.179027 170.335282 
L 378.010472 171.636334 
L 378.960694 173.562449 
L 380.053449 176.308731 
L 381.336248 180.166335 
L 382.904115 185.627233 
L 385.057951 194.01128 
L 390.695935 216.311008 
L 392.635971 222.883901 
L 394.346371 227.920686 
L 395.922156 231.890217 
L 397.410837 235.054187 
L 398.83617 237.577815 
L 400.229829 239.606898 
L 401.615569 241.241132 
L 403.017147 242.556116 
L 404.466235 243.613268 
L 406.002427 244.458367 
L 407.681153 245.125618 
L 409.589515 245.640344 
L 411.885885 246.020982 
L 414.871166 246.277304 
L 416.169802 246.338329 
L 416.169802 246.338329 
" style="fill:none;stroke:#000000;stroke-linecap:square;stroke-width:1.5;"/>
   </g>
   <g id="patch_28">
    <path d="M 333.033694 250.217548 
L 333.033694 164.874739 
" style="fill:none;stroke:#000000;stroke-linecap:square;stroke-linejoin:miter;stroke-width:0.8;"/>
   </g>
   <g id="patch_29">
    <path d="M 420.128665 250.217548 
L 420.128665 164.874739 
" style="fill:none;stroke:#000000;stroke-linecap:square;stroke-linejoin:miter;stroke-width:0.8;"/>
   </g>
   <g id="patch_30">
    <path d="M 333.033694 250.217548 
L 420.128665 250.217548 
" style="fill:none;stroke:#000000;stroke-linecap:square;stroke-linejoin:miter;stroke-width:0.8;"/>
   </g>
   <g id="patch_31">
    <path d="M 333.033694 164.874739 
L 420.128665 164.874739 
" style="fill:none;stroke:#000000;stroke-linecap:square;stroke-linejoin:miter;stroke-width:0.8;"/>
   </g>
   <g id="text_52">
    <!-- $\tau = 1 ~\mathrm{ s, }~ N = 10^4$   -->
    <g transform="translate(333.581015 158.874739)scale(0.12 -0.12)">
     <use transform="scale(0.996264)" xlink:href="#CMMI12-28"/>
     <use transform="translate(81.165174 0)scale(0.996264)" xlink:href="#CMR17-61"/>
     <use transform="translate(180.553971 0)scale(0.996264)" xlink:href="#CMR17-49"/>
     <use transform="translate(256.320415 0)scale(0.996264)" xlink:href="#CMR17-115"/>
     <use transform="translate(292.121752 0)scale(0.996264)" xlink:href="#CMMI12-59"/>
     <use transform="translate(349.294896 0)scale(0.996264)" xlink:href="#CMMI12-78"/>
     <use transform="translate(465.490677 0)scale(0.996264)" xlink:href="#CMR17-61"/>
     <use transform="translate(564.879474 0)scale(0.996264)" xlink:href="#CMR17-49"/>
     <use transform="translate(610.569951 0)scale(0.996264)" xlink:href="#CMR17-48"/>
     <use transform="translate(656.260428 36.153639)scale(0.697382)" xlink:href="#CMR17-52"/>
    </g>
   </g>
  </g>
 </g>
 <defs>
  <clipPath id="pb82db6c7a3">
   <rect height="85.342809" width="87.094971" x="52.947918" y="26.274739"/>
  </clipPath>
  <clipPath id="pb45714af00">
   <rect height="85.342809" width="87.094971" x="192.990806" y="26.274739"/>
  </clipPath>
  <clipPath id="paf1929a911">
   <rect height="85.342809" width="87.094971" x="333.033694" y="26.274739"/>
  </clipPath>
  <clipPath id="pc975460d1a">
   <rect height="85.342809" width="87.094971" x="52.947918" y="164.874739"/>
  </clipPath>
  <clipPath id="paca5a2e121">
   <rect height="85.342809" width="87.094971" x="192.990806" y="164.874739"/>
  </clipPath>
  <clipPath id="pa878a4eaf6">
   <rect height="85.342809" width="87.094971" x="333.033694" y="164.874739"/>
  </clipPath>
 </defs>
</svg>
