<?xml version="1.0" encoding="UTF-8" standalone="no"?>
<!-- Created with Inkscape (http://www.inkscape.org/) -->

<svg
   version="1.1"
   id="svg824"
   xml:space="preserve"
   width="604.72443"
   height="302.36221"
   viewBox="0 0 604.72443 302.36221"
   sodipodi:docname="ld.svg"
   inkscape:version="1.1 (c68e22c387, 2021-05-23)"
   xmlns:inkscape="http://www.inkscape.org/namespaces/inkscape"
   xmlns:sodipodi="http://sodipodi.sourceforge.net/DTD/sodipodi-0.dtd"
   xmlns="http://www.w3.org/2000/svg"
   xmlns:svg="http://www.w3.org/2000/svg"><defs
     id="defs828"><clipPath
       clipPathUnits="userSpaceOnUse"
       id="clipPath854"><path
         d="M -770,-347 H 2106 V 1110 H -770 Z"
         id="path852" /></clipPath><clipPath
       clipPathUnits="userSpaceOnUse"
       id="clipPath878"><path
         d="M -770,-347 H 2106 V 1110 H -770 Z"
         id="path876" /></clipPath><clipPath
       clipPathUnits="userSpaceOnUse"
       id="clipPath1000"><path
         d="M -1016,-351 H 1660 V 1068 H -1016 Z"
         id="path998" /></clipPath><clipPath
       clipPathUnits="userSpaceOnUse"
       id="clipPath1010"><path
         d="M 54.942545,28.732 H 419.43831 V 221.99165 H 54.942545 Z"
         id="path1008" /></clipPath><clipPath
       clipPathUnits="userSpaceOnUse"
       id="clipPath1026"><path
         d="M 54.942545,28.732 H 419.43831 V 221.99165 H 54.942545 Z"
         id="path1024" /></clipPath><clipPath
       clipPathUnits="userSpaceOnUse"
       id="clipPath1036"><path
         d="M 54.942545,28.732 H 419.43831 V 221.99165 H 54.942545 Z"
         id="path1034" /></clipPath><clipPath
       clipPathUnits="userSpaceOnUse"
       id="clipPath1052"><path
         d="M 54.942545,28.732 H 419.43831 V 221.99165 H 54.942545 Z"
         id="path1050" /></clipPath><clipPath
       clipPathUnits="userSpaceOnUse"
       id="clipPath1068"><path
         d="M 54.942545,28.732 H 419.43831 V 221.99165 H 54.942545 Z"
         id="path1066" /></clipPath><clipPath
       clipPathUnits="userSpaceOnUse"
       id="clipPath1078"><path
         d="M -8,-8 H 8 V 8 H -8 Z"
         id="path1076" /></clipPath><clipPath
       clipPathUnits="userSpaceOnUse"
       id="clipPath1090"><path
         d="M -8,-8 H 8 V 8 H -8 Z"
         id="path1088" /></clipPath><clipPath
       clipPathUnits="userSpaceOnUse"
       id="clipPath1102"><path
         d="M -8,-8 H 8 V 8 H -8 Z"
         id="path1100" /></clipPath><clipPath
       clipPathUnits="userSpaceOnUse"
       id="clipPath1114"><path
         d="M -8,-8 H 8 V 8 H -8 Z"
         id="path1112" /></clipPath><clipPath
       clipPathUnits="userSpaceOnUse"
       id="clipPath1180"><path
         d="M 54.942545,28.732 H 419.43831 V 221.99165 H 54.942545 Z"
         id="path1178" /></clipPath><clipPath
       clipPathUnits="userSpaceOnUse"
       id="clipPath1196"><path
         d="M 54.942545,28.732 H 419.43831 V 221.99165 H 54.942545 Z"
         id="path1194" /></clipPath><clipPath
       clipPathUnits="userSpaceOnUse"
       id="clipPath1206"><path
         d="M 54.942545,28.732 H 419.43831 V 221.99165 H 54.942545 Z"
         id="path1204" /></clipPath><clipPath
       clipPathUnits="userSpaceOnUse"
       id="clipPath1216"><path
         d="M -8,-8 H 8 V 8 H -8 Z"
         id="path1214" /></clipPath><clipPath
       clipPathUnits="userSpaceOnUse"
       id="clipPath1228"><path
         d="M -8,-8 H 8 V 8 H -8 Z"
         id="path1226" /></clipPath><clipPath
       clipPathUnits="userSpaceOnUse"
       id="clipPath1240"><path
         d="M -8,-8 H 8 V 8 H -8 Z"
         id="path1238" /></clipPath><clipPath
       clipPathUnits="userSpaceOnUse"
       id="clipPath1252"><path
         d="M -8,-8 H 8 V 8 H -8 Z"
         id="path1250" /></clipPath></defs><sodipodi:namedview
     id="namedview826"
     pagecolor="#ffffff"
     bordercolor="#999999"
     borderopacity="1"
     inkscape:pageshadow="0"
     inkscape:pageopacity="0"
     inkscape:pagecheckerboard="0"
     showgrid="false"
     inkscape:zoom="2.931914"
     inkscape:cx="302.36221"
     inkscape:cy="151.26638"
     inkscape:window-width="2560"
     inkscape:window-height="1377"
     inkscape:window-x="-8"
     inkscape:window-y="-8"
     inkscape:window-maximized="1"
     inkscape:current-layer="g830" /><g
     id="g830"
     inkscape:groupmode="layer"
     inkscape:label="ld"
     transform="matrix(1.3333333,0,0,-1.3333333,0,302.3622)"><path
       d="M 54.942545,28.732 H 419.43831 V 221.99165 H 54.942545 Z"
       style="fill:#ffffff;fill-opacity:1;fill-rule:nonzero;stroke:none"
       id="path832" /><path
       d="m 123.43196,28.732 v 3.5"
       style="fill:#000000;fill-opacity:1;fill-rule:nonzero;stroke:#000000;stroke-width:0.8;stroke-linecap:butt;stroke-linejoin:round;stroke-miterlimit:10;stroke-dasharray:none;stroke-opacity:1"
       id="path834" /><g
       id="g836"
       transform="translate(111.43196,17.310125)"><text
         transform="matrix(1,0,0,-1,0,0.2609375)"
         style="font-variant:normal;font-weight:normal;font-size:10px;font-family:'DejaVu Serif';-inkscape-font-specification:DejaVuSerif;writing-mode:lr-tb;fill:#000000;fill-opacity:1;fill-rule:nonzero;stroke:none"
         id="text840"><tspan
           x="0 6.3623047"
           y="0"
           sodipodi:role="line"
           id="tspan838">10</tspan></text><text
         transform="matrix(1,0,0,-1,18.680625,3.8921875)"
         style="font-variant:normal;font-weight:normal;font-size:7px;font-family:'DejaVu Serif';-inkscape-font-specification:DejaVuSerif;writing-mode:lr-tb;fill:#000000;fill-opacity:1;fill-rule:nonzero;stroke:none"
         id="text844"><tspan
           x="0"
           y="0"
           id="tspan842">5</tspan></text><g
         id="g846"
         transform="matrix(0.007,0,0,0.007,12.815391,3.8921875)"><g
           id="g848"><g
             id="g850"
             clip-path="url(#clipPath854)"><path
               d="M 106,353 H 732 V 274 H 106 v 79"
               style="fill:#000000;fill-opacity:1;fill-rule:nonzero;stroke:none"
               id="path856" /></g></g></g></g><path
       d="m 350.94889,28.732 v 3.5"
       style="fill:#000000;fill-opacity:1;fill-rule:nonzero;stroke:#000000;stroke-width:0.8;stroke-linecap:butt;stroke-linejoin:round;stroke-miterlimit:10;stroke-dasharray:none;stroke-opacity:1"
       id="path858" /><g
       id="g860"
       transform="translate(338.94889,17.310125)"><text
         transform="matrix(1,0,0,-1,0,0.1734375)"
         style="font-variant:normal;font-weight:normal;font-size:10px;font-family:'DejaVu Serif';-inkscape-font-specification:DejaVuSerif;writing-mode:lr-tb;fill:#000000;fill-opacity:1;fill-rule:nonzero;stroke:none"
         id="text864"><tspan
           x="0 6.3623047"
           y="0"
           sodipodi:role="line"
           id="tspan862">10</tspan></text><text
         transform="matrix(1,0,0,-1,18.680625,3.8046875)"
         style="font-variant:normal;font-weight:normal;font-size:7px;font-family:'DejaVu Serif';-inkscape-font-specification:DejaVuSerif;writing-mode:lr-tb;fill:#000000;fill-opacity:1;fill-rule:nonzero;stroke:none"
         id="text868"><tspan
           x="0"
           y="0"
           id="tspan866">4</tspan></text><g
         id="g870"
         transform="matrix(0.007,0,0,0.007,12.815391,3.8046875)"><g
           id="g872"><g
             id="g874"
             clip-path="url(#clipPath878)"><path
               d="M 106,353 H 732 V 274 H 106 v 79"
               style="fill:#000000;fill-opacity:1;fill-rule:nonzero;stroke:none"
               id="path880" /></g></g></g></g><path
       d="m 54.942545,28.732 v 2"
       style="fill:#000000;fill-opacity:1;fill-rule:nonzero;stroke:#000000;stroke-width:0.6;stroke-linecap:butt;stroke-linejoin:round;stroke-miterlimit:10;stroke-dasharray:none;stroke-opacity:1"
       id="path882" /><path
       d="m 72.957619,28.732 v 2"
       style="fill:#000000;fill-opacity:1;fill-rule:nonzero;stroke:#000000;stroke-width:0.6;stroke-linecap:butt;stroke-linejoin:round;stroke-miterlimit:10;stroke-dasharray:none;stroke-opacity:1"
       id="path884" /><path
       d="m 88.189147,28.732 v 2"
       style="fill:#000000;fill-opacity:1;fill-rule:nonzero;stroke:#000000;stroke-width:0.6;stroke-linecap:butt;stroke-linejoin:round;stroke-miterlimit:10;stroke-dasharray:none;stroke-opacity:1"
       id="path886" /><path
       d="m 101.3833,28.732 v 2"
       style="fill:#000000;fill-opacity:1;fill-rule:nonzero;stroke:#000000;stroke-width:0.6;stroke-linecap:butt;stroke-linejoin:round;stroke-miterlimit:10;stroke-dasharray:none;stroke-opacity:1"
       id="path888" /><path
       d="m 113.02136,28.732 v 2"
       style="fill:#000000;fill-opacity:1;fill-rule:nonzero;stroke:#000000;stroke-width:0.6;stroke-linecap:butt;stroke-linejoin:round;stroke-miterlimit:10;stroke-dasharray:none;stroke-opacity:1"
       id="path890" /><path
       d="m 191.92138,28.732 v 2"
       style="fill:#000000;fill-opacity:1;fill-rule:nonzero;stroke:#000000;stroke-width:0.6;stroke-linecap:butt;stroke-linejoin:round;stroke-miterlimit:10;stroke-dasharray:none;stroke-opacity:1"
       id="path892" /><path
       d="m 231.98512,28.732 v 2"
       style="fill:#000000;fill-opacity:1;fill-rule:nonzero;stroke:#000000;stroke-width:0.6;stroke-linecap:butt;stroke-linejoin:round;stroke-miterlimit:10;stroke-dasharray:none;stroke-opacity:1"
       id="path894" /><path
       d="m 260.4108,28.732 v 2"
       style="fill:#000000;fill-opacity:1;fill-rule:nonzero;stroke:#000000;stroke-width:0.6;stroke-linecap:butt;stroke-linejoin:round;stroke-miterlimit:10;stroke-dasharray:none;stroke-opacity:1"
       id="path896" /><path
       d="m 282.45947,28.732 v 2"
       style="fill:#000000;fill-opacity:1;fill-rule:nonzero;stroke:#000000;stroke-width:0.6;stroke-linecap:butt;stroke-linejoin:round;stroke-miterlimit:10;stroke-dasharray:none;stroke-opacity:1"
       id="path898" /><path
       d="m 300.47454,28.732 v 2"
       style="fill:#000000;fill-opacity:1;fill-rule:nonzero;stroke:#000000;stroke-width:0.6;stroke-linecap:butt;stroke-linejoin:round;stroke-miterlimit:10;stroke-dasharray:none;stroke-opacity:1"
       id="path900" /><path
       d="m 315.70607,28.732 v 2"
       style="fill:#000000;fill-opacity:1;fill-rule:nonzero;stroke:#000000;stroke-width:0.6;stroke-linecap:butt;stroke-linejoin:round;stroke-miterlimit:10;stroke-dasharray:none;stroke-opacity:1"
       id="path902" /><path
       d="m 328.90022,28.732 v 2"
       style="fill:#000000;fill-opacity:1;fill-rule:nonzero;stroke:#000000;stroke-width:0.6;stroke-linecap:butt;stroke-linejoin:round;stroke-miterlimit:10;stroke-dasharray:none;stroke-opacity:1"
       id="path904" /><path
       d="m 340.53828,28.732 v 2"
       style="fill:#000000;fill-opacity:1;fill-rule:nonzero;stroke:#000000;stroke-width:0.6;stroke-linecap:butt;stroke-linejoin:round;stroke-miterlimit:10;stroke-dasharray:none;stroke-opacity:1"
       id="path906" /><path
       d="m 419.43831,28.732 v 2"
       style="fill:#000000;fill-opacity:1;fill-rule:nonzero;stroke:#000000;stroke-width:0.6;stroke-linecap:butt;stroke-linejoin:round;stroke-miterlimit:10;stroke-dasharray:none;stroke-opacity:1"
       id="path908" /><text
       transform="matrix(1,0,0,-1,220.49511,3.63825)"
       style="font-variant:normal;font-weight:normal;font-size:10px;font-family:'DejaVu Serif';-inkscape-font-specification:DejaVuSerif;writing-mode:lr-tb;fill:#000000;fill-opacity:1;fill-rule:nonzero;stroke:none"
       id="text912"><tspan
         x="0 3.9000001 12.65 18.610001 26.26 29.459999"
         y="0"
         sodipodi:role="line"
         id="tspan910">[NaCl]</tspan></text><path
       d="m 54.942545,183.32627 h 3.5"
       style="fill:#000000;fill-opacity:1;fill-rule:nonzero;stroke:#000000;stroke-width:0.8;stroke-linecap:butt;stroke-linejoin:round;stroke-miterlimit:10;stroke-dasharray:none;stroke-opacity:1"
       id="path914" /><g
       id="g916"
       transform="translate(33.442545,179.36533)"><text
         transform="matrix(1,0,0,-1,0,0.1734375)"
         style="font-variant:normal;font-weight:normal;font-size:10px;font-family:'DejaVu Serif';-inkscape-font-specification:DejaVuSerif;writing-mode:lr-tb;fill:#000000;fill-opacity:1;fill-rule:nonzero;stroke:none"
         id="text920"><tspan
           x="0 6.3623047"
           y="0"
           sodipodi:role="line"
           id="tspan918">10</tspan></text><text
         transform="matrix(1,0,0,-1,12.815391,3.8046875)"
         style="font-variant:normal;font-weight:normal;font-size:7px;font-family:'DejaVu Serif';-inkscape-font-specification:DejaVuSerif;writing-mode:lr-tb;fill:#000000;fill-opacity:1;fill-rule:nonzero;stroke:none"
         id="text924"><tspan
           x="0"
           y="0"
           id="tspan922">2</tspan></text></g><path
       d="m 54.942545,30.020583 h 2"
       style="fill:#000000;fill-opacity:1;fill-rule:nonzero;stroke:#000000;stroke-width:0.6;stroke-linecap:butt;stroke-linejoin:round;stroke-miterlimit:10;stroke-dasharray:none;stroke-opacity:1"
       id="path926" /><g
       id="g928"
       transform="translate(14.542545,26.059646)"><text
         transform="matrix(1,0,0,-1,0,0.1734375)"
         style="font-variant:normal;font-weight:normal;font-size:10px;font-family:'DejaVu Serif';-inkscape-font-specification:DejaVuSerif;writing-mode:lr-tb;fill:#000000;fill-opacity:1;fill-rule:nonzero;stroke:none"
         id="text932"><tspan
           x="0 8.2587891 18.53418 24.896484"
           y="0"
           sodipodi:role="line"
           id="tspan930">2×10</tspan></text><text
         transform="matrix(1,0,0,-1,31.34957,3.8046875)"
         style="font-variant:normal;font-weight:normal;font-size:7px;font-family:'DejaVu Serif';-inkscape-font-specification:DejaVuSerif;writing-mode:lr-tb;fill:#000000;fill-opacity:1;fill-rule:nonzero;stroke:none"
         id="text936"><tspan
           x="0"
           y="0"
           id="tspan934">1</tspan></text></g><path
       d="m 54.942545,68.64283 h 2"
       style="fill:#000000;fill-opacity:1;fill-rule:nonzero;stroke:#000000;stroke-width:0.6;stroke-linecap:butt;stroke-linejoin:round;stroke-miterlimit:10;stroke-dasharray:none;stroke-opacity:1"
       id="path938" /><g
       id="g940"
       transform="translate(14.542545,64.681892)"><text
         transform="matrix(1,0,0,-1,0,0.1734375)"
         style="font-variant:normal;font-weight:normal;font-size:10px;font-family:'DejaVu Serif';-inkscape-font-specification:DejaVuSerif;writing-mode:lr-tb;fill:#000000;fill-opacity:1;fill-rule:nonzero;stroke:none"
         id="text944"><tspan
           x="0 8.2587891 18.53418 24.896484"
           y="0"
           sodipodi:role="line"
           id="tspan942">3×10</tspan></text><text
         transform="matrix(1,0,0,-1,31.34957,3.8046875)"
         style="font-variant:normal;font-weight:normal;font-size:7px;font-family:'DejaVu Serif';-inkscape-font-specification:DejaVuSerif;writing-mode:lr-tb;fill:#000000;fill-opacity:1;fill-rule:nonzero;stroke:none"
         id="text948"><tspan
           x="0"
           y="0"
           id="tspan946">1</tspan></text></g><path
       d="m 54.942545,96.04575 h 2"
       style="fill:#000000;fill-opacity:1;fill-rule:nonzero;stroke:#000000;stroke-width:0.6;stroke-linecap:butt;stroke-linejoin:round;stroke-miterlimit:10;stroke-dasharray:none;stroke-opacity:1"
       id="path950" /><g
       id="g952"
       transform="translate(14.542545,92.084812)"><text
         transform="matrix(1,0,0,-1,0,0.1734375)"
         style="font-variant:normal;font-weight:normal;font-size:10px;font-family:'DejaVu Serif';-inkscape-font-specification:DejaVuSerif;writing-mode:lr-tb;fill:#000000;fill-opacity:1;fill-rule:nonzero;stroke:none"
         id="text956"><tspan
           x="0 8.2587891 18.53418 24.896484"
           y="0"
           sodipodi:role="line"
           id="tspan954">4×10</tspan></text><text
         transform="matrix(1,0,0,-1,31.34957,3.8046875)"
         style="font-variant:normal;font-weight:normal;font-size:7px;font-family:'DejaVu Serif';-inkscape-font-specification:DejaVuSerif;writing-mode:lr-tb;fill:#000000;fill-opacity:1;fill-rule:nonzero;stroke:none"
         id="text960"><tspan
           x="0"
           y="0"
           id="tspan958">1</tspan></text></g><path
       d="m 54.942545,117.30111 h 2"
       style="fill:#000000;fill-opacity:1;fill-rule:nonzero;stroke:#000000;stroke-width:0.6;stroke-linecap:butt;stroke-linejoin:round;stroke-miterlimit:10;stroke-dasharray:none;stroke-opacity:1"
       id="path962" /><path
       d="m 54.942545,134.668 h 2"
       style="fill:#000000;fill-opacity:1;fill-rule:nonzero;stroke:#000000;stroke-width:0.6;stroke-linecap:butt;stroke-linejoin:round;stroke-miterlimit:10;stroke-dasharray:none;stroke-opacity:1"
       id="path964" /><g
       id="g966"
       transform="translate(14.542545,130.70706)"><text
         transform="matrix(1,0,0,-1,0,0.1734375)"
         style="font-variant:normal;font-weight:normal;font-size:10px;font-family:'DejaVu Serif';-inkscape-font-specification:DejaVuSerif;writing-mode:lr-tb;fill:#000000;fill-opacity:1;fill-rule:nonzero;stroke:none"
         id="text970"><tspan
           x="0 8.2587891 18.53418 24.896484"
           y="0"
           sodipodi:role="line"
           id="tspan968">6×10</tspan></text><text
         transform="matrix(1,0,0,-1,31.34957,3.8046875)"
         style="font-variant:normal;font-weight:normal;font-size:7px;font-family:'DejaVu Serif';-inkscape-font-specification:DejaVuSerif;writing-mode:lr-tb;fill:#000000;fill-opacity:1;fill-rule:nonzero;stroke:none"
         id="text974"><tspan
           x="0"
           y="0"
           id="tspan972">1</tspan></text></g><path
       d="m 54.942545,149.35149 h 2"
       style="fill:#000000;fill-opacity:1;fill-rule:nonzero;stroke:#000000;stroke-width:0.6;stroke-linecap:butt;stroke-linejoin:round;stroke-miterlimit:10;stroke-dasharray:none;stroke-opacity:1"
       id="path976" /><path
       d="m 54.942545,162.07092 h 2"
       style="fill:#000000;fill-opacity:1;fill-rule:nonzero;stroke:#000000;stroke-width:0.6;stroke-linecap:butt;stroke-linejoin:round;stroke-miterlimit:10;stroke-dasharray:none;stroke-opacity:1"
       id="path978" /><path
       d="m 54.942545,173.29024 h 2"
       style="fill:#000000;fill-opacity:1;fill-rule:nonzero;stroke:#000000;stroke-width:0.6;stroke-linecap:butt;stroke-linejoin:round;stroke-miterlimit:10;stroke-dasharray:none;stroke-opacity:1"
       id="path980" /><g
       id="g982"
       transform="rotate(90,-49.198703,57.663124)"><text
         transform="matrix(1,0,0,-1,4.1308594,-1.234375)"
         style="font-variant:normal;font-weight:normal;font-size:7px;font-family:'DejaVu Sans';-inkscape-font-specification:DejaVuSans;writing-mode:lr-tb;fill:#1f77b4;fill-opacity:1;fill-rule:nonzero;stroke:none"
         id="text986"><tspan
           x="0"
           y="0"
           id="tspan984">D</tspan></text><text
         transform="matrix(1,0,0,-1,12.973145,0.40625)"
         style="font-variant:normal;font-weight:normal;font-size:10px;font-family:'DejaVu Serif';-inkscape-font-specification:DejaVuSerif;writing-mode:lr-tb;fill:#1f77b4;fill-opacity:1;fill-rule:nonzero;stroke:none"
         id="text990"><tspan
           x="0 3.9013672 10.341797 19.824219"
           y="0"
           sodipodi:role="line"
           id="tspan988">(nm)</tspan></text><g
         id="g992"
         transform="matrix(0.01,0,0,0.01,0,0.40625)"><g
           id="g994"><g
             id="g996"
             clip-path="url(#clipPath1000)"><path
               d="m 148,131 c 13,-66 34,-98 63,-98 18,0 40,18 65,56 h 65 C 321,56 300,31 277,14 252,-4 228,-13 206,-13 155,-13 119,9 99,54 L 63,0 h -76 c 34,48 65,94 91,139 -4,25 -5,51 -5,79 0,49 5,99 15,149 38,186 74,298 108,336 23,26 55,39 96,39 40,0 61,-28 61,-84 -1,-26 -4,-54 -10,-84 C 319,450 254,302 148,131 m 0,128 c 60,113 100,215 119,305 10,48 15,78 15,91 0,22 -4,33 -12,33 C 234,660 200,561 169,393 160,345 153,301 148,259"
               style="fill:#1f77b4;fill-opacity:1;fill-rule:nonzero;stroke:none"
               id="path1002" /></g></g></g></g><g
       id="g1004"><g
         id="g1006"
         clip-path="url(#clipPath1010)"><path
           d="m 383.48718,51.275939 v 0.759002"
           style="fill:none;stroke:#000000;stroke-width:1.5;stroke-linecap:butt;stroke-linejoin:round;stroke-miterlimit:10;stroke-dasharray:none;stroke-opacity:1"
           id="path1012" /><path
           d="m 254.52005,117.11041 v 0.38101"
           style="fill:none;stroke:#000000;stroke-width:1.5;stroke-linecap:butt;stroke-linejoin:round;stroke-miterlimit:10;stroke-dasharray:none;stroke-opacity:1"
           id="path1014" /><path
           d="m 171.70823,155.92335 v 0.25367"
           style="fill:none;stroke:#000000;stroke-width:1.5;stroke-linecap:butt;stroke-linejoin:round;stroke-miterlimit:10;stroke-dasharray:none;stroke-opacity:1"
           id="path1016" /><path
           d="m 111.91733,183.23097 v 0.19051"
           style="fill:none;stroke:#000000;stroke-width:1.5;stroke-linecap:butt;stroke-linejoin:round;stroke-miterlimit:10;stroke-dasharray:none;stroke-opacity:1"
           id="path1018" /></g></g><g
       id="g1020"><g
         id="g1022"
         clip-path="url(#clipPath1026)"><path
           d="m 54.942545,213.20712 32.817927,-15.81856 24.593258,-11.8542 19.67577,-9.48392 16.40088,-7.90539 14.06218,-6.7781 12.30796,-5.93257 10.94327,-5.27476 9.85123,-4.74839 8.95749,-4.3176 8.21253,-3.95853 7.58202,-3.6546 7.04145,-3.39405 6.57287,-3.16819 6.16277,-2.97052 5.80086,-2.79607 5.4791,-2.64098 5.19118,-2.5022 4.93201,-2.37728 4.69749,-2.26424 4.48427,-2.16146 4.28956,-2.06761 4.11106,-1.98157 3.94683,-1.90241 3.79521,-1.82933 3.65481,-1.76166 3.52444,-1.698814 3.40305,-1.640301 3.28973,-1.585683 3.18372,-1.534587 3.08434,-1.48668 2.99096,-1.441675 2.90308,-1.399315 2.82022,-1.359372 2.74195,-1.321648 2.66791,-1.28596 2.59777,-1.252149 2.53121,-1.220071 2.46799,-1.189596 2.40785,-1.160605 2.35056,-1.132994 2.29594,-1.106667 2.2438,-1.081535 2.19398,-1.057519 2.14632,-1.034547 2.10069,-1.012552 2.05695,-0.991473 2.01501,-0.971252 1.97473,-0.951842 1.93604,-0.93319 1.89883,-0.915257 1.86303,-0.898 1.82856,-0.88138 1.79532,-0.865366 1.76329,-0.849922 1.73238,-0.835021 1.70252,-0.820633 1.67368,-0.806732 1.64581,-0.793295 1.61884,-0.780298 1.59274,-0.767719 1.56748,-0.75554 1.543,-0.743741 1.51928,-0.732306 1.49627,-0.721216 1.47394,-0.710457 1.45229,-0.700016 1.43124,-0.689875 1.41081,-0.680025 1.39095,-0.670452 1.37165,-0.661144 1.35286,-0.652093 1.33458,-0.643285 1.31681,-0.634711 1.29948,-0.626365 1.28262,-0.618233 1.26618,-0.610311 1.25016,-0.60259 1.23453,-0.59506 1.21931,-0.587717 1.20444,-0.580553 1.18994,-0.573562 1.17578,-0.566736 1.16195,-0.560072 1.14844,-0.553562 1.13525,-0.547202 1.12236,-0.540986 1.10975,-0.53491 1.09742,-0.52897 1.08537,-0.523158 1.07358,-0.517475 1.06203,-0.511912 1.05075,-0.506469 1.03968,-0.50114 1.02886,-0.495921 1.01826,-0.490811 1.00787,-0.485804 0.9977,-0.480899 0.98772,-0.476092 0.97795,-0.471379"
           style="fill:none;stroke:#1f77b4;stroke-width:1.5;stroke-linecap:square;stroke-linejoin:round;stroke-miterlimit:10;stroke-dasharray:none;stroke-opacity:1"
           id="path1028" /></g></g><g
       id="g1030"><g
         id="g1032"
         clip-path="url(#clipPath1036)"><path
           d="m 383.98718,51.275939 h -1"
           style="fill:#000000;fill-opacity:1;fill-rule:nonzero;stroke:#000000;stroke-width:2;stroke-linecap:butt;stroke-linejoin:round;stroke-miterlimit:10;stroke-dasharray:none;stroke-opacity:1"
           id="path1038" /><path
           d="m 255.02005,117.11041 h -1"
           style="fill:#000000;fill-opacity:1;fill-rule:nonzero;stroke:#000000;stroke-width:2;stroke-linecap:butt;stroke-linejoin:round;stroke-miterlimit:10;stroke-dasharray:none;stroke-opacity:1"
           id="path1040" /><path
           d="m 172.20823,155.92335 h -1"
           style="fill:#000000;fill-opacity:1;fill-rule:nonzero;stroke:#000000;stroke-width:2;stroke-linecap:butt;stroke-linejoin:round;stroke-miterlimit:10;stroke-dasharray:none;stroke-opacity:1"
           id="path1042" /><path
           d="m 112.41733,183.23097 h -1"
           style="fill:#000000;fill-opacity:1;fill-rule:nonzero;stroke:#000000;stroke-width:2;stroke-linecap:butt;stroke-linejoin:round;stroke-miterlimit:10;stroke-dasharray:none;stroke-opacity:1"
           id="path1044" /></g></g><g
       id="g1046"><g
         id="g1048"
         clip-path="url(#clipPath1052)"><path
           d="m 383.98718,52.034941 h -1"
           style="fill:#000000;fill-opacity:1;fill-rule:nonzero;stroke:#000000;stroke-width:2;stroke-linecap:butt;stroke-linejoin:round;stroke-miterlimit:10;stroke-dasharray:none;stroke-opacity:1"
           id="path1054" /><path
           d="m 255.02005,117.49142 h -1"
           style="fill:#000000;fill-opacity:1;fill-rule:nonzero;stroke:#000000;stroke-width:2;stroke-linecap:butt;stroke-linejoin:round;stroke-miterlimit:10;stroke-dasharray:none;stroke-opacity:1"
           id="path1056" /><path
           d="m 172.20823,156.17702 h -1"
           style="fill:#000000;fill-opacity:1;fill-rule:nonzero;stroke:#000000;stroke-width:2;stroke-linecap:butt;stroke-linejoin:round;stroke-miterlimit:10;stroke-dasharray:none;stroke-opacity:1"
           id="path1058" /><path
           d="m 112.41733,183.42148 h -1"
           style="fill:#000000;fill-opacity:1;fill-rule:nonzero;stroke:#000000;stroke-width:2;stroke-linecap:butt;stroke-linejoin:round;stroke-miterlimit:10;stroke-dasharray:none;stroke-opacity:1"
           id="path1060" /></g></g><g
       id="g1062"><g
         id="g1064"
         clip-path="url(#clipPath1068)"><g
           id="g1070"
           transform="translate(383.48718,51.656196)"><g
             id="g1072"><g
               id="g1074"
               clip-path="url(#clipPath1078)"><path
                 d="m 0,-3 c 0.795609,0 1.55874,0.316099 2.12132,0.87868 C 2.683901,-1.55874 3,-0.795609 3,0 3,0.795609 2.683901,1.55874 2.12132,2.12132 1.55874,2.683901 0.795609,3 0,3 -0.795609,3 -1.55874,2.683901 -2.12132,2.12132 -2.683901,1.55874 -3,0.795609 -3,0 -3,-0.795609 -2.683901,-1.55874 -2.12132,-2.12132 -1.55874,-2.683901 -0.795609,-3 0,-3 Z"
                 style="fill:#1f77b4;fill-opacity:1;fill-rule:nonzero;stroke:#000000;stroke-width:1;stroke-linecap:butt;stroke-linejoin:round;stroke-miterlimit:10;stroke-dasharray:none;stroke-opacity:1"
                 id="path1080" /></g></g><g
             id="g1082"
             transform="translate(-128.96712,65.64491)"><g
               id="g1084"><g
                 id="g1086"
                 clip-path="url(#clipPath1090)"><path
                   d="m 0,-3 c 0.795609,0 1.55874,0.316099 2.12132,0.87868 C 2.683901,-1.55874 3,-0.795609 3,0 3,0.795609 2.683901,1.55874 2.12132,2.12132 1.55874,2.683901 0.795609,3 0,3 -0.795609,3 -1.55874,2.683901 -2.12132,2.12132 -2.683901,1.55874 -3,0.795609 -3,0 -3,-0.795609 -2.683901,-1.55874 -2.12132,-2.12132 -1.55874,-2.683901 -0.795609,-3 0,-3 Z"
                   style="fill:#1f77b4;fill-opacity:1;fill-rule:nonzero;stroke:#000000;stroke-width:1;stroke-linecap:butt;stroke-linejoin:round;stroke-miterlimit:10;stroke-dasharray:none;stroke-opacity:1"
                   id="path1092" /></g></g><g
               id="g1094"
               transform="translate(-82.811818,38.749167)"><g
                 id="g1096"><g
                   id="g1098"
                   clip-path="url(#clipPath1102)"><path
                     d="m 0,-3 c 0.795609,0 1.55874,0.316099 2.12132,0.87868 C 2.683901,-1.55874 3,-0.795609 3,0 3,0.795609 2.683901,1.55874 2.12132,2.12132 1.55874,2.683901 0.795609,3 0,3 -0.795609,3 -1.55874,2.683901 -2.12132,2.12132 -2.683901,1.55874 -3,0.795609 -3,0 -3,-0.795609 -2.683901,-1.55874 -2.12132,-2.12132 -1.55874,-2.683901 -0.795609,-3 0,-3 Z"
                     style="fill:#1f77b4;fill-opacity:1;fill-rule:nonzero;stroke:#000000;stroke-width:1;stroke-linecap:butt;stroke-linejoin:round;stroke-miterlimit:10;stroke-dasharray:none;stroke-opacity:1"
                     id="path1104" /></g></g><g
                 id="g1106"
                 transform="translate(-59.790901,27.275999)"><g
                   id="g1108"><g
                     id="g1110"
                     clip-path="url(#clipPath1114)"><path
                       d="m 0,-3 c 0.795609,0 1.55874,0.316099 2.12132,0.87868 C 2.683901,-1.55874 3,-0.795609 3,0 3,0.795609 2.683901,1.55874 2.12132,2.12132 1.55874,2.683901 0.795609,3 0,3 -0.795609,3 -1.55874,2.683901 -2.12132,2.12132 -2.683901,1.55874 -3,0.795609 -3,0 -3,-0.795609 -2.683901,-1.55874 -2.12132,-2.12132 -1.55874,-2.683901 -0.795609,-3 0,-3 Z"
                       style="fill:#1f77b4;fill-opacity:1;fill-rule:nonzero;stroke:#000000;stroke-width:1;stroke-linecap:butt;stroke-linejoin:round;stroke-miterlimit:10;stroke-dasharray:none;stroke-opacity:1"
                       id="path1116" /></g></g></g></g></g></g></g></g><g
       id="g1118"><path
         d="M 54.942545,28.732 V 221.99165"
         style="fill:none;stroke:#000000;stroke-width:0.8;stroke-linecap:square;stroke-linejoin:miter;stroke-miterlimit:10;stroke-dasharray:none;stroke-opacity:1"
         id="path1120" /><path
         d="M 419.43831,28.732 V 221.99165"
         style="fill:none;stroke:#000000;stroke-width:0.8;stroke-linecap:square;stroke-linejoin:miter;stroke-miterlimit:10;stroke-dasharray:none;stroke-opacity:1"
         id="path1122" /><path
         d="M 54.942545,28.732 H 419.43831"
         style="fill:none;stroke:#000000;stroke-width:0.8;stroke-linecap:square;stroke-linejoin:miter;stroke-miterlimit:10;stroke-dasharray:none;stroke-opacity:1"
         id="path1124" /><path
         d="M 54.942545,221.99165 H 419.43831"
         style="fill:none;stroke:#000000;stroke-width:0.8;stroke-linecap:square;stroke-linejoin:miter;stroke-miterlimit:10;stroke-dasharray:none;stroke-opacity:1"
         id="path1126" /><path
         d="m 419.43831,28.732 h -3.5"
         style="fill:#000000;fill-opacity:1;fill-rule:nonzero;stroke:#000000;stroke-width:0.8;stroke-linecap:butt;stroke-linejoin:round;stroke-miterlimit:10;stroke-dasharray:none;stroke-opacity:1"
         id="path1128" /><text
         transform="matrix(1,0,0,-1,422.93831,24.935125)"
         style="font-variant:normal;font-weight:normal;font-size:10px;font-family:'DejaVu Serif';-inkscape-font-specification:DejaVuSerif;writing-mode:lr-tb;fill:#000000;fill-opacity:1;fill-rule:nonzero;stroke:none"
         id="text1132"><tspan
           x="0 6.3600001 9.54"
           y="0"
           sodipodi:role="line"
           id="tspan1130">3.0</tspan></text><path
         d="m 419.43831,60.941942 h -3.5"
         style="fill:#000000;fill-opacity:1;fill-rule:nonzero;stroke:#000000;stroke-width:0.8;stroke-linecap:butt;stroke-linejoin:round;stroke-miterlimit:10;stroke-dasharray:none;stroke-opacity:1"
         id="path1134" /><text
         transform="matrix(1,0,0,-1,422.93831,57.145067)"
         style="font-variant:normal;font-weight:normal;font-size:10px;font-family:'DejaVu Serif';-inkscape-font-specification:DejaVuSerif;writing-mode:lr-tb;fill:#000000;fill-opacity:1;fill-rule:nonzero;stroke:none"
         id="text1138"><tspan
           x="0 6.3600001 9.54"
           y="0"
           sodipodi:role="line"
           id="tspan1136">3.5</tspan></text><path
         d="m 419.43831,93.151885 h -3.5"
         style="fill:#000000;fill-opacity:1;fill-rule:nonzero;stroke:#000000;stroke-width:0.8;stroke-linecap:butt;stroke-linejoin:round;stroke-miterlimit:10;stroke-dasharray:none;stroke-opacity:1"
         id="path1140" /><text
         transform="matrix(1,0,0,-1,422.93831,89.35501)"
         style="font-variant:normal;font-weight:normal;font-size:10px;font-family:'DejaVu Serif';-inkscape-font-specification:DejaVuSerif;writing-mode:lr-tb;fill:#000000;fill-opacity:1;fill-rule:nonzero;stroke:none"
         id="text1144"><tspan
           x="0 6.3600001 9.54"
           y="0"
           sodipodi:role="line"
           id="tspan1142">4.0</tspan></text><path
         d="m 419.43831,125.36183 h -3.5"
         style="fill:#000000;fill-opacity:1;fill-rule:nonzero;stroke:#000000;stroke-width:0.8;stroke-linecap:butt;stroke-linejoin:round;stroke-miterlimit:10;stroke-dasharray:none;stroke-opacity:1"
         id="path1146" /><text
         transform="matrix(1,0,0,-1,422.93831,121.56495)"
         style="font-variant:normal;font-weight:normal;font-size:10px;font-family:'DejaVu Serif';-inkscape-font-specification:DejaVuSerif;writing-mode:lr-tb;fill:#000000;fill-opacity:1;fill-rule:nonzero;stroke:none"
         id="text1150"><tspan
           x="0 6.3600001 9.54"
           y="0"
           sodipodi:role="line"
           id="tspan1148">4.5</tspan></text><path
         d="m 419.43831,157.57177 h -3.5"
         style="fill:#000000;fill-opacity:1;fill-rule:nonzero;stroke:#000000;stroke-width:0.8;stroke-linecap:butt;stroke-linejoin:round;stroke-miterlimit:10;stroke-dasharray:none;stroke-opacity:1"
         id="path1152" /><text
         transform="matrix(1,0,0,-1,422.93831,153.77489)"
         style="font-variant:normal;font-weight:normal;font-size:10px;font-family:'DejaVu Serif';-inkscape-font-specification:DejaVuSerif;writing-mode:lr-tb;fill:#000000;fill-opacity:1;fill-rule:nonzero;stroke:none"
         id="text1156"><tspan
           x="0 6.3600001 9.54"
           y="0"
           sodipodi:role="line"
           id="tspan1154">5.0</tspan></text><path
         d="m 419.43831,189.78171 h -3.5"
         style="fill:#000000;fill-opacity:1;fill-rule:nonzero;stroke:#000000;stroke-width:0.8;stroke-linecap:butt;stroke-linejoin:round;stroke-miterlimit:10;stroke-dasharray:none;stroke-opacity:1"
         id="path1158" /><text
         transform="matrix(1,0,0,-1,422.93831,185.98484)"
         style="font-variant:normal;font-weight:normal;font-size:10px;font-family:'DejaVu Serif';-inkscape-font-specification:DejaVuSerif;writing-mode:lr-tb;fill:#000000;fill-opacity:1;fill-rule:nonzero;stroke:none"
         id="text1162"><tspan
           x="0 6.3600001 9.54"
           y="0"
           sodipodi:role="line"
           id="tspan1160">5.5</tspan></text><path
         d="m 419.43831,221.99165 h -3.5"
         style="fill:#000000;fill-opacity:1;fill-rule:nonzero;stroke:#000000;stroke-width:0.8;stroke-linecap:butt;stroke-linejoin:round;stroke-miterlimit:10;stroke-dasharray:none;stroke-opacity:1"
         id="path1164" /><text
         transform="matrix(1,0,0,-1,422.93831,218.19478)"
         style="font-variant:normal;font-weight:normal;font-size:10px;font-family:'DejaVu Serif';-inkscape-font-specification:DejaVuSerif;writing-mode:lr-tb;fill:#000000;fill-opacity:1;fill-rule:nonzero;stroke:none"
         id="text1168"><tspan
           x="0 6.3600001 9.54"
           y="0"
           sodipodi:role="line"
           id="tspan1166">6.0</tspan></text><text
         transform="matrix(0,1,1,0,450.43831,121.68995)"
         style="font-variant:normal;font-weight:normal;font-size:10px;font-family:'DejaVu Serif';-inkscape-font-specification:DejaVuSerif;writing-mode:lr-tb;fill:#2ca02c;fill-opacity:1;fill-rule:nonzero;stroke:none"
         id="text1172"><tspan
           x="0"
           y="0"
           id="tspan1170">B</tspan></text></g><g
       id="g1174"><g
         id="g1176"
         clip-path="url(#clipPath1180)"><path
           d="M 383.48718,80.267908 V 157.57177"
           style="fill:none;stroke:#000000;stroke-width:1.5;stroke-linecap:butt;stroke-linejoin:round;stroke-miterlimit:10;stroke-dasharray:none;stroke-opacity:1"
           id="path1182" /><path
           d="M 254.52005,60.941942 V 138.2458"
           style="fill:none;stroke:#000000;stroke-width:1.5;stroke-linecap:butt;stroke-linejoin:round;stroke-miterlimit:10;stroke-dasharray:none;stroke-opacity:1"
           id="path1184" /><path
           d="M 171.70823,54.499954 V 131.80381"
           style="fill:none;stroke:#000000;stroke-width:1.5;stroke-linecap:butt;stroke-linejoin:round;stroke-miterlimit:10;stroke-dasharray:none;stroke-opacity:1"
           id="path1186" /><path
           d="M 111.91733,60.941942 V 138.2458"
           style="fill:none;stroke:#000000;stroke-width:1.5;stroke-linecap:butt;stroke-linejoin:round;stroke-miterlimit:10;stroke-dasharray:none;stroke-opacity:1"
           id="path1188" /></g></g><g
       id="g1190"><g
         id="g1192"
         clip-path="url(#clipPath1196)"><path
           d="m 54.942545,102.81487 h 32.817927 24.593258 19.67577 16.40088 14.06218 12.30796 10.94327 9.85123 8.95749 8.21253 7.58202 7.04145 6.57287 6.16277 5.80086 5.4791 5.19118 4.93201 4.69749 4.48427 4.28956 4.11106 3.94683 3.79521 3.65481 3.52444 3.40305 3.28973 3.18372 3.08434 2.99096 2.90308 2.82022 2.74195 2.66791 2.59777 2.53121 2.46799 2.40785 2.35056 2.29594 2.2438 2.19398 2.14632 2.10069 2.05695 2.01501 1.97473 1.93604 1.89883 1.86303 1.82856 1.79532 1.76329 1.73238 1.70252 1.67368 1.64581 1.61884 1.59274 1.56748 1.543 1.51928 1.49627 1.47394 1.45229 1.43124 1.41081 1.39095 1.37165 1.35286 1.33458 1.31681 1.29948 1.28262 1.26618 1.25016 1.23453 1.21931 1.20444 1.18994 1.17578 1.16195 1.14844 1.13525 1.12236 1.10975 1.09742 1.08537 1.07358 1.06203 1.05075 1.03968 1.02886 1.01826 1.00787 0.9977 0.98772 0.97795"
           style="fill:none;stroke:#2ca02c;stroke-width:1.5;stroke-linecap:butt;stroke-linejoin:round;stroke-miterlimit:10;stroke-dasharray:5.55, 2.4;stroke-dashoffset:0;stroke-opacity:1"
           id="path1198" /></g></g><g
       id="g1200"><g
         id="g1202"
         clip-path="url(#clipPath1206)"><g
           id="g1208"
           transform="translate(383.48718,118.91984)"><g
             id="g1210"><g
               id="g1212"
               clip-path="url(#clipPath1216)"><path
                 d="m 0,-3 c 0.795609,0 1.55874,0.316099 2.12132,0.87868 C 2.683901,-1.55874 3,-0.795609 3,0 3,0.795609 2.683901,1.55874 2.12132,2.12132 1.55874,2.683901 0.795609,3 0,3 -0.795609,3 -1.55874,2.683901 -2.12132,2.12132 -2.683901,1.55874 -3,0.795609 -3,0 -3,-0.795609 -2.683901,-1.55874 -2.12132,-2.12132 -1.55874,-2.683901 -0.795609,-3 0,-3 Z"
                 style="fill:#2ca02c;fill-opacity:1;fill-rule:nonzero;stroke:#000000;stroke-width:1;stroke-linecap:butt;stroke-linejoin:round;stroke-miterlimit:10;stroke-dasharray:none;stroke-opacity:1"
                 id="path1218" /></g></g><g
             id="g1220"
             transform="translate(-128.96712,-19.325965)"><g
               id="g1222"><g
                 id="g1224"
                 clip-path="url(#clipPath1228)"><path
                   d="m 0,-3 c 0.795609,0 1.55874,0.316099 2.12132,0.87868 C 2.683901,-1.55874 3,-0.795609 3,0 3,0.795609 2.683901,1.55874 2.12132,2.12132 1.55874,2.683901 0.795609,3 0,3 -0.795609,3 -1.55874,2.683901 -2.12132,2.12132 -2.683901,1.55874 -3,0.795609 -3,0 -3,-0.795609 -2.683901,-1.55874 -2.12132,-2.12132 -1.55874,-2.683901 -0.795609,-3 0,-3 Z"
                   style="fill:#2ca02c;fill-opacity:1;fill-rule:nonzero;stroke:#000000;stroke-width:1;stroke-linecap:butt;stroke-linejoin:round;stroke-miterlimit:10;stroke-dasharray:none;stroke-opacity:1"
                   id="path1230" /></g></g><g
               id="g1232"
               transform="translate(-82.811818,-6.4419885)"><g
                 id="g1234"><g
                   id="g1236"
                   clip-path="url(#clipPath1240)"><path
                     d="m 0,-3 c 0.795609,0 1.55874,0.316099 2.12132,0.87868 C 2.683901,-1.55874 3,-0.795609 3,0 3,0.795609 2.683901,1.55874 2.12132,2.12132 1.55874,2.683901 0.795609,3 0,3 -0.795609,3 -1.55874,2.683901 -2.12132,2.12132 -2.683901,1.55874 -3,0.795609 -3,0 -3,-0.795609 -2.683901,-1.55874 -2.12132,-2.12132 -1.55874,-2.683901 -0.795609,-3 0,-3 Z"
                     style="fill:#2ca02c;fill-opacity:1;fill-rule:nonzero;stroke:#000000;stroke-width:1;stroke-linecap:butt;stroke-linejoin:round;stroke-miterlimit:10;stroke-dasharray:none;stroke-opacity:1"
                     id="path1242" /></g></g><g
                 id="g1244"
                 transform="translate(-59.790901,6.4419885)"><g
                   id="g1246"><g
                     id="g1248"
                     clip-path="url(#clipPath1252)"><path
                       d="m 0,-3 c 0.795609,0 1.55874,0.316099 2.12132,0.87868 C 2.683901,-1.55874 3,-0.795609 3,0 3,0.795609 2.683901,1.55874 2.12132,2.12132 1.55874,2.683901 0.795609,3 0,3 -0.795609,3 -1.55874,2.683901 -2.12132,2.12132 -2.683901,1.55874 -3,0.795609 -3,0 -3,-0.795609 -2.683901,-1.55874 -2.12132,-2.12132 -1.55874,-2.683901 -0.795609,-3 0,-3 Z"
                       style="fill:#2ca02c;fill-opacity:1;fill-rule:nonzero;stroke:#000000;stroke-width:1;stroke-linecap:butt;stroke-linejoin:round;stroke-miterlimit:10;stroke-dasharray:none;stroke-opacity:1"
                       id="path1254" /></g></g></g></g></g></g></g></g><g
       id="g1256"><path
         d="M 54.942545,28.732 V 221.99165"
         style="fill:none;stroke:#000000;stroke-width:0.8;stroke-linecap:square;stroke-linejoin:miter;stroke-miterlimit:10;stroke-dasharray:none;stroke-opacity:1"
         id="path1258" /><path
         d="M 419.43831,28.732 V 221.99165"
         style="fill:none;stroke:#000000;stroke-width:0.8;stroke-linecap:square;stroke-linejoin:miter;stroke-miterlimit:10;stroke-dasharray:none;stroke-opacity:1"
         id="path1260" /><path
         d="M 54.942545,28.732 H 419.43831"
         style="fill:none;stroke:#000000;stroke-width:0.8;stroke-linecap:square;stroke-linejoin:miter;stroke-miterlimit:10;stroke-dasharray:none;stroke-opacity:1"
         id="path1262" /><path
         d="M 54.942545,221.99165 H 419.43831"
         style="fill:none;stroke:#000000;stroke-width:0.8;stroke-linecap:square;stroke-linejoin:miter;stroke-miterlimit:10;stroke-dasharray:none;stroke-opacity:1"
         id="path1264" /></g></g></svg>
