<?xml version="1.0" encoding="utf-8" standalone="no"?>
<!DOCTYPE svg PUBLIC "-//W3C//DTD SVG 1.1//EN"
  "http://www.w3.org/Graphics/SVG/1.1/DTD/svg11.dtd">
<svg height="198.425197pt" version="1.1" viewBox="0 0 333.354331 198.425197" width="333.354331pt" xmlns="http://www.w3.org/2000/svg" xmlns:xlink="http://www.w3.org/1999/xlink">
 <metadata>
  <rdf:RDF xmlns:cc="http://creativecommons.org/ns#" xmlns:dc="http://purl.org/dc/elements/1.1/" xmlns:rdf="http://www.w3.org/1999/02/22-rdf-syntax-ns#">
   <cc:Work>
    <dc:type rdf:resource="http://purl.org/dc/dcmitype/StillImage"/>
    <dc:date>2021-11-15T20:31:56.486853</dc:date>
    <dc:format>image/svg+xml</dc:format>
    <dc:creator>
     <cc:Agent>
      <dc:title>Matplotlib v3.4.2, https://matplotlib.org/</dc:title>
     </cc:Agent>
    </dc:creator>
   </cc:Work>
  </rdf:RDF>
 </metadata>
 <defs>
  <style type="text/css">*{stroke-linecap:butt;stroke-linejoin:round;}</style>
 </defs>
 <g id="figure_1">
  <g id="patch_1">
   <path d="M 0 198.425197 
L 333.354331 198.425197 
L 333.354331 0 
L 0 0 
z
" style="fill:none;"/>
  </g>
  <g id="axes_1">
   <g id="patch_2">
    <path d="M 40.53659 153.026864 
L 313.579768 153.026864 
L 313.579768 23.832462 
L 40.53659 23.832462 
z
" style="fill:#ffffff;"/>
   </g>
   <g id="matplotlib.axis_1">
    <g id="xtick_1">
     <g id="line2d_1">
      <defs>
       <path d="M 0 0 
L 0 -3.5 
" id="m6d97ecbe97" style="stroke:#000000;stroke-width:0.8;"/>
      </defs>
      <g>
       <use style="stroke:#000000;stroke-width:0.8;" x="40.53659" xlink:href="#m6d97ecbe97" y="153.026864"/>
      </g>
     </g>
     <g id="text_1">
      <!-- $\mathdefault{−1.0}$ -->
      <g transform="translate(25.982935 166.489489)scale(0.144 -0.144)">
       <defs>
        <path d="M 4218 1472 
C 4326 1472 4442 1472 4442 1600 
C 4442 1728 4326 1728 4218 1728 
L 755 1728 
C 646 1728 531 1728 531 1600 
C 531 1472 646 1472 755 1472 
L 4218 1472 
z
" id="CMSY10-0" transform="scale(0.015625)"/>
        <path d="M 1702 4083 
C 1702 4217 1696 4224 1606 4224 
C 1357 3927 979 3833 621 3820 
C 602 3820 570 3820 563 3808 
C 557 3795 557 3782 557 3648 
C 755 3648 1088 3686 1344 3839 
L 1344 467 
C 1344 243 1331 166 781 166 
L 589 166 
L 589 0 
C 896 6 1216 12 1523 12 
C 1830 12 2150 6 2458 0 
L 2458 166 
L 2266 166 
C 1715 166 1702 236 1702 467 
L 1702 4083 
z
" id="CMR17-31" transform="scale(0.015625)"/>
        <path d="M 1178 307 
C 1178 492 1024 620 870 620 
C 685 620 557 467 557 313 
C 557 128 710 0 864 0 
C 1050 0 1178 153 1178 307 
z
" id="CMMI12-3a" transform="scale(0.015625)"/>
        <path d="M 2688 2038 
C 2688 2430 2682 3099 2413 3613 
C 2176 4063 1798 4224 1466 4224 
C 1158 4224 768 4082 525 3620 
C 269 3137 243 2539 243 2038 
C 243 1671 250 1112 448 623 
C 723 -39 1216 -128 1466 -128 
C 1760 -128 2208 -7 2470 604 
C 2662 1048 2688 1568 2688 2038 
z
M 1466 -26 
C 1056 -26 813 328 723 816 
C 653 1196 653 1749 653 2109 
C 653 2604 653 3015 736 3407 
C 858 3954 1216 4121 1466 4121 
C 1728 4121 2067 3947 2189 3420 
C 2272 3054 2278 2623 2278 2109 
C 2278 1691 2278 1176 2202 797 
C 2067 96 1690 -26 1466 -26 
z
" id="CMR17-30" transform="scale(0.015625)"/>
       </defs>
       <use transform="scale(0.996264)" xlink:href="#CMSY10-0"/>
       <use transform="translate(77.487468 0)scale(0.996264)" xlink:href="#CMR17-31"/>
       <use transform="translate(123.177945 0)scale(0.996264)" xlink:href="#CMMI12-3a"/>
       <use transform="translate(150.275122 0)scale(0.996264)" xlink:href="#CMR17-30"/>
      </g>
     </g>
    </g>
    <g id="xtick_2">
     <g id="line2d_2">
      <g>
       <use style="stroke:#000000;stroke-width:0.8;" x="108.797384" xlink:href="#m6d97ecbe97" y="153.026864"/>
      </g>
     </g>
     <g id="text_2">
      <!-- $\mathdefault{−0.5}$ -->
      <g transform="translate(94.24373 166.489489)scale(0.144 -0.144)">
       <defs>
        <path d="M 730 3750 
C 794 3724 1056 3641 1325 3641 
C 1920 3641 2246 3961 2432 4140 
C 2432 4191 2432 4224 2394 4224 
C 2387 4224 2374 4224 2323 4198 
C 2099 4102 1837 4032 1517 4032 
C 1325 4032 1037 4055 723 4191 
C 653 4224 640 4224 634 4224 
C 602 4224 595 4217 595 4090 
L 595 2231 
C 595 2113 595 2080 659 2080 
C 691 2080 704 2093 736 2139 
C 941 2435 1222 2560 1542 2560 
C 1766 2560 2246 2415 2246 1293 
C 2246 1087 2246 716 2054 422 
C 1894 159 1645 25 1370 25 
C 947 25 518 319 403 812 
C 429 806 480 793 506 793 
C 589 793 749 838 749 1036 
C 749 1209 627 1280 506 1280 
C 358 1280 262 1190 262 1011 
C 262 454 704 -128 1382 -128 
C 2042 -128 2669 441 2669 1267 
C 2669 2054 2170 2662 1549 2662 
C 1222 2662 947 2540 730 2304 
L 730 3750 
z
" id="CMR17-35" transform="scale(0.015625)"/>
       </defs>
       <use transform="scale(0.996264)" xlink:href="#CMSY10-0"/>
       <use transform="translate(77.487468 0)scale(0.996264)" xlink:href="#CMR17-30"/>
       <use transform="translate(123.177945 0)scale(0.996264)" xlink:href="#CMMI12-3a"/>
       <use transform="translate(150.275122 0)scale(0.996264)" xlink:href="#CMR17-35"/>
      </g>
     </g>
    </g>
    <g id="xtick_3">
     <g id="line2d_3">
      <g>
       <use style="stroke:#000000;stroke-width:0.8;" x="177.058179" xlink:href="#m6d97ecbe97" y="153.026864"/>
      </g>
     </g>
     <g id="text_3">
      <!-- $\mathdefault{0.0}$ -->
      <g transform="translate(168.083617 166.489489)scale(0.144 -0.144)">
       <use transform="scale(0.996264)" xlink:href="#CMR17-30"/>
       <use transform="translate(45.690477 0)scale(0.996264)" xlink:href="#CMMI12-3a"/>
       <use transform="translate(72.787654 0)scale(0.996264)" xlink:href="#CMR17-30"/>
      </g>
     </g>
    </g>
    <g id="xtick_4">
     <g id="line2d_4">
      <g>
       <use style="stroke:#000000;stroke-width:0.8;" x="245.318974" xlink:href="#m6d97ecbe97" y="153.026864"/>
      </g>
     </g>
     <g id="text_4">
      <!-- $\mathdefault{0.5}$ -->
      <g transform="translate(236.344411 166.489489)scale(0.144 -0.144)">
       <use transform="scale(0.996264)" xlink:href="#CMR17-30"/>
       <use transform="translate(45.690477 0)scale(0.996264)" xlink:href="#CMMI12-3a"/>
       <use transform="translate(72.787654 0)scale(0.996264)" xlink:href="#CMR17-35"/>
      </g>
     </g>
    </g>
    <g id="xtick_5">
     <g id="line2d_5">
      <g>
       <use style="stroke:#000000;stroke-width:0.8;" x="313.579768" xlink:href="#m6d97ecbe97" y="153.026864"/>
      </g>
     </g>
     <g id="text_5">
      <!-- $\mathdefault{1.0}$ -->
      <g transform="translate(304.605206 166.489489)scale(0.144 -0.144)">
       <use transform="scale(0.996264)" xlink:href="#CMR17-31"/>
       <use transform="translate(45.690477 0)scale(0.996264)" xlink:href="#CMMI12-3a"/>
       <use transform="translate(72.787654 0)scale(0.996264)" xlink:href="#CMR17-30"/>
      </g>
     </g>
    </g>
    <g id="text_6">
     <!-- $\Delta x$ (m) -->
     <g transform="translate(153.557006 184.038656)scale(0.144 -0.144)">
      <defs>
       <path d="M 2598 4435 
C 2547 4544 2522 4544 2470 4544 
C 2394 4544 2387 4531 2342 4441 
L 269 108 
C 262 96 237 38 237 32 
C 237 6 243 0 358 0 
L 4576 0 
C 4691 0 4698 6 4698 32 
C 4698 38 4672 96 4666 108 
L 2598 4435 
z
M 2310 4056 
L 4083 358 
L 531 358 
L 2310 4056 
z
" id="CMR17-1" transform="scale(0.015625)"/>
       <path d="M 3034 2624 
C 2829 2585 2752 2431 2752 2310 
C 2752 2156 2874 2105 2963 2105 
C 3155 2105 3290 2271 3290 2444 
C 3290 2694 2982 2816 2714 2816 
C 2323 2816 2106 2451 2048 2329 
C 1901 2790 1504 2816 1389 2816 
C 736 2816 390 1993 390 1849 
C 390 1823 416 1790 461 1790 
C 512 1790 525 1829 538 1855 
C 755 2572 1184 2687 1370 2687 
C 1658 2687 1715 2438 1715 2284 
C 1715 2143 1677 1993 1600 1678 
L 1382 778 
C 1286 390 1101 64 762 64 
C 730 64 570 64 435 126 
C 666 166 717 358 717 435 
C 717 563 621 640 499 640 
C 346 640 179 505 179 300 
C 179 57 480 -64 755 -64 
C 1062 -64 1280 153 1414 415 
C 1517 64 1837 -64 2074 -64 
C 2726 -64 3072 751 3072 896 
C 3072 929 3046 955 3008 955 
C 2950 955 2944 922 2925 870 
C 2752 300 2381 64 2093 64 
C 1869 64 1747 204 1747 467 
C 1747 607 1773 712 1875 1146 
L 2099 2039 
C 2195 2425 2413 2687 2707 2687 
C 2720 2687 2899 2687 3034 2624 
z
" id="CMMI12-78" transform="scale(0.015625)"/>
       <path d="M 1958 -1562 
C 1958 -1556 1958 -1543 1939 -1524 
C 1645 -1223 858 -403 858 1596 
C 858 3595 1632 4408 1946 4729 
C 1946 4735 1958 4748 1958 4767 
C 1958 4787 1939 4800 1914 4800 
C 1843 4800 1299 4325 986 3620 
C 666 2909 576 2218 576 1603 
C 576 1141 621 360 1005 -467 
C 1312 -1133 1837 -1600 1914 -1600 
C 1946 -1600 1958 -1588 1958 -1562 
z
" id="CMR17-28" transform="scale(0.015625)"/>
       <path d="M 4326 1954 
C 4326 2276 4269 2816 3507 2816 
C 3072 2816 2771 2520 2656 2173 
L 2650 2173 
C 2573 2700 2195 2816 1837 2816 
C 1331 2816 1069 2424 973 2166 
L 966 2166 
L 966 2816 
L 211 2745 
L 211 2578 
C 589 2578 646 2540 646 2231 
L 646 443 
C 646 198 621 166 211 166 
L 211 0 
C 365 12 646 12 813 12 
C 979 12 1267 12 1421 0 
L 1421 166 
C 1011 166 986 192 986 443 
L 986 1678 
C 986 2269 1344 2713 1792 2713 
C 2266 2713 2317 2289 2317 1980 
L 2317 443 
C 2317 198 2291 166 1882 166 
L 1882 0 
C 2035 12 2317 12 2483 12 
C 2650 12 2938 12 3091 0 
L 3091 166 
C 2682 166 2656 192 2656 443 
L 2656 1678 
C 2656 2269 3014 2713 3462 2713 
C 3936 2713 3987 2289 3987 1980 
L 3987 443 
C 3987 198 3962 166 3552 166 
L 3552 0 
C 3706 12 3987 12 4154 12 
C 4320 12 4608 12 4762 0 
L 4762 166 
C 4352 166 4326 192 4326 443 
L 4326 1954 
z
" id="CMR17-6d" transform="scale(0.015625)"/>
       <path d="M 1683 1596 
C 1683 2057 1638 2839 1254 3665 
C 947 4332 422 4800 346 4800 
C 326 4800 301 4793 301 4761 
C 301 4748 307 4742 314 4729 
C 621 4408 1402 3595 1402 1603 
C 1402 -396 627 -1210 314 -1530 
C 307 -1543 301 -1549 301 -1562 
C 301 -1594 326 -1600 346 -1600 
C 416 -1600 960 -1127 1274 -422 
C 1594 289 1683 981 1683 1596 
z
" id="CMR17-29" transform="scale(0.015625)"/>
      </defs>
      <use transform="scale(0.996264)" xlink:href="#CMR17-1"/>
      <use transform="translate(76.91959 0)scale(0.996264)" xlink:href="#CMMI12-78"/>
      <use transform="translate(162.429616 0)scale(0.996264)" xlink:href="#CMR17-28"/>
      <use transform="translate(197.710384 0)scale(0.996264)" xlink:href="#CMR17-6d"/>
      <use transform="translate(274.629973 0)scale(0.996264)" xlink:href="#CMR17-29"/>
     </g>
    </g>
    <g id="text_7">
     <!-- $\times\mathdefault{10^{−6}}\mathdefault{}$ -->
     <g transform="translate(275.644359 182.311478)scale(0.144 -0.144)">
      <defs>
       <path d="M 2490 1775 
L 1210 3046 
C 1133 3123 1120 3136 1069 3136 
C 1005 3136 941 3078 941 3008 
C 941 2963 954 2950 1024 2880 
L 2304 1596 
L 1024 313 
C 954 243 941 230 941 185 
C 941 115 1005 57 1069 57 
C 1120 57 1133 70 1210 147 
L 2483 1418 
L 3808 95 
C 3821 89 3866 57 3904 57 
C 3981 57 4032 115 4032 185 
C 4032 198 4032 223 4013 255 
C 4006 268 2989 1271 2669 1596 
L 3840 2765 
C 3872 2803 3968 2886 4000 2925 
C 4006 2937 4032 2963 4032 3008 
C 4032 3078 3981 3136 3904 3136 
C 3853 3136 3827 3110 3757 3040 
L 2490 1775 
z
" id="CMSY10-2" transform="scale(0.015625)"/>
       <path d="M 678 2198 
C 678 3712 1395 4076 1811 4076 
C 1946 4076 2272 4049 2400 3782 
C 2298 3782 2106 3782 2106 3558 
C 2106 3385 2246 3328 2336 3328 
C 2394 3328 2566 3353 2566 3571 
C 2566 3987 2246 4224 1805 4224 
C 1043 4224 243 3411 243 2011 
C 243 257 966 -128 1478 -128 
C 2099 -128 2688 431 2688 1295 
C 2688 2101 2170 2688 1517 2688 
C 1126 2688 838 2430 678 1979 
L 678 2198 
z
M 1478 25 
C 691 25 691 1212 691 1450 
C 691 1914 909 2585 1504 2585 
C 1613 2585 1926 2585 2138 2140 
C 2253 1889 2253 1624 2253 1302 
C 2253 954 2253 696 2118 438 
C 1978 173 1773 25 1478 25 
z
" id="CMR17-36" transform="scale(0.015625)"/>
      </defs>
      <use transform="scale(0.996264)" xlink:href="#CMSY10-2"/>
      <use transform="translate(77.487468 0)scale(0.996264)" xlink:href="#CMR17-31"/>
      <use transform="translate(123.177945 0)scale(0.996264)" xlink:href="#CMR17-30"/>
      <use transform="translate(168.868422 36.153639)scale(0.697382)" xlink:href="#CMSY10-0"/>
      <use transform="translate(223.109415 36.153639)scale(0.697382)" xlink:href="#CMR17-36"/>
     </g>
    </g>
   </g>
   <g id="matplotlib.axis_2">
    <g id="ytick_1">
     <g id="line2d_6">
      <defs>
       <path d="M 0 0 
L 3.5 0 
" id="maf20b4e3e0" style="stroke:#000000;stroke-width:0.8;"/>
      </defs>
      <g>
       <use style="stroke:#000000;stroke-width:0.8;" x="40.53659" xlink:href="#maf20b4e3e0" y="147.154392"/>
      </g>
     </g>
     <g id="text_8">
      <!-- $\mathdefault{0}$ -->
      <g transform="translate(30.013016 152.135704)scale(0.144 -0.144)">
       <use transform="scale(0.996264)" xlink:href="#CMR17-30"/>
      </g>
     </g>
    </g>
    <g id="ytick_2">
     <g id="line2d_7">
      <g>
       <use style="stroke:#000000;stroke-width:0.8;" x="40.53659" xlink:href="#maf20b4e3e0" y="92.894002"/>
      </g>
     </g>
     <g id="text_9">
      <!-- $\mathdefault{2}$ -->
      <g transform="translate(30.013016 97.875315)scale(0.144 -0.144)">
       <defs>
        <path d="M 2669 990 
L 2554 990 
C 2490 537 2438 460 2413 422 
C 2381 371 1920 371 1830 371 
L 602 371 
C 832 620 1280 1073 1824 1596 
C 2214 1966 2669 2400 2669 3033 
C 2669 3788 2067 4224 1395 4224 
C 691 4224 262 3603 262 3027 
C 262 2777 448 2745 525 2745 
C 589 2745 781 2783 781 3007 
C 781 3206 614 3264 525 3264 
C 486 3264 448 3257 422 3244 
C 544 3788 915 4057 1306 4057 
C 1862 4057 2227 3616 2227 3033 
C 2227 2477 1901 1998 1536 1583 
L 262 147 
L 262 0 
L 2515 0 
L 2669 990 
z
" id="CMR17-32" transform="scale(0.015625)"/>
       </defs>
       <use transform="scale(0.996264)" xlink:href="#CMR17-32"/>
      </g>
     </g>
    </g>
    <g id="ytick_3">
     <g id="line2d_8">
      <g>
       <use style="stroke:#000000;stroke-width:0.8;" x="40.53659" xlink:href="#maf20b4e3e0" y="38.633613"/>
      </g>
     </g>
     <g id="text_10">
      <!-- $\mathdefault{4}$ -->
      <g transform="translate(30.013016 43.614925)scale(0.144 -0.144)">
       <defs>
        <path d="M 2150 4147 
C 2150 4281 2144 4288 2029 4288 
L 128 1254 
L 128 1088 
L 1779 1088 
L 1779 460 
C 1779 230 1766 166 1318 166 
L 1197 166 
L 1197 0 
C 1402 12 1747 12 1965 12 
C 2182 12 2528 12 2733 0 
L 2733 166 
L 2611 166 
C 2163 166 2150 230 2150 460 
L 2150 1088 
L 2803 1088 
L 2803 1254 
L 2150 1254 
L 2150 4147 
z
M 1798 3723 
L 1798 1254 
L 256 1254 
L 1798 3723 
z
" id="CMR17-34" transform="scale(0.015625)"/>
       </defs>
       <use transform="scale(0.996264)" xlink:href="#CMR17-34"/>
      </g>
     </g>
    </g>
    <g id="text_11">
     <!-- $P_x$ ($\mathrm{m^{-1}}$) -->
     <g transform="translate(22.426475 116.323892)rotate(-90)scale(0.144 -0.144)">
      <defs>
       <path d="M 1894 2022 
L 2970 2022 
C 3853 2022 4736 2673 4736 3400 
C 4736 3898 4314 4352 3507 4352 
L 1530 4352 
C 1408 4352 1350 4352 1350 4230 
C 1350 4166 1408 4166 1504 4166 
C 1894 4166 1894 4115 1894 4045 
C 1894 4032 1894 3994 1869 3898 
L 1005 471 
C 947 249 934 185 486 185 
C 365 185 301 185 301 70 
C 301 0 358 0 397 0 
C 518 0 646 12 768 12 
L 1517 12 
C 1638 12 1773 0 1894 0 
C 1946 0 2016 0 2016 121 
C 2016 185 1958 185 1862 185 
C 1478 185 1472 230 1472 293 
C 1472 325 1478 369 1485 401 
L 1894 2022 
z
M 2355 3917 
C 2413 4153 2438 4166 2688 4166 
L 3322 4166 
C 3802 4166 4198 4013 4198 3534 
C 4198 3369 4115 2826 3821 2533 
C 3712 2418 3405 2176 2822 2176 
L 1920 2176 
L 2355 3917 
z
" id="CMMI12-50" transform="scale(0.015625)"/>
      </defs>
      <use transform="scale(0.996264)" xlink:href="#CMMI12-50"/>
      <use transform="translate(62.877232 -14.943915)scale(0.697382)" xlink:href="#CMMI12-78"/>
      <use transform="translate(132.25499 0)scale(0.996264)" xlink:href="#CMR17-28"/>
      <use transform="translate(167.535758 0)scale(0.996264)" xlink:href="#CMR17-6d"/>
      <use transform="translate(244.455348 36.153639)scale(0.697382)" xlink:href="#CMSY10-0"/>
      <use transform="translate(298.696341 36.153639)scale(0.697382)" xlink:href="#CMR17-31"/>
      <use transform="translate(331.177655 0)scale(0.996264)" xlink:href="#CMR17-29"/>
     </g>
    </g>
    <g id="text_12">
     <!-- $\times\mathdefault{10^{6}}\mathdefault{}$ -->
     <g transform="translate(40.53659 20.832462)scale(0.144 -0.144)">
      <use transform="scale(0.996264)" xlink:href="#CMSY10-2"/>
      <use transform="translate(77.487468 0)scale(0.996264)" xlink:href="#CMR17-31"/>
      <use transform="translate(123.177945 0)scale(0.996264)" xlink:href="#CMR17-30"/>
      <use transform="translate(168.868422 36.153639)scale(0.697382)" xlink:href="#CMR17-36"/>
     </g>
    </g>
   </g>
   <g id="line2d_9">
    <defs>
     <path d="M 0 3 
C 0.795609 3 1.55874 2.683901 2.12132 2.12132 
C 2.683901 1.55874 3 0.795609 3 0 
C 3 -0.795609 2.683901 -1.55874 2.12132 -2.12132 
C 1.55874 -2.683901 0.795609 -3 0 -3 
C -0.795609 -3 -1.55874 -2.683901 -2.12132 -2.12132 
C -2.683901 -1.55874 -3 -0.795609 -3 0 
C -3 0.795609 -2.683901 1.55874 -2.12132 2.12132 
C -1.55874 2.683901 -0.795609 3 0 3 
z
" id="m222e5f0213" style="stroke:#000000;stroke-width:1.5;"/>
    </defs>
    <g clip-path="url(#pa677dd5098)">
     <use style="fill:#1f77b4;stroke:#000000;stroke-width:1.5;" x="124.003169" xlink:href="#m222e5f0213" y="147.147366"/>
     <use style="fill:#1f77b4;stroke:#000000;stroke-width:1.5;" x="129.275014" xlink:href="#m222e5f0213" y="147.00685"/>
     <use style="fill:#1f77b4;stroke:#000000;stroke-width:1.5;" x="134.54686" xlink:href="#m222e5f0213" y="146.669611"/>
     <use style="fill:#1f77b4;stroke:#000000;stroke-width:1.5;" x="139.818706" xlink:href="#m222e5f0213" y="145.56656"/>
     <use style="fill:#1f77b4;stroke:#000000;stroke-width:1.5;" x="145.090552" xlink:href="#m222e5f0213" y="141.997453"/>
     <use style="fill:#1f77b4;stroke:#000000;stroke-width:1.5;" x="150.362398" xlink:href="#m222e5f0213" y="134.395536"/>
     <use style="fill:#1f77b4;stroke:#000000;stroke-width:1.5;" x="155.634243" xlink:href="#m222e5f0213" y="119.44463"/>
     <use style="fill:#1f77b4;stroke:#000000;stroke-width:1.5;" x="160.906089" xlink:href="#m222e5f0213" y="94.945659"/>
     <use style="fill:#1f77b4;stroke:#000000;stroke-width:1.5;" x="166.177935" xlink:href="#m222e5f0213" y="67.453697"/>
     <use style="fill:#1f77b4;stroke:#000000;stroke-width:1.5;" x="171.449781" xlink:href="#m222e5f0213" y="41.078837"/>
     <use style="fill:#1f77b4;stroke:#000000;stroke-width:1.5;" x="176.721627" xlink:href="#m222e5f0213" y="31.460515"/>
     <use style="fill:#1f77b4;stroke:#000000;stroke-width:1.5;" x="181.993472" xlink:href="#m222e5f0213" y="39.160793"/>
     <use style="fill:#1f77b4;stroke:#000000;stroke-width:1.5;" x="187.265318" xlink:href="#m222e5f0213" y="62.908003"/>
     <use style="fill:#1f77b4;stroke:#000000;stroke-width:1.5;" x="192.537164" xlink:href="#m222e5f0213" y="91.671635"/>
     <use style="fill:#1f77b4;stroke:#000000;stroke-width:1.5;" x="197.80901" xlink:href="#m222e5f0213" y="116.51487"/>
     <use style="fill:#1f77b4;stroke:#000000;stroke-width:1.5;" x="203.080856" xlink:href="#m222e5f0213" y="132.76555"/>
     <use style="fill:#1f77b4;stroke:#000000;stroke-width:1.5;" x="208.352701" xlink:href="#m222e5f0213" y="141.330002"/>
     <use style="fill:#1f77b4;stroke:#000000;stroke-width:1.5;" x="213.624547" xlink:href="#m222e5f0213" y="145.29958"/>
     <use style="fill:#1f77b4;stroke:#000000;stroke-width:1.5;" x="218.896393" xlink:href="#m222e5f0213" y="146.683663"/>
     <use style="fill:#1f77b4;stroke:#000000;stroke-width:1.5;" x="224.168239" xlink:href="#m222e5f0213" y="147.049005"/>
     <use style="fill:#1f77b4;stroke:#000000;stroke-width:1.5;" x="229.440085" xlink:href="#m222e5f0213" y="147.119263"/>
    </g>
   </g>
   <g id="line2d_10">
    <path clip-path="url(#pa677dd5098)" d="M -1 147.154392 
L 129.774425 147.054106 
L 134.147489 146.805562 
L 136.880654 146.439379 
L 139.067186 145.927207 
L 140.707085 145.350361 
L 142.346984 144.547063 
L 143.986883 143.449589 
L 145.626782 141.978894 
L 146.720048 140.747578 
L 147.813314 139.283008 
L 148.90658 137.556432 
L 149.999846 135.539217 
L 151.639745 131.90881 
L 153.279644 127.480973 
L 154.919543 122.195041 
L 156.559442 116.022583 
L 158.199341 108.978163 
L 160.385873 98.353524 
L 163.119038 83.582561 
L 168.038735 56.310673 
L 169.678634 48.251987 
L 171.318533 41.29329 
L 172.411799 37.425383 
L 173.505065 34.272199 
L 174.598331 31.902422 
L 175.144964 31.028404 
L 175.691597 30.368544 
L 176.23823 29.926556 
L 176.784863 29.704935 
L 177.331496 29.704935 
L 177.878129 29.926556 
L 178.424762 30.368544 
L 178.971394 31.028404 
L 180.06466 32.985698 
L 181.157926 35.754805 
L 182.251192 39.274857 
L 183.344458 43.469975 
L 184.984357 50.832915 
L 187.170889 62.121762 
L 194.823751 103.82817 
L 197.010283 113.769177 
L 198.650182 120.236322 
L 200.290081 125.816513 
L 201.92998 130.525006 
L 203.569879 134.412944 
L 205.209778 137.556432 
L 206.849677 140.04624 
L 208.489576 141.978894 
L 210.129475 143.449589 
L 211.769374 144.547063 
L 213.409273 145.350361 
L 215.049172 145.927207 
L 217.235704 146.439379 
L 219.968869 146.805562 
L 223.7953 147.036419 
L 230.354896 147.139562 
L 257.686545 147.154391 
L 334.354331 147.154392 
L 334.354331 147.154392 
" style="fill:none;stroke:#1f77b4;stroke-linecap:square;stroke-width:1.5;"/>
   </g>
   <g id="line2d_11">
    <defs>
     <path d="M 0 3 
C 0.795609 3 1.55874 2.683901 2.12132 2.12132 
C 2.683901 1.55874 3 0.795609 3 0 
C 3 -0.795609 2.683901 -1.55874 2.12132 -2.12132 
C 1.55874 -2.683901 0.795609 -3 0 -3 
C -0.795609 -3 -1.55874 -2.683901 -2.12132 -2.12132 
C -2.683901 -1.55874 -3 -0.795609 -3 0 
C -3 0.795609 -2.683901 1.55874 -2.12132 2.12132 
C -1.55874 2.683901 -0.795609 3 0 3 
z
" id="m7a0c49ed5d" style="stroke:#000000;stroke-width:1.5;"/>
    </defs>
    <g clip-path="url(#pa677dd5098)">
     <use style="fill:#ff7f0e;stroke:#000000;stroke-width:1.5;" x="99.321657" xlink:href="#m7a0c49ed5d" y="147.122102"/>
     <use style="fill:#ff7f0e;stroke:#000000;stroke-width:1.5;" x="107.351584" xlink:href="#m7a0c49ed5d" y="146.992945"/>
     <use style="fill:#ff7f0e;stroke:#000000;stroke-width:1.5;" x="115.381511" xlink:href="#m7a0c49ed5d" y="146.471704"/>
     <use style="fill:#ff7f0e;stroke:#000000;stroke-width:1.5;" x="123.411438" xlink:href="#m7a0c49ed5d" y="145.023301"/>
     <use style="fill:#ff7f0e;stroke:#000000;stroke-width:1.5;" x="131.441365" xlink:href="#m7a0c49ed5d" y="141.660605"/>
     <use style="fill:#ff7f0e;stroke:#000000;stroke-width:1.5;" x="139.471292" xlink:href="#m7a0c49ed5d" y="134.354007"/>
     <use style="fill:#ff7f0e;stroke:#000000;stroke-width:1.5;" x="147.50122" xlink:href="#m7a0c49ed5d" y="122.573041"/>
     <use style="fill:#ff7f0e;stroke:#000000;stroke-width:1.5;" x="155.531147" xlink:href="#m7a0c49ed5d" y="105.547377"/>
     <use style="fill:#ff7f0e;stroke:#000000;stroke-width:1.5;" x="163.561074" xlink:href="#m7a0c49ed5d" y="87.940507"/>
     <use style="fill:#ff7f0e;stroke:#000000;stroke-width:1.5;" x="171.591001" xlink:href="#m7a0c49ed5d" y="76.422467"/>
     <use style="fill:#ff7f0e;stroke:#000000;stroke-width:1.5;" x="179.620928" xlink:href="#m7a0c49ed5d" y="74.904872"/>
     <use style="fill:#ff7f0e;stroke:#000000;stroke-width:1.5;" x="187.650855" xlink:href="#m7a0c49ed5d" y="82.981799"/>
     <use style="fill:#ff7f0e;stroke:#000000;stroke-width:1.5;" x="195.680782" xlink:href="#m7a0c49ed5d" y="99.509286"/>
     <use style="fill:#ff7f0e;stroke:#000000;stroke-width:1.5;" x="203.710709" xlink:href="#m7a0c49ed5d" y="116.585691"/>
     <use style="fill:#ff7f0e;stroke:#000000;stroke-width:1.5;" x="211.740636" xlink:href="#m7a0c49ed5d" y="130.294787"/>
     <use style="fill:#ff7f0e;stroke:#000000;stroke-width:1.5;" x="219.770564" xlink:href="#m7a0c49ed5d" y="139.464936"/>
     <use style="fill:#ff7f0e;stroke:#000000;stroke-width:1.5;" x="227.800491" xlink:href="#m7a0c49ed5d" y="143.99927"/>
     <use style="fill:#ff7f0e;stroke:#000000;stroke-width:1.5;" x="235.830418" xlink:href="#m7a0c49ed5d" y="146.051944"/>
     <use style="fill:#ff7f0e;stroke:#000000;stroke-width:1.5;" x="243.860345" xlink:href="#m7a0c49ed5d" y="146.845337"/>
     <use style="fill:#ff7f0e;stroke:#000000;stroke-width:1.5;" x="251.890272" xlink:href="#m7a0c49ed5d" y="147.099039"/>
     <use style="fill:#ff7f0e;stroke:#000000;stroke-width:1.5;" x="259.920199" xlink:href="#m7a0c49ed5d" y="147.140553"/>
    </g>
   </g>
   <g id="line2d_12">
    <path clip-path="url(#pa677dd5098)" d="M -1 147.154392 
L 105.175941 147.046214 
L 111.735537 146.816899 
L 116.108601 146.476072 
L 119.935031 145.953559 
L 123.214829 145.252003 
L 125.947994 144.420443 
L 128.134526 143.549625 
L 130.321058 142.45854 
L 132.50759 141.110707 
L 134.694122 139.469467 
L 136.880654 137.499939 
L 139.067186 135.171379 
L 141.253718 132.459895 
L 143.44025 129.351371 
L 145.626782 125.844415 
L 147.813314 121.953115 
L 150.546479 116.598875 
L 153.826277 109.599836 
L 164.212304 86.844963 
L 166.398836 82.79642 
L 168.038735 80.116541 
L 169.678634 77.79826 
L 171.318533 75.886044 
L 172.958432 74.417363 
L 174.051698 73.699464 
L 175.144964 73.19831 
L 176.23823 72.918416 
L 177.331496 72.86231 
L 178.424762 73.0305 
L 179.518027 73.421466 
L 180.611293 74.031678 
L 181.704559 74.855656 
L 182.797825 75.886044 
L 184.437724 77.79826 
L 186.077623 80.116541 
L 187.717522 82.79642 
L 189.904054 86.844963 
L 192.637219 92.486615 
L 196.46365 100.9976 
L 201.92998 113.164279 
L 205.209778 119.872549 
L 207.942943 124.906697 
L 210.129475 128.511719 
L 212.316007 131.720281 
L 214.502539 134.530148 
L 216.689071 136.95253 
L 218.875603 139.009154 
L 221.062135 140.729313 
L 223.248667 142.147094 
L 225.435199 143.29891 
L 227.621731 144.221445 
L 230.354896 145.105808 
L 233.088061 145.750283 
L 236.367859 146.284011 
L 240.194289 146.673027 
L 245.113986 146.941519 
L 252.766848 147.101416 
L 269.165838 147.152758 
L 334.354331 147.154392 
L 334.354331 147.154392 
" style="fill:none;stroke:#ff7f0e;stroke-linecap:square;stroke-width:1.5;"/>
   </g>
   <g id="line2d_13">
    <defs>
     <path d="M 0 3 
C 0.795609 3 1.55874 2.683901 2.12132 2.12132 
C 2.683901 1.55874 3 0.795609 3 0 
C 3 -0.795609 2.683901 -1.55874 2.12132 -2.12132 
C 1.55874 -2.683901 0.795609 -3 0 -3 
C -0.795609 -3 -1.55874 -2.683901 -2.12132 -2.12132 
C -2.683901 -1.55874 -3 -0.795609 -3 0 
C -3 0.795609 -2.683901 1.55874 -2.12132 2.12132 
C -1.55874 2.683901 -0.795609 3 0 3 
z
" id="me7b036ef56" style="stroke:#000000;stroke-width:1.5;"/>
    </defs>
    <g clip-path="url(#pa677dd5098)">
     <use style="fill:#2ca02c;stroke:#000000;stroke-width:1.5;" x="70.716786" xlink:href="#me7b036ef56" y="147.098754"/>
     <use style="fill:#2ca02c;stroke:#000000;stroke-width:1.5;" x="82.034835" xlink:href="#me7b036ef56" y="147.007115"/>
     <use style="fill:#2ca02c;stroke:#000000;stroke-width:1.5;" x="93.352884" xlink:href="#me7b036ef56" y="146.437645"/>
     <use style="fill:#2ca02c;stroke:#000000;stroke-width:1.5;" x="104.670933" xlink:href="#me7b036ef56" y="145.1547"/>
     <use style="fill:#2ca02c;stroke:#000000;stroke-width:1.5;" x="115.988981" xlink:href="#me7b036ef56" y="142.058615"/>
     <use style="fill:#2ca02c;stroke:#000000;stroke-width:1.5;" x="127.30703" xlink:href="#me7b036ef56" y="136.439188"/>
     <use style="fill:#2ca02c;stroke:#000000;stroke-width:1.5;" x="138.625079" xlink:href="#me7b036ef56" y="126.087266"/>
     <use style="fill:#2ca02c;stroke:#000000;stroke-width:1.5;" x="149.943128" xlink:href="#me7b036ef56" y="113.918932"/>
     <use style="fill:#2ca02c;stroke:#000000;stroke-width:1.5;" x="161.261177" xlink:href="#me7b036ef56" y="102.270975"/>
     <use style="fill:#2ca02c;stroke:#000000;stroke-width:1.5;" x="172.579226" xlink:href="#me7b036ef56" y="95.561699"/>
     <use style="fill:#2ca02c;stroke:#000000;stroke-width:1.5;" x="183.897275" xlink:href="#me7b036ef56" y="96.671184"/>
     <use style="fill:#2ca02c;stroke:#000000;stroke-width:1.5;" x="195.215324" xlink:href="#me7b036ef56" y="105.615794"/>
     <use style="fill:#2ca02c;stroke:#000000;stroke-width:1.5;" x="206.533373" xlink:href="#me7b036ef56" y="117.073927"/>
     <use style="fill:#2ca02c;stroke:#000000;stroke-width:1.5;" x="217.851422" xlink:href="#me7b036ef56" y="128.57788"/>
     <use style="fill:#2ca02c;stroke:#000000;stroke-width:1.5;" x="229.169471" xlink:href="#me7b036ef56" y="136.894109"/>
     <use style="fill:#2ca02c;stroke:#000000;stroke-width:1.5;" x="240.48752" xlink:href="#me7b036ef56" y="142.844091"/>
     <use style="fill:#2ca02c;stroke:#000000;stroke-width:1.5;" x="251.805569" xlink:href="#me7b036ef56" y="145.501619"/>
     <use style="fill:#2ca02c;stroke:#000000;stroke-width:1.5;" x="263.123618" xlink:href="#me7b036ef56" y="146.542375"/>
     <use style="fill:#2ca02c;stroke:#000000;stroke-width:1.5;" x="274.441667" xlink:href="#me7b036ef56" y="146.980932"/>
     <use style="fill:#2ca02c;stroke:#000000;stroke-width:1.5;" x="285.759715" xlink:href="#me7b036ef56" y="147.102027"/>
     <use style="fill:#2ca02c;stroke:#000000;stroke-width:1.5;" x="297.077764" xlink:href="#me7b036ef56" y="147.151119"/>
    </g>
   </g>
   <g id="line2d_14">
    <path clip-path="url(#pa677dd5098)" d="M -1 147.154391 
L 77.844291 147.050081 
L 87.683685 146.817326 
L 94.243281 146.466097 
L 99.709611 145.957341 
L 104.082675 145.340669 
L 107.909106 144.596635 
L 111.735537 143.613531 
L 115.015335 142.543531 
L 118.295133 141.23129 
L 121.57493 139.648358 
L 124.308095 138.105054 
L 127.04126 136.346979 
L 130.321058 133.946486 
L 133.600856 131.230829 
L 136.880654 128.216109 
L 140.707085 124.365321 
L 145.080149 119.627753 
L 157.652708 105.745407 
L 160.932506 102.58005 
L 163.665671 100.247991 
L 165.852203 98.62589 
L 168.038735 97.250224 
L 170.225267 96.144794 
L 172.411799 95.329056 
L 174.051698 94.916307 
L 175.691597 94.678977 
L 177.331496 94.619476 
L 178.971394 94.738411 
L 180.611293 95.03457 
L 182.797825 95.699684 
L 184.984357 96.662405 
L 187.170889 97.905671 
L 189.357421 99.407775 
L 192.090586 101.609889 
L 194.823751 104.118778 
L 198.103549 107.445781 
L 202.476613 112.231787 
L 213.409273 124.365321 
L 217.235704 128.216109 
L 220.515502 131.230829 
L 223.7953 133.946486 
L 227.075098 136.346979 
L 230.354896 138.430633 
L 233.634694 140.207675 
L 236.914492 141.697445 
L 240.194289 142.925624 
L 243.474087 143.921642 
L 247.300518 144.831518 
L 251.126949 145.515914 
L 255.500013 146.079518 
L 260.966343 146.540999 
L 267.525939 146.856718 
L 276.8187 147.057011 
L 293.21769 147.144005 
L 334.354331 147.154383 
L 334.354331 147.154383 
" style="fill:none;stroke:#2ca02c;stroke-linecap:square;stroke-width:1.5;"/>
   </g>
   <g id="line2d_15">
    <defs>
     <path d="M 0 3 
C 0.795609 3 1.55874 2.683901 2.12132 2.12132 
C 2.683901 1.55874 3 0.795609 3 0 
C 3 -0.795609 2.683901 -1.55874 2.12132 -2.12132 
C 1.55874 -2.683901 0.795609 -3 0 -3 
C -0.795609 -3 -1.55874 -2.683901 -2.12132 -2.12132 
C -2.683901 -1.55874 -3 -0.795609 -3 0 
C -3 0.795609 -2.683901 1.55874 -2.12132 2.12132 
C -1.55874 2.683901 -0.795609 3 0 3 
z
" id="m643d535b83" style="stroke:#000000;stroke-width:1.5;"/>
    </defs>
    <g clip-path="url(#pa677dd5098)">
     <use style="fill:#d62728;stroke:#000000;stroke-width:1.5;" x="25.807016" xlink:href="#m643d535b83" y="147.117123"/>
     <use style="fill:#d62728;stroke:#000000;stroke-width:1.5;" x="41.711113" xlink:href="#m643d535b83" y="147.05656"/>
     <use style="fill:#d62728;stroke:#000000;stroke-width:1.5;" x="57.615211" xlink:href="#m643d535b83" y="146.737445"/>
     <use style="fill:#d62728;stroke:#000000;stroke-width:1.5;" x="73.519308" xlink:href="#m643d535b83" y="145.819696"/>
     <use style="fill:#d62728;stroke:#000000;stroke-width:1.5;" x="89.423406" xlink:href="#m643d535b83" y="143.655764"/>
     <use style="fill:#d62728;stroke:#000000;stroke-width:1.5;" x="105.327504" xlink:href="#m643d535b83" y="139.442038"/>
     <use style="fill:#d62728;stroke:#000000;stroke-width:1.5;" x="121.231601" xlink:href="#m643d535b83" y="133.416107"/>
     <use style="fill:#d62728;stroke:#000000;stroke-width:1.5;" x="137.135699" xlink:href="#m643d535b83" y="125.084157"/>
     <use style="fill:#d62728;stroke:#000000;stroke-width:1.5;" x="153.039797" xlink:href="#m643d535b83" y="116.093011"/>
     <use style="fill:#d62728;stroke:#000000;stroke-width:1.5;" x="168.943894" xlink:href="#m643d535b83" y="111.324908"/>
     <use style="fill:#d62728;stroke:#000000;stroke-width:1.5;" x="184.847992" xlink:href="#m643d535b83" y="110.914949"/>
     <use style="fill:#d62728;stroke:#000000;stroke-width:1.5;" x="200.752089" xlink:href="#m643d535b83" y="116.87566"/>
     <use style="fill:#d62728;stroke:#000000;stroke-width:1.5;" x="216.656187" xlink:href="#m643d535b83" y="124.001026"/>
     <use style="fill:#d62728;stroke:#000000;stroke-width:1.5;" x="232.560285" xlink:href="#m643d535b83" y="132.96655"/>
     <use style="fill:#d62728;stroke:#000000;stroke-width:1.5;" x="248.464382" xlink:href="#m643d535b83" y="139.581797"/>
     <use style="fill:#d62728;stroke:#000000;stroke-width:1.5;" x="264.36848" xlink:href="#m643d535b83" y="143.695363"/>
     <use style="fill:#d62728;stroke:#000000;stroke-width:1.5;" x="280.272578" xlink:href="#m643d535b83" y="145.742828"/>
     <use style="fill:#d62728;stroke:#000000;stroke-width:1.5;" x="296.176675" xlink:href="#m643d535b83" y="146.646601"/>
     <use style="fill:#d62728;stroke:#000000;stroke-width:1.5;" x="312.080773" xlink:href="#m643d535b83" y="146.935436"/>
     <use style="fill:#d62728;stroke:#000000;stroke-width:1.5;" x="327.98487" xlink:href="#m643d535b83" y="147.105476"/>
     <use style="fill:#d62728;stroke:#000000;stroke-width:1.5;" x="343.888968" xlink:href="#m643d535b83" y="147.142745"/>
    </g>
   </g>
   <g id="line2d_16">
    <path clip-path="url(#pa677dd5098)" d="M -1 147.152738 
L 42.313147 147.034747 
L 56.525605 146.777794 
L 66.364998 146.381439 
L 74.01786 145.858229 
L 80.577456 145.194204 
L 86.590419 144.358054 
L 92.056749 143.367854 
L 96.976446 142.259801 
L 101.896143 140.923556 
L 106.81584 139.342934 
L 111.735537 137.510025 
L 116.655234 135.427816 
L 121.57493 133.112535 
L 127.04126 130.305158 
L 134.147489 126.394768 
L 147.813314 118.803724 
L 152.733011 116.341177 
L 157.106075 114.396676 
L 160.932506 112.935831 
L 164.212304 111.892633 
L 167.492102 111.063864 
L 170.7719 110.465927 
L 174.051698 110.110816 
L 177.331496 110.00572 
L 180.611293 110.152772 
L 183.891091 110.548986 
L 187.170889 111.186353 
L 190.450687 112.052112 
L 193.730485 113.129171 
L 197.556916 114.624799 
L 201.92998 116.601958 
L 206.849677 119.091407 
L 213.409273 122.687287 
L 228.168364 130.883729 
L 234.181327 133.908588 
L 239.101023 136.148879 
L 244.02072 138.149094 
L 248.940417 139.897649 
L 253.860114 141.395469 
L 258.779811 142.653521 
L 263.699508 143.690153 
L 269.165838 144.610525 
L 275.178801 145.382262 
L 281.738397 145.990522 
L 289.391259 146.465814 
L 298.684019 146.808022 
L 311.256578 147.029056 
L 332.028632 147.135615 
L 334.354331 147.139462 
L 334.354331 147.139462 
" style="fill:none;stroke:#d62728;stroke-linecap:square;stroke-width:1.5;"/>
   </g>
   <g id="patch_3">
    <path d="M 40.53659 153.026864 
L 40.53659 23.832462 
" style="fill:none;stroke:#000000;stroke-linecap:square;stroke-linejoin:miter;stroke-width:0.8;"/>
   </g>
   <g id="patch_4">
    <path d="M 313.579768 153.026864 
L 313.579768 23.832462 
" style="fill:none;stroke:#000000;stroke-linecap:square;stroke-linejoin:miter;stroke-width:0.8;"/>
   </g>
   <g id="patch_5">
    <path d="M 40.53659 153.026864 
L 313.579768 153.026864 
" style="fill:none;stroke:#000000;stroke-linecap:square;stroke-linejoin:miter;stroke-width:0.8;"/>
   </g>
   <g id="patch_6">
    <path d="M 40.53659 23.832462 
L 313.579768 23.832462 
" style="fill:none;stroke:#000000;stroke-linecap:square;stroke-linejoin:miter;stroke-width:0.8;"/>
   </g>
   <g id="legend_1">
    <g id="patch_7">
     <path d="M 229.415851 87.581175 
L 306.579768 87.581175 
Q 308.579768 87.581175 308.579768 85.581175 
L 308.579768 30.832462 
Q 308.579768 28.832462 306.579768 28.832462 
L 229.415851 28.832462 
Q 227.415851 28.832462 227.415851 30.832462 
L 227.415851 85.581175 
Q 227.415851 87.581175 229.415851 87.581175 
z
" style="fill:#ffffff;opacity:0.8;stroke:#cccccc;stroke-linejoin:miter;"/>
    </g>
    <g id="line2d_17">
     <path d="M 231.415851 36.332462 
L 251.415851 36.332462 
" style="fill:none;stroke:#1f77b4;stroke-linecap:square;stroke-width:1.5;"/>
    </g>
    <g id="line2d_18"/>
    <g id="text_13">
     <!-- $\Delta t = 0.2$ s -->
     <g transform="translate(259.415851 39.832462)scale(0.1 -0.1)">
      <defs>
       <path d="M 1286 2566 
L 1875 2566 
C 1997 2566 2061 2566 2061 2681 
C 2061 2752 2022 2752 1894 2752 
L 1331 2752 
L 1568 3664 
C 1594 3752 1594 3764 1594 3808 
C 1594 3910 1510 3968 1427 3968 
C 1376 3968 1229 3948 1178 3746 
L 928 2752 
L 326 2752 
C 198 2752 141 2752 141 2630 
C 141 2566 186 2566 307 2566 
L 877 2566 
L 454 881 
C 403 657 384 593 384 510 
C 384 210 595 -64 954 -64 
C 1600 -64 1946 868 1946 913 
C 1946 951 1920 970 1882 970 
C 1869 970 1843 970 1830 944 
C 1824 938 1818 932 1773 830 
C 1638 510 1344 64 973 64 
C 781 64 768 223 768 364 
C 768 370 768 491 787 568 
L 1286 2566 
z
" id="CMMI12-74" transform="scale(0.015625)"/>
       <path d="M 4115 2048 
C 4211 2048 4307 2048 4307 2156 
C 4307 2272 4198 2272 4090 2272 
L 512 2272 
C 403 2272 294 2272 294 2156 
C 294 2048 390 2048 486 2048 
L 4115 2048 
z
M 4090 927 
C 4198 927 4307 927 4307 1043 
C 4307 1152 4211 1152 4115 1152 
L 486 1152 
C 390 1152 294 1152 294 1043 
C 294 927 403 927 512 927 
L 4090 927 
z
" id="CMR17-3d" transform="scale(0.015625)"/>
       <path d="M 1978 2688 
C 1978 2803 1971 2809 1933 2809 
C 1907 2809 1901 2803 1824 2707 
C 1805 2681 1747 2617 1728 2592 
C 1523 2809 1235 2816 1126 2816 
C 416 2816 160 2444 160 2073 
C 160 1497 813 1363 998 1324 
C 1402 1241 1542 1216 1677 1100 
C 1760 1024 1901 883 1901 652 
C 1901 384 1747 38 1158 38 
C 602 38 403 460 288 1024 
C 269 1113 269 1120 218 1120 
C 166 1120 160 1113 160 985 
L 160 64 
C 160 -52 166 -58 205 -58 
C 237 -58 243 -52 275 0 
C 314 57 410 211 448 275 
C 576 102 800 -64 1158 -64 
C 1792 -64 2131 281 2131 780 
C 2131 1107 1958 1280 1875 1356 
C 1683 1555 1459 1600 1190 1651 
C 838 1728 390 1817 390 2208 
C 390 2374 480 2726 1126 2726 
C 1811 2726 1850 2086 1862 1881 
C 1869 1849 1901 1843 1920 1843 
C 1978 1843 1978 1862 1978 1971 
L 1978 2688 
z
" id="CMR17-73" transform="scale(0.015625)"/>
      </defs>
      <use transform="scale(0.996264)" xlink:href="#CMR17-1"/>
      <use transform="translate(76.91959 0)scale(0.996264)" xlink:href="#CMMI12-74"/>
      <use transform="translate(139.819929 0)scale(0.996264)" xlink:href="#CMR17-3d"/>
      <use transform="translate(239.208726 0)scale(0.996264)" xlink:href="#CMR17-30"/>
      <use transform="translate(284.899203 0)scale(0.996264)" xlink:href="#CMMI12-3a"/>
      <use transform="translate(311.99638 0)scale(0.996264)" xlink:href="#CMR17-32"/>
      <use transform="translate(387.762824 0)scale(0.996264)" xlink:href="#CMR17-73"/>
     </g>
    </g>
    <g id="line2d_19">
     <path d="M 231.415851 50.26964 
L 251.415851 50.26964 
" style="fill:none;stroke:#ff7f0e;stroke-linecap:square;stroke-width:1.5;"/>
    </g>
    <g id="line2d_20"/>
    <g id="text_14">
     <!-- $\Delta t = 0.5$ s -->
     <g transform="translate(259.415851 53.76964)scale(0.1 -0.1)">
      <use transform="scale(0.996264)" xlink:href="#CMR17-1"/>
      <use transform="translate(76.91959 0)scale(0.996264)" xlink:href="#CMMI12-74"/>
      <use transform="translate(139.819929 0)scale(0.996264)" xlink:href="#CMR17-3d"/>
      <use transform="translate(239.208726 0)scale(0.996264)" xlink:href="#CMR17-30"/>
      <use transform="translate(284.899203 0)scale(0.996264)" xlink:href="#CMMI12-3a"/>
      <use transform="translate(311.99638 0)scale(0.996264)" xlink:href="#CMR17-35"/>
      <use transform="translate(387.762824 0)scale(0.996264)" xlink:href="#CMR17-73"/>
     </g>
    </g>
    <g id="line2d_21">
     <path d="M 231.415851 64.206819 
L 251.415851 64.206819 
" style="fill:none;stroke:#2ca02c;stroke-linecap:square;stroke-width:1.5;"/>
    </g>
    <g id="line2d_22"/>
    <g id="text_15">
     <!-- $\Delta t = 1.0$ s -->
     <g transform="translate(259.415851 67.706819)scale(0.1 -0.1)">
      <use transform="scale(0.996264)" xlink:href="#CMR17-1"/>
      <use transform="translate(76.91959 0)scale(0.996264)" xlink:href="#CMMI12-74"/>
      <use transform="translate(139.819929 0)scale(0.996264)" xlink:href="#CMR17-3d"/>
      <use transform="translate(239.208726 0)scale(0.996264)" xlink:href="#CMR17-31"/>
      <use transform="translate(284.899203 0)scale(0.996264)" xlink:href="#CMMI12-3a"/>
      <use transform="translate(311.99638 0)scale(0.996264)" xlink:href="#CMR17-30"/>
      <use transform="translate(387.762824 0)scale(0.996264)" xlink:href="#CMR17-73"/>
     </g>
    </g>
    <g id="line2d_23">
     <path d="M 231.415851 78.143997 
L 251.415851 78.143997 
" style="fill:none;stroke:#d62728;stroke-linecap:square;stroke-width:1.5;"/>
    </g>
    <g id="line2d_24"/>
    <g id="text_16">
     <!-- $\Delta t = 2.0$ s -->
     <g transform="translate(259.415851 81.643997)scale(0.1 -0.1)">
      <use transform="scale(0.996264)" xlink:href="#CMR17-1"/>
      <use transform="translate(76.91959 0)scale(0.996264)" xlink:href="#CMMI12-74"/>
      <use transform="translate(139.819929 0)scale(0.996264)" xlink:href="#CMR17-3d"/>
      <use transform="translate(239.208726 0)scale(0.996264)" xlink:href="#CMR17-32"/>
      <use transform="translate(284.899203 0)scale(0.996264)" xlink:href="#CMMI12-3a"/>
      <use transform="translate(311.99638 0)scale(0.996264)" xlink:href="#CMR17-30"/>
      <use transform="translate(387.762824 0)scale(0.996264)" xlink:href="#CMR17-73"/>
     </g>
    </g>
   </g>
  </g>
 </g>
 <defs>
  <clipPath id="pa677dd5098">
   <rect height="129.194403" width="273.043179" x="40.53659" y="23.832462"/>
  </clipPath>
 </defs>
</svg>
