<?xml version="1.0" encoding="utf-8" standalone="no"?>
<!DOCTYPE svg PUBLIC "-//W3C//DTD SVG 1.1//EN"
  "http://www.w3.org/Graphics/SVG/1.1/DTD/svg11.dtd">
<svg height="414.311811pt" version="1.1" viewBox="0 0 246.614173 414.311811" width="246.614173pt" xmlns="http://www.w3.org/2000/svg" xmlns:xlink="http://www.w3.org/1999/xlink">
 <metadata>
  <rdf:RDF xmlns:cc="http://creativecommons.org/ns#" xmlns:dc="http://purl.org/dc/elements/1.1/" xmlns:rdf="http://www.w3.org/1999/02/22-rdf-syntax-ns#">
   <cc:Work>
    <dc:type rdf:resource="http://purl.org/dc/dcmitype/StillImage"/>
    <dc:date>2021-11-15T20:28:22.776821</dc:date>
    <dc:format>image/svg+xml</dc:format>
    <dc:creator>
     <cc:Agent>
      <dc:title>Matplotlib v3.4.2, https://matplotlib.org/</dc:title>
     </cc:Agent>
    </dc:creator>
   </cc:Work>
  </rdf:RDF>
 </metadata>
 <defs>
  <style type="text/css">*{stroke-linecap:butt;stroke-linejoin:round;}</style>
 </defs>
 <g id="figure_1">
  <g id="patch_1">
   <path d="M 0 414.311811 
L 246.614173 414.311811 
L 246.614173 0 
L 0 0 
z
" style="fill:none;"/>
  </g>
  <g id="axes_1">
   <g id="patch_2">
    <path d="M 54.490351 366.074135 
L 235.814173 366.074135 
L 235.814173 23.832462 
L 54.490351 23.832462 
z
" style="fill:#ffffff;"/>
   </g>
   <g id="matplotlib.axis_1">
    <g id="xtick_1">
     <g id="line2d_1">
      <defs>
       <path d="M 0 0 
L 0 -3.5 
" id="m21a8154c91" style="stroke:#000000;stroke-width:0.8;"/>
      </defs>
      <g>
       <use style="stroke:#000000;stroke-width:0.8;" x="62.732343" xlink:href="#m21a8154c91" y="366.074135"/>
      </g>
     </g>
     <g id="text_1">
      <!-- $\mathdefault{−5}$ -->
      <g transform="translate(53.641464 379.53676)scale(0.144 -0.144)">
       <defs>
        <path d="M 4218 1472 
C 4326 1472 4442 1472 4442 1600 
C 4442 1728 4326 1728 4218 1728 
L 755 1728 
C 646 1728 531 1728 531 1600 
C 531 1472 646 1472 755 1472 
L 4218 1472 
z
" id="CMSY10-0" transform="scale(0.015625)"/>
        <path d="M 730 3750 
C 794 3724 1056 3641 1325 3641 
C 1920 3641 2246 3961 2432 4140 
C 2432 4191 2432 4224 2394 4224 
C 2387 4224 2374 4224 2323 4198 
C 2099 4102 1837 4032 1517 4032 
C 1325 4032 1037 4055 723 4191 
C 653 4224 640 4224 634 4224 
C 602 4224 595 4217 595 4090 
L 595 2231 
C 595 2113 595 2080 659 2080 
C 691 2080 704 2093 736 2139 
C 941 2435 1222 2560 1542 2560 
C 1766 2560 2246 2415 2246 1293 
C 2246 1087 2246 716 2054 422 
C 1894 159 1645 25 1370 25 
C 947 25 518 319 403 812 
C 429 806 480 793 506 793 
C 589 793 749 838 749 1036 
C 749 1209 627 1280 506 1280 
C 358 1280 262 1190 262 1011 
C 262 454 704 -128 1382 -128 
C 2042 -128 2669 441 2669 1267 
C 2669 2054 2170 2662 1549 2662 
C 1222 2662 947 2540 730 2304 
L 730 3750 
z
" id="CMR17-35" transform="scale(0.015625)"/>
       </defs>
       <use transform="scale(0.996264)" xlink:href="#CMSY10-0"/>
       <use transform="translate(77.487468 0)scale(0.996264)" xlink:href="#CMR17-35"/>
      </g>
     </g>
    </g>
    <g id="xtick_2">
     <g id="line2d_2">
      <g>
       <use style="stroke:#000000;stroke-width:0.8;" x="145.152262" xlink:href="#m21a8154c91" y="366.074135"/>
      </g>
     </g>
     <g id="text_2">
      <!-- $\mathdefault{0}$ -->
      <g transform="translate(141.640476 379.53676)scale(0.144 -0.144)">
       <defs>
        <path d="M 2688 2038 
C 2688 2430 2682 3099 2413 3613 
C 2176 4063 1798 4224 1466 4224 
C 1158 4224 768 4082 525 3620 
C 269 3137 243 2539 243 2038 
C 243 1671 250 1112 448 623 
C 723 -39 1216 -128 1466 -128 
C 1760 -128 2208 -7 2470 604 
C 2662 1048 2688 1568 2688 2038 
z
M 1466 -26 
C 1056 -26 813 328 723 816 
C 653 1196 653 1749 653 2109 
C 653 2604 653 3015 736 3407 
C 858 3954 1216 4121 1466 4121 
C 1728 4121 2067 3947 2189 3420 
C 2272 3054 2278 2623 2278 2109 
C 2278 1691 2278 1176 2202 797 
C 2067 96 1690 -26 1466 -26 
z
" id="CMR17-30" transform="scale(0.015625)"/>
       </defs>
       <use transform="scale(0.996264)" xlink:href="#CMR17-30"/>
      </g>
     </g>
    </g>
    <g id="xtick_3">
     <g id="line2d_3">
      <g>
       <use style="stroke:#000000;stroke-width:0.8;" x="227.572181" xlink:href="#m21a8154c91" y="366.074135"/>
      </g>
     </g>
     <g id="text_3">
      <!-- $\mathdefault{5}$ -->
      <g transform="translate(224.060395 379.53676)scale(0.144 -0.144)">
       <use transform="scale(0.996264)" xlink:href="#CMR17-35"/>
      </g>
     </g>
    </g>
    <g id="text_4">
     <!-- $\Delta x$ (m) -->
     <g transform="translate(118.376002 399.222354)scale(0.1728 -0.1728)">
      <defs>
       <path d="M 2598 4435 
C 2547 4544 2522 4544 2470 4544 
C 2394 4544 2387 4531 2342 4441 
L 269 108 
C 262 96 237 38 237 32 
C 237 6 243 0 358 0 
L 4576 0 
C 4691 0 4698 6 4698 32 
C 4698 38 4672 96 4666 108 
L 2598 4435 
z
M 2310 4056 
L 4083 358 
L 531 358 
L 2310 4056 
z
" id="CMR17-1" transform="scale(0.015625)"/>
       <path d="M 3034 2624 
C 2829 2585 2752 2431 2752 2310 
C 2752 2156 2874 2105 2963 2105 
C 3155 2105 3290 2271 3290 2444 
C 3290 2694 2982 2816 2714 2816 
C 2323 2816 2106 2451 2048 2329 
C 1901 2790 1504 2816 1389 2816 
C 736 2816 390 1993 390 1849 
C 390 1823 416 1790 461 1790 
C 512 1790 525 1829 538 1855 
C 755 2572 1184 2687 1370 2687 
C 1658 2687 1715 2438 1715 2284 
C 1715 2143 1677 1993 1600 1678 
L 1382 778 
C 1286 390 1101 64 762 64 
C 730 64 570 64 435 126 
C 666 166 717 358 717 435 
C 717 563 621 640 499 640 
C 346 640 179 505 179 300 
C 179 57 480 -64 755 -64 
C 1062 -64 1280 153 1414 415 
C 1517 64 1837 -64 2074 -64 
C 2726 -64 3072 751 3072 896 
C 3072 929 3046 955 3008 955 
C 2950 955 2944 922 2925 870 
C 2752 300 2381 64 2093 64 
C 1869 64 1747 204 1747 467 
C 1747 607 1773 712 1875 1146 
L 2099 2039 
C 2195 2425 2413 2687 2707 2687 
C 2720 2687 2899 2687 3034 2624 
z
" id="CMMI12-78" transform="scale(0.015625)"/>
       <path d="M 1958 -1562 
C 1958 -1556 1958 -1543 1939 -1524 
C 1645 -1223 858 -403 858 1596 
C 858 3595 1632 4408 1946 4729 
C 1946 4735 1958 4748 1958 4767 
C 1958 4787 1939 4800 1914 4800 
C 1843 4800 1299 4325 986 3620 
C 666 2909 576 2218 576 1603 
C 576 1141 621 360 1005 -467 
C 1312 -1133 1837 -1600 1914 -1600 
C 1946 -1600 1958 -1588 1958 -1562 
z
" id="CMR17-28" transform="scale(0.015625)"/>
       <path d="M 4326 1954 
C 4326 2276 4269 2816 3507 2816 
C 3072 2816 2771 2520 2656 2173 
L 2650 2173 
C 2573 2700 2195 2816 1837 2816 
C 1331 2816 1069 2424 973 2166 
L 966 2166 
L 966 2816 
L 211 2745 
L 211 2578 
C 589 2578 646 2540 646 2231 
L 646 443 
C 646 198 621 166 211 166 
L 211 0 
C 365 12 646 12 813 12 
C 979 12 1267 12 1421 0 
L 1421 166 
C 1011 166 986 192 986 443 
L 986 1678 
C 986 2269 1344 2713 1792 2713 
C 2266 2713 2317 2289 2317 1980 
L 2317 443 
C 2317 198 2291 166 1882 166 
L 1882 0 
C 2035 12 2317 12 2483 12 
C 2650 12 2938 12 3091 0 
L 3091 166 
C 2682 166 2656 192 2656 443 
L 2656 1678 
C 2656 2269 3014 2713 3462 2713 
C 3936 2713 3987 2289 3987 1980 
L 3987 443 
C 3987 198 3962 166 3552 166 
L 3552 0 
C 3706 12 3987 12 4154 12 
C 4320 12 4608 12 4762 0 
L 4762 166 
C 4352 166 4326 192 4326 443 
L 4326 1954 
z
" id="CMR17-6d" transform="scale(0.015625)"/>
       <path d="M 1683 1596 
C 1683 2057 1638 2839 1254 3665 
C 947 4332 422 4800 346 4800 
C 326 4800 301 4793 301 4761 
C 301 4748 307 4742 314 4729 
C 621 4408 1402 3595 1402 1603 
C 1402 -396 627 -1210 314 -1530 
C 307 -1543 301 -1549 301 -1562 
C 301 -1594 326 -1600 346 -1600 
C 416 -1600 960 -1127 1274 -422 
C 1594 289 1683 981 1683 1596 
z
" id="CMR17-29" transform="scale(0.015625)"/>
      </defs>
      <use transform="scale(0.996264)" xlink:href="#CMR17-1"/>
      <use transform="translate(76.91959 0)scale(0.996264)" xlink:href="#CMMI12-78"/>
      <use transform="translate(162.429616 0)scale(0.996264)" xlink:href="#CMR17-28"/>
      <use transform="translate(197.710384 0)scale(0.996264)" xlink:href="#CMR17-6d"/>
      <use transform="translate(274.629973 0)scale(0.996264)" xlink:href="#CMR17-29"/>
     </g>
    </g>
    <g id="text_5">
     <!-- $\times\mathdefault{10^{−7}}\mathdefault{}$ -->
     <g transform="translate(197.878764 395.358749)scale(0.144 -0.144)">
      <defs>
       <path d="M 2490 1775 
L 1210 3046 
C 1133 3123 1120 3136 1069 3136 
C 1005 3136 941 3078 941 3008 
C 941 2963 954 2950 1024 2880 
L 2304 1596 
L 1024 313 
C 954 243 941 230 941 185 
C 941 115 1005 57 1069 57 
C 1120 57 1133 70 1210 147 
L 2483 1418 
L 3808 95 
C 3821 89 3866 57 3904 57 
C 3981 57 4032 115 4032 185 
C 4032 198 4032 223 4013 255 
C 4006 268 2989 1271 2669 1596 
L 3840 2765 
C 3872 2803 3968 2886 4000 2925 
C 4006 2937 4032 2963 4032 3008 
C 4032 3078 3981 3136 3904 3136 
C 3853 3136 3827 3110 3757 3040 
L 2490 1775 
z
" id="CMSY10-2" transform="scale(0.015625)"/>
       <path d="M 1702 4083 
C 1702 4217 1696 4224 1606 4224 
C 1357 3927 979 3833 621 3820 
C 602 3820 570 3820 563 3808 
C 557 3795 557 3782 557 3648 
C 755 3648 1088 3686 1344 3839 
L 1344 467 
C 1344 243 1331 166 781 166 
L 589 166 
L 589 0 
C 896 6 1216 12 1523 12 
C 1830 12 2150 6 2458 0 
L 2458 166 
L 2266 166 
C 1715 166 1702 236 1702 467 
L 1702 4083 
z
" id="CMR17-31" transform="scale(0.015625)"/>
       <path d="M 2886 3955 
L 2886 4096 
L 1382 4096 
C 634 4096 621 4166 595 4288 
L 480 4288 
L 294 3104 
L 410 3104 
C 429 3226 474 3552 550 3673 
C 589 3724 1062 3724 1171 3724 
L 2579 3724 
L 1869 2670 
C 1395 1961 1069 1003 1069 166 
C 1069 89 1069 -128 1299 -128 
C 1530 -128 1530 89 1530 172 
L 1530 466 
C 1530 1514 1709 2204 2003 2644 
L 2886 3955 
z
" id="CMR17-37" transform="scale(0.015625)"/>
      </defs>
      <use transform="scale(0.996264)" xlink:href="#CMSY10-2"/>
      <use transform="translate(77.487468 0)scale(0.996264)" xlink:href="#CMR17-31"/>
      <use transform="translate(123.177945 0)scale(0.996264)" xlink:href="#CMR17-30"/>
      <use transform="translate(168.868422 36.153639)scale(0.697382)" xlink:href="#CMSY10-0"/>
      <use transform="translate(223.109415 36.153639)scale(0.697382)" xlink:href="#CMR17-37"/>
     </g>
    </g>
   </g>
   <g id="matplotlib.axis_2">
    <g id="ytick_1">
     <g id="line2d_4">
      <defs>
       <path d="M 0 0 
L 3.5 0 
" id="m34534a8dc2" style="stroke:#000000;stroke-width:0.8;"/>
      </defs>
      <g>
       <use style="stroke:#000000;stroke-width:0.8;" x="54.490351" xlink:href="#m34534a8dc2" y="351.380555"/>
      </g>
     </g>
     <g id="text_6">
      <!-- $\mathdefault{0.0}$ -->
      <g transform="translate(33.041227 356.361867)scale(0.144 -0.144)">
       <defs>
        <path d="M 1178 307 
C 1178 492 1024 620 870 620 
C 685 620 557 467 557 313 
C 557 128 710 0 864 0 
C 1050 0 1178 153 1178 307 
z
" id="CMMI12-3a" transform="scale(0.015625)"/>
       </defs>
       <use transform="scale(0.996264)" xlink:href="#CMR17-30"/>
       <use transform="translate(45.690477 0)scale(0.996264)" xlink:href="#CMMI12-3a"/>
       <use transform="translate(72.787654 0)scale(0.996264)" xlink:href="#CMR17-30"/>
      </g>
     </g>
    </g>
    <g id="ytick_2">
     <g id="line2d_5">
      <g>
       <use style="stroke:#000000;stroke-width:0.8;" x="54.490351" xlink:href="#m34534a8dc2" y="294.418596"/>
      </g>
     </g>
     <g id="text_7">
      <!-- $\mathdefault{0.5}$ -->
      <g transform="translate(33.041227 299.399909)scale(0.144 -0.144)">
       <use transform="scale(0.996264)" xlink:href="#CMR17-30"/>
       <use transform="translate(45.690477 0)scale(0.996264)" xlink:href="#CMMI12-3a"/>
       <use transform="translate(72.787654 0)scale(0.996264)" xlink:href="#CMR17-35"/>
      </g>
     </g>
    </g>
    <g id="ytick_3">
     <g id="line2d_6">
      <g>
       <use style="stroke:#000000;stroke-width:0.8;" x="54.490351" xlink:href="#m34534a8dc2" y="237.456638"/>
      </g>
     </g>
     <g id="text_8">
      <!-- $\mathdefault{1.0}$ -->
      <g transform="translate(33.041227 242.437951)scale(0.144 -0.144)">
       <use transform="scale(0.996264)" xlink:href="#CMR17-31"/>
       <use transform="translate(45.690477 0)scale(0.996264)" xlink:href="#CMMI12-3a"/>
       <use transform="translate(72.787654 0)scale(0.996264)" xlink:href="#CMR17-30"/>
      </g>
     </g>
    </g>
    <g id="ytick_4">
     <g id="line2d_7">
      <g>
       <use style="stroke:#000000;stroke-width:0.8;" x="54.490351" xlink:href="#m34534a8dc2" y="180.49468"/>
      </g>
     </g>
     <g id="text_9">
      <!-- $\mathdefault{1.5}$ -->
      <g transform="translate(33.041227 185.475992)scale(0.144 -0.144)">
       <use transform="scale(0.996264)" xlink:href="#CMR17-31"/>
       <use transform="translate(45.690477 0)scale(0.996264)" xlink:href="#CMMI12-3a"/>
       <use transform="translate(72.787654 0)scale(0.996264)" xlink:href="#CMR17-35"/>
      </g>
     </g>
    </g>
    <g id="ytick_5">
     <g id="line2d_8">
      <g>
       <use style="stroke:#000000;stroke-width:0.8;" x="54.490351" xlink:href="#m34534a8dc2" y="123.532722"/>
      </g>
     </g>
     <g id="text_10">
      <!-- $\mathdefault{2.0}$ -->
      <g transform="translate(33.041227 128.514034)scale(0.144 -0.144)">
       <defs>
        <path d="M 2669 990 
L 2554 990 
C 2490 537 2438 460 2413 422 
C 2381 371 1920 371 1830 371 
L 602 371 
C 832 620 1280 1073 1824 1596 
C 2214 1966 2669 2400 2669 3033 
C 2669 3788 2067 4224 1395 4224 
C 691 4224 262 3603 262 3027 
C 262 2777 448 2745 525 2745 
C 589 2745 781 2783 781 3007 
C 781 3206 614 3264 525 3264 
C 486 3264 448 3257 422 3244 
C 544 3788 915 4057 1306 4057 
C 1862 4057 2227 3616 2227 3033 
C 2227 2477 1901 1998 1536 1583 
L 262 147 
L 262 0 
L 2515 0 
L 2669 990 
z
" id="CMR17-32" transform="scale(0.015625)"/>
       </defs>
       <use transform="scale(0.996264)" xlink:href="#CMR17-32"/>
       <use transform="translate(45.690477 0)scale(0.996264)" xlink:href="#CMMI12-3a"/>
       <use transform="translate(72.787654 0)scale(0.996264)" xlink:href="#CMR17-30"/>
      </g>
     </g>
    </g>
    <g id="ytick_6">
     <g id="line2d_9">
      <g>
       <use style="stroke:#000000;stroke-width:0.8;" x="54.490351" xlink:href="#m34534a8dc2" y="66.570763"/>
      </g>
     </g>
     <g id="text_11">
      <!-- $\mathdefault{2.5}$ -->
      <g transform="translate(33.041227 71.552076)scale(0.144 -0.144)">
       <use transform="scale(0.996264)" xlink:href="#CMR17-32"/>
       <use transform="translate(45.690477 0)scale(0.996264)" xlink:href="#CMMI12-3a"/>
       <use transform="translate(72.787654 0)scale(0.996264)" xlink:href="#CMR17-35"/>
      </g>
     </g>
    </g>
    <g id="text_12">
     <!-- $P_x$ ($\mathrm{m^{-1}}$) -->
     <g transform="translate(24.75177 227.126716)rotate(-90)scale(0.1728 -0.1728)">
      <defs>
       <path d="M 1894 2022 
L 2970 2022 
C 3853 2022 4736 2673 4736 3400 
C 4736 3898 4314 4352 3507 4352 
L 1530 4352 
C 1408 4352 1350 4352 1350 4230 
C 1350 4166 1408 4166 1504 4166 
C 1894 4166 1894 4115 1894 4045 
C 1894 4032 1894 3994 1869 3898 
L 1005 471 
C 947 249 934 185 486 185 
C 365 185 301 185 301 70 
C 301 0 358 0 397 0 
C 518 0 646 12 768 12 
L 1517 12 
C 1638 12 1773 0 1894 0 
C 1946 0 2016 0 2016 121 
C 2016 185 1958 185 1862 185 
C 1478 185 1472 230 1472 293 
C 1472 325 1478 369 1485 401 
L 1894 2022 
z
M 2355 3917 
C 2413 4153 2438 4166 2688 4166 
L 3322 4166 
C 3802 4166 4198 4013 4198 3534 
C 4198 3369 4115 2826 3821 2533 
C 3712 2418 3405 2176 2822 2176 
L 1920 2176 
L 2355 3917 
z
" id="CMMI12-50" transform="scale(0.015625)"/>
      </defs>
      <use transform="scale(0.996264)" xlink:href="#CMMI12-50"/>
      <use transform="translate(62.877232 -14.943915)scale(0.697382)" xlink:href="#CMMI12-78"/>
      <use transform="translate(132.25499 0)scale(0.996264)" xlink:href="#CMR17-28"/>
      <use transform="translate(167.535758 0)scale(0.996264)" xlink:href="#CMR17-6d"/>
      <use transform="translate(244.455348 36.153639)scale(0.697382)" xlink:href="#CMSY10-0"/>
      <use transform="translate(298.696341 36.153639)scale(0.697382)" xlink:href="#CMR17-31"/>
      <use transform="translate(331.177655 0)scale(0.996264)" xlink:href="#CMR17-29"/>
     </g>
    </g>
    <g id="text_13">
     <!-- $\times\mathdefault{10^{6}}\mathdefault{}$ -->
     <g transform="translate(54.490351 20.832462)scale(0.144 -0.144)">
      <defs>
       <path d="M 678 2198 
C 678 3712 1395 4076 1811 4076 
C 1946 4076 2272 4049 2400 3782 
C 2298 3782 2106 3782 2106 3558 
C 2106 3385 2246 3328 2336 3328 
C 2394 3328 2566 3353 2566 3571 
C 2566 3987 2246 4224 1805 4224 
C 1043 4224 243 3411 243 2011 
C 243 257 966 -128 1478 -128 
C 2099 -128 2688 431 2688 1295 
C 2688 2101 2170 2688 1517 2688 
C 1126 2688 838 2430 678 1979 
L 678 2198 
z
M 1478 25 
C 691 25 691 1212 691 1450 
C 691 1914 909 2585 1504 2585 
C 1613 2585 1926 2585 2138 2140 
C 2253 1889 2253 1624 2253 1302 
C 2253 954 2253 696 2118 438 
C 1978 173 1773 25 1478 25 
z
" id="CMR17-36" transform="scale(0.015625)"/>
      </defs>
      <use transform="scale(0.996264)" xlink:href="#CMSY10-2"/>
      <use transform="translate(77.487468 0)scale(0.996264)" xlink:href="#CMR17-31"/>
      <use transform="translate(123.177945 0)scale(0.996264)" xlink:href="#CMR17-30"/>
      <use transform="translate(168.868422 36.153639)scale(0.697382)" xlink:href="#CMR17-36"/>
     </g>
    </g>
   </g>
   <g id="line2d_10">
    <path clip-path="url(#p61462a3741)" d="M 62.732343 350.517696 
L 66.197445 349.979282 
L 69.167532 349.292104 
L 71.642605 348.502051 
L 73.952672 347.534132 
L 76.097735 346.387617 
L 78.077794 345.072956 
L 79.892847 343.612383 
L 81.7079 341.868107 
L 83.522953 339.798531 
L 85.338007 337.359027 
L 86.988055 334.780613 
L 88.638104 331.820632 
L 90.453157 328.078982 
L 92.26821 323.779731 
L 94.083263 318.873506 
L 95.898317 313.313284 
L 97.71337 307.055974 
L 99.693428 299.391004 
L 101.673486 290.813769 
L 103.818549 280.464069 
L 105.963612 269.005776 
L 108.27368 255.447299 
L 110.748752 239.588564 
L 113.553835 220.120295 
L 116.853932 195.578796 
L 122.134087 154.31379 
L 126.919227 117.523783 
L 129.724309 97.570712 
L 132.034377 82.634561 
L 134.014435 71.205895 
L 135.829489 62.036621 
L 137.314532 55.571484 
L 138.634571 50.670605 
L 139.95461 46.610928 
L 141.109644 43.777259 
L 142.099673 41.897881 
L 142.924697 40.726611 
L 143.749721 39.918793 
L 144.40974 39.536184 
L 145.06976 39.388902 
L 145.729779 39.477279 
L 146.389799 39.801117 
L 147.049818 40.359681 
L 147.874842 41.385995 
L 148.699866 42.773435 
L 149.689895 44.908086 
L 150.844929 48.032283 
L 151.999963 51.818528 
L 153.320002 56.923242 
L 154.805046 63.60353 
L 156.455094 72.104049 
L 158.270147 82.634561 
L 160.41521 96.453706 
L 162.890283 113.884926 
L 166.19038 138.82864 
L 176.915695 221.304911 
L 179.885782 241.778572 
L 182.525859 258.456703 
L 185.000932 272.648986 
L 187.311 284.575964 
L 189.456063 294.500409 
L 191.436121 302.693687 
L 193.416179 309.989165 
L 195.396237 316.429907 
L 197.21129 321.627771 
L 199.026343 326.196906 
L 200.841397 330.185799 
L 202.65645 333.644506 
L 204.471503 336.623353 
L 206.286557 339.171842 
L 208.10161 341.337764 
L 209.916663 343.166499 
L 211.731716 344.700506 
L 213.711775 346.083799 
L 215.856837 347.292558 
L 218.0019 348.250546 
L 220.476973 349.103186 
L 223.117051 349.777206 
L 226.252143 350.340088 
L 227.572181 350.517696 
L 227.572181 350.517696 
" style="fill:none;stroke:#1f77b4;stroke-linecap:square;stroke-width:2;"/>
   </g>
   <g id="line2d_11">
    <path clip-path="url(#p61462a3741)" d="M 62.732343 346.361413 
L 65.207416 345.048828 
L 67.517484 343.565835 
L 69.662547 341.931738 
L 71.80761 340.01656 
L 73.952672 337.785711 
L 75.932731 335.415191 
L 77.912789 332.716123 
L 79.892847 329.659441 
L 81.872905 326.216491 
L 84.017968 322.018746 
L 86.163031 317.302531 
L 88.308094 312.03863 
L 90.453157 306.20262 
L 92.763225 299.256985 
L 95.073292 291.613427 
L 97.548365 282.648072 
L 100.188443 272.218348 
L 102.993525 260.205978 
L 106.128617 245.754164 
L 109.758723 227.901093 
L 114.708869 202.301643 
L 122.299091 163.024859 
L 125.599188 147.153411 
L 128.239266 135.464988 
L 130.549334 126.183761 
L 132.529392 119.055213 
L 134.344445 113.272708 
L 135.994493 108.694558 
L 137.479537 105.162583 
L 138.964581 102.215334 
L 140.284619 100.104401 
L 141.439653 98.660671 
L 142.429682 97.728181 
L 143.419711 97.080596 
L 144.40974 96.720112 
L 145.234765 96.639935 
L 146.059789 96.760191 
L 146.884813 97.080596 
L 147.874842 97.728181 
L 148.864871 98.660671 
L 150.019905 100.104401 
L 151.174939 101.924958 
L 152.494978 104.456262 
L 153.980021 107.860424 
L 155.465065 111.829241 
L 157.115113 116.865585 
L 158.930167 123.114794 
L 161.07523 131.368946 
L 163.385297 141.178874 
L 166.19038 154.147562 
L 169.655481 171.343981 
L 175.100641 199.702887 
L 181.370825 232.047271 
L 185.165937 250.42573 
L 188.301029 264.550537 
L 191.106111 276.232182 
L 193.746189 286.329957 
L 196.221261 294.975082 
L 198.696334 302.81647 
L 201.006402 309.417445 
L 203.316469 315.344222 
L 205.461532 320.267861 
L 207.606595 324.661308 
L 209.751658 328.556101 
L 211.896721 331.98661 
L 214.041784 334.988948 
L 216.186847 337.600008 
L 218.33191 339.856615 
L 220.476973 341.794827 
L 222.622036 343.449357 
L 224.932104 344.951621 
L 227.407176 346.28195 
L 227.572181 346.361413 
L 227.572181 346.361413 
" style="fill:none;stroke:#ff7f0e;stroke-linecap:square;stroke-width:2;"/>
   </g>
   <g id="line2d_12">
    <path clip-path="url(#p61462a3741)" d="M 62.732343 339.778692 
L 65.042411 337.727672 
L 67.352479 335.38824 
L 69.662547 332.734427 
L 71.972614 329.7406 
L 74.282682 326.38203 
L 76.59275 322.635525 
L 78.902818 318.480131 
L 81.37789 313.553841 
L 83.852963 308.120334 
L 86.493041 301.753097 
L 89.133118 294.791755 
L 91.9382 286.751782 
L 94.908288 277.541626 
L 98.04338 267.094594 
L 101.673486 254.178592 
L 105.963612 238.021843 
L 112.893815 210.87667 
L 118.668985 188.613498 
L 122.299091 175.4709 
L 125.269179 165.518744 
L 127.909256 157.450046 
L 130.219324 151.098556 
L 132.364387 145.867913 
L 134.17944 141.988996 
L 135.829489 138.92653 
L 137.479537 136.327596 
L 138.964581 134.39982 
L 140.284619 133.022576 
L 141.604658 131.96837 
L 142.759692 131.314701 
L 143.914726 130.914279 
L 145.06976 130.76849 
L 146.224794 130.877841 
L 147.379828 131.241951 
L 148.534862 131.85956 
L 149.689895 132.728529 
L 151.009934 134.025538 
L 152.329973 135.641079 
L 153.815016 137.830255 
L 155.465065 140.709666 
L 157.115113 144.040343 
L 158.930167 148.198107 
L 160.910225 153.285276 
L 163.220293 159.884156 
L 165.695365 167.656494 
L 168.500448 177.206572 
L 171.965549 189.849999 
L 176.585685 207.638852 
L 187.641009 250.524733 
L 191.601126 264.807547 
L 195.066227 276.47584 
L 198.201319 286.258592 
L 201.171406 294.791755 
L 203.976489 302.16846 
L 206.616566 308.498608 
L 209.256644 314.239667 
L 211.731716 319.099511 
L 214.206789 323.472096 
L 216.681862 327.380228 
L 218.991929 330.632139 
L 221.301997 333.526245 
L 223.612065 336.087595 
L 226.087138 338.49194 
L 227.572181 339.778692 
L 227.572181 339.778692 
" style="fill:none;stroke:#2ca02c;stroke-linecap:square;stroke-width:2;"/>
   </g>
   <g id="patch_3">
    <path d="M 54.490351 366.074135 
L 54.490351 23.832462 
" style="fill:none;stroke:#000000;stroke-linecap:square;stroke-linejoin:miter;stroke-width:0.8;"/>
   </g>
   <g id="patch_4">
    <path d="M 235.814173 366.074135 
L 235.814173 23.832462 
" style="fill:none;stroke:#000000;stroke-linecap:square;stroke-linejoin:miter;stroke-width:0.8;"/>
   </g>
   <g id="patch_5">
    <path d="M 54.490351 366.074135 
L 235.814173 366.074135 
" style="fill:none;stroke:#000000;stroke-linecap:square;stroke-linejoin:miter;stroke-width:0.8;"/>
   </g>
   <g id="patch_6">
    <path d="M 54.490351 23.832462 
L 235.814173 23.832462 
" style="fill:none;stroke:#000000;stroke-linecap:square;stroke-linejoin:miter;stroke-width:0.8;"/>
   </g>
   <g id="legend_1">
    <g id="line2d_13">
     <path d="M 98.823043 315.300348 
L 122.823043 315.300348 
" style="fill:none;stroke:#1f77b4;stroke-linecap:square;stroke-width:2;"/>
    </g>
    <g id="line2d_14"/>
    <g id="text_14">
     <!-- $\Delta t = 0.5$ s -->
     <g transform="translate(132.423043 319.500348)scale(0.12 -0.12)">
      <defs>
       <path d="M 1286 2566 
L 1875 2566 
C 1997 2566 2061 2566 2061 2681 
C 2061 2752 2022 2752 1894 2752 
L 1331 2752 
L 1568 3664 
C 1594 3752 1594 3764 1594 3808 
C 1594 3910 1510 3968 1427 3968 
C 1376 3968 1229 3948 1178 3746 
L 928 2752 
L 326 2752 
C 198 2752 141 2752 141 2630 
C 141 2566 186 2566 307 2566 
L 877 2566 
L 454 881 
C 403 657 384 593 384 510 
C 384 210 595 -64 954 -64 
C 1600 -64 1946 868 1946 913 
C 1946 951 1920 970 1882 970 
C 1869 970 1843 970 1830 944 
C 1824 938 1818 932 1773 830 
C 1638 510 1344 64 973 64 
C 781 64 768 223 768 364 
C 768 370 768 491 787 568 
L 1286 2566 
z
" id="CMMI12-74" transform="scale(0.015625)"/>
       <path d="M 4115 2048 
C 4211 2048 4307 2048 4307 2156 
C 4307 2272 4198 2272 4090 2272 
L 512 2272 
C 403 2272 294 2272 294 2156 
C 294 2048 390 2048 486 2048 
L 4115 2048 
z
M 4090 927 
C 4198 927 4307 927 4307 1043 
C 4307 1152 4211 1152 4115 1152 
L 486 1152 
C 390 1152 294 1152 294 1043 
C 294 927 403 927 512 927 
L 4090 927 
z
" id="CMR17-3d" transform="scale(0.015625)"/>
       <path d="M 1978 2688 
C 1978 2803 1971 2809 1933 2809 
C 1907 2809 1901 2803 1824 2707 
C 1805 2681 1747 2617 1728 2592 
C 1523 2809 1235 2816 1126 2816 
C 416 2816 160 2444 160 2073 
C 160 1497 813 1363 998 1324 
C 1402 1241 1542 1216 1677 1100 
C 1760 1024 1901 883 1901 652 
C 1901 384 1747 38 1158 38 
C 602 38 403 460 288 1024 
C 269 1113 269 1120 218 1120 
C 166 1120 160 1113 160 985 
L 160 64 
C 160 -52 166 -58 205 -58 
C 237 -58 243 -52 275 0 
C 314 57 410 211 448 275 
C 576 102 800 -64 1158 -64 
C 1792 -64 2131 281 2131 780 
C 2131 1107 1958 1280 1875 1356 
C 1683 1555 1459 1600 1190 1651 
C 838 1728 390 1817 390 2208 
C 390 2374 480 2726 1126 2726 
C 1811 2726 1850 2086 1862 1881 
C 1869 1849 1901 1843 1920 1843 
C 1978 1843 1978 1862 1978 1971 
L 1978 2688 
z
" id="CMR17-73" transform="scale(0.015625)"/>
      </defs>
      <use transform="scale(0.996264)" xlink:href="#CMR17-1"/>
      <use transform="translate(76.91959 0)scale(0.996264)" xlink:href="#CMMI12-74"/>
      <use transform="translate(139.819929 0)scale(0.996264)" xlink:href="#CMR17-3d"/>
      <use transform="translate(239.208726 0)scale(0.996264)" xlink:href="#CMR17-30"/>
      <use transform="translate(284.899203 0)scale(0.996264)" xlink:href="#CMMI12-3a"/>
      <use transform="translate(311.99638 0)scale(0.996264)" xlink:href="#CMR17-35"/>
      <use transform="translate(387.762824 0)scale(0.996264)" xlink:href="#CMR17-73"/>
     </g>
    </g>
    <g id="line2d_15">
     <path d="M 98.823043 332.024944 
L 122.823043 332.024944 
" style="fill:none;stroke:#ff7f0e;stroke-linecap:square;stroke-width:2;"/>
    </g>
    <g id="line2d_16"/>
    <g id="text_15">
     <!-- $\Delta t = 0.75$ s -->
     <g transform="translate(132.423043 336.224944)scale(0.12 -0.12)">
      <use transform="scale(0.996264)" xlink:href="#CMR17-1"/>
      <use transform="translate(76.91959 0)scale(0.996264)" xlink:href="#CMMI12-74"/>
      <use transform="translate(139.819929 0)scale(0.996264)" xlink:href="#CMR17-3d"/>
      <use transform="translate(239.208726 0)scale(0.996264)" xlink:href="#CMR17-30"/>
      <use transform="translate(284.899203 0)scale(0.996264)" xlink:href="#CMMI12-3a"/>
      <use transform="translate(311.99638 0)scale(0.996264)" xlink:href="#CMR17-37"/>
      <use transform="translate(357.686857 0)scale(0.996264)" xlink:href="#CMR17-35"/>
      <use transform="translate(433.453301 0)scale(0.996264)" xlink:href="#CMR17-73"/>
     </g>
    </g>
    <g id="line2d_17">
     <path d="M 98.823043 348.74954 
L 122.823043 348.74954 
" style="fill:none;stroke:#2ca02c;stroke-linecap:square;stroke-width:2;"/>
    </g>
    <g id="line2d_18"/>
    <g id="text_16">
     <!-- $\Delta t = 1$ s -->
     <g transform="translate(132.423043 352.94954)scale(0.12 -0.12)">
      <use transform="scale(0.996264)" xlink:href="#CMR17-1"/>
      <use transform="translate(76.91959 0)scale(0.996264)" xlink:href="#CMMI12-74"/>
      <use transform="translate(139.819929 0)scale(0.996264)" xlink:href="#CMR17-3d"/>
      <use transform="translate(239.208726 0)scale(0.996264)" xlink:href="#CMR17-31"/>
      <use transform="translate(314.975169 0)scale(0.996264)" xlink:href="#CMR17-73"/>
     </g>
    </g>
   </g>
  </g>
 </g>
 <defs>
  <clipPath id="p61462a3741">
   <rect height="342.241673" width="181.323822" x="54.490351" y="23.832462"/>
  </clipPath>
 </defs>
</svg>
