<?xml version="1.0" encoding="utf-8" standalone="no"?>
<!DOCTYPE svg PUBLIC "-//W3C//DTD SVG 1.1//EN"
  "http://www.w3.org/Graphics/SVG/1.1/DTD/svg11.dtd">
<svg height="170.07874pt" version="1.1" viewBox="0 0 285.732283 170.07874" width="285.732283pt" xmlns="http://www.w3.org/2000/svg" xmlns:xlink="http://www.w3.org/1999/xlink">
 <metadata>
  <rdf:RDF xmlns:cc="http://creativecommons.org/ns#" xmlns:dc="http://purl.org/dc/elements/1.1/" xmlns:rdf="http://www.w3.org/1999/02/22-rdf-syntax-ns#">
   <cc:Work>
    <dc:type rdf:resource="http://purl.org/dc/dcmitype/StillImage"/>
    <dc:date>2021-11-12T13:51:59.744597</dc:date>
    <dc:format>image/svg+xml</dc:format>
    <dc:creator>
     <cc:Agent>
      <dc:title>Matplotlib v3.4.2, https://matplotlib.org/</dc:title>
     </cc:Agent>
    </dc:creator>
   </cc:Work>
  </rdf:RDF>
 </metadata>
 <defs>
  <style type="text/css">*{stroke-linecap:butt;stroke-linejoin:round;}</style>
 </defs>
 <g id="figure_1">
  <g id="patch_1">
   <path d="M 0 170.07874 
L 285.732283 170.07874 
L 285.732283 0 
L 0 0 
z
" style="fill:none;"/>
  </g>
  <g id="axes_1">
   <g id="patch_2">
    <path d="M 30.417839 140.767895 
L 284.732283 140.767895 
L 284.732283 1 
L 30.417839 1 
z
" style="fill:#ffffff;"/>
   </g>
   <g id="matplotlib.axis_1">
    <g id="xtick_1">
     <g id="line2d_1">
      <defs>
       <path d="M 0 0 
L 0 -3.5 
" id="ma865508253" style="stroke:#000000;stroke-width:0.8;"/>
      </defs>
      <g>
       <use style="stroke:#000000;stroke-width:0.8;" x="41.977586" xlink:href="#ma865508253" y="140.767895"/>
      </g>
     </g>
     <g id="text_1">
      <!-- $\mathdefault{0}$ -->
      <g transform="translate(39.486918 151.186394)scale(0.1 -0.1)">
       <defs>
        <path d="M 2688 2038 
C 2688 2430 2682 3099 2413 3613 
C 2176 4063 1798 4224 1466 4224 
C 1158 4224 768 4082 525 3620 
C 269 3137 243 2539 243 2038 
C 243 1671 250 1112 448 623 
C 723 -39 1216 -128 1466 -128 
C 1760 -128 2208 -7 2470 604 
C 2662 1048 2688 1568 2688 2038 
z
M 1466 -26 
C 1056 -26 813 328 723 816 
C 653 1196 653 1749 653 2109 
C 653 2604 653 3015 736 3407 
C 858 3954 1216 4121 1466 4121 
C 1728 4121 2067 3947 2189 3420 
C 2272 3054 2278 2623 2278 2109 
C 2278 1691 2278 1176 2202 797 
C 2067 96 1690 -26 1466 -26 
z
" id="CMR17-30" transform="scale(0.015625)"/>
       </defs>
       <use transform="scale(0.996264)" xlink:href="#CMR17-30"/>
      </g>
     </g>
    </g>
    <g id="xtick_2">
     <g id="line2d_2">
      <g>
       <use style="stroke:#000000;stroke-width:0.8;" x="80.516501" xlink:href="#ma865508253" y="140.767895"/>
      </g>
     </g>
     <g id="text_2">
      <!-- $\mathdefault{10}$ -->
      <g transform="translate(75.535166 151.186394)scale(0.1 -0.1)">
       <defs>
        <path d="M 1702 4083 
C 1702 4217 1696 4224 1606 4224 
C 1357 3927 979 3833 621 3820 
C 602 3820 570 3820 563 3808 
C 557 3795 557 3782 557 3648 
C 755 3648 1088 3686 1344 3839 
L 1344 467 
C 1344 243 1331 166 781 166 
L 589 166 
L 589 0 
C 896 6 1216 12 1523 12 
C 1830 12 2150 6 2458 0 
L 2458 166 
L 2266 166 
C 1715 166 1702 236 1702 467 
L 1702 4083 
z
" id="CMR17-31" transform="scale(0.015625)"/>
       </defs>
       <use transform="scale(0.996264)" xlink:href="#CMR17-31"/>
       <use transform="translate(45.690477 0)scale(0.996264)" xlink:href="#CMR17-30"/>
      </g>
     </g>
    </g>
    <g id="xtick_3">
     <g id="line2d_3">
      <g>
       <use style="stroke:#000000;stroke-width:0.8;" x="119.055416" xlink:href="#ma865508253" y="140.767895"/>
      </g>
     </g>
     <g id="text_3">
      <!-- $\mathdefault{20}$ -->
      <g transform="translate(114.07408 151.186394)scale(0.1 -0.1)">
       <defs>
        <path d="M 2669 990 
L 2554 990 
C 2490 537 2438 460 2413 422 
C 2381 371 1920 371 1830 371 
L 602 371 
C 832 620 1280 1073 1824 1596 
C 2214 1966 2669 2400 2669 3033 
C 2669 3788 2067 4224 1395 4224 
C 691 4224 262 3603 262 3027 
C 262 2777 448 2745 525 2745 
C 589 2745 781 2783 781 3007 
C 781 3206 614 3264 525 3264 
C 486 3264 448 3257 422 3244 
C 544 3788 915 4057 1306 4057 
C 1862 4057 2227 3616 2227 3033 
C 2227 2477 1901 1998 1536 1583 
L 262 147 
L 262 0 
L 2515 0 
L 2669 990 
z
" id="CMR17-32" transform="scale(0.015625)"/>
       </defs>
       <use transform="scale(0.996264)" xlink:href="#CMR17-32"/>
       <use transform="translate(45.690477 0)scale(0.996264)" xlink:href="#CMR17-30"/>
      </g>
     </g>
    </g>
    <g id="xtick_4">
     <g id="line2d_4">
      <g>
       <use style="stroke:#000000;stroke-width:0.8;" x="157.594331" xlink:href="#ma865508253" y="140.767895"/>
      </g>
     </g>
     <g id="text_4">
      <!-- $\mathdefault{30}$ -->
      <g transform="translate(152.612995 151.186394)scale(0.1 -0.1)">
       <defs>
        <path d="M 1414 2176 
C 1984 2176 2234 1673 2234 1094 
C 2234 322 1824 25 1453 25 
C 1114 25 563 193 390 691 
C 422 678 454 678 486 678 
C 640 678 755 780 755 947 
C 755 1132 614 1216 486 1216 
C 378 1216 211 1164 211 927 
C 211 335 787 -128 1466 -128 
C 2176 -128 2720 432 2720 1087 
C 2720 1718 2208 2176 1600 2246 
C 2086 2347 2554 2776 2554 3353 
C 2554 3856 2048 4224 1472 4224 
C 890 4224 378 3862 378 3347 
C 378 3123 544 3084 627 3084 
C 762 3084 877 3167 877 3334 
C 877 3500 762 3584 627 3584 
C 602 3584 570 3584 544 3571 
C 730 3999 1235 4076 1459 4076 
C 1683 4076 2106 3966 2106 3347 
C 2106 3167 2080 2851 1862 2574 
C 1670 2329 1453 2316 1242 2297 
C 1210 2297 1062 2284 1037 2284 
C 992 2278 966 2272 966 2227 
C 966 2182 973 2176 1101 2176 
L 1414 2176 
z
" id="CMR17-33" transform="scale(0.015625)"/>
       </defs>
       <use transform="scale(0.996264)" xlink:href="#CMR17-33"/>
       <use transform="translate(45.690477 0)scale(0.996264)" xlink:href="#CMR17-30"/>
      </g>
     </g>
    </g>
    <g id="xtick_5">
     <g id="line2d_5">
      <g>
       <use style="stroke:#000000;stroke-width:0.8;" x="196.133245" xlink:href="#ma865508253" y="140.767895"/>
      </g>
     </g>
     <g id="text_5">
      <!-- $\mathdefault{40}$ -->
      <g transform="translate(191.15191 151.186394)scale(0.1 -0.1)">
       <defs>
        <path d="M 2150 4147 
C 2150 4281 2144 4288 2029 4288 
L 128 1254 
L 128 1088 
L 1779 1088 
L 1779 460 
C 1779 230 1766 166 1318 166 
L 1197 166 
L 1197 0 
C 1402 12 1747 12 1965 12 
C 2182 12 2528 12 2733 0 
L 2733 166 
L 2611 166 
C 2163 166 2150 230 2150 460 
L 2150 1088 
L 2803 1088 
L 2803 1254 
L 2150 1254 
L 2150 4147 
z
M 1798 3723 
L 1798 1254 
L 256 1254 
L 1798 3723 
z
" id="CMR17-34" transform="scale(0.015625)"/>
       </defs>
       <use transform="scale(0.996264)" xlink:href="#CMR17-34"/>
       <use transform="translate(45.690477 0)scale(0.996264)" xlink:href="#CMR17-30"/>
      </g>
     </g>
    </g>
    <g id="xtick_6">
     <g id="line2d_6">
      <g>
       <use style="stroke:#000000;stroke-width:0.8;" x="234.67216" xlink:href="#ma865508253" y="140.767895"/>
      </g>
     </g>
     <g id="text_6">
      <!-- $\mathdefault{50}$ -->
      <g transform="translate(229.690825 151.186394)scale(0.1 -0.1)">
       <defs>
        <path d="M 730 3750 
C 794 3724 1056 3641 1325 3641 
C 1920 3641 2246 3961 2432 4140 
C 2432 4191 2432 4224 2394 4224 
C 2387 4224 2374 4224 2323 4198 
C 2099 4102 1837 4032 1517 4032 
C 1325 4032 1037 4055 723 4191 
C 653 4224 640 4224 634 4224 
C 602 4224 595 4217 595 4090 
L 595 2231 
C 595 2113 595 2080 659 2080 
C 691 2080 704 2093 736 2139 
C 941 2435 1222 2560 1542 2560 
C 1766 2560 2246 2415 2246 1293 
C 2246 1087 2246 716 2054 422 
C 1894 159 1645 25 1370 25 
C 947 25 518 319 403 812 
C 429 806 480 793 506 793 
C 589 793 749 838 749 1036 
C 749 1209 627 1280 506 1280 
C 358 1280 262 1190 262 1011 
C 262 454 704 -128 1382 -128 
C 2042 -128 2669 441 2669 1267 
C 2669 2054 2170 2662 1549 2662 
C 1222 2662 947 2540 730 2304 
L 730 3750 
z
" id="CMR17-35" transform="scale(0.015625)"/>
       </defs>
       <use transform="scale(0.996264)" xlink:href="#CMR17-35"/>
       <use transform="translate(45.690477 0)scale(0.996264)" xlink:href="#CMR17-30"/>
      </g>
     </g>
    </g>
    <g id="xtick_7">
     <g id="line2d_7">
      <g>
       <use style="stroke:#000000;stroke-width:0.8;" x="273.211075" xlink:href="#ma865508253" y="140.767895"/>
      </g>
     </g>
     <g id="text_7">
      <!-- $\mathdefault{60}$ -->
      <g transform="translate(268.22974 151.186394)scale(0.1 -0.1)">
       <defs>
        <path d="M 678 2198 
C 678 3712 1395 4076 1811 4076 
C 1946 4076 2272 4049 2400 3782 
C 2298 3782 2106 3782 2106 3558 
C 2106 3385 2246 3328 2336 3328 
C 2394 3328 2566 3353 2566 3571 
C 2566 3987 2246 4224 1805 4224 
C 1043 4224 243 3411 243 2011 
C 243 257 966 -128 1478 -128 
C 2099 -128 2688 431 2688 1295 
C 2688 2101 2170 2688 1517 2688 
C 1126 2688 838 2430 678 1979 
L 678 2198 
z
M 1478 25 
C 691 25 691 1212 691 1450 
C 691 1914 909 2585 1504 2585 
C 1613 2585 1926 2585 2138 2140 
C 2253 1889 2253 1624 2253 1302 
C 2253 954 2253 696 2118 438 
C 1978 173 1773 25 1478 25 
z
" id="CMR17-36" transform="scale(0.015625)"/>
       </defs>
       <use transform="scale(0.996264)" xlink:href="#CMR17-36"/>
       <use transform="translate(45.690477 0)scale(0.996264)" xlink:href="#CMR17-30"/>
      </g>
     </g>
    </g>
    <g id="text_8">
     <!-- $t$ (s) -->
     <g transform="translate(146.649479 166.089948)scale(0.12 -0.12)">
      <defs>
       <path d="M 1286 2566 
L 1875 2566 
C 1997 2566 2061 2566 2061 2681 
C 2061 2752 2022 2752 1894 2752 
L 1331 2752 
L 1568 3664 
C 1594 3752 1594 3764 1594 3808 
C 1594 3910 1510 3968 1427 3968 
C 1376 3968 1229 3948 1178 3746 
L 928 2752 
L 326 2752 
C 198 2752 141 2752 141 2630 
C 141 2566 186 2566 307 2566 
L 877 2566 
L 454 881 
C 403 657 384 593 384 510 
C 384 210 595 -64 954 -64 
C 1600 -64 1946 868 1946 913 
C 1946 951 1920 970 1882 970 
C 1869 970 1843 970 1830 944 
C 1824 938 1818 932 1773 830 
C 1638 510 1344 64 973 64 
C 781 64 768 223 768 364 
C 768 370 768 491 787 568 
L 1286 2566 
z
" id="CMMI12-74" transform="scale(0.015625)"/>
       <path d="M 1958 -1562 
C 1958 -1556 1958 -1543 1939 -1524 
C 1645 -1223 858 -403 858 1596 
C 858 3595 1632 4408 1946 4729 
C 1946 4735 1958 4748 1958 4767 
C 1958 4787 1939 4800 1914 4800 
C 1843 4800 1299 4325 986 3620 
C 666 2909 576 2218 576 1603 
C 576 1141 621 360 1005 -467 
C 1312 -1133 1837 -1600 1914 -1600 
C 1946 -1600 1958 -1588 1958 -1562 
z
" id="CMR17-28" transform="scale(0.015625)"/>
       <path d="M 1978 2688 
C 1978 2803 1971 2809 1933 2809 
C 1907 2809 1901 2803 1824 2707 
C 1805 2681 1747 2617 1728 2592 
C 1523 2809 1235 2816 1126 2816 
C 416 2816 160 2444 160 2073 
C 160 1497 813 1363 998 1324 
C 1402 1241 1542 1216 1677 1100 
C 1760 1024 1901 883 1901 652 
C 1901 384 1747 38 1158 38 
C 602 38 403 460 288 1024 
C 269 1113 269 1120 218 1120 
C 166 1120 160 1113 160 985 
L 160 64 
C 160 -52 166 -58 205 -58 
C 237 -58 243 -52 275 0 
C 314 57 410 211 448 275 
C 576 102 800 -64 1158 -64 
C 1792 -64 2131 281 2131 780 
C 2131 1107 1958 1280 1875 1356 
C 1683 1555 1459 1600 1190 1651 
C 838 1728 390 1817 390 2208 
C 390 2374 480 2726 1126 2726 
C 1811 2726 1850 2086 1862 1881 
C 1869 1849 1901 1843 1920 1843 
C 1978 1843 1978 1862 1978 1971 
L 1978 2688 
z
" id="CMR17-73" transform="scale(0.015625)"/>
       <path d="M 1683 1596 
C 1683 2057 1638 2839 1254 3665 
C 947 4332 422 4800 346 4800 
C 326 4800 301 4793 301 4761 
C 301 4748 307 4742 314 4729 
C 621 4408 1402 3595 1402 1603 
C 1402 -396 627 -1210 314 -1530 
C 307 -1543 301 -1549 301 -1562 
C 301 -1594 326 -1600 346 -1600 
C 416 -1600 960 -1127 1274 -422 
C 1594 289 1683 981 1683 1596 
z
" id="CMR17-29" transform="scale(0.015625)"/>
      </defs>
      <use transform="scale(0.996264)" xlink:href="#CMMI12-74"/>
      <use transform="translate(65.302297 0)scale(0.996264)" xlink:href="#CMR17-28"/>
      <use transform="translate(100.583064 0)scale(0.996264)" xlink:href="#CMR17-73"/>
      <use transform="translate(136.384402 0)scale(0.996264)" xlink:href="#CMR17-29"/>
     </g>
    </g>
   </g>
   <g id="matplotlib.axis_2">
    <g id="ytick_1">
     <g id="line2d_8">
      <defs>
       <path d="M 0 0 
L 3.5 0 
" id="m51930e0a4f" style="stroke:#000000;stroke-width:0.8;"/>
      </defs>
      <g>
       <use style="stroke:#000000;stroke-width:0.8;" x="30.417839" xlink:href="#m51930e0a4f" y="117.497031"/>
      </g>
     </g>
     <g id="text_9">
      <!-- $\mathdefault{15}$ -->
      <g transform="translate(16.955168 120.95628)scale(0.1 -0.1)">
       <use transform="scale(0.996264)" xlink:href="#CMR17-31"/>
       <use transform="translate(45.690477 0)scale(0.996264)" xlink:href="#CMR17-35"/>
      </g>
     </g>
    </g>
    <g id="ytick_2">
     <g id="line2d_9">
      <g>
       <use style="stroke:#000000;stroke-width:0.8;" x="30.417839" xlink:href="#m51930e0a4f" y="82.835038"/>
      </g>
     </g>
     <g id="text_10">
      <!-- $\mathdefault{20}$ -->
      <g transform="translate(16.955168 86.294287)scale(0.1 -0.1)">
       <use transform="scale(0.996264)" xlink:href="#CMR17-32"/>
       <use transform="translate(45.690477 0)scale(0.996264)" xlink:href="#CMR17-30"/>
      </g>
     </g>
    </g>
    <g id="ytick_3">
     <g id="line2d_10">
      <g>
       <use style="stroke:#000000;stroke-width:0.8;" x="30.417839" xlink:href="#m51930e0a4f" y="48.173045"/>
      </g>
     </g>
     <g id="text_11">
      <!-- $\mathdefault{25}$ -->
      <g transform="translate(16.955168 51.632294)scale(0.1 -0.1)">
       <use transform="scale(0.996264)" xlink:href="#CMR17-32"/>
       <use transform="translate(45.690477 0)scale(0.996264)" xlink:href="#CMR17-35"/>
      </g>
     </g>
    </g>
    <g id="ytick_4">
     <g id="line2d_11">
      <g>
       <use style="stroke:#000000;stroke-width:0.8;" x="30.417839" xlink:href="#m51930e0a4f" y="13.511052"/>
      </g>
     </g>
     <g id="text_12">
      <!-- $\mathdefault{30}$ -->
      <g transform="translate(16.955168 16.970301)scale(0.1 -0.1)">
       <use transform="scale(0.996264)" xlink:href="#CMR17-33"/>
       <use transform="translate(45.690477 0)scale(0.996264)" xlink:href="#CMR17-30"/>
      </g>
     </g>
    </g>
    <g id="text_13">
     <!-- $z$ ($\mu$m) -->
     <g transform="translate(9.966376 88.771551)rotate(-90)scale(0.12 -0.12)">
      <defs>
       <path d="M 813 486 
C 1088 809 1312 1015 1632 1313 
C 2016 1657 2182 1822 2272 1922 
C 2720 2371 2944 2713 2944 2764 
C 2944 2816 2893 2816 2880 2816 
C 2835 2816 2822 2790 2790 2745 
C 2630 2470 2477 2368 2310 2368 
C 2176 2368 2106 2403 1984 2547 
C 1850 2707 1741 2816 1555 2816 
C 1088 2816 806 2265 806 2127 
C 806 2107 813 2067 870 2067 
C 922 2067 928 2094 947 2140 
C 1056 2387 1363 2415 1485 2415 
C 1619 2415 1747 2387 1882 2342 
C 2125 2239 2227 2239 2291 2239 
C 2336 2239 2362 2239 2394 2246 
C 2182 1988 1837 1670 1549 1399 
L 902 783 
C 512 380 275 32 275 -13 
C 275 -52 307 -64 346 -64 
C 384 -64 390 -58 435 19 
C 538 179 742 384 979 384 
C 1114 384 1178 356 1306 211 
C 1427 70 1536 -64 1741 -64 
C 2368 -64 2726 723 2726 876 
C 2726 902 2720 942 2656 942 
C 2605 942 2598 915 2579 849 
C 2438 460 2061 336 1811 336 
C 1677 336 1549 364 1414 409 
C 1158 512 1088 512 1005 512 
C 941 512 870 512 813 486 
z
" id="CMMI12-7a" transform="scale(0.015625)"/>
       <path d="M 922 140 
C 1082 -7 1318 -64 1536 -64 
C 1946 -64 2227 210 2374 408 
C 2438 70 2707 -64 2931 -64 
C 3123 -64 3277 51 3392 281 
C 3494 498 3584 887 3584 913 
C 3584 944 3558 970 3520 970 
C 3462 970 3456 938 3430 842 
C 3334 466 3213 64 2950 64 
C 2765 64 2752 229 2752 357 
C 2752 504 2810 734 2854 925 
L 3034 1615 
C 3059 1736 3130 2023 3162 2138 
C 3200 2291 3270 2566 3270 2591 
C 3270 2687 3194 2752 3098 2752 
C 3040 2752 2906 2726 2854 2534 
L 2406 759 
C 2374 632 2374 619 2291 517 
C 2214 408 1965 64 1562 64 
C 1203 64 1088 325 1088 625 
C 1088 811 1146 1034 1171 1143 
L 1459 2292 
C 1491 2413 1542 2617 1542 2656 
C 1542 2758 1459 2816 1376 2816 
C 1318 2816 1178 2796 1126 2592 
L 198 -1085 
C 192 -1116 179 -1154 179 -1191 
C 179 -1287 256 -1351 352 -1351 
C 538 -1351 576 -1204 621 -1029 
L 922 140 
z
" id="CMMI12-16" transform="scale(0.015625)"/>
       <path d="M 4326 1954 
C 4326 2276 4269 2816 3507 2816 
C 3072 2816 2771 2520 2656 2173 
L 2650 2173 
C 2573 2700 2195 2816 1837 2816 
C 1331 2816 1069 2424 973 2166 
L 966 2166 
L 966 2816 
L 211 2745 
L 211 2578 
C 589 2578 646 2540 646 2231 
L 646 443 
C 646 198 621 166 211 166 
L 211 0 
C 365 12 646 12 813 12 
C 979 12 1267 12 1421 0 
L 1421 166 
C 1011 166 986 192 986 443 
L 986 1678 
C 986 2269 1344 2713 1792 2713 
C 2266 2713 2317 2289 2317 1980 
L 2317 443 
C 2317 198 2291 166 1882 166 
L 1882 0 
C 2035 12 2317 12 2483 12 
C 2650 12 2938 12 3091 0 
L 3091 166 
C 2682 166 2656 192 2656 443 
L 2656 1678 
C 2656 2269 3014 2713 3462 2713 
C 3936 2713 3987 2289 3987 1980 
L 3987 443 
C 3987 198 3962 166 3552 166 
L 3552 0 
C 3706 12 3987 12 4154 12 
C 4320 12 4608 12 4762 0 
L 4762 166 
C 4352 166 4326 192 4326 443 
L 4326 1954 
z
" id="CMR17-6d" transform="scale(0.015625)"/>
      </defs>
      <use transform="scale(0.996264)" xlink:href="#CMMI12-7a"/>
      <use transform="translate(79.831111 0)scale(0.996264)" xlink:href="#CMR17-28"/>
      <use transform="translate(115.111879 0)scale(0.996264)" xlink:href="#CMMI12-16"/>
      <use transform="translate(173.8033 0)scale(0.996264)" xlink:href="#CMR17-6d"/>
      <use transform="translate(250.72289 0)scale(0.996264)" xlink:href="#CMR17-29"/>
     </g>
    </g>
   </g>
   <g id="line2d_12">
    <path clip-path="url(#p6de50e2e0d)" d="M 41.977586 10.376964 
L 42.170281 12.69333 
L 42.20882 11.517333 
L 42.247359 12.776789 
L 42.324436 13.818675 
L 42.401514 13.190905 
L 42.440053 12.804402 
L 42.478592 13.160407 
L 42.55567 13.665676 
L 42.594209 12.222307 
L 42.632748 13.510027 
L 42.671287 13.551881 
L 42.709825 13.448316 
L 42.786903 11.999471 
L 42.863981 12.946646 
L 42.90252 13.807708 
L 42.941059 12.77182 
L 42.979598 13.233536 
L 43.018137 13.326853 
L 43.133754 14.133368 
L 43.210831 12.519589 
L 43.24937 13.225806 
L 43.287909 13.793493 
L 43.326448 13.764492 
L 43.519143 10.731655 
L 43.596221 11.83552 
L 43.634759 11.7761 
L 43.673298 11.173971 
L 43.711837 12.148131 
L 43.750376 12.247538 
L 43.865993 9.324002 
L 43.98161 11.648595 
L 44.020149 11.265715 
L 44.058688 12.147805 
L 44.097226 11.383618 
L 44.251382 10.228758 
L 44.289921 10.316976 
L 44.32846 9.43173 
L 44.405538 10.117298 
L 44.482616 11.049245 
L 44.521154 10.930503 
L 44.790927 7.732108 
L 44.829466 9.412126 
L 44.868005 8.481766 
L 44.983621 7.353086 
L 45.02216 7.49861 
L 45.291933 11.004757 
L 45.330472 10.871006 
L 45.40755 9.105188 
L 45.446088 9.394039 
L 45.638783 11.11175 
L 45.677322 11.090149 
L 45.792939 8.159523 
L 45.870017 8.715963 
L 45.947094 8.32961 
L 46.024172 9.994706 
L 46.062711 9.761685 
L 46.139789 10.873954 
L 46.178328 12.243711 
L 46.255406 11.225669 
L 46.293945 10.887579 
L 46.409561 13.455415 
L 46.4481 10.483423 
L 46.525178 10.888773 
L 46.679334 10.546645 
L 46.717873 10.695838 
L 46.756412 10.11558 
L 46.833489 10.594231 
L 46.872028 10.42725 
L 46.910567 8.881486 
L 46.949106 9.075964 
L 47.026184 10.45249 
L 47.064723 10.395981 
L 47.141801 9.465165 
L 47.18034 10.359713 
L 47.257417 9.970832 
L 47.373034 10.923161 
L 47.52719 8.904271 
L 47.565729 9.289513 
L 47.642807 8.996379 
L 47.681346 9.043014 
L 47.912579 10.978415 
L 47.951118 10.150282 
L 47.989657 10.663315 
L 48.105274 13.175096 
L 48.143812 12.309432 
L 48.182351 11.85049 
L 48.336507 14.424033 
L 48.490663 12.801679 
L 48.529202 13.6809 
L 48.606279 13.589305 
L 48.644818 13.580226 
L 48.721896 12.404377 
L 48.760435 12.649123 
L 48.914591 13.87805 
L 48.95313 14.013908 
L 49.107285 12.516368 
L 49.29998 15.180949 
L 49.377058 12.63966 
L 49.415597 13.4871 
L 49.492675 13.827148 
L 49.569752 11.980142 
L 49.608291 13.395252 
L 49.685369 12.924422 
L 49.762447 13.11381 
L 49.800986 12.388859 
L 49.839525 13.196405 
L 49.878064 12.947361 
L 49.916603 12.749784 
L 49.955141 11.75265 
L 49.99368 12.910394 
L 50.032219 13.535195 
L 50.070758 12.744617 
L 50.109297 11.697995 
L 50.186375 12.570631 
L 50.263453 12.307929 
L 50.301992 13.808154 
L 50.340531 12.401159 
L 50.37907 13.270008 
L 50.417608 14.322894 
L 50.494686 13.649945 
L 50.648842 15.198643 
L 50.72592 14.238521 
L 50.764459 14.528942 
L 50.841537 15.430176 
L 50.880075 15.34207 
L 50.918614 15.375375 
L 50.957153 14.507197 
L 50.995692 15.397244 
L 51.034231 14.663573 
L 51.111309 15.283221 
L 51.149848 15.779437 
L 51.188387 15.147737 
L 51.226926 15.441496 
L 51.304003 14.144188 
L 51.342542 14.356102 
L 51.496698 15.888368 
L 51.535237 14.763299 
L 51.573776 15.257692 
L 51.612315 15.834229 
L 51.650854 15.776825 
L 51.76647 14.596984 
L 51.805009 14.758527 
L 51.920626 15.719783 
L 51.959165 15.306581 
L 51.997704 15.373161 
L 52.190399 17.34237 
L 52.228937 16.968218 
L 52.267476 17.56092 
L 52.460171 20.046264 
L 52.49871 19.791863 
L 52.575788 18.980183 
L 52.691404 20.593745 
L 52.807021 18.702586 
L 52.922638 21.695717 
L 52.961177 20.911297 
L 53.076794 17.845334 
L 53.115332 17.954747 
L 53.269488 19.546965 
L 53.346566 17.057908 
L 53.385105 18.095251 
L 53.577799 18.978007 
L 53.654877 21.013561 
L 53.693416 20.826421 
L 53.809033 19.660456 
L 53.847572 20.823309 
L 53.886111 20.014027 
L 53.963189 18.53411 
L 54.078805 21.127766 
L 54.117344 21.053785 
L 54.155883 19.097408 
L 54.232961 20.518385 
L 54.2715 20.425478 
L 54.310039 21.506073 
L 54.348578 20.626176 
L 54.464195 19.116032 
L 54.502733 19.053158 
L 54.61835 20.588649 
L 54.695428 18.696084 
L 54.733967 19.042345 
L 54.811045 20.010386 
L 54.849584 19.884677 
L 54.926661 19.513275 
L 54.9652 19.797308 
L 55.003739 20.655459 
L 55.042278 19.509979 
L 55.080817 19.807484 
L 55.119356 22.070711 
L 55.196434 21.45665 
L 55.234973 21.590643 
L 55.273512 20.478956 
L 55.35059 20.890611 
L 55.389128 20.810388 
L 55.504745 22.683145 
L 55.658901 20.51848 
L 55.813057 22.023206 
L 55.851595 22.647222 
L 55.890134 21.608225 
L 55.928673 22.543066 
L 56.005751 22.645242 
L 56.04429 22.308529 
L 56.198446 23.699373 
L 56.121368 21.968988 
L 56.236985 23.687218 
L 56.314062 21.687038 
L 56.352601 22.494238 
L 56.429679 21.584096 
L 56.545296 23.497301 
L 56.583835 22.908563 
L 56.622374 23.450534 
L 56.699452 25.139577 
L 56.73799 24.008604 
L 56.776529 23.78905 
L 56.815068 25.037288 
L 56.892146 24.294569 
L 56.969224 25.152675 
L 57.007763 24.948676 
L 57.046302 24.07181 
L 57.12338 24.332236 
L 57.161919 25.531368 
L 57.200457 25.268858 
L 57.238996 24.146735 
L 57.316074 25.111773 
L 57.354613 25.516478 
L 57.393152 25.006877 
L 57.431691 24.2497 
L 57.547308 26.517955 
L 57.585847 25.585813 
L 57.624386 25.963481 
L 57.662924 26.927674 
L 57.701463 25.294282 
L 57.740002 25.004986 
L 57.855619 27.910791 
L 57.81708 24.93419 
L 57.894158 27.061071 
L 57.932697 27.047088 
L 58.009775 25.692994 
L 58.048314 26.846705 
L 58.241008 28.20053 
L 58.472242 25.565313 
L 58.510781 26.434053 
L 58.626397 28.053317 
L 58.819092 25.753921 
L 58.703475 28.135639 
L 58.857631 26.588726 
L 58.89617 26.516263 
L 59.088864 24.216492 
L 59.204481 26.130731 
L 59.281559 26.349144 
L 59.320098 25.53723 
L 59.58987 28.064398 
L 59.782565 26.419658 
L 59.898181 27.615619 
L 59.975259 27.727631 
L 60.167954 25.351601 
L 60.245032 24.673413 
L 60.283571 25.312438 
L 60.32211 24.311683 
L 60.360648 24.487213 
L 60.399187 24.3155 
L 60.476265 22.901013 
L 60.514804 23.664169 
L 60.553343 23.331396 
L 60.591882 24.489077 
L 60.66896 23.631908 
L 60.784577 23.155827 
L 60.823115 23.207813 
L 60.861654 23.136069 
L 60.900193 23.27603 
L 60.938732 22.682215 
L 60.977271 23.56191 
L 61.092888 24.99381 
L 61.131427 23.611291 
L 61.208505 24.110117 
L 61.516816 27.213262 
L 61.593894 27.029005 
L 61.632433 28.102583 
L 61.70951 27.989686 
L 61.748049 27.99886 
L 61.786588 28.179681 
L 61.825127 27.28732 
L 61.902205 27.604379 
L 61.979283 28.179474 
L 62.017822 30.146739 
L 62.0949 29.301174 
L 62.133439 29.840108 
L 62.171977 29.212618 
L 62.210516 28.641738 
L 62.249055 29.080159 
L 62.287594 29.188035 
L 62.326133 30.130143 
L 62.364672 29.110409 
L 62.403211 28.870745 
L 62.557367 30.365791 
L 62.595906 28.418874 
L 62.672983 28.651782 
L 62.827139 30.949563 
L 62.865678 30.993302 
L 62.981295 32.692595 
L 63.019834 32.472133 
L 63.058373 32.48898 
L 63.096911 31.605902 
L 63.173989 31.950434 
L 63.212528 32.40944 
L 63.251067 32.36278 
L 63.328145 31.180344 
L 63.366684 32.91378 
L 63.443762 32.254124 
L 63.636456 33.947183 
L 63.790612 33.54061 
L 63.829151 34.201175 
L 63.906229 33.874291 
L 63.944768 33.242606 
L 63.983306 34.607561 
L 64.060384 34.04941 
L 64.137462 33.614563 
L 64.176001 33.950572 
L 64.21454 34.876191 
L 64.253079 34.137137 
L 64.368696 33.554423 
L 64.445773 34.326714 
L 64.522851 32.6809 
L 64.56139 32.976612 
L 64.599929 33.535977 
L 64.638468 32.948119 
L 64.677007 32.900937 
L 64.715546 32.255048 
L 64.792624 32.409187 
L 64.869702 32.40216 
L 64.90824 31.624858 
L 64.985318 32.023663 
L 65.062396 34.029593 
L 65.100935 33.730262 
L 65.139474 31.642915 
L 65.216552 31.912588 
L 65.29363 31.804746 
L 65.486324 33.587205 
L 65.524863 33.630093 
L 65.563402 33.848031 
L 65.601941 33.826589 
L 65.64048 32.896509 
L 65.717558 33.386759 
L 65.794635 34.197746 
L 65.833174 33.520873 
L 65.871713 33.571292 
L 65.910252 33.954067 
L 65.948791 32.689325 
L 65.98733 33.765371 
L 66.141486 35.370656 
L 66.180025 35.168624 
L 66.218564 35.503475 
L 66.257102 34.882211 
L 66.295641 35.119453 
L 66.33418 34.920432 
L 66.372719 34.157429 
L 66.411258 34.808383 
L 66.449797 35.482671 
L 66.526875 35.379661 
L 66.565414 35.504535 
L 66.603953 35.17574 
L 66.68103 37.154701 
L 66.719569 36.757937 
L 66.758108 35.992243 
L 66.835186 36.654953 
L 66.912264 36.996178 
L 67.027881 36.455486 
L 66.989342 37.107265 
L 67.06642 36.60256 
L 67.104959 36.632368 
L 67.143497 36.394272 
L 67.182036 36.564274 
L 67.451809 37.792054 
L 67.490348 38.937963 
L 67.567426 38.131261 
L 67.605964 38.01937 
L 67.644503 36.915595 
L 67.721581 37.446696 
L 67.798659 37.287463 
L 67.837198 37.521857 
L 67.914276 38.81785 
L 67.991354 38.80639 
L 68.029893 39.04722 
L 68.068431 38.885889 
L 68.145509 38.483686 
L 68.261126 39.310345 
L 68.299665 39.225436 
L 68.338204 38.897292 
L 68.530898 41.137211 
L 68.646515 40.798394 
L 68.723593 41.459369 
L 68.762132 40.908948 
L 68.916288 40.548657 
L 68.993365 40.813031 
L 69.070443 40.740444 
L 69.224599 39.36191 
L 69.301677 39.557245 
L 69.378755 39.430545 
L 69.417293 39.031961 
L 69.494371 39.195323 
L 69.53291 39.261225 
L 69.571449 40.178725 
L 69.648527 39.730098 
L 69.687066 39.50993 
L 69.725605 39.739142 
L 69.764144 41.035502 
L 69.841222 40.180543 
L 69.918299 40.332494 
L 69.956838 39.571606 
L 70.033916 39.78303 
L 70.110994 40.702335 
L 70.149533 39.892892 
L 70.188072 39.542703 
L 70.226611 41.260473 
L 70.303688 40.396141 
L 70.342227 40.683598 
L 70.380766 40.29324 
L 70.612 38.694693 
L 70.689078 37.774595 
L 70.727617 37.826375 
L 70.881772 38.887742 
L 70.95885 38.710582 
L 71.151545 40.72814 
L 71.190084 39.690664 
L 71.228622 40.567613 
L 71.267161 40.617589 
L 71.3057 41.19744 
L 71.344239 40.508967 
L 71.382778 40.90403 
L 71.536934 40.55224 
L 71.575473 41.031049 
L 71.614012 40.678167 
L 71.652551 40.245206 
L 71.768167 41.321343 
L 71.806706 41.002514 
L 71.999401 43.001019 
L 72.03794 40.747086 
L 72.115017 40.750596 
L 72.192095 42.937386 
L 72.230634 42.066372 
L 72.307712 41.068542 
L 72.38479 41.179163 
L 72.538946 39.786296 
L 72.577484 40.031089 
L 72.616023 41.447707 
L 72.693101 41.139543 
L 72.73164 40.780587 
L 72.770179 41.451073 
L 72.847257 41.50412 
L 72.885796 40.636892 
L 72.924335 39.970999 
L 72.962874 41.103172 
L 73.001413 41.055996 
L 73.039951 40.406297 
L 73.07849 41.262342 
L 73.117029 41.047585 
L 73.232646 39.35341 
L 73.271185 40.124455 
L 73.309724 38.789971 
L 73.348263 38.760572 
L 73.386802 39.671473 
L 73.425341 38.054939 
L 73.46388 37.624443 
L 73.579496 38.950576 
L 73.656574 37.817859 
L 73.695113 37.83856 
L 73.81073 39.042704 
L 73.849269 38.54376 
L 73.964885 37.425978 
L 73.926346 38.752858 
L 74.003424 37.905869 
L 74.119041 38.66278 
L 74.196119 40.04338 
L 74.234658 39.328136 
L 74.273197 39.03973 
L 74.311736 39.974502 
L 74.350275 39.861724 
L 74.388813 39.068513 
L 74.465891 39.393823 
L 74.620047 38.719839 
L 74.735664 39.401682 
L 74.774203 39.188826 
L 74.812742 38.64568 
L 74.889819 38.723357 
L 74.928358 39.116505 
L 74.966897 38.737882 
L 75.005436 38.238864 
L 75.043975 39.169498 
L 75.275208 37.260082 
L 75.352286 37.9918 
L 75.390825 37.700342 
L 75.467903 36.733509 
L 75.506442 37.489198 
L 75.58352 37.303556 
L 75.737675 38.235043 
L 75.776214 38.28824 
L 75.814753 39.490213 
L 75.891831 39.005613 
L 75.968909 38.692996 
L 76.161604 36.852586 
L 76.200142 37.703295 
L 76.238681 36.527356 
L 76.27722 36.924018 
L 76.315759 36.419094 
L 76.469915 34.101236 
L 76.662609 36.643815 
L 76.701148 36.457948 
L 76.778226 36.008094 
L 76.816765 36.415769 
L 76.855304 36.06549 
L 76.893843 36.358579 
L 76.970921 37.066539 
L 77.00946 36.242688 
L 77.086537 36.279886 
L 77.163615 36.125475 
L 77.279232 36.839575 
L 77.394849 36.011383 
L 77.433388 36.154921 
L 77.471927 37.212449 
L 77.549004 36.734185 
L 77.587543 36.856094 
L 77.664621 36.105133 
L 77.70316 36.299462 
L 77.780238 37.6643 
L 77.857316 37.570219 
L 77.895855 37.725344 
L 77.934394 37.271508 
L 77.972933 37.286217 
L 78.011471 38.207988 
L 78.05001 37.631997 
L 78.088549 37.361209 
L 78.127088 36.016707 
L 78.204166 36.180661 
L 78.281244 38.627678 
L 78.319783 37.508739 
L 78.358322 36.313768 
L 78.396861 36.563197 
L 78.512477 38.645408 
L 78.551016 38.567329 
L 78.589555 38.687963 
L 78.743711 40.430075 
L 78.820789 39.734366 
L 78.859328 40.411004 
L 78.897866 41.014364 
L 78.936405 39.897306 
L 78.974944 40.259693 
L 79.167639 37.767297 
L 79.244717 38.960254 
L 79.283256 38.45934 
L 79.360333 38.0691 
L 79.514489 39.343656 
L 79.553028 39.422935 
L 79.630106 37.148041 
L 79.707184 37.496941 
L 79.745723 37.419246 
L 79.938417 38.300719 
L 79.976956 38.224862 
L 80.054034 38.900267 
L 80.092573 38.670429 
L 80.131112 38.197446 
L 80.20819 39.514693 
L 80.246729 38.71439 
L 80.285267 38.872276 
L 80.323806 38.029277 
L 80.362345 39.311205 
L 80.439423 38.953279 
L 80.516501 40.380163 
L 80.593579 39.594316 
L 80.747734 37.68626 
L 80.786273 38.078318 
L 80.824812 38.426977 
L 80.978968 36.478933 
L 81.094585 35.980738 
L 81.133124 34.843673 
L 81.210201 35.341612 
L 81.24874 35.215603 
L 81.325818 36.09864 
L 81.364357 35.485453 
L 81.402896 34.96461 
L 81.441435 35.61263 
L 81.479974 35.595263 
L 81.518513 35.719212 
L 81.595591 34.377678 
L 81.634129 34.652572 
L 81.788285 35.702033 
L 81.826824 35.42587 
L 81.865363 36.173886 
L 81.903902 36.036091 
L 82.019519 34.515682 
L 82.058058 34.729602 
L 82.096596 35.701403 
L 82.135135 34.69188 
L 82.173674 34.30271 
L 82.212213 34.791465 
L 82.250752 34.621446 
L 82.366369 35.902561 
L 82.443447 35.78032 
L 82.481986 35.725038 
L 82.597602 35.063814 
L 82.67468 35.679151 
L 82.713219 34.91357 
L 82.751758 35.022578 
L 82.790297 36.174261 
L 82.867375 35.247143 
L 82.905914 34.385462 
L 82.982991 35.032691 
L 83.175686 32.9336 
L 83.329842 34.88678 
L 83.368381 34.699884 
L 83.40692 34.621393 
L 83.445458 34.772056 
L 83.483997 34.660343 
L 83.522536 33.849418 
L 83.599614 34.088687 
L 83.75377 35.105054 
L 83.830848 33.402182 
L 83.869386 33.773395 
L 83.907925 33.799015 
L 83.946464 33.701279 
L 83.985003 33.52796 
L 84.023542 34.043135 
L 84.062081 33.881679 
L 84.177698 32.212119 
L 84.216237 32.451424 
L 84.254776 32.381067 
L 84.408931 30.8383 
L 84.563087 31.799955 
L 84.601626 31.239508 
L 84.640165 31.828821 
L 84.678704 32.016079 
L 84.717243 30.849313 
L 84.755782 31.767114 
L 84.79432 32.916884 
L 84.832859 31.537196 
L 84.871398 32.117708 
L 84.909937 31.771269 
L 84.987015 32.891595 
L 85.025554 32.246231 
L 85.256787 30.297557 
L 85.295326 30.454691 
L 85.333865 30.027067 
L 85.410943 30.118175 
L 85.449482 31.377072 
L 85.52656 31.083447 
L 85.680715 29.030347 
L 85.87341 30.070429 
L 85.950488 29.881014 
L 85.989027 30.424468 
L 86.027566 30.016286 
L 86.066105 29.837315 
L 86.104644 29.032153 
L 86.181721 29.361316 
L 86.22026 30.102029 
L 86.258799 29.867162 
L 86.335877 28.951951 
L 86.412955 30.437398 
L 86.451494 30.16596 
L 86.490033 30.065605 
L 86.528572 30.64764 
L 86.567111 29.626246 
L 86.605649 30.444684 
L 86.644188 29.851572 
L 86.682727 30.604112 
L 86.721266 30.580884 
L 86.836883 32.249897 
L 86.875422 31.611971 
L 86.9525 29.983391 
L 87.106655 32.050627 
L 87.145194 32.684294 
L 87.183733 31.930447 
L 87.222272 32.160434 
L 87.453506 33.738749 
L 87.607661 31.001983 
L 87.6462 31.314972 
L 87.684739 32.546712 
L 87.761817 32.19384 
L 87.915973 32.996056 
L 87.954511 32.297348 
L 87.99305 32.470893 
L 88.147206 33.467395 
L 88.185745 33.525104 
L 88.224284 33.200322 
L 88.262823 33.993301 
L 88.301362 33.373917 
L 88.416978 32.570337 
L 88.571134 34.731602 
L 88.648212 33.452579 
L 88.686751 33.949813 
L 88.72529 34.836364 
L 88.763829 33.608662 
L 88.802368 34.312561 
L 88.840907 33.88231 
L 88.879445 35.938565 
L 88.956523 35.597276 
L 88.995062 35.251311 
L 89.110679 36.94773 
L 89.149218 36.88333 
L 89.264835 36.220222 
L 89.303373 36.224801 
L 89.341912 36.751399 
L 89.380451 36.371303 
L 89.496068 35.316393 
L 89.534607 35.942034 
L 89.611685 35.921256 
L 89.650224 36.07773 
L 89.688763 36.824179 
L 89.727302 35.659559 
L 90.112691 38.281948 
L 90.15123 39.398517 
L 90.228307 38.912878 
L 90.266846 39.226068 
L 90.305385 39.120646 
L 90.421002 37.60015 
L 90.459541 37.953943 
L 90.613697 39.048487 
L 90.652236 38.939015 
L 90.690774 38.845322 
L 90.806391 40.060059 
L 90.922008 38.494945 
L 90.960547 38.692597 
L 90.999086 39.867889 
L 91.076164 39.279287 
L 91.268858 41.164535 
L 91.307397 41.043569 
L 91.384475 40.29839 
L 91.461553 41.991845 
L 91.538631 41.479433 
L 91.577169 40.297488 
L 91.654247 40.611429 
L 91.846942 43.6026 
L 91.885481 42.876524 
L 91.92402 44.688317 
L 92.001098 44.393767 
L 92.039636 43.050873 
L 92.116714 43.129274 
L 92.193792 42.692638 
L 92.232331 43.264526 
L 92.347948 40.80591 
L 92.386487 41.344317 
L 92.425026 41.122538 
L 92.502103 41.215783 
L 92.579181 41.389855 
L 92.733337 40.244966 
L 92.926031 42.11016 
L 92.96457 42.076996 
L 93.003109 41.725427 
L 93.080187 41.812304 
L 93.118726 41.998607 
L 93.234343 43.295186 
L 93.388498 42.023485 
L 93.504115 42.558749 
L 93.542654 42.544998 
L 93.581193 42.787867 
L 93.619732 42.74066 
L 93.735349 41.722464 
L 93.773888 42.005044 
L 93.812427 41.930921 
L 93.889504 42.130596 
L 93.928043 41.423857 
L 94.005121 42.094551 
L 94.120738 43.23692 
L 94.159277 42.273352 
L 94.197816 43.053688 
L 94.236355 43.201116 
L 94.274893 42.093882 
L 94.351971 42.528534 
L 94.429049 43.449672 
L 94.506127 43.040615 
L 94.583205 42.692763 
L 94.621744 42.922464 
L 94.660283 42.789905 
L 94.698822 43.319649 
L 94.73736 42.601739 
L 94.775899 42.865286 
L 94.852977 42.507507 
L 94.891516 42.549449 
L 94.930055 42.791509 
L 94.968594 42.390786 
L 95.007133 41.846251 
L 95.045672 42.509978 
L 95.12275 42.225138 
L 95.161289 43.329869 
L 95.238366 42.816535 
L 95.276905 42.683601 
L 95.315444 42.824281 
L 95.392522 44.416827 
L 95.431061 44.064259 
L 95.585217 42.701956 
L 95.700833 41.799463 
L 95.777911 42.357846 
L 95.932067 44.027133 
L 96.086222 41.783856 
L 96.124761 42.223259 
L 96.1633 41.603778 
L 96.201839 41.950343 
L 96.317456 41.122191 
L 96.394534 42.659859 
L 96.433073 42.339843 
L 96.471612 41.607768 
L 96.510151 41.746056 
L 96.548689 42.268673 
L 96.702845 39.889231 
L 96.89554 40.818198 
L 96.934079 39.975582 
L 96.972618 40.310926 
L 97.011156 41.326676 
L 97.088234 40.928629 
L 97.126773 40.766946 
L 97.24239 39.507102 
L 97.280929 39.658705 
L 97.435085 40.944395 
L 97.473623 41.334961 
L 97.550701 41.198449 
L 97.627779 39.925137 
L 97.666318 39.954891 
L 97.897551 42.314651 
L 97.93609 41.926454 
L 97.974629 42.479699 
L 98.013168 42.591777 
L 98.051707 43.217195 
L 98.090246 42.269318 
L 98.128785 42.138275 
L 98.282941 43.145673 
L 98.66833 44.727133 
L 98.745408 45.006258 
L 98.899563 44.297128 
L 98.938102 44.722104 
L 98.976641 44.700203 
L 99.092258 43.614055 
L 99.130797 43.645625 
L 99.169336 42.985249 
L 99.207875 44.108173 
L 99.284952 44.574862 
L 99.36203 42.849608 
L 99.400569 43.014007 
L 99.439108 43.088492 
L 99.554725 44.085851 
L 99.593264 43.756318 
L 99.670342 43.955185 
L 99.785958 42.809826 
L 99.940114 43.298729 
L 100.055731 41.108409 
L 100.09427 41.463022 
L 100.132809 41.153093 
L 100.286964 42.714106 
L 100.364042 43.074579 
L 100.402581 42.134004 
L 100.479659 42.418848 
L 100.518198 42.674934 
L 100.556737 42.309262 
L 100.595276 42.047127 
L 100.749431 43.73016 
L 100.78797 43.813071 
L 100.826509 43.007233 
L 100.865048 43.71219 
L 100.903587 43.722735 
L 101.057742 45.492376 
L 101.173359 43.197463 
L 101.211898 43.638214 
L 101.250437 43.987926 
L 101.288976 43.906945 
L 101.327515 43.256014 
L 101.366054 43.68181 
L 101.443132 45.591774 
L 101.520209 45.27313 
L 101.597287 44.47443 
L 101.635826 44.967822 
L 101.674365 43.236204 
L 101.712904 44.549715 
L 101.789982 45.326255 
L 101.828521 45.283001 
L 101.944138 44.812409 
L 102.021215 45.519002 
L 102.059754 44.897407 
L 102.175371 43.777377 
L 102.290988 44.792933 
L 102.329527 44.427435 
L 102.368066 44.425674 
L 102.445143 45.142612 
L 102.483682 44.968003 
L 102.522221 44.206357 
L 102.56076 44.603143 
L 102.753455 46.224168 
L 102.791994 46.202606 
L 102.869071 46.054541 
L 102.90761 45.35718 
L 102.946149 46.068987 
L 102.984688 45.672408 
L 103.061766 44.775174 
L 103.100305 45.473816 
L 103.254461 47.119999 
L 103.370077 46.37567 
L 103.524233 47.204462 
L 103.562772 47.771075 
L 103.601311 46.875287 
L 103.678389 45.716372 
L 103.716928 46.622661 
L 104.063778 49.276649 
L 104.140856 46.711335 
L 104.256472 47.313252 
L 104.372089 47.783848 
L 104.410628 47.691256 
L 104.526245 47.123184 
L 104.564784 47.224942 
L 104.603323 47.233173 
L 104.641862 45.625626 
L 104.718939 46.689587 
L 104.796017 46.439341 
L 104.950173 47.319864 
L 105.027251 47.301486 
L 105.06579 47.857955 
L 105.104329 48.620826 
L 105.142867 47.939863 
L 105.181406 47.404219 
L 105.219945 47.512442 
L 105.297023 48.735201 
L 105.374101 48.710904 
L 105.682412 46.510447 
L 105.75949 47.174663 
L 105.836568 48.080196 
L 105.913646 46.751577 
L 105.952185 47.383025 
L 105.990724 47.709788 
L 106.10634 46.324501 
L 106.144879 46.786073 
L 106.221957 46.699047 
L 106.761502 42.911932 
L 106.83858 43.412704 
L 106.877119 43.375577 
L 106.915658 43.306448 
L 106.954196 43.609851 
L 106.992735 43.46685 
L 107.146891 42.297396 
L 107.18543 42.501331 
L 107.301047 41.197028 
L 107.416663 42.764519 
L 107.455202 42.666383 
L 107.493741 42.56908 
L 107.570819 43.240396 
L 107.647897 41.637162 
L 107.686436 41.791957 
L 107.724975 42.191331 
L 107.763514 41.85936 
L 107.87913 41.166174 
L 107.994747 42.132788 
L 108.071825 42.489385 
L 108.148903 41.30376 
L 108.225981 41.095532 
L 108.341597 41.57991 
L 108.495753 39.594461 
L 108.534292 40.012689 
L 108.61137 41.442394 
L 108.649909 41.264127 
L 108.688448 40.403083 
L 108.765525 40.60697 
L 108.804064 40.730419 
L 108.919681 40.3586 
L 108.95822 41.1347 
L 109.035298 40.637934 
L 109.073837 41.034341 
L 109.112376 40.626053 
L 109.189454 39.744719 
L 109.227992 41.226355 
L 109.30507 40.665863 
L 109.343609 40.657105 
L 109.767537 42.80262 
L 109.806076 42.314395 
L 109.844615 41.872309 
L 109.883154 43.252045 
L 109.960232 42.962211 
L 110.114387 41.918676 
L 110.152926 41.6084 
L 110.191465 42.212929 
L 110.230004 42.144702 
L 110.461238 40.118883 
L 110.576854 40.782315 
L 110.653932 39.624783 
L 110.692471 41.163991 
L 110.769549 40.823923 
L 110.808088 40.771711 
L 110.846627 40.890857 
L 110.885166 40.833448 
L 110.923705 40.288457 
L 111.000783 40.308466 
L 111.07786 40.044475 
L 111.116399 40.188206 
L 111.193477 41.190927 
L 111.232016 40.689719 
L 111.347633 39.946657 
L 111.463249 41.623731 
L 111.501788 41.526488 
L 111.694483 42.791771 
L 111.771561 42.786337 
L 111.8101 43.908277 
L 111.887178 43.332065 
L 111.925716 42.491969 
L 111.964255 43.369701 
L 112.002794 44.27979 
L 112.079872 43.928137 
L 112.195489 44.500657 
L 112.234028 43.373807 
L 112.272567 43.740028 
L 112.311106 44.68229 
L 112.349645 43.729779 
L 112.388183 44.419971 
L 112.465261 42.758954 
L 112.542339 42.942507 
L 112.580878 42.638946 
L 112.773573 45.23716 
L 112.889189 44.507208 
L 113.004806 45.417371 
L 113.043345 44.93156 
L 113.081884 45.272423 
L 113.120423 45.531716 
L 113.158962 45.03481 
L 113.23604 45.397054 
L 113.274578 45.499795 
L 113.313117 46.740046 
L 113.390195 45.747351 
L 113.544351 44.791514 
L 113.58289 45.446776 
L 113.659968 45.318993 
L 113.698507 45.385751 
L 113.775584 46.890617 
L 113.852662 46.822123 
L 114.006818 45.452075 
L 114.045357 45.264442 
L 114.083896 46.535154 
L 114.160974 45.74024 
L 114.238051 45.125751 
L 114.27659 46.646105 
L 114.353668 46.210061 
L 114.392207 46.176533 
L 114.507824 47.399047 
L 114.546363 46.32165 
L 114.623441 47.274321 
L 114.739057 46.380041 
L 114.777596 46.409627 
L 114.816135 46.792461 
L 114.970291 44.854222 
L 115.047369 44.949525 
L 115.162985 45.685997 
L 115.201524 45.104912 
L 115.278602 45.557165 
L 115.317141 46.757091 
L 115.35568 46.148316 
L 115.394219 45.219395 
L 115.432758 45.293611 
L 115.548374 46.808971 
L 115.625452 46.135217 
L 115.70253 46.243291 
L 115.856686 46.832579 
L 115.895225 46.330026 
L 115.933764 46.801753 
L 116.010841 47.811958 
L 116.04938 47.17114 
L 116.164997 48.175601 
L 116.319153 46.119938 
L 116.357692 46.90316 
L 116.434769 46.812484 
L 116.550386 46.068552 
L 116.588925 46.80299 
L 116.666003 46.505939 
L 116.78162 45.77639 
L 116.935775 46.555923 
L 117.051392 45.720938 
L 117.205548 47.196604 
L 117.244087 46.983453 
L 117.398242 48.329714 
L 117.436781 47.455363 
L 117.513859 47.591282 
L 117.629476 48.189619 
L 117.706554 47.440647 
L 117.745093 46.307914 
L 117.82217 47.162104 
L 117.899248 47.341031 
L 118.053404 48.737645 
L 118.091943 48.335936 
L 118.169021 48.467347 
L 118.284637 49.243265 
L 118.323176 48.372367 
L 118.400254 48.679297 
L 118.55441 49.037101 
L 118.592949 48.777098 
L 118.631488 49.279569 
L 118.708565 49.222885 
L 118.747104 49.116407 
L 118.785643 49.420602 
L 118.824182 49.121105 
L 118.90126 48.124918 
L 118.939799 48.823908 
L 119.016877 47.891072 
L 119.055416 48.325669 
L 119.093955 48.796028 
L 119.132494 48.585903 
L 119.171032 48.216742 
L 119.209571 48.473241 
L 119.24811 48.964939 
L 119.286649 48.637751 
L 119.672038 46.271417 
L 119.710577 47.555491 
L 119.787655 47.551132 
L 119.903272 47.354775 
L 119.941811 47.5328 
L 119.98035 47.366496 
L 120.018889 47.262884 
L 120.057427 47.877979 
L 120.211583 45.895987 
L 120.288661 46.002553 
L 120.3272 45.816855 
L 120.365739 45.941029 
L 120.596972 48.02587 
L 120.751128 47.125966 
L 120.789667 46.768472 
L 120.828206 46.869724 
L 120.866745 47.346831 
L 120.905284 46.715723 
L 120.943823 47.32803 
L 120.982361 47.175292 
L 121.0209 47.647964 
L 121.097978 47.296673 
L 121.175056 47.630516 
L 121.213595 47.490054 
L 121.252134 47.18807 
L 121.290673 47.203366 
L 121.367751 47.661471 
L 121.40629 47.406211 
L 121.521906 47.020016 
L 121.598984 47.580528 
L 121.714601 46.750687 
L 121.75314 47.480043 
L 121.830218 47.120727 
L 121.907295 46.762486 
L 121.945834 47.30098 
L 122.022912 46.892058 
L 122.09999 46.638374 
L 122.138529 46.872256 
L 122.254146 47.050377 
L 122.369762 47.381599 
L 122.485379 46.15803 
L 122.523918 46.825441 
L 122.562457 46.118396 
L 122.639535 45.436758 
L 122.678074 45.892523 
L 122.79369 46.589438 
L 122.909307 45.733315 
L 122.947846 47.341497 
L 123.024924 47.045138 
L 123.063463 47.069626 
L 123.102002 46.969263 
L 123.140541 47.730883 
L 123.217619 47.195339 
L 123.256157 46.419723 
L 123.294696 46.998284 
L 123.333235 47.285389 
L 123.371774 47.270578 
L 123.52593 45.647299 
L 123.448852 47.37048 
L 123.603008 46.067073 
L 123.641547 46.092273 
L 123.718624 45.383951 
L 123.795702 45.804811 
L 123.834241 47.111831 
L 123.911319 46.814319 
L 123.949858 46.953774 
L 124.026936 46.05471 
L 124.065475 46.61893 
L 124.104014 46.569403 
L 124.258169 45.933871 
L 124.296708 45.887473 
L 124.373786 47.008497 
L 124.450864 46.65028 
L 124.489403 45.890026 
L 124.527942 47.085649 
L 124.566481 46.177247 
L 124.720636 48.279588 
L 124.759175 47.794178 
L 124.797714 48.394722 
L 124.913331 48.823551 
L 124.95187 48.800468 
L 124.990409 49.381709 
L 125.028947 49.098835 
L 125.067486 48.526476 
L 125.106025 49.009465 
L 125.183103 50.773636 
L 125.29872 50.487413 
L 125.491414 49.205447 
L 125.529953 49.903617 
L 125.568492 49.628243 
L 125.607031 48.942238 
L 125.684109 49.315712 
L 125.761187 48.808393 
L 125.799726 49.035968 
L 125.838265 50.172854 
L 125.915343 50.030984 
L 125.953881 49.089635 
L 126.030959 49.22458 
L 126.069498 49.152838 
L 126.108037 48.73257 
L 126.185115 48.972108 
L 126.262193 49.055734 
L 126.339271 48.040811 
L 126.37781 48.261916 
L 126.416348 48.796364 
L 126.493426 48.409445 
L 126.531965 48.615138 
L 126.570504 47.783159 
L 126.609043 48.410856 
L 126.647582 48.587575 
L 126.801738 50.151954 
L 127.032971 51.843187 
L 127.07151 50.636051 
L 127.110049 51.535518 
L 127.225666 52.431196 
L 127.379821 51.663521 
L 127.495438 51.026593 
L 127.533977 51.29377 
L 127.572516 51.822891 
L 127.611055 51.12295 
L 127.649594 51.047295 
L 127.688133 51.46513 
L 127.842288 48.278424 
L 127.880827 48.696295 
L 127.919366 49.320869 
L 127.957905 48.614988 
L 128.112061 47.411306 
L 128.189139 47.472953 
L 128.266216 46.032076 
L 128.304755 46.614682 
L 128.343294 47.073028 
L 128.381833 46.012554 
L 128.420372 47.142783 
L 128.458911 46.570945 
L 128.690144 47.842957 
L 128.728683 47.832296 
L 128.767222 47.628913 
L 128.805761 47.736402 
L 129.075534 50.868587 
L 129.114072 50.628306 
L 129.152611 50.868985 
L 129.19115 51.023927 
L 129.383845 49.802982 
L 129.422384 49.685535 
L 129.576539 48.439466 
L 129.730695 49.263396 
L 129.846312 50.244481 
L 129.92339 48.877504 
L 130.000468 49.100016 
L 130.039006 49.043805 
L 130.077545 50.151083 
L 130.154623 49.568658 
L 130.193162 49.3837 
L 130.27024 50.035773 
L 130.308779 49.981267 
L 130.347318 49.465937 
L 130.385857 50.061843 
L 130.462934 50.829081 
L 130.501473 50.174211 
L 130.540012 49.990327 
L 130.578551 50.624341 
L 130.61709 49.880282 
L 130.655629 49.950995 
L 130.694168 50.839188 
L 130.771246 50.132063 
L 130.848324 51.130714 
L 130.925401 50.636277 
L 130.96394 50.686079 
L 131.041018 50.407612 
L 131.079557 50.519989 
L 131.118096 50.549055 
L 131.156635 51.100423 
L 131.310791 48.927842 
L 131.34933 48.714922 
L 131.387868 50.316053 
L 131.464946 49.575674 
L 131.503485 50.314463 
L 131.542024 49.824185 
L 131.619102 48.857772 
L 131.657641 49.216475 
L 131.69618 49.219275 
L 131.811797 49.886288 
L 131.773258 49.081085 
L 131.850335 49.818548 
L 132.004491 49.048264 
L 132.081569 50.186881 
L 132.120108 49.649197 
L 132.274263 48.840482 
L 132.312802 50.504147 
L 132.38988 49.739083 
L 132.582575 51.906494 
L 132.621114 51.799352 
L 132.73673 50.463478 
L 132.813808 50.696497 
L 132.852347 50.876754 
L 132.890886 50.536118 
L 132.929425 50.818178 
L 132.967964 50.679123 
L 133.083581 52.136673 
L 133.12212 51.868153 
L 133.199197 50.733812 
L 133.237736 51.053091 
L 133.276275 51.45522 
L 133.353353 51.183033 
L 133.507509 49.800938 
L 133.546048 50.388818 
L 133.584587 49.667455 
L 133.661664 49.365063 
L 133.738742 49.287611 
L 133.81582 50.445229 
L 133.969976 48.777779 
L 134.278287 50.877041 
L 134.355365 49.655437 
L 134.393904 49.916309 
L 134.548059 51.165811 
L 134.586598 51.146177 
L 134.625137 50.15069 
L 134.663676 50.982266 
L 134.817832 51.904353 
L 134.856371 51.873364 
L 134.933449 51.698072 
L 134.971988 52.533135 
L 135.087604 52.001424 
L 135.126143 52.1691 
L 135.164682 51.949177 
L 135.203221 51.06056 
L 135.280299 51.514966 
L 135.318838 51.566414 
L 135.357377 50.151438 
L 135.434454 50.178156 
L 135.472993 50.69111 
L 135.511532 50.539326 
L 135.550071 50.16073 
L 135.627149 50.258052 
L 135.665688 50.467653 
L 135.704227 50.117005 
L 135.781305 49.869855 
L 135.896921 50.782026 
L 135.93546 50.659504 
L 135.973999 50.519231 
L 136.089616 51.409562 
L 136.128155 51.244417 
L 136.166694 51.0834 
L 136.243772 52.437248 
L 136.282311 51.765635 
L 136.32085 51.900513 
L 136.397927 51.830584 
L 136.436466 52.790393 
L 136.513544 52.439038 
L 136.744778 53.538295 
L 136.937472 52.605763 
L 136.976011 52.726883 
L 137.01455 53.188272 
L 137.053089 52.765648 
L 137.091628 52.299727 
L 137.130167 52.536364 
L 137.168706 52.768421 
L 137.207245 51.810341 
L 137.245783 52.254215 
L 137.284322 52.728925 
L 137.3614 52.468522 
L 137.438478 51.532318 
L 137.515556 51.598246 
L 137.631173 52.405132 
L 137.669712 51.574014 
L 137.746789 51.619582 
L 137.785328 51.713043 
L 137.823867 51.409486 
L 138.055101 53.78622 
L 138.09364 53.970399 
L 138.132179 52.973413 
L 138.209256 53.331865 
L 138.247795 53.15429 
L 138.401951 54.031811 
L 138.479029 54.345711 
L 138.517568 54.216429 
L 138.556107 54.085732 
L 138.594646 53.430124 
L 138.671723 53.640481 
L 138.825879 54.021119 
L 138.864418 53.67695 
L 138.902957 54.262762 
L 138.941496 53.94808 
L 139.095651 54.614051 
L 139.13419 54.606532 
L 139.249807 53.862473 
L 139.288346 53.933713 
L 139.365424 54.218801 
L 139.403963 53.309071 
L 139.481041 53.95693 
L 139.519579 53.57363 
L 139.558118 54.018909 
L 139.673735 54.547288 
L 139.712274 54.197615 
L 139.827891 56.093743 
L 139.86643 55.677953 
L 139.982046 54.911869 
L 140.136202 56.889827 
L 140.174741 56.687579 
L 140.328897 57.503878 
L 140.367436 57.492096 
L 140.483052 56.643914 
L 140.637208 57.190175 
L 140.675747 57.583366 
L 140.714286 57.093569 
L 140.752825 56.940189 
L 140.791364 57.022079 
L 140.90698 57.900692 
L 141.022597 58.417583 
L 141.138214 57.673003 
L 141.176753 58.252128 
L 141.215292 57.762672 
L 141.253831 57.397217 
L 141.29237 58.238395 
L 141.330908 57.305709 
L 141.369447 57.928182 
L 141.407986 57.946448 
L 141.446525 57.676668 
L 141.485064 58.580871 
L 141.523603 58.253608 
L 141.63922 57.074382 
L 141.677759 57.333589 
L 141.716298 57.383932 
L 141.831914 56.733179 
L 141.870453 57.203382 
L 141.908992 57.061527 
L 141.98607 57.080329 
L 142.063148 56.592844 
L 142.217303 57.65728 
L 142.255842 57.563485 
L 142.294381 57.030177 
L 142.33292 57.10034 
L 142.371459 57.747147 
L 142.448537 57.444443 
L 142.525615 57.962883 
L 142.641232 58.909989 
L 142.718309 57.292556 
L 142.795387 57.420867 
L 142.833926 56.90546 
L 142.911004 57.121542 
L 143.142237 58.283885 
L 143.257854 59.049215 
L 143.296393 58.766063 
L 143.334932 58.796751 
L 143.450549 58.279742 
L 143.489088 58.484904 
L 143.527627 58.42049 
L 143.604704 58.069905 
L 143.75886 59.474854 
L 143.797399 59.243258 
L 143.874477 58.631868 
L 143.951555 58.867512 
L 143.990094 58.93268 
L 144.10571 56.710017 
L 144.144249 57.179211 
L 144.182788 57.678437 
L 144.221327 57.583158 
L 144.259866 57.16259 
L 144.336944 57.233487 
L 144.375483 57.870236 
L 144.414022 57.475286 
L 144.452561 57.120392 
L 144.491099 57.460678 
L 144.529638 57.777613 
L 144.568177 57.126051 
L 144.606716 57.921274 
L 144.645255 58.454514 
L 144.683794 57.582956 
L 144.722333 58.02209 
L 144.992105 59.528951 
L 145.069183 58.580032 
L 145.1848 60.251916 
L 145.223339 60.150686 
L 145.338956 58.354053 
L 145.416033 58.71131 
L 145.647267 59.869847 
L 145.685806 58.787029 
L 145.762884 59.090846 
L 145.801423 59.057659 
L 145.955578 57.358545 
L 146.032656 57.688962 
L 146.148273 57.96651 
L 146.26389 57.778458 
L 146.418045 58.933592 
L 146.456584 58.556153 
L 146.495123 58.750162 
L 146.649279 59.631531 
L 146.687818 58.887133 
L 146.764895 59.151556 
L 146.803434 59.29938 
L 146.996129 60.929788 
L 147.150285 60.602179 
L 147.188824 60.754635 
L 147.227362 59.808645 
L 147.30444 60.555049 
L 147.342979 60.241138 
L 147.497135 61.255011 
L 147.612752 60.815831 
L 147.805446 58.960429 
L 147.843985 59.101034 
L 147.921063 59.360741 
L 147.998141 57.733297 
L 148.03668 58.293372 
L 148.075219 58.210097 
L 148.113757 57.594452 
L 148.152296 57.69992 
L 148.190835 58.240389 
L 148.267913 58.077605 
L 148.306452 57.985526 
L 148.344991 58.017121 
L 148.576224 60.115983 
L 148.653302 59.560264 
L 148.691841 59.587249 
L 148.807458 59.435104 
L 148.884536 60.531404 
L 149.000153 60.505221 
L 149.038691 60.519299 
L 149.07723 59.214536 
L 149.115769 60.034929 
L 149.308464 61.492182 
L 149.501158 59.888675 
L 149.616775 60.448475 
L 149.693853 60.293152 
L 149.732392 60.335506 
L 149.886548 61.376325 
L 149.925086 61.378308 
L 150.117781 63.218615 
L 150.194859 63.304983 
L 150.271937 62.477745 
L 150.349015 63.304396 
L 150.387553 63.0436 
L 150.464631 63.163244 
L 150.50317 62.873997 
L 150.541709 63.417011 
L 150.618787 62.685769 
L 150.657326 63.423115 
L 150.734404 63.127354 
L 150.888559 62.171425 
L 150.927098 62.517553 
L 150.965637 62.078776 
L 151.042715 62.113811 
L 151.119793 63.117314 
L 151.158332 62.644964 
L 151.196871 62.817648 
L 151.23541 62.471252 
L 151.273948 62.843247 
L 151.312487 62.94051 
L 151.428104 61.923367 
L 151.466643 62.03387 
L 151.543721 62.993256 
L 151.58226 62.951094 
L 151.697877 62.231994 
L 151.736415 62.792257 
L 151.774954 62.713539 
L 151.852032 61.770862 
L 151.890571 62.235778 
L 152.006188 62.827294 
L 152.198882 62.105615 
L 152.353038 63.589423 
L 152.507194 62.356397 
L 152.584272 62.764431 
L 152.776966 63.780405 
L 152.892583 62.723506 
L 152.969661 63.010528 
L 153.0082 63.724054 
L 153.085277 63.340567 
L 153.123816 63.287091 
L 153.162355 62.959261 
L 153.200894 63.135519 
L 153.239433 64.108485 
L 153.277972 63.038148 
L 153.316511 63.285172 
L 153.432128 62.445977 
L 153.470667 63.043672 
L 153.547744 62.64114 
L 153.586283 62.633917 
L 153.624822 62.868908 
L 153.663361 62.500839 
L 153.7019 62.401164 
L 153.740439 62.480458 
L 153.817517 63.066457 
L 153.856056 62.936779 
L 153.894595 61.869658 
L 153.971673 62.267809 
L 154.010211 61.79198 
L 154.04875 61.986995 
L 154.087289 62.830905 
L 154.125828 62.317602 
L 154.202906 61.421985 
L 154.241445 61.803159 
L 154.279984 61.774693 
L 154.703912 57.950539 
L 154.819529 57.968431 
L 155.012223 59.805308 
L 155.050762 58.935086 
L 155.12784 59.00176 
L 155.166379 59.087142 
L 155.397612 60.860568 
L 155.436151 60.740211 
L 155.47469 61.231863 
L 155.551768 61.173077 
L 155.82154 59.222884 
L 155.860079 59.975446 
L 155.937157 59.689582 
L 155.975696 59.731923 
L 156.014235 59.548914 
L 156.129852 58.300681 
L 156.322546 59.839897 
L 156.361085 59.628981 
L 156.438163 59.718524 
L 156.707935 61.472564 
L 156.746474 60.731769 
L 156.785013 62.002191 
L 157.131864 59.527253 
L 157.24748 58.782233 
L 157.286019 59.137006 
L 157.440175 60.428368 
L 157.478714 60.825528 
L 157.517253 60.422882 
L 157.594331 60.041574 
L 157.671408 60.930509 
L 157.709947 59.77606 
L 157.787025 60.544349 
L 157.864103 61.065778 
L 157.902642 60.960316 
L 157.941181 60.528677 
L 157.97972 61.070606 
L 158.018259 61.154158 
L 158.249492 62.931331 
L 158.288031 63.055971 
L 158.365109 63.994193 
L 158.403648 63.783106 
L 158.442187 63.682992 
L 158.557803 62.191388 
L 158.596342 62.766893 
L 158.634881 62.787798 
L 158.750498 63.388655 
L 158.789037 63.073181 
L 158.827576 63.366056 
L 158.981731 64.022406 
L 159.02027 63.954312 
L 159.058809 64.048716 
L 159.212965 65.14461 
L 159.367121 63.572005 
L 159.405659 63.852511 
L 159.598354 65.013308 
L 159.636893 65.016414 
L 159.75251 65.590995 
L 159.791049 65.249798 
L 159.829588 65.58516 
L 159.868126 65.603106 
L 159.906665 65.981031 
L 159.945204 65.516649 
L 160.022282 65.77862 
L 160.060821 65.492659 
L 160.09936 64.137138 
L 160.176438 64.738865 
L 160.214977 64.406584 
L 160.253516 64.522467 
L 160.523288 66.341198 
L 160.561827 67.056248 
L 160.638905 66.479893 
L 160.677444 66.244564 
L 160.754522 66.929705 
L 160.79306 66.823832 
L 160.831599 66.58626 
L 160.908677 66.30906 
L 160.985755 67.186764 
L 161.024294 67.232716 
L 161.062833 67.153531 
L 161.101372 66.338119 
L 161.139911 66.957529 
L 161.255527 67.450517 
L 161.294066 67.230128 
L 161.332605 67.347372 
L 161.409683 67.278901 
L 161.448222 67.5115 
L 161.602378 65.890463 
L 161.640917 66.809287 
L 161.679455 66.269298 
L 161.717994 65.849791 
L 161.756533 66.495248 
L 161.795072 66.19435 
L 161.833611 66.6789 
L 161.87215 66.240215 
L 161.910689 65.836849 
L 161.949228 66.514357 
L 162.103384 67.640723 
L 162.180461 68.090993 
L 162.219 67.465741 
L 162.257539 68.281928 
L 162.296078 69.210839 
L 162.373156 68.89916 
L 162.411695 68.267058 
L 162.450234 69.484746 
L 162.527312 68.941111 
L 162.642928 68.05023 
L 162.681467 68.236156 
L 162.874162 69.244645 
L 162.912701 69.677103 
L 162.989779 69.473266 
L 163.028317 69.54721 
L 163.105395 70.450455 
L 163.143934 70.34883 
L 163.29809 68.88009 
L 163.336629 69.158378 
L 163.490784 66.40555 
L 163.529323 67.202767 
L 163.567862 67.208152 
L 163.760557 65.712599 
L 163.876174 65.946062 
L 163.953251 65.629489 
L 163.99179 66.253854 
L 164.030329 65.263829 
L 164.107407 65.874291 
L 164.145946 66.789496 
L 164.223024 66.138271 
L 164.300102 65.004739 
L 164.338641 65.468869 
L 164.492796 66.172139 
L 164.415718 65.393134 
L 164.531335 65.868048 
L 164.685491 66.786553 
L 164.72403 66.783568 
L 164.762569 66.291806 
L 164.801108 67.079056 
L 164.839646 66.975292 
L 164.955263 67.838154 
L 164.993802 67.788802 
L 165.147958 67.511968 
L 165.186497 67.612774 
L 165.225036 68.0332 
L 165.263575 67.094182 
L 165.340652 67.211764 
L 165.41773 67.680289 
L 165.494808 68.211462 
L 165.533347 68.802764 
L 165.610425 68.512065 
L 165.76458 67.848596 
L 165.803119 67.935242 
L 165.841658 68.357193 
L 165.880197 67.71906 
L 165.918736 67.705675 
L 166.111431 66.756934 
L 166.14997 66.786183 
L 166.227047 66.344419 
L 166.342664 67.914099 
L 166.381203 67.625022 
L 166.419742 67.552863 
L 166.458281 67.838213 
L 166.49682 67.754242 
L 166.650975 67.324545 
L 166.689514 67.332905 
L 166.728053 67.632855 
L 166.766592 66.595819 
L 166.84367 67.156442 
L 166.920748 68.079235 
L 166.959287 67.242011 
L 166.997826 67.10179 
L 167.113442 68.131367 
L 167.151981 68.080224 
L 167.267598 67.269404 
L 167.306137 67.223757 
L 167.344676 66.687511 
L 167.421754 67.032258 
L 167.614448 68.209782 
L 167.652987 68.360035 
L 167.768604 69.626795 
L 167.92276 68.618629 
L 167.961299 68.599784 
L 168.076915 67.675696 
L 168.153993 67.627684 
L 168.231071 68.002648 
L 168.26961 67.417428 
L 168.308149 67.720037 
L 168.346688 68.072332 
L 168.385227 67.496392 
L 168.423766 67.833929 
L 168.462304 67.580551 
L 168.500843 67.927709 
L 168.577921 67.548976 
L 168.732077 68.790362 
L 168.809155 68.890224 
L 168.96331 69.804082 
L 169.040388 69.545904 
L 169.117466 69.404281 
L 169.156005 69.517087 
L 169.194544 69.523708 
L 169.233083 70.302059 
L 169.310161 70.275025 
L 169.502855 69.591645 
L 169.657011 70.488684 
L 169.734089 70.700595 
L 169.772628 70.661088 
L 170.0424 68.112808 
L 170.119478 68.142762 
L 170.312172 70.029194 
L 170.350711 69.566397 
L 170.427789 69.690634 
L 170.466328 69.568689 
L 170.504867 69.990319 
L 170.543406 69.239389 
L 170.581945 69.863218 
L 170.659023 69.725019 
L 170.774639 70.538302 
L 170.813178 70.175263 
L 170.851717 70.774246 
L 170.928795 70.632027 
L 170.967334 70.810598 
L 171.082951 69.777607 
L 171.198567 70.674958 
L 171.237106 70.002655 
L 171.275645 70.733567 
L 171.314184 70.335052 
L 171.46834 71.56671 
L 171.583957 70.455037 
L 171.699573 71.324167 
L 171.738112 70.962479 
L 171.776651 71.661626 
L 171.81519 70.812703 
L 171.853729 71.177627 
L 171.892268 71.431605 
L 171.930807 70.610688 
L 171.969346 71.104279 
L 172.007885 71.444908 
L 172.046424 70.947118 
L 172.084962 71.205398 
L 172.470352 72.919179 
L 172.701585 71.419551 
L 172.778663 71.149319 
L 172.817202 70.282555 
L 172.89428 70.773849 
L 172.932819 70.786458 
L 173.125513 70.02554 
L 173.395286 72.524819 
L 173.433824 72.424663 
L 173.472363 72.079253 
L 173.510902 72.277045 
L 173.549441 72.479062 
L 173.58798 72.137915 
L 173.626519 72.130811 
L 173.665058 71.971635 
L 173.703597 71.043934 
L 173.780675 71.428196 
L 173.819214 71.187138 
L 173.857753 71.521209 
L 173.896291 71.21193 
L 173.93483 71.633353 
L 173.973369 71.310886 
L 174.011908 70.144752 
L 174.088986 70.923844 
L 174.166064 71.058713 
L 174.32022 70.212633 
L 174.474375 70.908034 
L 174.589992 70.152579 
L 174.705609 71.558984 
L 174.782686 70.915228 
L 174.821225 71.015677 
L 174.898303 71.697606 
L 174.936842 71.560835 
L 174.975381 71.071491 
L 175.01392 71.301585 
L 175.129537 71.842394 
L 175.168076 71.379559 
L 175.245153 71.515653 
L 175.476387 71.950669 
L 175.514926 71.926957 
L 175.553465 71.2818 
L 175.630543 71.437937 
L 175.669082 71.211175 
L 175.70762 71.599493 
L 175.784698 71.965369 
L 175.823237 71.350738 
L 175.900315 71.468363 
L 175.977393 72.24812 
L 176.015932 71.911046 
L 176.054471 71.791194 
L 176.09301 71.272251 
L 176.131549 71.637748 
L 176.324243 72.48735 
L 176.362782 72.384896 
L 176.401321 71.412467 
L 176.478399 71.815092 
L 176.516938 72.68928 
L 176.594015 72.59637 
L 176.709632 71.617401 
L 176.748171 71.94369 
L 176.78671 71.834592 
L 176.825249 71.593062 
L 176.863788 72.002569 
L 176.940866 72.537542 
L 176.979405 72.174318 
L 177.017944 72.241354 
L 177.056482 72.821663 
L 177.13356 72.667796 
L 177.249177 71.427405 
L 177.287716 71.936835 
L 177.326255 71.425785 
L 177.364794 71.052772 
L 177.441872 72.234456 
L 177.480411 71.972548 
L 177.518949 71.493547 
L 177.557488 71.543452 
L 177.673105 72.900575 
L 177.788722 72.84056 
L 177.942878 73.56236 
L 178.058494 71.815777 
L 178.097033 72.070005 
L 178.135572 71.785988 
L 178.174111 72.359671 
L 178.251189 72.119624 
L 178.289728 72.094766 
L 178.328267 72.428634 
L 178.405344 72.250782 
L 178.443883 71.325539 
L 178.482422 71.673036 
L 178.636578 73.488516 
L 178.675117 73.205917 
L 178.713656 73.253699 
L 178.829273 72.653973 
L 178.90635 73.563714 
L 178.944889 73.231365 
L 179.021967 73.096696 
L 179.137584 73.997766 
L 179.176123 73.63782 
L 179.29174 73.253296 
L 179.445895 74.049527 
L 179.484434 73.795157 
L 179.63859 74.872119 
L 179.908362 73.184263 
L 179.946901 73.252611 
L 180.062518 74.061383 
L 180.101057 73.740526 
L 180.139596 74.083312 
L 180.178135 74.671169 
L 180.216673 73.718304 
L 180.255212 74.555234 
L 180.370829 74.076775 
L 180.486446 74.427337 
L 180.756218 72.722605 
L 181.141607 74.250807 
L 181.180146 74.028376 
L 181.218685 74.449674 
L 181.295763 75.148544 
L 181.372841 75.121756 
L 181.449919 74.580845 
L 181.488458 74.836017 
L 181.642613 75.336521 
L 181.719691 75.011303 
L 181.873847 75.853611 
L 181.912386 75.631068 
L 181.950925 76.050346 
L 182.220697 75.105699 
L 182.259236 75.57013 
L 182.336314 75.473203 
L 182.374853 75.234429 
L 182.451931 75.410271 
L 182.606086 76.27697 
L 182.644625 76.538541 
L 182.683164 76.263766 
L 182.721703 76.468539 
L 182.83732 76.124759 
L 183.18417 77.547635 
L 183.222709 77.25165 
L 183.261248 77.269491 
L 183.376864 77.664762 
L 183.415403 77.475552 
L 183.453942 77.748981 
L 183.53102 77.914714 
L 183.569559 77.631688 
L 183.608098 78.103395 
L 183.646637 78.603741 
L 183.685176 78.448914 
L 183.762254 77.615075 
L 183.800793 77.71926 
L 183.839331 77.789778 
L 183.916409 76.668377 
L 183.954948 75.781453 
L 184.032026 76.190805 
L 184.224721 74.869521 
L 184.26326 74.862891 
L 184.340337 75.475455 
L 184.378876 75.280034 
L 184.455954 74.356205 
L 184.494493 74.683847 
L 184.533032 75.080448 
L 184.648649 73.854091 
L 184.687188 74.076393 
L 184.725727 74.72856 
L 184.764265 74.139094 
L 184.879882 73.533009 
L 184.841343 74.260625 
L 184.918421 73.555194 
L 185.111116 74.870096 
L 185.265271 73.154232 
L 185.342349 73.469219 
L 185.535044 74.842057 
L 185.573583 74.501704 
L 185.65066 74.609008 
L 185.689199 74.681451 
L 185.766277 75.687365 
L 185.804816 75.158094 
L 185.843355 75.137431 
L 185.881894 74.188718 
L 185.958972 74.540123 
L 186.074589 75.466947 
L 186.113127 75.369662 
L 186.151666 75.01708 
L 186.190205 75.681816 
L 186.267283 76.777497 
L 186.305822 76.60081 
L 186.344361 76.771362 
L 186.3829 76.520809 
L 186.459978 76.671876 
L 186.498517 76.96769 
L 186.537056 76.598296 
L 186.575594 76.642535 
L 186.72975 78.624081 
L 186.768289 78.511966 
L 186.806828 78.536298 
L 186.883906 78.177571 
L 186.922445 78.701834 
L 186.999522 78.351719 
L 187.153678 78.90459 
L 187.192217 78.902581 
L 187.230756 78.786411 
L 187.461989 79.829468 
L 187.500528 79.817468 
L 187.539067 80.573795 
L 187.616145 80.336382 
L 187.731762 79.710605 
L 187.770301 79.765216 
L 187.847379 80.440756 
L 187.885918 80.34349 
L 188.040073 79.803937 
L 188.078612 80.420128 
L 188.15569 80.165879 
L 188.194229 79.44783 
L 188.271307 79.929581 
L 188.309846 79.999411 
L 188.348385 79.76516 
L 188.425462 79.784583 
L 188.464001 79.923035 
L 188.50254 79.675983 
L 188.541079 79.433908 
L 188.695235 81.597036 
L 188.810851 82.234801 
L 188.926468 81.943112 
L 188.965007 82.001172 
L 189.042085 82.290583 
L 189.080624 81.729099 
L 189.119163 82.32135 
L 189.350396 84.392284 
L 189.466013 83.618429 
L 189.658708 85.314658 
L 189.697247 84.712062 
L 189.774324 84.717477 
L 189.889941 84.692227 
L 189.92848 84.831141 
L 189.967019 85.64135 
L 190.044097 85.400079 
L 190.198252 84.798915 
L 190.236791 84.867476 
L 190.27533 85.025388 
L 190.429486 86.424084 
L 190.545103 87.303024 
L 190.62218 87.180744 
L 190.699258 86.823643 
L 190.737797 87.010406 
L 190.776336 87.007032 
L 190.814875 86.851077 
L 190.969031 87.679018 
L 191.046109 87.617353 
L 191.084647 88.114011 
L 191.200264 86.744334 
L 191.238803 87.028727 
L 191.35442 87.588899 
L 191.392959 86.838447 
L 191.470037 87.339846 
L 191.547114 86.506618 
L 191.585653 86.660378 
L 191.816887 88.654624 
L 191.855426 88.602858 
L 191.971042 87.535745 
L 192.009581 87.78765 
L 192.04812 87.82744 
L 192.356432 85.374597 
L 192.394971 85.836157 
L 192.433509 85.947402 
L 192.472048 85.775709 
L 192.549126 85.578983 
L 192.78036 87.422806 
L 192.818899 87.253816 
L 192.857438 87.369114 
L 192.934515 87.587694 
L 193.242827 85.575199 
L 193.281366 86.273335 
L 193.358443 86.049551 
L 193.396982 86.297558 
L 193.435521 86.064451 
L 193.47406 86.06167 
L 193.551138 85.687753 
L 193.589677 85.872214 
L 193.782371 85.402437 
L 193.82091 85.543032 
L 194.090683 87.285639 
L 194.167761 86.184196 
L 194.244838 86.449801 
L 194.283377 86.341635 
L 194.321916 86.667298 
L 194.360455 86.505101 
L 194.437533 86.029079 
L 194.514611 86.180566 
L 194.55315 86.75974 
L 194.630228 86.442626 
L 194.707305 86.109669 
L 194.784383 86.35176 
L 194.822922 86.427519 
L 194.861461 86.402698 
L 194.9 86.084422 
L 194.938539 86.607694 
L 194.977078 86.863082 
L 195.015617 86.218846 
L 195.054156 86.766169 
L 195.092695 86.903344 
L 195.131234 86.589735 
L 195.169772 86.715976 
L 195.208311 86.925156 
L 195.24685 86.352873 
L 195.285389 86.495743 
L 195.401006 87.461262 
L 195.5937 86.877158 
L 195.632239 87.12869 
L 195.670778 86.798477 
L 195.709317 86.918278 
L 195.747856 86.628367 
L 195.824934 86.690205 
L 196.017629 87.665877 
L 196.171784 86.893869 
L 196.094706 87.767606 
L 196.248862 87.056136 
L 196.287401 86.473861 
L 196.32594 86.657219 
L 196.364479 87.041751 
L 196.441557 86.914362 
L 196.518634 86.800201 
L 196.595712 86.611418 
L 196.634251 86.441562 
L 196.67279 86.692418 
L 196.865485 87.645613 
L 196.981101 87.042902 
L 197.096718 87.888834 
L 197.135257 87.572306 
L 197.250874 87.214574 
L 197.212335 87.630415 
L 197.289413 87.409426 
L 197.327952 87.420299 
L 197.482107 88.318586 
L 197.559185 88.761478 
L 197.597724 88.702477 
L 197.674802 88.371991 
L 197.713341 88.850062 
L 197.75188 88.054293 
L 197.790419 88.027617 
L 198.021652 88.878167 
L 198.09873 89.701099 
L 198.137269 89.616021 
L 198.329963 89.253633 
L 198.522658 88.394183 
L 198.561197 88.731185 
L 198.638275 88.470051 
L 198.753892 87.574025 
L 199.254897 92.298862 
L 199.293436 92.187634 
L 199.486131 90.9011 
L 199.563209 90.427494 
L 199.601748 91.166679 
L 199.640287 90.870759 
L 199.755903 90.284189 
L 199.87152 90.720956 
L 200.025676 90.191584 
L 200.064215 90.731188 
L 200.102754 90.210189 
L 200.141292 90.184862 
L 200.256909 88.82634 
L 200.333987 89.094788 
L 200.372526 89.392608 
L 200.449604 89.177794 
L 200.56522 88.655147 
L 200.642298 88.784189 
L 200.680837 88.248098 
L 200.796454 89.195244 
L 200.873532 88.914726 
L 201.027687 88.106009 
L 201.104765 88.710473 
L 201.143304 88.622706 
L 201.258921 88.39107 
L 201.29746 88.464399 
L 201.335999 89.011162 
L 201.413077 88.764548 
L 201.451616 89.039377 
L 201.490154 88.72562 
L 201.528693 88.922085 
L 201.605771 88.561304 
L 201.759927 89.186544 
L 201.837005 88.815733 
L 201.875544 88.924573 
L 202.183855 90.826469 
L 202.222394 90.843679 
L 202.260933 90.71978 
L 202.415088 91.580715 
L 202.569244 92.372466 
L 202.607783 92.163314 
L 202.646322 91.657266 
L 202.7234 91.779912 
L 202.800478 91.752145 
L 202.877555 91.062483 
L 202.954633 91.47136 
L 203.185867 92.019863 
L 203.262945 91.733392 
L 203.301483 91.896363 
L 203.340022 92.215261 
L 203.378561 91.989339 
L 203.4171 91.793864 
L 203.455639 92.440303 
L 203.532717 91.92574 
L 203.571256 91.918748 
L 203.686873 92.506896 
L 203.76395 91.07002 
L 203.802489 91.707297 
L 203.918106 92.566024 
L 203.995184 92.211727 
L 204.033723 92.525746 
L 204.14934 91.520297 
L 204.187878 91.994761 
L 204.226417 91.983949 
L 204.534729 90.599395 
L 204.573268 90.11948 
L 204.611807 90.281 
L 204.727423 91.052164 
L 204.765962 91.029281 
L 204.84304 91.051938 
L 204.958657 89.723456 
L 205.035735 88.990069 
L 205.074274 89.372893 
L 205.151351 89.897952 
L 205.18989 89.528726 
L 205.228429 89.382321 
L 205.266968 89.474741 
L 205.459663 91.171118 
L 205.498202 91.548203 
L 205.536741 91.481235 
L 205.652357 90.360622 
L 205.690896 90.594627 
L 205.883591 91.581955 
L 205.960669 90.720781 
L 205.999207 91.249519 
L 206.037746 91.814776 
L 206.076285 91.279925 
L 206.114824 91.197273 
L 206.153363 91.221893 
L 206.191902 90.698474 
L 206.230441 91.112573 
L 206.307519 92.192252 
L 206.423136 91.986556 
L 206.461674 92.012489 
L 206.500213 91.921701 
L 206.577291 91.587429 
L 206.692908 90.630874 
L 206.769986 90.883191 
L 206.808525 90.859969 
L 206.847064 90.16821 
L 206.924141 90.35679 
L 207.039758 90.604851 
L 207.155375 90.204003 
L 207.270992 90.899745 
L 207.34807 90.716992 
L 207.656381 92.420315 
L 207.69492 92.11099 
L 207.733459 92.634501 
L 207.771998 92.264122 
L 207.810536 92.216435 
L 207.849075 91.99162 
L 207.887614 92.326892 
L 207.926153 92.588633 
L 207.964692 91.560015 
L 208.04177 92.278815 
L 208.273003 93.423509 
L 208.311542 92.656014 
L 208.38862 93.169856 
L 208.504237 94.203762 
L 208.542776 94.17205 
L 208.658393 93.787706 
L 208.928165 96.226924 
L 209.082321 97.317599 
L 209.12086 97.252968 
L 209.197937 97.688661 
L 209.275015 97.410144 
L 209.313554 97.342721 
L 209.352093 97.74181 
L 209.390632 97.354425 
L 209.46771 96.540947 
L 209.506249 97.061576 
L 209.621865 96.35844 
L 209.660404 96.763051 
L 209.698943 96.116768 
L 209.737482 95.766524 
L 209.776021 95.88209 
L 209.891638 96.324863 
L 210.084332 94.208707 
L 210.199949 94.27414 
L 210.238488 94.298211 
L 210.277027 94.194326 
L 210.315566 94.54187 
L 210.392644 94.279895 
L 210.431183 94.506215 
L 210.469722 94.074058 
L 210.623877 92.600597 
L 210.662416 92.298392 
L 210.700955 92.649095 
L 210.816572 92.95197 
L 210.970727 92.71148 
L 211.009266 92.857037 
L 211.163422 90.561574 
L 211.2405 91.496877 
L 211.356117 92.240552 
L 211.394656 92.215883 
L 211.471733 92.210358 
L 211.58735 91.341263 
L 211.741506 92.360065 
L 211.780045 92.40728 
L 211.857123 92.179964 
L 211.895661 92.397919 
L 212.088356 94.067105 
L 212.126895 93.723216 
L 212.358128 92.900694 
L 212.435206 93.603018 
L 212.550823 94.837109 
L 212.704979 96.363784 
L 212.743518 96.335261 
L 212.782056 96.106407 
L 212.820595 96.494447 
L 212.859134 96.253049 
L 212.897673 96.175501 
L 213.01329 97.298858 
L 213.051829 97.045164 
L 213.090368 97.010822 
L 213.128907 96.703827 
L 213.205985 96.966881 
L 213.437218 98.546803 
L 213.475757 97.954506 
L 213.514296 98.293397 
L 213.629913 99.390366 
L 213.70699 99.175872 
L 213.745529 99.306525 
L 213.899685 98.655665 
L 213.976763 99.808836 
L 214.015302 99.588889 
L 214.207996 97.916676 
L 214.285074 98.413233 
L 214.362152 98.360956 
L 214.400691 98.335507 
L 214.554847 98.60099 
L 214.593385 98.596524 
L 214.631924 97.815714 
L 214.709002 98.253062 
L 214.78608 98.415619 
L 214.824619 97.500936 
L 214.901697 97.831863 
L 215.017314 98.513341 
L 215.094391 98.626648 
L 215.171469 98.117582 
L 215.287086 98.107113 
L 215.325625 98.169214 
L 215.364164 98.444096 
L 215.441242 98.272062 
L 215.518319 98.489632 
L 215.595397 97.852607 
L 215.633936 98.126279 
L 215.672475 98.243418 
L 215.749553 97.854419 
L 215.826631 98.649144 
L 215.903709 98.524438 
L 215.942248 98.58922 
L 216.019325 97.999451 
L 216.096403 98.241864 
L 216.134942 98.374404 
L 216.173481 98.250193 
L 216.366176 96.536252 
L 216.404714 97.026413 
L 216.443253 97.009969 
L 216.635948 95.676668 
L 216.674487 95.970282 
L 216.713026 95.667833 
L 216.867181 94.279583 
L 217.021337 93.22791 
L 217.136954 91.490674 
L 217.175493 92.019711 
L 217.29111 92.796482 
L 217.368187 92.05272 
L 217.406726 92.598234 
L 217.445265 92.550864 
L 217.483804 92.843134 
L 217.522343 92.640324 
L 217.599421 91.761614 
L 217.63796 92.323578 
L 217.676499 92.646576 
L 217.715038 92.347839 
L 217.753576 92.166872 
L 217.907732 91.191663 
L 218.100427 89.709996 
L 218.138966 89.970035 
L 218.177505 89.983881 
L 218.216043 89.76367 
L 218.370199 91.246378 
L 218.408738 91.210165 
L 218.447277 90.407772 
L 218.524355 90.933157 
L 218.562894 90.944891 
L 218.717049 90.073363 
L 218.639972 91.023809 
L 218.755588 90.194649 
L 218.871205 90.647283 
L 218.909744 90.56756 
L 218.948283 90.69024 
L 218.986822 90.966614 
L 219.0639 90.94637 
L 219.218055 90.141243 
L 219.295133 90.096313 
L 219.333672 90.270974 
L 219.372211 89.949391 
L 219.449289 89.240042 
L 219.487828 89.835045 
L 219.7576 92.590416 
L 219.796139 92.515823 
L 219.834678 92.953063 
L 219.911756 92.715101 
L 219.988834 92.461171 
L 220.027372 92.471072 
L 220.10445 93.19002 
L 220.142989 93.107277 
L 220.181528 92.897159 
L 220.220067 93.234336 
L 220.258606 93.316187 
L 220.412762 95.139711 
L 220.451301 94.517721 
L 220.528378 94.810952 
L 220.566917 95.040337 
L 220.721073 94.32255 
L 220.759612 94.441752 
L 220.798151 94.088905 
L 220.875229 94.274093 
L 221.067923 94.965688 
L 221.106462 95.026841 
L 221.18354 94.548191 
L 221.222079 94.73939 
L 221.568929 96.387978 
L 222.147013 101.04217 
L 222.185552 101.110842 
L 222.224091 100.961667 
L 222.26263 100.877457 
L 222.378246 99.905825 
L 222.416785 100.110766 
L 222.455324 100.082262 
L 222.648019 98.801519 
L 222.802174 100.056674 
L 222.917791 99.591731 
L 223.033408 100.320456 
L 223.071947 100.209381 
L 223.187563 100.498372 
L 223.264641 99.621595 
L 223.341719 99.754581 
L 223.534414 100.260922 
L 223.572953 99.942661 
L 223.65003 100.047076 
L 223.688569 99.92647 
L 223.727108 100.132462 
L 223.765647 100.865106 
L 223.842725 100.730907 
L 224.03542 101.457366 
L 224.073959 101.023124 
L 224.112497 101.250419 
L 224.189575 102.18232 
L 224.266653 101.841983 
L 224.420809 101.101939 
L 224.459348 101.230342 
L 224.574964 101.942678 
L 224.652042 101.910473 
L 224.844737 101.279735 
L 225.037431 100.100129 
L 225.07597 100.335998 
L 225.114509 100.325099 
L 225.191587 99.189299 
L 225.230126 99.581572 
L 225.268665 99.593269 
L 225.345743 98.892383 
L 225.422821 99.092246 
L 225.499898 99.987591 
L 225.538437 99.753187 
L 225.731132 98.733558 
L 225.769671 99.223668 
L 225.846749 98.966121 
L 225.885288 98.900057 
L 225.923826 98.461243 
L 225.962365 99.190675 
L 226.15506 100.427618 
L 226.193599 99.603976 
L 226.270677 99.986072 
L 226.347754 100.360911 
L 226.386293 100.019886 
L 226.50191 100.279667 
L 226.617527 99.347067 
L 226.656066 99.366027 
L 226.84876 100.242774 
L 226.887299 99.844987 
L 227.195611 97.85034 
L 227.272688 98.018913 
L 227.349766 97.771462 
L 227.388305 97.886545 
L 227.426844 98.041311 
L 227.465383 97.766902 
L 227.503922 97.573792 
L 227.542461 97.812784 
L 227.773694 99.615819 
L 227.812233 99.526178 
L 227.850772 99.192002 
L 227.889311 99.86429 
L 227.966389 99.520149 
L 228.004928 99.46428 
L 228.043467 99.661842 
L 228.082006 99.284142 
L 228.120545 99.644766 
L 228.159083 99.451101 
L 228.236161 99.58795 
L 228.428856 101.23762 
L 228.467395 101.295449 
L 228.62155 100.971656 
L 228.737167 102.485667 
L 228.775706 102.331275 
L 228.814245 102.383545 
L 228.852784 102.353444 
L 228.968401 103.141691 
L 229.00694 103.026097 
L 229.122556 103.785762 
L 229.161095 103.248791 
L 229.238173 103.372734 
L 229.276712 103.880659 
L 229.315251 103.683015 
L 229.392329 103.157446 
L 229.469407 103.821144 
L 229.507946 103.792342 
L 229.662101 102.994917 
L 229.70064 103.310616 
L 229.739179 102.695232 
L 229.816257 102.920964 
L 229.854796 102.884216 
L 229.931874 103.263238 
L 229.970412 102.984637 
L 230.124568 103.168782 
L 230.201646 102.955876 
L 230.548496 105.327454 
L 230.587035 104.869374 
L 230.664113 105.08622 
L 231.049502 103.680661 
L 231.088041 104.100807 
L 231.165119 104.07423 
L 231.203658 104.082175 
L 231.242197 104.717668 
L 231.319275 104.261658 
L 231.357813 104.230379 
L 231.396352 104.036433 
L 231.434891 104.105979 
L 231.627586 105.784451 
L 231.666125 105.288946 
L 231.704664 105.195799 
L 231.781741 104.344647 
L 231.82028 104.55682 
L 231.974436 104.959056 
L 232.128592 104.284707 
L 232.167131 104.499347 
L 232.20567 104.282865 
L 232.321286 103.888858 
L 232.359825 104.136666 
L 232.436903 104.991976 
L 232.475442 104.924548 
L 232.513981 104.865019 
L 232.591059 105.380454 
L 232.629598 105.006856 
L 232.668137 104.264685 
L 232.745214 104.464154 
L 232.822292 104.270467 
L 232.937909 105.099674 
L 232.976448 104.572549 
L 233.014987 104.689293 
L 233.169142 105.381648 
L 233.284759 104.480719 
L 233.438915 105.960782 
L 233.477454 105.932128 
L 233.554532 105.845892 
L 233.670148 105.231213 
L 233.824304 106.247608 
L 233.862843 105.92816 
L 233.901382 105.567226 
L 233.939921 106.110659 
L 234.055537 107.007252 
L 234.094076 106.671311 
L 234.132615 106.978479 
L 234.286771 108.754769 
L 234.402388 108.678413 
L 234.479466 108.635376 
L 234.518004 109.244816 
L 234.595082 109.141124 
L 234.710699 109.465254 
L 234.826316 109.020405 
L 234.903394 109.73754 
L 234.941932 109.696487 
L 235.01901 109.606011 
L 235.211705 110.919305 
L 235.250244 110.709663 
L 235.327322 110.622866 
L 235.365861 110.947784 
L 235.404399 110.731913 
L 235.558555 110.105747 
L 235.597094 109.859714 
L 235.635633 110.161419 
L 235.674172 109.922261 
L 235.789789 110.505316 
L 235.905405 109.522668 
L 235.943944 109.580745 
L 235.982483 109.578537 
L 236.059561 109.933857 
L 236.0981 109.91037 
L 236.252256 109.27898 
L 236.367872 109.569232 
L 236.406411 109.411346 
L 236.44495 110.288268 
L 236.522028 110.183823 
L 236.560567 110.366954 
L 236.599106 110.020486 
L 236.637645 110.112829 
L 236.7918 112.039129 
L 236.830339 111.790114 
L 237.215728 110.196447 
L 237.254267 110.233304 
L 237.292806 110.402932 
L 237.369884 110.325982 
L 237.446962 109.902 
L 237.485501 110.217658 
L 237.639657 111.498721 
L 237.678195 111.271201 
L 237.716734 111.144885 
L 237.755273 111.634991 
L 237.832351 111.359812 
L 237.87089 110.998065 
L 237.909429 111.277257 
L 237.947968 111.359958 
L 238.063585 111.993335 
L 238.179201 111.253914 
L 238.21774 111.459268 
L 238.256279 111.524586 
L 238.333357 110.313586 
L 238.410435 110.86542 
L 238.448974 110.850154 
L 238.487513 111.823489 
L 238.56459 111.785529 
L 238.680207 111.11898 
L 238.718746 111.210699 
L 238.757285 111.205934 
L 239.104135 109.117213 
L 239.142674 109.316998 
L 239.566602 111.072362 
L 239.605141 111.108335 
L 239.64368 111.036706 
L 239.874914 108.951424 
L 239.951991 109.990343 
L 239.99053 109.955626 
L 240.067608 109.609211 
L 240.144686 111.091594 
L 240.221764 110.681108 
L 240.337381 112.013628 
L 240.375919 111.707885 
L 240.452997 111.521139 
L 240.607153 111.848059 
L 240.72277 111.296259 
L 241.06962 109.228856 
L 241.108159 109.352886 
L 241.262315 108.499245 
L 241.300853 108.60057 
L 241.377931 107.784904 
L 241.41647 107.976127 
L 242.572638 115.674179 
L 242.765332 114.595019 
L 242.958027 115.704758 
L 242.996566 115.643884 
L 243.112182 116.667568 
L 243.150721 116.499265 
L 243.266338 116.616717 
L 243.381955 117.251677 
L 243.497572 116.939386 
L 243.574649 117.227018 
L 243.613188 117.075614 
L 243.651727 116.905898 
L 243.690266 117.21926 
L 243.805883 118.398422 
L 243.844422 118.216926 
L 243.882961 117.541302 
L 243.960039 117.966683 
L 243.998577 117.607731 
L 244.037116 117.802774 
L 244.345428 118.718795 
L 244.461044 118.805355 
L 244.730817 117.236411 
L 244.807895 116.904347 
L 244.846434 117.021798 
L 244.96205 118.07654 
L 245.000589 117.759722 
L 245.039128 117.601784 
L 245.077667 117.642362 
L 245.116206 117.819058 
L 245.154745 117.686098 
L 245.809906 112.851004 
L 245.848445 113.285445 
L 245.886984 113.148769 
L 246.002601 112.644797 
L 246.079679 113.30644 
L 246.118218 113.021892 
L 246.195296 112.738409 
L 246.233835 112.941255 
L 246.349451 113.357456 
L 246.426529 113.093003 
L 246.542146 114.129282 
L 246.580685 114.052615 
L 246.619224 113.929765 
L 246.696302 114.232857 
L 246.73484 113.569269 
L 246.773379 114.119485 
L 246.811918 114.232515 
L 246.850457 114.175576 
L 247.004613 113.353463 
L 247.043152 113.365268 
L 247.081691 112.715571 
L 247.158768 113.246775 
L 247.235846 113.021293 
L 247.390002 113.883523 
L 247.428541 113.954934 
L 247.46708 113.862995 
L 247.698313 112.415438 
L 247.852469 113.102284 
L 247.891008 112.934659 
L 247.968086 112.251274 
L 248.006625 112.325642 
L 248.045164 112.896642 
L 248.122241 112.887092 
L 248.16078 112.716591 
L 248.199319 113.106467 
L 248.237858 112.589415 
L 248.276397 112.684658 
L 248.353475 112.347823 
L 248.392014 112.503769 
L 248.738864 115.237745 
L 248.854481 115.137581 
L 248.931559 115.480642 
L 249.162792 113.466388 
L 249.278409 114.126421 
L 249.316948 114.067611 
L 249.58672 113.591452 
L 250.280421 116.165188 
L 250.434576 115.211595 
L 250.473115 115.247537 
L 250.588732 116.061312 
L 250.66581 116.388358 
L 250.704349 116.365961 
L 250.819965 115.678372 
L 250.858504 116.298812 
L 250.935582 115.96829 
L 250.974121 115.878749 
L 251.01266 116.30805 
L 251.089738 116.274329 
L 251.205355 116.168161 
L 251.243893 116.443443 
L 251.282432 115.93406 
L 251.320971 116.33644 
L 251.398049 116.695782 
L 251.436588 116.419819 
L 251.590744 116.159343 
L 251.667822 116.042501 
L 251.783438 116.696632 
L 251.821977 116.541559 
L 251.860516 116.791369 
L 251.937594 117.772219 
L 252.014672 117.521743 
L 252.130288 117.10593 
L 252.168827 117.377262 
L 252.322983 117.189227 
L 252.361522 117.656281 
L 252.400061 117.00029 
L 252.554217 115.870051 
L 252.592755 116.064629 
L 252.669833 115.657251 
L 252.746911 115.706344 
L 252.901067 116.359315 
L 252.939606 116.377332 
L 253.209378 114.961426 
L 253.440612 116.859029 
L 253.479151 116.742327 
L 253.556228 117.138402 
L 253.594767 116.874021 
L 253.633306 116.666732 
L 253.671845 116.923099 
L 253.748923 117.66511 
L 253.787462 117.54573 
L 253.826001 117.483477 
L 253.980156 116.993226 
L 254.018695 117.003956 
L 254.21139 115.69542 
L 254.442623 117.14976 
L 254.55824 116.687111 
L 254.789474 117.856075 
L 254.828013 117.588236 
L 255.020707 118.975046 
L 255.097785 119.053691 
L 255.136324 118.977479 
L 255.29048 119.799613 
L 255.444635 119.412916 
L 255.483174 119.280019 
L 255.560252 120.643947 
L 255.598791 120.539754 
L 255.791485 119.359094 
L 255.945641 118.292466 
L 256.253952 117.312765 
L 256.292491 117.375478 
L 256.33103 117.005018 
L 256.408108 117.232813 
L 256.600803 118.198073 
L 256.639342 118.606013 
L 256.716419 118.582899 
L 256.832036 118.186088 
L 256.986192 119.908802 
L 257.024731 119.386757 
L 257.217425 120.644923 
L 257.333042 121.250821 
L 257.41012 120.747449 
L 257.602814 122.09893 
L 257.679892 122.041117 
L 257.75697 123.06714 
L 257.872587 122.973021 
L 257.911126 122.846581 
L 257.949665 123.093813 
L 258.10382 122.762083 
L 258.142359 122.90663 
L 258.219437 123.705958 
L 258.257976 123.522919 
L 258.296515 123.155113 
L 258.335054 123.329934 
L 258.604826 125.242934 
L 258.643365 125.148064 
L 258.758982 125.69232 
L 258.83606 125.334752 
L 258.990215 126.003573 
L 259.105832 126.313606 
L 259.18291 126.154 
L 259.259988 126.808053 
L 259.375604 126.686409 
L 259.414143 126.865612 
L 259.452682 126.798868 
L 259.491221 126.479169 
L 259.568299 126.62471 
L 259.606838 126.658368 
L 259.683916 127.125896 
L 259.722455 126.883618 
L 259.760994 126.956386 
L 259.799533 126.687649 
L 259.87661 126.858197 
L 259.953688 126.813855 
L 259.992227 126.536914 
L 260.069305 126.778802 
L 260.107844 126.885326 
L 260.300538 125.899391 
L 260.339077 125.954971 
L 260.377616 126.138299 
L 260.416155 125.973183 
L 260.454694 125.100241 
L 260.531772 125.301544 
L 260.60885 125.275647 
L 260.647389 125.706571 
L 260.685928 125.12603 
L 260.724466 125.224981 
L 260.801544 124.688755 
L 260.840083 124.75514 
L 260.878622 125.137815 
L 260.9557 124.830018 
L 261.109856 125.14832 
L 261.456706 122.817904 
L 261.495245 122.907505 
L 261.610862 123.714755 
L 261.6494 123.59846 
L 261.687939 123.676314 
L 261.880634 125.456975 
L 261.919173 125.078574 
L 262.150406 124.171221 
L 262.188945 124.210822 
L 262.227484 124.328848 
L 262.420179 123.192155 
L 262.612873 124.123831 
L 262.689951 123.433993 
L 262.72849 123.475828 
L 262.805568 123.620589 
L 262.921185 124.390359 
L 262.998262 124.02286 
L 263.036801 124.359372 
L 263.229496 124.976268 
L 263.306574 124.917448 
L 263.345113 124.669459 
L 263.422191 124.831687 
L 263.460729 125.314511 
L 263.537807 124.039908 
L 263.576346 124.682249 
L 263.614885 125.347846 
L 263.691963 124.988233 
L 263.769041 125.531365 
L 263.846119 125.336365 
L 263.884658 125.403526 
L 263.923196 125.236705 
L 264.115891 123.694205 
L 264.15443 123.485447 
L 264.192969 123.750679 
L 264.231508 123.776699 
L 264.270047 124.3554 
L 264.347124 124.280602 
L 264.462741 123.257534 
L 264.50128 123.581823 
L 264.578358 123.501274 
L 264.616897 123.79666 
L 264.693975 123.540805 
L 264.732514 123.712373 
L 264.963747 124.484293 
L 265.117903 124.048775 
L 265.156442 124.037679 
L 265.310597 124.36692 
L 265.426214 123.304734 
L 265.464753 123.459016 
L 265.541831 124.04219 
L 265.58037 123.871114 
L 265.773064 124.524559 
L 265.811603 124.472015 
L 265.850142 124.395157 
L 265.888681 123.606831 
L 265.965759 124.211713 
L 266.004298 124.267171 
L 266.042837 123.907835 
L 266.119915 123.983773 
L 266.158453 124.110187 
L 266.312609 122.899033 
L 266.351148 122.923547 
L 266.62092 124.530931 
L 266.697998 124.633578 
L 266.736537 124.966374 
L 266.813615 124.805407 
L 266.890693 124.92533 
L 266.929232 125.421789 
L 267.00631 124.981565 
L 267.083387 125.382876 
L 267.121926 125.263944 
L 267.160465 125.064998 
L 267.237543 125.631594 
L 267.276082 125.235865 
L 267.35316 125.186178 
L 267.545854 123.974141 
L 267.622932 124.30879 
L 267.815627 126.415169 
L 267.854166 125.996024 
L 268.04686 124.870894 
L 268.278094 126.202443 
L 268.432249 125.637515 
L 268.817639 127.392289 
L 268.894716 126.895654 
L 268.933255 127.182344 
L 269.203028 128.704278 
L 269.241567 128.371779 
L 269.280106 128.436522 
L 269.4728 129.630831 
L 269.549878 129.620474 
L 269.588417 129.80808 
L 269.626956 129.610243 
L 269.704034 129.422691 
L 270.050884 128.051565 
L 270.243578 129.20918 
L 270.282117 128.894354 
L 270.397734 128.553883 
L 270.436273 128.898041 
L 270.474812 128.672937 
L 270.513351 128.540271 
L 270.937279 131.02818 
L 271.014357 131.209931 
L 271.052896 131.426649 
L 271.091435 131.306823 
L 271.129973 131.094647 
L 271.168512 131.122696 
L 271.24559 131.514914 
L 271.284129 131.434567 
L 271.322668 131.179403 
L 271.361207 131.273786 
L 271.438285 131.46546 
L 271.476824 131.362288 
L 271.515363 131.332434 
L 271.669518 132.063653 
L 271.785135 131.312399 
L 271.823674 131.518685 
L 272.054907 132.383031 
L 272.093446 132.357886 
L 272.131985 132.14702 
L 272.170524 132.382758 
L 272.209063 132.865087 
L 272.286141 132.618399 
L 272.32468 132.58956 
L 272.363219 132.366988 
L 272.401758 132.478039 
L 272.594452 134.411521 
L 272.632991 134.12173 
L 272.67153 134.118144 
L 272.710069 134.414809 
L 272.748608 134.102675 
L 272.864225 133.368704 
L 272.902764 133.47135 
L 272.979841 133.010833 
L 273.01838 133.136554 
L 273.172536 133.438685 
L 273.172536 133.438685 
" style="fill:none;stroke:#1f77b4;stroke-linecap:square;stroke-width:1.5;"/>
   </g>
   <g id="patch_3">
    <path d="M 30.417839 140.767895 
L 30.417839 1 
" style="fill:none;stroke:#000000;stroke-linecap:square;stroke-linejoin:miter;stroke-width:0.8;"/>
   </g>
   <g id="patch_4">
    <path d="M 284.732283 140.767895 
L 284.732283 1 
" style="fill:none;stroke:#000000;stroke-linecap:square;stroke-linejoin:miter;stroke-width:0.8;"/>
   </g>
   <g id="patch_5">
    <path d="M 30.417839 140.767895 
L 284.732283 140.767895 
" style="fill:none;stroke:#000000;stroke-linecap:square;stroke-linejoin:miter;stroke-width:0.8;"/>
   </g>
   <g id="patch_6">
    <path d="M 30.417839 1 
L 284.732283 1 
" style="fill:none;stroke:#000000;stroke-linecap:square;stroke-linejoin:miter;stroke-width:0.8;"/>
   </g>
  </g>
 </g>
 <defs>
  <clipPath id="p6de50e2e0d">
   <rect height="139.767895" width="254.314445" x="30.417839" y="1"/>
  </clipPath>
 </defs>
</svg>
